M48
; DRILL file {KiCad 7.0.8-7.0.8~ubuntu22.04.1} date Sun 22 Oct 2023 18:31:17 CEST
; FORMAT={-:-/ absolute / metric / decimal}
; #@! TF.CreationDate,2023-10-22T18:31:17+02:00
; #@! TF.GenerationSoftware,Kicad,Pcbnew,7.0.8-7.0.8~ubuntu22.04.1
; #@! TF.FileFunction,Plated,1,2,PTH
FMAT,2
METRIC
; #@! TA.AperFunction,Plated,PTH,ViaDrill
T1C0.300
; #@! TA.AperFunction,Plated,PTH,ViaDrill
T2C0.400
%
G90
G05
T1
X83.6Y-86.77
X85.86Y-80.15
X86.58Y-91.26
X86.74Y-81.862
X87.5Y-91.24
X87.74Y-72.39
X88.06Y-67.87
X89.04Y-91.39
X89.52Y-85.18
X90.55Y-87.04
X90.56Y-84.38
X91.142Y-85.554
X91.25Y-83.75
X91.66Y-86.018
X91.82Y-82.39
X92.29Y-77.4
X92.33Y-81.4
X92.4Y-85.09
X92.579Y-80.345
X92.72Y-78.32
X93.27Y-84.15
X93.84Y-83.39
X94.034Y-91.78
X94.41Y-83.91
X97.27Y-80.31
X97.32Y-82.21
X98.09Y-75.57
X100.755Y-90.765
X102.31Y-91.21
X109.9Y-74.87
X109.9Y-76.916
X109.9Y-78.962
X109.9Y-81.008
X109.9Y-83.054
X109.9Y-85.1
X117.63Y-91.82
X117.8Y-88.32
X119.38Y-85.65
X120.64Y-88.94
X121.74Y-83.44
X121.75Y-84.99
X122.29Y-85.45
X122.33Y-82.03
X122.82Y-80.71
X123.075Y-84.69
X123.266Y-79.374
X123.645Y-83.84
X123.956Y-77.977
X124.03Y-68.34
X124.215Y-84.55
X124.25Y-76.81
X124.44Y-71.21
X124.66Y-85.19
X124.71Y-75.53
X124.927Y-72.113
X125.05Y-74.38
X125.24Y-85.77
X125.282Y-73.248
X125.91Y-81.07
X126.656Y-81.568
X127.09Y-80.04
X127.68Y-80.86
X128.3Y-79.79
X129.28Y-91.93
X131.9Y-88.93
X132.03Y-88.02
X132.38Y-64.65
X133.62Y-91.91
X134.04Y-83.83
X134.91Y-70.79
X137.85Y-75.26
T2
X86.24Y-67.97
X89.25Y-67.957
X98.26Y-67.9
X100.74Y-67.85
X118.52Y-67.66
X119.77Y-91.82
X121.53Y-67.647
X130.54Y-67.59
X133.02Y-67.54
T0
M30
