%TF.GenerationSoftware,KiCad,Pcbnew,7.0.8-7.0.8~ubuntu22.04.1*%
%TF.CreationDate,2023-10-22T18:31:15+02:00*%
%TF.ProjectId,extension-cable,65787465-6e73-4696-9f6e-2d6361626c65,rev?*%
%TF.SameCoordinates,Original*%
%TF.FileFunction,Drillmap*%
%TF.FilePolarity,Positive*%
%FSLAX45Y45*%
G04 Gerber Fmt 4.5, Leading zero omitted, Abs format (unit mm)*
G04 Created by KiCad (PCBNEW 7.0.8-7.0.8~ubuntu22.04.1) date 2023-10-22 18:31:15*
%MOMM*%
%LPD*%
G01*
G04 APERTURE LIST*
%ADD10C,0.100000*%
%ADD11C,0.200000*%
%ADD12C,0.220000*%
G04 APERTURE END LIST*
D10*
X14230000Y-9850000D02*
X11030000Y-9850000D01*
X11030000Y-6150000D02*
X11030000Y-7400000D01*
X10950000Y-9850000D02*
X7747000Y-9850000D01*
X11030000Y-8600000D02*
X11030000Y-9850000D01*
X10950000Y-8600000D02*
X10950000Y-9850000D01*
X14230000Y-9850000D02*
X14230000Y-6150000D01*
X10950000Y-7400000D02*
X11030000Y-7400000D01*
X10950000Y-8600000D02*
X11030000Y-8600000D01*
X10950000Y-6150000D02*
X10950000Y-7400000D01*
X11030000Y-6150000D02*
X14230000Y-6150000D01*
X7747000Y-9850000D02*
X7747000Y-6150000D01*
X7747000Y-6150000D02*
X10950000Y-6150000D01*
D11*
D12*
X7944000Y-7836000D02*
X8164000Y-8056000D01*
X8164000Y-7836000D02*
X7944000Y-8056000D01*
X10532000Y-7836000D02*
X10752000Y-8056000D01*
X10752000Y-7836000D02*
X10532000Y-8056000D01*
X11268000Y-7836000D02*
X11488000Y-8056000D01*
X11488000Y-7836000D02*
X11268000Y-8056000D01*
X13771000Y-7836000D02*
X13991000Y-8056000D01*
X13991000Y-7836000D02*
X13771000Y-8056000D01*
D11*
X8002777Y-10166484D02*
X8002777Y-9966484D01*
X8002777Y-9966484D02*
X8050396Y-9966484D01*
X8050396Y-9966484D02*
X8078967Y-9976008D01*
X8078967Y-9976008D02*
X8098015Y-9995055D01*
X8098015Y-9995055D02*
X8107539Y-10014103D01*
X8107539Y-10014103D02*
X8117062Y-10052198D01*
X8117062Y-10052198D02*
X8117062Y-10080770D01*
X8117062Y-10080770D02*
X8107539Y-10118865D01*
X8107539Y-10118865D02*
X8098015Y-10137912D01*
X8098015Y-10137912D02*
X8078967Y-10156960D01*
X8078967Y-10156960D02*
X8050396Y-10166484D01*
X8050396Y-10166484D02*
X8002777Y-10166484D01*
X8202777Y-10166484D02*
X8202777Y-10033150D01*
X8202777Y-10071246D02*
X8212301Y-10052198D01*
X8212301Y-10052198D02*
X8221824Y-10042674D01*
X8221824Y-10042674D02*
X8240872Y-10033150D01*
X8240872Y-10033150D02*
X8259920Y-10033150D01*
X8326586Y-10166484D02*
X8326586Y-10033150D01*
X8326586Y-9966484D02*
X8317062Y-9976008D01*
X8317062Y-9976008D02*
X8326586Y-9985531D01*
X8326586Y-9985531D02*
X8336110Y-9976008D01*
X8336110Y-9976008D02*
X8326586Y-9966484D01*
X8326586Y-9966484D02*
X8326586Y-9985531D01*
X8450396Y-10166484D02*
X8431348Y-10156960D01*
X8431348Y-10156960D02*
X8421824Y-10137912D01*
X8421824Y-10137912D02*
X8421824Y-9966484D01*
X8555158Y-10166484D02*
X8536110Y-10156960D01*
X8536110Y-10156960D02*
X8526586Y-10137912D01*
X8526586Y-10137912D02*
X8526586Y-9966484D01*
X8783729Y-10166484D02*
X8783729Y-9966484D01*
X8783729Y-9966484D02*
X8850396Y-10109341D01*
X8850396Y-10109341D02*
X8917063Y-9966484D01*
X8917063Y-9966484D02*
X8917063Y-10166484D01*
X9098015Y-10166484D02*
X9098015Y-10061722D01*
X9098015Y-10061722D02*
X9088491Y-10042674D01*
X9088491Y-10042674D02*
X9069444Y-10033150D01*
X9069444Y-10033150D02*
X9031348Y-10033150D01*
X9031348Y-10033150D02*
X9012301Y-10042674D01*
X9098015Y-10156960D02*
X9078967Y-10166484D01*
X9078967Y-10166484D02*
X9031348Y-10166484D01*
X9031348Y-10166484D02*
X9012301Y-10156960D01*
X9012301Y-10156960D02*
X9002777Y-10137912D01*
X9002777Y-10137912D02*
X9002777Y-10118865D01*
X9002777Y-10118865D02*
X9012301Y-10099817D01*
X9012301Y-10099817D02*
X9031348Y-10090293D01*
X9031348Y-10090293D02*
X9078967Y-10090293D01*
X9078967Y-10090293D02*
X9098015Y-10080770D01*
X9193253Y-10033150D02*
X9193253Y-10233150D01*
X9193253Y-10042674D02*
X9212301Y-10033150D01*
X9212301Y-10033150D02*
X9250396Y-10033150D01*
X9250396Y-10033150D02*
X9269444Y-10042674D01*
X9269444Y-10042674D02*
X9278967Y-10052198D01*
X9278967Y-10052198D02*
X9288491Y-10071246D01*
X9288491Y-10071246D02*
X9288491Y-10128389D01*
X9288491Y-10128389D02*
X9278967Y-10147436D01*
X9278967Y-10147436D02*
X9269444Y-10156960D01*
X9269444Y-10156960D02*
X9250396Y-10166484D01*
X9250396Y-10166484D02*
X9212301Y-10166484D01*
X9212301Y-10166484D02*
X9193253Y-10156960D01*
X9374205Y-10147436D02*
X9383729Y-10156960D01*
X9383729Y-10156960D02*
X9374205Y-10166484D01*
X9374205Y-10166484D02*
X9364682Y-10156960D01*
X9364682Y-10156960D02*
X9374205Y-10147436D01*
X9374205Y-10147436D02*
X9374205Y-10166484D01*
X9374205Y-10042674D02*
X9383729Y-10052198D01*
X9383729Y-10052198D02*
X9374205Y-10061722D01*
X9374205Y-10061722D02*
X9364682Y-10052198D01*
X9364682Y-10052198D02*
X9374205Y-10042674D01*
X9374205Y-10042674D02*
X9374205Y-10061722D01*
X7542000Y-10395000D02*
X7742000Y-10595000D01*
X7742000Y-10395000D02*
X7542000Y-10595000D01*
X7993253Y-10405531D02*
X8002777Y-10396008D01*
X8002777Y-10396008D02*
X8021824Y-10386484D01*
X8021824Y-10386484D02*
X8069443Y-10386484D01*
X8069443Y-10386484D02*
X8088491Y-10396008D01*
X8088491Y-10396008D02*
X8098015Y-10405531D01*
X8098015Y-10405531D02*
X8107539Y-10424579D01*
X8107539Y-10424579D02*
X8107539Y-10443627D01*
X8107539Y-10443627D02*
X8098015Y-10472198D01*
X8098015Y-10472198D02*
X7983729Y-10586484D01*
X7983729Y-10586484D02*
X8107539Y-10586484D01*
X8193253Y-10567436D02*
X8202777Y-10576960D01*
X8202777Y-10576960D02*
X8193253Y-10586484D01*
X8193253Y-10586484D02*
X8183729Y-10576960D01*
X8183729Y-10576960D02*
X8193253Y-10567436D01*
X8193253Y-10567436D02*
X8193253Y-10586484D01*
X8278967Y-10405531D02*
X8288491Y-10396008D01*
X8288491Y-10396008D02*
X8307539Y-10386484D01*
X8307539Y-10386484D02*
X8355158Y-10386484D01*
X8355158Y-10386484D02*
X8374205Y-10396008D01*
X8374205Y-10396008D02*
X8383729Y-10405531D01*
X8383729Y-10405531D02*
X8393253Y-10424579D01*
X8393253Y-10424579D02*
X8393253Y-10443627D01*
X8393253Y-10443627D02*
X8383729Y-10472198D01*
X8383729Y-10472198D02*
X8269443Y-10586484D01*
X8269443Y-10586484D02*
X8393253Y-10586484D01*
X8517063Y-10386484D02*
X8536110Y-10386484D01*
X8536110Y-10386484D02*
X8555158Y-10396008D01*
X8555158Y-10396008D02*
X8564682Y-10405531D01*
X8564682Y-10405531D02*
X8574205Y-10424579D01*
X8574205Y-10424579D02*
X8583729Y-10462674D01*
X8583729Y-10462674D02*
X8583729Y-10510293D01*
X8583729Y-10510293D02*
X8574205Y-10548389D01*
X8574205Y-10548389D02*
X8564682Y-10567436D01*
X8564682Y-10567436D02*
X8555158Y-10576960D01*
X8555158Y-10576960D02*
X8536110Y-10586484D01*
X8536110Y-10586484D02*
X8517063Y-10586484D01*
X8517063Y-10586484D02*
X8498015Y-10576960D01*
X8498015Y-10576960D02*
X8488491Y-10567436D01*
X8488491Y-10567436D02*
X8478967Y-10548389D01*
X8478967Y-10548389D02*
X8469444Y-10510293D01*
X8469444Y-10510293D02*
X8469444Y-10462674D01*
X8469444Y-10462674D02*
X8478967Y-10424579D01*
X8478967Y-10424579D02*
X8488491Y-10405531D01*
X8488491Y-10405531D02*
X8498015Y-10396008D01*
X8498015Y-10396008D02*
X8517063Y-10386484D01*
X8707539Y-10386484D02*
X8726586Y-10386484D01*
X8726586Y-10386484D02*
X8745634Y-10396008D01*
X8745634Y-10396008D02*
X8755158Y-10405531D01*
X8755158Y-10405531D02*
X8764682Y-10424579D01*
X8764682Y-10424579D02*
X8774205Y-10462674D01*
X8774205Y-10462674D02*
X8774205Y-10510293D01*
X8774205Y-10510293D02*
X8764682Y-10548389D01*
X8764682Y-10548389D02*
X8755158Y-10567436D01*
X8755158Y-10567436D02*
X8745634Y-10576960D01*
X8745634Y-10576960D02*
X8726586Y-10586484D01*
X8726586Y-10586484D02*
X8707539Y-10586484D01*
X8707539Y-10586484D02*
X8688491Y-10576960D01*
X8688491Y-10576960D02*
X8678967Y-10567436D01*
X8678967Y-10567436D02*
X8669444Y-10548389D01*
X8669444Y-10548389D02*
X8659920Y-10510293D01*
X8659920Y-10510293D02*
X8659920Y-10462674D01*
X8659920Y-10462674D02*
X8669444Y-10424579D01*
X8669444Y-10424579D02*
X8678967Y-10405531D01*
X8678967Y-10405531D02*
X8688491Y-10396008D01*
X8688491Y-10396008D02*
X8707539Y-10386484D01*
X8859920Y-10586484D02*
X8859920Y-10453150D01*
X8859920Y-10472198D02*
X8869444Y-10462674D01*
X8869444Y-10462674D02*
X8888491Y-10453150D01*
X8888491Y-10453150D02*
X8917063Y-10453150D01*
X8917063Y-10453150D02*
X8936110Y-10462674D01*
X8936110Y-10462674D02*
X8945634Y-10481722D01*
X8945634Y-10481722D02*
X8945634Y-10586484D01*
X8945634Y-10481722D02*
X8955158Y-10462674D01*
X8955158Y-10462674D02*
X8974205Y-10453150D01*
X8974205Y-10453150D02*
X9002777Y-10453150D01*
X9002777Y-10453150D02*
X9021825Y-10462674D01*
X9021825Y-10462674D02*
X9031348Y-10481722D01*
X9031348Y-10481722D02*
X9031348Y-10586484D01*
X9126586Y-10586484D02*
X9126586Y-10453150D01*
X9126586Y-10472198D02*
X9136110Y-10462674D01*
X9136110Y-10462674D02*
X9155158Y-10453150D01*
X9155158Y-10453150D02*
X9183729Y-10453150D01*
X9183729Y-10453150D02*
X9202777Y-10462674D01*
X9202777Y-10462674D02*
X9212301Y-10481722D01*
X9212301Y-10481722D02*
X9212301Y-10586484D01*
X9212301Y-10481722D02*
X9221825Y-10462674D01*
X9221825Y-10462674D02*
X9240872Y-10453150D01*
X9240872Y-10453150D02*
X9269444Y-10453150D01*
X9269444Y-10453150D02*
X9288491Y-10462674D01*
X9288491Y-10462674D02*
X9298015Y-10481722D01*
X9298015Y-10481722D02*
X9298015Y-10586484D01*
X9688491Y-10376960D02*
X9517063Y-10634103D01*
X9945634Y-10386484D02*
X9964682Y-10386484D01*
X9964682Y-10386484D02*
X9983729Y-10396008D01*
X9983729Y-10396008D02*
X9993253Y-10405531D01*
X9993253Y-10405531D02*
X10002777Y-10424579D01*
X10002777Y-10424579D02*
X10012301Y-10462674D01*
X10012301Y-10462674D02*
X10012301Y-10510293D01*
X10012301Y-10510293D02*
X10002777Y-10548389D01*
X10002777Y-10548389D02*
X9993253Y-10567436D01*
X9993253Y-10567436D02*
X9983729Y-10576960D01*
X9983729Y-10576960D02*
X9964682Y-10586484D01*
X9964682Y-10586484D02*
X9945634Y-10586484D01*
X9945634Y-10586484D02*
X9926587Y-10576960D01*
X9926587Y-10576960D02*
X9917063Y-10567436D01*
X9917063Y-10567436D02*
X9907539Y-10548389D01*
X9907539Y-10548389D02*
X9898015Y-10510293D01*
X9898015Y-10510293D02*
X9898015Y-10462674D01*
X9898015Y-10462674D02*
X9907539Y-10424579D01*
X9907539Y-10424579D02*
X9917063Y-10405531D01*
X9917063Y-10405531D02*
X9926587Y-10396008D01*
X9926587Y-10396008D02*
X9945634Y-10386484D01*
X10098015Y-10567436D02*
X10107539Y-10576960D01*
X10107539Y-10576960D02*
X10098015Y-10586484D01*
X10098015Y-10586484D02*
X10088491Y-10576960D01*
X10088491Y-10576960D02*
X10098015Y-10567436D01*
X10098015Y-10567436D02*
X10098015Y-10586484D01*
X10231348Y-10386484D02*
X10250396Y-10386484D01*
X10250396Y-10386484D02*
X10269444Y-10396008D01*
X10269444Y-10396008D02*
X10278968Y-10405531D01*
X10278968Y-10405531D02*
X10288491Y-10424579D01*
X10288491Y-10424579D02*
X10298015Y-10462674D01*
X10298015Y-10462674D02*
X10298015Y-10510293D01*
X10298015Y-10510293D02*
X10288491Y-10548389D01*
X10288491Y-10548389D02*
X10278968Y-10567436D01*
X10278968Y-10567436D02*
X10269444Y-10576960D01*
X10269444Y-10576960D02*
X10250396Y-10586484D01*
X10250396Y-10586484D02*
X10231348Y-10586484D01*
X10231348Y-10586484D02*
X10212301Y-10576960D01*
X10212301Y-10576960D02*
X10202777Y-10567436D01*
X10202777Y-10567436D02*
X10193253Y-10548389D01*
X10193253Y-10548389D02*
X10183729Y-10510293D01*
X10183729Y-10510293D02*
X10183729Y-10462674D01*
X10183729Y-10462674D02*
X10193253Y-10424579D01*
X10193253Y-10424579D02*
X10202777Y-10405531D01*
X10202777Y-10405531D02*
X10212301Y-10396008D01*
X10212301Y-10396008D02*
X10231348Y-10386484D01*
X10412301Y-10472198D02*
X10393253Y-10462674D01*
X10393253Y-10462674D02*
X10383729Y-10453150D01*
X10383729Y-10453150D02*
X10374206Y-10434103D01*
X10374206Y-10434103D02*
X10374206Y-10424579D01*
X10374206Y-10424579D02*
X10383729Y-10405531D01*
X10383729Y-10405531D02*
X10393253Y-10396008D01*
X10393253Y-10396008D02*
X10412301Y-10386484D01*
X10412301Y-10386484D02*
X10450396Y-10386484D01*
X10450396Y-10386484D02*
X10469444Y-10396008D01*
X10469444Y-10396008D02*
X10478968Y-10405531D01*
X10478968Y-10405531D02*
X10488491Y-10424579D01*
X10488491Y-10424579D02*
X10488491Y-10434103D01*
X10488491Y-10434103D02*
X10478968Y-10453150D01*
X10478968Y-10453150D02*
X10469444Y-10462674D01*
X10469444Y-10462674D02*
X10450396Y-10472198D01*
X10450396Y-10472198D02*
X10412301Y-10472198D01*
X10412301Y-10472198D02*
X10393253Y-10481722D01*
X10393253Y-10481722D02*
X10383729Y-10491246D01*
X10383729Y-10491246D02*
X10374206Y-10510293D01*
X10374206Y-10510293D02*
X10374206Y-10548389D01*
X10374206Y-10548389D02*
X10383729Y-10567436D01*
X10383729Y-10567436D02*
X10393253Y-10576960D01*
X10393253Y-10576960D02*
X10412301Y-10586484D01*
X10412301Y-10586484D02*
X10450396Y-10586484D01*
X10450396Y-10586484D02*
X10469444Y-10576960D01*
X10469444Y-10576960D02*
X10478968Y-10567436D01*
X10478968Y-10567436D02*
X10488491Y-10548389D01*
X10488491Y-10548389D02*
X10488491Y-10510293D01*
X10488491Y-10510293D02*
X10478968Y-10491246D01*
X10478968Y-10491246D02*
X10469444Y-10481722D01*
X10469444Y-10481722D02*
X10450396Y-10472198D01*
X10659920Y-10386484D02*
X10621825Y-10386484D01*
X10621825Y-10386484D02*
X10602777Y-10396008D01*
X10602777Y-10396008D02*
X10593253Y-10405531D01*
X10593253Y-10405531D02*
X10574206Y-10434103D01*
X10574206Y-10434103D02*
X10564682Y-10472198D01*
X10564682Y-10472198D02*
X10564682Y-10548389D01*
X10564682Y-10548389D02*
X10574206Y-10567436D01*
X10574206Y-10567436D02*
X10583729Y-10576960D01*
X10583729Y-10576960D02*
X10602777Y-10586484D01*
X10602777Y-10586484D02*
X10640872Y-10586484D01*
X10640872Y-10586484D02*
X10659920Y-10576960D01*
X10659920Y-10576960D02*
X10669444Y-10567436D01*
X10669444Y-10567436D02*
X10678968Y-10548389D01*
X10678968Y-10548389D02*
X10678968Y-10500770D01*
X10678968Y-10500770D02*
X10669444Y-10481722D01*
X10669444Y-10481722D02*
X10659920Y-10472198D01*
X10659920Y-10472198D02*
X10640872Y-10462674D01*
X10640872Y-10462674D02*
X10602777Y-10462674D01*
X10602777Y-10462674D02*
X10583729Y-10472198D01*
X10583729Y-10472198D02*
X10574206Y-10481722D01*
X10574206Y-10481722D02*
X10564682Y-10500770D01*
X10850396Y-10386484D02*
X10812301Y-10386484D01*
X10812301Y-10386484D02*
X10793253Y-10396008D01*
X10793253Y-10396008D02*
X10783729Y-10405531D01*
X10783729Y-10405531D02*
X10764682Y-10434103D01*
X10764682Y-10434103D02*
X10755158Y-10472198D01*
X10755158Y-10472198D02*
X10755158Y-10548389D01*
X10755158Y-10548389D02*
X10764682Y-10567436D01*
X10764682Y-10567436D02*
X10774206Y-10576960D01*
X10774206Y-10576960D02*
X10793253Y-10586484D01*
X10793253Y-10586484D02*
X10831349Y-10586484D01*
X10831349Y-10586484D02*
X10850396Y-10576960D01*
X10850396Y-10576960D02*
X10859920Y-10567436D01*
X10859920Y-10567436D02*
X10869444Y-10548389D01*
X10869444Y-10548389D02*
X10869444Y-10500770D01*
X10869444Y-10500770D02*
X10859920Y-10481722D01*
X10859920Y-10481722D02*
X10850396Y-10472198D01*
X10850396Y-10472198D02*
X10831349Y-10462674D01*
X10831349Y-10462674D02*
X10793253Y-10462674D01*
X10793253Y-10462674D02*
X10774206Y-10472198D01*
X10774206Y-10472198D02*
X10764682Y-10481722D01*
X10764682Y-10481722D02*
X10755158Y-10500770D01*
X10945634Y-10386484D02*
X10945634Y-10424579D01*
X11021825Y-10386484D02*
X11021825Y-10424579D01*
X11317063Y-10662674D02*
X11307539Y-10653150D01*
X11307539Y-10653150D02*
X11288491Y-10624579D01*
X11288491Y-10624579D02*
X11278968Y-10605531D01*
X11278968Y-10605531D02*
X11269444Y-10576960D01*
X11269444Y-10576960D02*
X11259920Y-10529341D01*
X11259920Y-10529341D02*
X11259920Y-10491246D01*
X11259920Y-10491246D02*
X11269444Y-10443627D01*
X11269444Y-10443627D02*
X11278968Y-10415055D01*
X11278968Y-10415055D02*
X11288491Y-10396008D01*
X11288491Y-10396008D02*
X11307539Y-10367436D01*
X11307539Y-10367436D02*
X11317063Y-10357912D01*
X11478968Y-10453150D02*
X11478968Y-10586484D01*
X11431348Y-10376960D02*
X11383729Y-10519817D01*
X11383729Y-10519817D02*
X11507539Y-10519817D01*
X11736110Y-10586484D02*
X11736110Y-10386484D01*
X11821825Y-10586484D02*
X11821825Y-10481722D01*
X11821825Y-10481722D02*
X11812301Y-10462674D01*
X11812301Y-10462674D02*
X11793253Y-10453150D01*
X11793253Y-10453150D02*
X11764682Y-10453150D01*
X11764682Y-10453150D02*
X11745634Y-10462674D01*
X11745634Y-10462674D02*
X11736110Y-10472198D01*
X11945634Y-10586484D02*
X11926587Y-10576960D01*
X11926587Y-10576960D02*
X11917063Y-10567436D01*
X11917063Y-10567436D02*
X11907539Y-10548389D01*
X11907539Y-10548389D02*
X11907539Y-10491246D01*
X11907539Y-10491246D02*
X11917063Y-10472198D01*
X11917063Y-10472198D02*
X11926587Y-10462674D01*
X11926587Y-10462674D02*
X11945634Y-10453150D01*
X11945634Y-10453150D02*
X11974206Y-10453150D01*
X11974206Y-10453150D02*
X11993253Y-10462674D01*
X11993253Y-10462674D02*
X12002777Y-10472198D01*
X12002777Y-10472198D02*
X12012301Y-10491246D01*
X12012301Y-10491246D02*
X12012301Y-10548389D01*
X12012301Y-10548389D02*
X12002777Y-10567436D01*
X12002777Y-10567436D02*
X11993253Y-10576960D01*
X11993253Y-10576960D02*
X11974206Y-10586484D01*
X11974206Y-10586484D02*
X11945634Y-10586484D01*
X12126587Y-10586484D02*
X12107539Y-10576960D01*
X12107539Y-10576960D02*
X12098015Y-10557912D01*
X12098015Y-10557912D02*
X12098015Y-10386484D01*
X12278968Y-10576960D02*
X12259920Y-10586484D01*
X12259920Y-10586484D02*
X12221825Y-10586484D01*
X12221825Y-10586484D02*
X12202777Y-10576960D01*
X12202777Y-10576960D02*
X12193253Y-10557912D01*
X12193253Y-10557912D02*
X12193253Y-10481722D01*
X12193253Y-10481722D02*
X12202777Y-10462674D01*
X12202777Y-10462674D02*
X12221825Y-10453150D01*
X12221825Y-10453150D02*
X12259920Y-10453150D01*
X12259920Y-10453150D02*
X12278968Y-10462674D01*
X12278968Y-10462674D02*
X12288491Y-10481722D01*
X12288491Y-10481722D02*
X12288491Y-10500770D01*
X12288491Y-10500770D02*
X12193253Y-10519817D01*
X12364682Y-10576960D02*
X12383730Y-10586484D01*
X12383730Y-10586484D02*
X12421825Y-10586484D01*
X12421825Y-10586484D02*
X12440872Y-10576960D01*
X12440872Y-10576960D02*
X12450396Y-10557912D01*
X12450396Y-10557912D02*
X12450396Y-10548389D01*
X12450396Y-10548389D02*
X12440872Y-10529341D01*
X12440872Y-10529341D02*
X12421825Y-10519817D01*
X12421825Y-10519817D02*
X12393253Y-10519817D01*
X12393253Y-10519817D02*
X12374206Y-10510293D01*
X12374206Y-10510293D02*
X12364682Y-10491246D01*
X12364682Y-10491246D02*
X12364682Y-10481722D01*
X12364682Y-10481722D02*
X12374206Y-10462674D01*
X12374206Y-10462674D02*
X12393253Y-10453150D01*
X12393253Y-10453150D02*
X12421825Y-10453150D01*
X12421825Y-10453150D02*
X12440872Y-10462674D01*
X12517063Y-10662674D02*
X12526587Y-10653150D01*
X12526587Y-10653150D02*
X12545634Y-10624579D01*
X12545634Y-10624579D02*
X12555158Y-10605531D01*
X12555158Y-10605531D02*
X12564682Y-10576960D01*
X12564682Y-10576960D02*
X12574206Y-10529341D01*
X12574206Y-10529341D02*
X12574206Y-10491246D01*
X12574206Y-10491246D02*
X12564682Y-10443627D01*
X12564682Y-10443627D02*
X12555158Y-10415055D01*
X12555158Y-10415055D02*
X12545634Y-10396008D01*
X12545634Y-10396008D02*
X12526587Y-10367436D01*
X12526587Y-10367436D02*
X12517063Y-10357912D01*
X12878968Y-10662674D02*
X12869444Y-10653150D01*
X12869444Y-10653150D02*
X12850396Y-10624579D01*
X12850396Y-10624579D02*
X12840872Y-10605531D01*
X12840872Y-10605531D02*
X12831349Y-10576960D01*
X12831349Y-10576960D02*
X12821825Y-10529341D01*
X12821825Y-10529341D02*
X12821825Y-10491246D01*
X12821825Y-10491246D02*
X12831349Y-10443627D01*
X12831349Y-10443627D02*
X12840872Y-10415055D01*
X12840872Y-10415055D02*
X12850396Y-10396008D01*
X12850396Y-10396008D02*
X12869444Y-10367436D01*
X12869444Y-10367436D02*
X12878968Y-10357912D01*
X12955158Y-10453150D02*
X12955158Y-10586484D01*
X12955158Y-10472198D02*
X12964682Y-10462674D01*
X12964682Y-10462674D02*
X12983730Y-10453150D01*
X12983730Y-10453150D02*
X13012301Y-10453150D01*
X13012301Y-10453150D02*
X13031349Y-10462674D01*
X13031349Y-10462674D02*
X13040872Y-10481722D01*
X13040872Y-10481722D02*
X13040872Y-10586484D01*
X13164682Y-10586484D02*
X13145634Y-10576960D01*
X13145634Y-10576960D02*
X13136111Y-10567436D01*
X13136111Y-10567436D02*
X13126587Y-10548389D01*
X13126587Y-10548389D02*
X13126587Y-10491246D01*
X13126587Y-10491246D02*
X13136111Y-10472198D01*
X13136111Y-10472198D02*
X13145634Y-10462674D01*
X13145634Y-10462674D02*
X13164682Y-10453150D01*
X13164682Y-10453150D02*
X13193253Y-10453150D01*
X13193253Y-10453150D02*
X13212301Y-10462674D01*
X13212301Y-10462674D02*
X13221825Y-10472198D01*
X13221825Y-10472198D02*
X13231349Y-10491246D01*
X13231349Y-10491246D02*
X13231349Y-10548389D01*
X13231349Y-10548389D02*
X13221825Y-10567436D01*
X13221825Y-10567436D02*
X13212301Y-10576960D01*
X13212301Y-10576960D02*
X13193253Y-10586484D01*
X13193253Y-10586484D02*
X13164682Y-10586484D01*
X13288492Y-10453150D02*
X13364682Y-10453150D01*
X13317063Y-10386484D02*
X13317063Y-10557912D01*
X13317063Y-10557912D02*
X13326587Y-10576960D01*
X13326587Y-10576960D02*
X13345634Y-10586484D01*
X13345634Y-10586484D02*
X13364682Y-10586484D01*
X13583730Y-10453150D02*
X13583730Y-10653150D01*
X13583730Y-10462674D02*
X13602777Y-10453150D01*
X13602777Y-10453150D02*
X13640873Y-10453150D01*
X13640873Y-10453150D02*
X13659920Y-10462674D01*
X13659920Y-10462674D02*
X13669444Y-10472198D01*
X13669444Y-10472198D02*
X13678968Y-10491246D01*
X13678968Y-10491246D02*
X13678968Y-10548389D01*
X13678968Y-10548389D02*
X13669444Y-10567436D01*
X13669444Y-10567436D02*
X13659920Y-10576960D01*
X13659920Y-10576960D02*
X13640873Y-10586484D01*
X13640873Y-10586484D02*
X13602777Y-10586484D01*
X13602777Y-10586484D02*
X13583730Y-10576960D01*
X13793253Y-10586484D02*
X13774206Y-10576960D01*
X13774206Y-10576960D02*
X13764682Y-10557912D01*
X13764682Y-10557912D02*
X13764682Y-10386484D01*
X13955158Y-10586484D02*
X13955158Y-10481722D01*
X13955158Y-10481722D02*
X13945634Y-10462674D01*
X13945634Y-10462674D02*
X13926587Y-10453150D01*
X13926587Y-10453150D02*
X13888492Y-10453150D01*
X13888492Y-10453150D02*
X13869444Y-10462674D01*
X13955158Y-10576960D02*
X13936111Y-10586484D01*
X13936111Y-10586484D02*
X13888492Y-10586484D01*
X13888492Y-10586484D02*
X13869444Y-10576960D01*
X13869444Y-10576960D02*
X13859920Y-10557912D01*
X13859920Y-10557912D02*
X13859920Y-10538865D01*
X13859920Y-10538865D02*
X13869444Y-10519817D01*
X13869444Y-10519817D02*
X13888492Y-10510293D01*
X13888492Y-10510293D02*
X13936111Y-10510293D01*
X13936111Y-10510293D02*
X13955158Y-10500770D01*
X14021825Y-10453150D02*
X14098015Y-10453150D01*
X14050396Y-10386484D02*
X14050396Y-10557912D01*
X14050396Y-10557912D02*
X14059920Y-10576960D01*
X14059920Y-10576960D02*
X14078968Y-10586484D01*
X14078968Y-10586484D02*
X14098015Y-10586484D01*
X14240873Y-10576960D02*
X14221825Y-10586484D01*
X14221825Y-10586484D02*
X14183730Y-10586484D01*
X14183730Y-10586484D02*
X14164682Y-10576960D01*
X14164682Y-10576960D02*
X14155158Y-10557912D01*
X14155158Y-10557912D02*
X14155158Y-10481722D01*
X14155158Y-10481722D02*
X14164682Y-10462674D01*
X14164682Y-10462674D02*
X14183730Y-10453150D01*
X14183730Y-10453150D02*
X14221825Y-10453150D01*
X14221825Y-10453150D02*
X14240873Y-10462674D01*
X14240873Y-10462674D02*
X14250396Y-10481722D01*
X14250396Y-10481722D02*
X14250396Y-10500770D01*
X14250396Y-10500770D02*
X14155158Y-10519817D01*
X14421825Y-10586484D02*
X14421825Y-10386484D01*
X14421825Y-10576960D02*
X14402777Y-10586484D01*
X14402777Y-10586484D02*
X14364682Y-10586484D01*
X14364682Y-10586484D02*
X14345634Y-10576960D01*
X14345634Y-10576960D02*
X14336111Y-10567436D01*
X14336111Y-10567436D02*
X14326587Y-10548389D01*
X14326587Y-10548389D02*
X14326587Y-10491246D01*
X14326587Y-10491246D02*
X14336111Y-10472198D01*
X14336111Y-10472198D02*
X14345634Y-10462674D01*
X14345634Y-10462674D02*
X14364682Y-10453150D01*
X14364682Y-10453150D02*
X14402777Y-10453150D01*
X14402777Y-10453150D02*
X14421825Y-10462674D01*
X14498015Y-10662674D02*
X14507539Y-10653150D01*
X14507539Y-10653150D02*
X14526587Y-10624579D01*
X14526587Y-10624579D02*
X14536111Y-10605531D01*
X14536111Y-10605531D02*
X14545634Y-10576960D01*
X14545634Y-10576960D02*
X14555158Y-10529341D01*
X14555158Y-10529341D02*
X14555158Y-10491246D01*
X14555158Y-10491246D02*
X14545634Y-10443627D01*
X14545634Y-10443627D02*
X14536111Y-10415055D01*
X14536111Y-10415055D02*
X14526587Y-10396008D01*
X14526587Y-10396008D02*
X14507539Y-10367436D01*
X14507539Y-10367436D02*
X14498015Y-10357912D01*
M02*
