%TF.GenerationSoftware,KiCad,Pcbnew,7.0.8-7.0.8~ubuntu22.04.1*%
%TF.CreationDate,2023-10-25T08:52:20+02:00*%
%TF.ProjectId,extension-cable,65787465-6e73-4696-9f6e-2d6361626c65,rev?*%
%TF.SameCoordinates,Original*%
%TF.FileFunction,Legend,Top*%
%TF.FilePolarity,Positive*%
%FSLAX46Y46*%
G04 Gerber Fmt 4.6, Leading zero omitted, Abs format (unit mm)*
G04 Created by KiCad (PCBNEW 7.0.8-7.0.8~ubuntu22.04.1) date 2023-10-25 08:52:20*
%MOMM*%
%LPD*%
G01*
G04 APERTURE LIST*
G04 Aperture macros list*
%AMRoundRect*
0 Rectangle with rounded corners*
0 $1 Rounding radius*
0 $2 $3 $4 $5 $6 $7 $8 $9 X,Y pos of 4 corners*
0 Add a 4 corners polygon primitive as box body*
4,1,4,$2,$3,$4,$5,$6,$7,$8,$9,$2,$3,0*
0 Add four circle primitives for the rounded corners*
1,1,$1+$1,$2,$3*
1,1,$1+$1,$4,$5*
1,1,$1+$1,$6,$7*
1,1,$1+$1,$8,$9*
0 Add four rect primitives between the rounded corners*
20,1,$1+$1,$2,$3,$4,$5,0*
20,1,$1+$1,$4,$5,$6,$7,0*
20,1,$1+$1,$6,$7,$8,$9,0*
20,1,$1+$1,$8,$9,$2,$3,0*%
G04 Aperture macros list end*
%ADD10C,0.150000*%
%ADD11C,0.140000*%
%ADD12C,0.300000*%
%ADD13C,0.254000*%
%ADD14C,0.120000*%
%ADD15C,0.200000*%
%ADD16C,0.100000*%
%ADD17C,0.152400*%
%ADD18RoundRect,0.200000X-0.200000X-0.275000X0.200000X-0.275000X0.200000X0.275000X-0.200000X0.275000X0*%
%ADD19RoundRect,0.200000X-0.275000X0.200000X-0.275000X-0.200000X0.275000X-0.200000X0.275000X0.200000X0*%
%ADD20RoundRect,0.243750X-0.243750X-0.456250X0.243750X-0.456250X0.243750X0.456250X-0.243750X0.456250X0*%
%ADD21R,2.000000X2.000000*%
%ADD22C,1.650000*%
%ADD23R,0.800000X2.000000*%
%ADD24R,1.500000X2.000000*%
%ADD25C,2.200000*%
%ADD26RoundRect,0.200000X0.200000X0.275000X-0.200000X0.275000X-0.200000X-0.275000X0.200000X-0.275000X0*%
%ADD27R,0.300000X1.300000*%
%ADD28R,1.800000X2.200000*%
%ADD29R,1.700000X1.700000*%
%ADD30O,1.700000X1.700000*%
%ADD31R,0.609600X0.355600*%
G04 APERTURE END LIST*
D10*
X92648095Y-88710057D02*
X92695714Y-88662438D01*
X92695714Y-88662438D02*
X92790952Y-88614819D01*
X92790952Y-88614819D02*
X93029047Y-88614819D01*
X93029047Y-88614819D02*
X93124285Y-88662438D01*
X93124285Y-88662438D02*
X93171904Y-88710057D01*
X93171904Y-88710057D02*
X93219523Y-88805295D01*
X93219523Y-88805295D02*
X93219523Y-88900533D01*
X93219523Y-88900533D02*
X93171904Y-89043390D01*
X93171904Y-89043390D02*
X92600476Y-89614819D01*
X92600476Y-89614819D02*
X93219523Y-89614819D01*
X93838571Y-88614819D02*
X93933809Y-88614819D01*
X93933809Y-88614819D02*
X94029047Y-88662438D01*
X94029047Y-88662438D02*
X94076666Y-88710057D01*
X94076666Y-88710057D02*
X94124285Y-88805295D01*
X94124285Y-88805295D02*
X94171904Y-88995771D01*
X94171904Y-88995771D02*
X94171904Y-89233866D01*
X94171904Y-89233866D02*
X94124285Y-89424342D01*
X94124285Y-89424342D02*
X94076666Y-89519580D01*
X94076666Y-89519580D02*
X94029047Y-89567200D01*
X94029047Y-89567200D02*
X93933809Y-89614819D01*
X93933809Y-89614819D02*
X93838571Y-89614819D01*
X93838571Y-89614819D02*
X93743333Y-89567200D01*
X93743333Y-89567200D02*
X93695714Y-89519580D01*
X93695714Y-89519580D02*
X93648095Y-89424342D01*
X93648095Y-89424342D02*
X93600476Y-89233866D01*
X93600476Y-89233866D02*
X93600476Y-88995771D01*
X93600476Y-88995771D02*
X93648095Y-88805295D01*
X93648095Y-88805295D02*
X93695714Y-88710057D01*
X93695714Y-88710057D02*
X93743333Y-88662438D01*
X93743333Y-88662438D02*
X93838571Y-88614819D01*
X93410000Y-90462914D02*
X93410000Y-91224819D01*
X93600476Y-91034342D02*
X93410000Y-91224819D01*
X93410000Y-91224819D02*
X93219524Y-91034342D01*
X139555529Y-93688220D02*
X138555529Y-93688220D01*
X138555529Y-93688220D02*
X138555529Y-93450125D01*
X138555529Y-93450125D02*
X138603148Y-93307268D01*
X138603148Y-93307268D02*
X138698386Y-93212030D01*
X138698386Y-93212030D02*
X138793624Y-93164411D01*
X138793624Y-93164411D02*
X138984100Y-93116792D01*
X138984100Y-93116792D02*
X139126957Y-93116792D01*
X139126957Y-93116792D02*
X139317433Y-93164411D01*
X139317433Y-93164411D02*
X139412671Y-93212030D01*
X139412671Y-93212030D02*
X139507910Y-93307268D01*
X139507910Y-93307268D02*
X139555529Y-93450125D01*
X139555529Y-93450125D02*
X139555529Y-93688220D01*
X139269814Y-92735839D02*
X139269814Y-92259649D01*
X139555529Y-92831077D02*
X138555529Y-92497744D01*
X138555529Y-92497744D02*
X139555529Y-92164411D01*
X138555529Y-91973934D02*
X138555529Y-91402506D01*
X139555529Y-91688220D02*
X138555529Y-91688220D01*
X139555529Y-90545363D02*
X139555529Y-91116791D01*
X139555529Y-90831077D02*
X138555529Y-90831077D01*
X138555529Y-90831077D02*
X138698386Y-90926315D01*
X138698386Y-90926315D02*
X138793624Y-91021553D01*
X138793624Y-91021553D02*
X138841243Y-91116791D01*
D11*
X71852581Y-64652720D02*
X71995438Y-64700339D01*
X71995438Y-64700339D02*
X72233533Y-64700339D01*
X72233533Y-64700339D02*
X72328771Y-64652720D01*
X72328771Y-64652720D02*
X72376390Y-64605100D01*
X72376390Y-64605100D02*
X72424009Y-64509862D01*
X72424009Y-64509862D02*
X72424009Y-64414624D01*
X72424009Y-64414624D02*
X72376390Y-64319386D01*
X72376390Y-64319386D02*
X72328771Y-64271767D01*
X72328771Y-64271767D02*
X72233533Y-64224148D01*
X72233533Y-64224148D02*
X72043057Y-64176529D01*
X72043057Y-64176529D02*
X71947819Y-64128910D01*
X71947819Y-64128910D02*
X71900200Y-64081291D01*
X71900200Y-64081291D02*
X71852581Y-63986053D01*
X71852581Y-63986053D02*
X71852581Y-63890815D01*
X71852581Y-63890815D02*
X71900200Y-63795577D01*
X71900200Y-63795577D02*
X71947819Y-63747958D01*
X71947819Y-63747958D02*
X72043057Y-63700339D01*
X72043057Y-63700339D02*
X72281152Y-63700339D01*
X72281152Y-63700339D02*
X72424009Y-63747958D01*
X72852581Y-64700339D02*
X72852581Y-63700339D01*
X73852580Y-63747958D02*
X73757342Y-63700339D01*
X73757342Y-63700339D02*
X73614485Y-63700339D01*
X73614485Y-63700339D02*
X73471628Y-63747958D01*
X73471628Y-63747958D02*
X73376390Y-63843196D01*
X73376390Y-63843196D02*
X73328771Y-63938434D01*
X73328771Y-63938434D02*
X73281152Y-64128910D01*
X73281152Y-64128910D02*
X73281152Y-64271767D01*
X73281152Y-64271767D02*
X73328771Y-64462243D01*
X73328771Y-64462243D02*
X73376390Y-64557481D01*
X73376390Y-64557481D02*
X73471628Y-64652720D01*
X73471628Y-64652720D02*
X73614485Y-64700339D01*
X73614485Y-64700339D02*
X73709723Y-64700339D01*
X73709723Y-64700339D02*
X73852580Y-64652720D01*
X73852580Y-64652720D02*
X73900199Y-64605100D01*
X73900199Y-64605100D02*
X73900199Y-64271767D01*
X73900199Y-64271767D02*
X73709723Y-64271767D01*
X74328771Y-64700339D02*
X74328771Y-63700339D01*
X74328771Y-63700339D02*
X74900199Y-64700339D01*
X74900199Y-64700339D02*
X74900199Y-63700339D01*
X75328771Y-64414624D02*
X75804961Y-64414624D01*
X75233533Y-64700339D02*
X75566866Y-63700339D01*
X75566866Y-63700339D02*
X75900199Y-64700339D01*
X76709723Y-64700339D02*
X76233533Y-64700339D01*
X76233533Y-64700339D02*
X76233533Y-63700339D01*
X76995438Y-64652720D02*
X77138295Y-64700339D01*
X77138295Y-64700339D02*
X77376390Y-64700339D01*
X77376390Y-64700339D02*
X77471628Y-64652720D01*
X77471628Y-64652720D02*
X77519247Y-64605100D01*
X77519247Y-64605100D02*
X77566866Y-64509862D01*
X77566866Y-64509862D02*
X77566866Y-64414624D01*
X77566866Y-64414624D02*
X77519247Y-64319386D01*
X77519247Y-64319386D02*
X77471628Y-64271767D01*
X77471628Y-64271767D02*
X77376390Y-64224148D01*
X77376390Y-64224148D02*
X77185914Y-64176529D01*
X77185914Y-64176529D02*
X77090676Y-64128910D01*
X77090676Y-64128910D02*
X77043057Y-64081291D01*
X77043057Y-64081291D02*
X76995438Y-63986053D01*
X76995438Y-63986053D02*
X76995438Y-63890815D01*
X76995438Y-63890815D02*
X77043057Y-63795577D01*
X77043057Y-63795577D02*
X77090676Y-63747958D01*
X77090676Y-63747958D02*
X77185914Y-63700339D01*
X77185914Y-63700339D02*
X77424009Y-63700339D01*
X77424009Y-63700339D02*
X77566866Y-63747958D01*
D10*
X137016244Y-93688220D02*
X136016244Y-93688220D01*
X136016244Y-93688220D02*
X136016244Y-93450125D01*
X136016244Y-93450125D02*
X136063863Y-93307268D01*
X136063863Y-93307268D02*
X136159101Y-93212030D01*
X136159101Y-93212030D02*
X136254339Y-93164411D01*
X136254339Y-93164411D02*
X136444815Y-93116792D01*
X136444815Y-93116792D02*
X136587672Y-93116792D01*
X136587672Y-93116792D02*
X136778148Y-93164411D01*
X136778148Y-93164411D02*
X136873386Y-93212030D01*
X136873386Y-93212030D02*
X136968625Y-93307268D01*
X136968625Y-93307268D02*
X137016244Y-93450125D01*
X137016244Y-93450125D02*
X137016244Y-93688220D01*
X136730529Y-92735839D02*
X136730529Y-92259649D01*
X137016244Y-92831077D02*
X136016244Y-92497744D01*
X136016244Y-92497744D02*
X137016244Y-92164411D01*
X136016244Y-91973934D02*
X136016244Y-91402506D01*
X137016244Y-91688220D02*
X136016244Y-91688220D01*
X136111482Y-91116791D02*
X136063863Y-91069172D01*
X136063863Y-91069172D02*
X136016244Y-90973934D01*
X136016244Y-90973934D02*
X136016244Y-90735839D01*
X136016244Y-90735839D02*
X136063863Y-90640601D01*
X136063863Y-90640601D02*
X136111482Y-90592982D01*
X136111482Y-90592982D02*
X136206720Y-90545363D01*
X136206720Y-90545363D02*
X136301958Y-90545363D01*
X136301958Y-90545363D02*
X136444815Y-90592982D01*
X136444815Y-90592982D02*
X137016244Y-91164410D01*
X137016244Y-91164410D02*
X137016244Y-90545363D01*
D12*
X94337393Y-60029901D02*
X94175489Y-60110853D01*
X94175489Y-60110853D02*
X93851679Y-60110853D01*
X93851679Y-60110853D02*
X93689774Y-60029901D01*
X93689774Y-60029901D02*
X93608822Y-59867996D01*
X93608822Y-59867996D02*
X93608822Y-59220377D01*
X93608822Y-59220377D02*
X93689774Y-59058472D01*
X93689774Y-59058472D02*
X93851679Y-58977520D01*
X93851679Y-58977520D02*
X94175489Y-58977520D01*
X94175489Y-58977520D02*
X94337393Y-59058472D01*
X94337393Y-59058472D02*
X94418346Y-59220377D01*
X94418346Y-59220377D02*
X94418346Y-59382281D01*
X94418346Y-59382281D02*
X93608822Y-59544186D01*
X95146917Y-58977520D02*
X95146917Y-60677520D01*
X95146917Y-59058472D02*
X95308822Y-58977520D01*
X95308822Y-58977520D02*
X95632632Y-58977520D01*
X95632632Y-58977520D02*
X95794536Y-59058472D01*
X95794536Y-59058472D02*
X95875489Y-59139424D01*
X95875489Y-59139424D02*
X95956441Y-59301329D01*
X95956441Y-59301329D02*
X95956441Y-59787043D01*
X95956441Y-59787043D02*
X95875489Y-59948948D01*
X95875489Y-59948948D02*
X95794536Y-60029901D01*
X95794536Y-60029901D02*
X95632632Y-60110853D01*
X95632632Y-60110853D02*
X95308822Y-60110853D01*
X95308822Y-60110853D02*
X95146917Y-60029901D01*
X97413584Y-60110853D02*
X97413584Y-58410853D01*
X97413584Y-60029901D02*
X97251679Y-60110853D01*
X97251679Y-60110853D02*
X96927870Y-60110853D01*
X96927870Y-60110853D02*
X96765965Y-60029901D01*
X96765965Y-60029901D02*
X96685012Y-59948948D01*
X96685012Y-59948948D02*
X96604060Y-59787043D01*
X96604060Y-59787043D02*
X96604060Y-59301329D01*
X96604060Y-59301329D02*
X96685012Y-59139424D01*
X96685012Y-59139424D02*
X96765965Y-59058472D01*
X96765965Y-59058472D02*
X96927870Y-58977520D01*
X96927870Y-58977520D02*
X97251679Y-58977520D01*
X97251679Y-58977520D02*
X97413584Y-59058472D01*
X98223107Y-60110853D02*
X98223107Y-58977520D01*
X98223107Y-58410853D02*
X98142155Y-58491805D01*
X98142155Y-58491805D02*
X98223107Y-58572758D01*
X98223107Y-58572758D02*
X98304060Y-58491805D01*
X98304060Y-58491805D02*
X98223107Y-58410853D01*
X98223107Y-58410853D02*
X98223107Y-58572758D01*
X98870727Y-58977520D02*
X99275489Y-60110853D01*
X99680250Y-58977520D02*
X99275489Y-60110853D01*
X99275489Y-60110853D02*
X99113584Y-60515615D01*
X99113584Y-60515615D02*
X99032631Y-60596567D01*
X99032631Y-60596567D02*
X98870727Y-60677520D01*
X101461203Y-58977520D02*
X101865965Y-60110853D01*
X101865965Y-60110853D02*
X102270726Y-58977520D01*
X102756441Y-58410853D02*
X103889774Y-58410853D01*
X103889774Y-58410853D02*
X103161203Y-60110853D01*
D10*
X84195714Y-89614819D02*
X83624286Y-89614819D01*
X83910000Y-89614819D02*
X83910000Y-88614819D01*
X83910000Y-88614819D02*
X83814762Y-88757676D01*
X83814762Y-88757676D02*
X83719524Y-88852914D01*
X83719524Y-88852914D02*
X83624286Y-88900533D01*
X83910000Y-90462914D02*
X83910000Y-91224819D01*
X84100476Y-91034342D02*
X83910000Y-91224819D01*
X83910000Y-91224819D02*
X83719524Y-91034342D01*
X129303150Y-93116792D02*
X129350770Y-93164411D01*
X129350770Y-93164411D02*
X129398389Y-93307268D01*
X129398389Y-93307268D02*
X129398389Y-93402506D01*
X129398389Y-93402506D02*
X129350770Y-93545363D01*
X129350770Y-93545363D02*
X129255531Y-93640601D01*
X129255531Y-93640601D02*
X129160293Y-93688220D01*
X129160293Y-93688220D02*
X128969817Y-93735839D01*
X128969817Y-93735839D02*
X128826960Y-93735839D01*
X128826960Y-93735839D02*
X128636484Y-93688220D01*
X128636484Y-93688220D02*
X128541246Y-93640601D01*
X128541246Y-93640601D02*
X128446008Y-93545363D01*
X128446008Y-93545363D02*
X128398389Y-93402506D01*
X128398389Y-93402506D02*
X128398389Y-93307268D01*
X128398389Y-93307268D02*
X128446008Y-93164411D01*
X128446008Y-93164411D02*
X128493627Y-93116792D01*
X129398389Y-92688220D02*
X128398389Y-92688220D01*
X128398389Y-92688220D02*
X129112674Y-92354887D01*
X129112674Y-92354887D02*
X128398389Y-92021554D01*
X128398389Y-92021554D02*
X129398389Y-92021554D01*
X129398389Y-91545363D02*
X128398389Y-91545363D01*
X128398389Y-91545363D02*
X128398389Y-91307268D01*
X128398389Y-91307268D02*
X128446008Y-91164411D01*
X128446008Y-91164411D02*
X128541246Y-91069173D01*
X128541246Y-91069173D02*
X128636484Y-91021554D01*
X128636484Y-91021554D02*
X128826960Y-90973935D01*
X128826960Y-90973935D02*
X128969817Y-90973935D01*
X128969817Y-90973935D02*
X129160293Y-91021554D01*
X129160293Y-91021554D02*
X129255531Y-91069173D01*
X129255531Y-91069173D02*
X129350770Y-91164411D01*
X129350770Y-91164411D02*
X129398389Y-91307268D01*
X129398389Y-91307268D02*
X129398389Y-91545363D01*
X123367438Y-93164411D02*
X123319819Y-93259649D01*
X123319819Y-93259649D02*
X123319819Y-93402506D01*
X123319819Y-93402506D02*
X123367438Y-93545363D01*
X123367438Y-93545363D02*
X123462676Y-93640601D01*
X123462676Y-93640601D02*
X123557914Y-93688220D01*
X123557914Y-93688220D02*
X123748390Y-93735839D01*
X123748390Y-93735839D02*
X123891247Y-93735839D01*
X123891247Y-93735839D02*
X124081723Y-93688220D01*
X124081723Y-93688220D02*
X124176961Y-93640601D01*
X124176961Y-93640601D02*
X124272200Y-93545363D01*
X124272200Y-93545363D02*
X124319819Y-93402506D01*
X124319819Y-93402506D02*
X124319819Y-93307268D01*
X124319819Y-93307268D02*
X124272200Y-93164411D01*
X124272200Y-93164411D02*
X124224580Y-93116792D01*
X124224580Y-93116792D02*
X123891247Y-93116792D01*
X123891247Y-93116792D02*
X123891247Y-93307268D01*
X124319819Y-92688220D02*
X123319819Y-92688220D01*
X123319819Y-92688220D02*
X124319819Y-92116792D01*
X124319819Y-92116792D02*
X123319819Y-92116792D01*
X124319819Y-91640601D02*
X123319819Y-91640601D01*
X123319819Y-91640601D02*
X123319819Y-91402506D01*
X123319819Y-91402506D02*
X123367438Y-91259649D01*
X123367438Y-91259649D02*
X123462676Y-91164411D01*
X123462676Y-91164411D02*
X123557914Y-91116792D01*
X123557914Y-91116792D02*
X123748390Y-91069173D01*
X123748390Y-91069173D02*
X123891247Y-91069173D01*
X123891247Y-91069173D02*
X124081723Y-91116792D01*
X124081723Y-91116792D02*
X124176961Y-91164411D01*
X124176961Y-91164411D02*
X124272200Y-91259649D01*
X124272200Y-91259649D02*
X124319819Y-91402506D01*
X124319819Y-91402506D02*
X124319819Y-91640601D01*
X76655350Y-59403152D02*
X76655350Y-60069819D01*
X76417255Y-59022200D02*
X76179160Y-59736485D01*
X76179160Y-59736485D02*
X76798207Y-59736485D01*
X77369636Y-59069819D02*
X77464874Y-59069819D01*
X77464874Y-59069819D02*
X77560112Y-59117438D01*
X77560112Y-59117438D02*
X77607731Y-59165057D01*
X77607731Y-59165057D02*
X77655350Y-59260295D01*
X77655350Y-59260295D02*
X77702969Y-59450771D01*
X77702969Y-59450771D02*
X77702969Y-59688866D01*
X77702969Y-59688866D02*
X77655350Y-59879342D01*
X77655350Y-59879342D02*
X77607731Y-59974580D01*
X77607731Y-59974580D02*
X77560112Y-60022200D01*
X77560112Y-60022200D02*
X77464874Y-60069819D01*
X77464874Y-60069819D02*
X77369636Y-60069819D01*
X77369636Y-60069819D02*
X77274398Y-60022200D01*
X77274398Y-60022200D02*
X77226779Y-59974580D01*
X77226779Y-59974580D02*
X77179160Y-59879342D01*
X77179160Y-59879342D02*
X77131541Y-59688866D01*
X77131541Y-59688866D02*
X77131541Y-59450771D01*
X77131541Y-59450771D02*
X77179160Y-59260295D01*
X77179160Y-59260295D02*
X77226779Y-59165057D01*
X77226779Y-59165057D02*
X77274398Y-59117438D01*
X77274398Y-59117438D02*
X77369636Y-59069819D01*
X78893446Y-59403152D02*
X78893446Y-60403152D01*
X78893446Y-59450771D02*
X78988684Y-59403152D01*
X78988684Y-59403152D02*
X79179160Y-59403152D01*
X79179160Y-59403152D02*
X79274398Y-59450771D01*
X79274398Y-59450771D02*
X79322017Y-59498390D01*
X79322017Y-59498390D02*
X79369636Y-59593628D01*
X79369636Y-59593628D02*
X79369636Y-59879342D01*
X79369636Y-59879342D02*
X79322017Y-59974580D01*
X79322017Y-59974580D02*
X79274398Y-60022200D01*
X79274398Y-60022200D02*
X79179160Y-60069819D01*
X79179160Y-60069819D02*
X78988684Y-60069819D01*
X78988684Y-60069819D02*
X78893446Y-60022200D01*
X79798208Y-60069819D02*
X79798208Y-59403152D01*
X79798208Y-59069819D02*
X79750589Y-59117438D01*
X79750589Y-59117438D02*
X79798208Y-59165057D01*
X79798208Y-59165057D02*
X79845827Y-59117438D01*
X79845827Y-59117438D02*
X79798208Y-59069819D01*
X79798208Y-59069819D02*
X79798208Y-59165057D01*
X80274398Y-59403152D02*
X80274398Y-60069819D01*
X80274398Y-59498390D02*
X80322017Y-59450771D01*
X80322017Y-59450771D02*
X80417255Y-59403152D01*
X80417255Y-59403152D02*
X80560112Y-59403152D01*
X80560112Y-59403152D02*
X80655350Y-59450771D01*
X80655350Y-59450771D02*
X80702969Y-59546009D01*
X80702969Y-59546009D02*
X80702969Y-60069819D01*
X82464874Y-60069819D02*
X81893446Y-60069819D01*
X82179160Y-60069819D02*
X82179160Y-59069819D01*
X82179160Y-59069819D02*
X82083922Y-59212676D01*
X82083922Y-59212676D02*
X81988684Y-59307914D01*
X81988684Y-59307914D02*
X81893446Y-59355533D01*
X83322017Y-59069819D02*
X83131541Y-59069819D01*
X83131541Y-59069819D02*
X83036303Y-59117438D01*
X83036303Y-59117438D02*
X82988684Y-59165057D01*
X82988684Y-59165057D02*
X82893446Y-59307914D01*
X82893446Y-59307914D02*
X82845827Y-59498390D01*
X82845827Y-59498390D02*
X82845827Y-59879342D01*
X82845827Y-59879342D02*
X82893446Y-59974580D01*
X82893446Y-59974580D02*
X82941065Y-60022200D01*
X82941065Y-60022200D02*
X83036303Y-60069819D01*
X83036303Y-60069819D02*
X83226779Y-60069819D01*
X83226779Y-60069819D02*
X83322017Y-60022200D01*
X83322017Y-60022200D02*
X83369636Y-59974580D01*
X83369636Y-59974580D02*
X83417255Y-59879342D01*
X83417255Y-59879342D02*
X83417255Y-59641247D01*
X83417255Y-59641247D02*
X83369636Y-59546009D01*
X83369636Y-59546009D02*
X83322017Y-59498390D01*
X83322017Y-59498390D02*
X83226779Y-59450771D01*
X83226779Y-59450771D02*
X83036303Y-59450771D01*
X83036303Y-59450771D02*
X82941065Y-59498390D01*
X82941065Y-59498390D02*
X82893446Y-59546009D01*
X82893446Y-59546009D02*
X82845827Y-59641247D01*
X84607732Y-60069819D02*
X84607732Y-59069819D01*
X84607732Y-59450771D02*
X84702970Y-59403152D01*
X84702970Y-59403152D02*
X84893446Y-59403152D01*
X84893446Y-59403152D02*
X84988684Y-59450771D01*
X84988684Y-59450771D02*
X85036303Y-59498390D01*
X85036303Y-59498390D02*
X85083922Y-59593628D01*
X85083922Y-59593628D02*
X85083922Y-59879342D01*
X85083922Y-59879342D02*
X85036303Y-59974580D01*
X85036303Y-59974580D02*
X84988684Y-60022200D01*
X84988684Y-60022200D02*
X84893446Y-60069819D01*
X84893446Y-60069819D02*
X84702970Y-60069819D01*
X84702970Y-60069819D02*
X84607732Y-60022200D01*
X85512494Y-60069819D02*
X85512494Y-59403152D01*
X85512494Y-59069819D02*
X85464875Y-59117438D01*
X85464875Y-59117438D02*
X85512494Y-59165057D01*
X85512494Y-59165057D02*
X85560113Y-59117438D01*
X85560113Y-59117438D02*
X85512494Y-59069819D01*
X85512494Y-59069819D02*
X85512494Y-59165057D01*
X85845827Y-59403152D02*
X86226779Y-59403152D01*
X85988684Y-59069819D02*
X85988684Y-59926961D01*
X85988684Y-59926961D02*
X86036303Y-60022200D01*
X86036303Y-60022200D02*
X86131541Y-60069819D01*
X86131541Y-60069819D02*
X86226779Y-60069819D01*
X87179161Y-59069819D02*
X87750589Y-59069819D01*
X87464875Y-60069819D02*
X87464875Y-59069819D01*
X88083923Y-59546009D02*
X88417256Y-59546009D01*
X88560113Y-60069819D02*
X88083923Y-60069819D01*
X88083923Y-60069819D02*
X88083923Y-59069819D01*
X88083923Y-59069819D02*
X88560113Y-59069819D01*
X88941066Y-60022200D02*
X89083923Y-60069819D01*
X89083923Y-60069819D02*
X89322018Y-60069819D01*
X89322018Y-60069819D02*
X89417256Y-60022200D01*
X89417256Y-60022200D02*
X89464875Y-59974580D01*
X89464875Y-59974580D02*
X89512494Y-59879342D01*
X89512494Y-59879342D02*
X89512494Y-59784104D01*
X89512494Y-59784104D02*
X89464875Y-59688866D01*
X89464875Y-59688866D02*
X89417256Y-59641247D01*
X89417256Y-59641247D02*
X89322018Y-59593628D01*
X89322018Y-59593628D02*
X89131542Y-59546009D01*
X89131542Y-59546009D02*
X89036304Y-59498390D01*
X89036304Y-59498390D02*
X88988685Y-59450771D01*
X88988685Y-59450771D02*
X88941066Y-59355533D01*
X88941066Y-59355533D02*
X88941066Y-59260295D01*
X88941066Y-59260295D02*
X88988685Y-59165057D01*
X88988685Y-59165057D02*
X89036304Y-59117438D01*
X89036304Y-59117438D02*
X89131542Y-59069819D01*
X89131542Y-59069819D02*
X89369637Y-59069819D01*
X89369637Y-59069819D02*
X89512494Y-59117438D01*
X89798209Y-59069819D02*
X90369637Y-59069819D01*
X90083923Y-60069819D02*
X90083923Y-59069819D01*
X90702971Y-59546009D02*
X91036304Y-59546009D01*
X91179161Y-60069819D02*
X90702971Y-60069819D01*
X90702971Y-60069819D02*
X90702971Y-59069819D01*
X90702971Y-59069819D02*
X91179161Y-59069819D01*
X92179161Y-60069819D02*
X91845828Y-59593628D01*
X91607733Y-60069819D02*
X91607733Y-59069819D01*
X91607733Y-59069819D02*
X91988685Y-59069819D01*
X91988685Y-59069819D02*
X92083923Y-59117438D01*
X92083923Y-59117438D02*
X92131542Y-59165057D01*
X92131542Y-59165057D02*
X92179161Y-59260295D01*
X92179161Y-59260295D02*
X92179161Y-59403152D01*
X92179161Y-59403152D02*
X92131542Y-59498390D01*
X92131542Y-59498390D02*
X92083923Y-59546009D01*
X92083923Y-59546009D02*
X91988685Y-59593628D01*
X91988685Y-59593628D02*
X91607733Y-59593628D01*
X125859104Y-93783458D02*
X125859104Y-93164411D01*
X125859104Y-93164411D02*
X126240056Y-93497744D01*
X126240056Y-93497744D02*
X126240056Y-93354887D01*
X126240056Y-93354887D02*
X126287675Y-93259649D01*
X126287675Y-93259649D02*
X126335294Y-93212030D01*
X126335294Y-93212030D02*
X126430532Y-93164411D01*
X126430532Y-93164411D02*
X126668627Y-93164411D01*
X126668627Y-93164411D02*
X126763865Y-93212030D01*
X126763865Y-93212030D02*
X126811485Y-93259649D01*
X126811485Y-93259649D02*
X126859104Y-93354887D01*
X126859104Y-93354887D02*
X126859104Y-93640601D01*
X126859104Y-93640601D02*
X126811485Y-93735839D01*
X126811485Y-93735839D02*
X126763865Y-93783458D01*
X126763865Y-92735839D02*
X126811485Y-92688220D01*
X126811485Y-92688220D02*
X126859104Y-92735839D01*
X126859104Y-92735839D02*
X126811485Y-92783458D01*
X126811485Y-92783458D02*
X126763865Y-92735839D01*
X126763865Y-92735839D02*
X126859104Y-92735839D01*
X125859104Y-92354887D02*
X125859104Y-91735840D01*
X125859104Y-91735840D02*
X126240056Y-92069173D01*
X126240056Y-92069173D02*
X126240056Y-91926316D01*
X126240056Y-91926316D02*
X126287675Y-91831078D01*
X126287675Y-91831078D02*
X126335294Y-91783459D01*
X126335294Y-91783459D02*
X126430532Y-91735840D01*
X126430532Y-91735840D02*
X126668627Y-91735840D01*
X126668627Y-91735840D02*
X126763865Y-91783459D01*
X126763865Y-91783459D02*
X126811485Y-91831078D01*
X126811485Y-91831078D02*
X126859104Y-91926316D01*
X126859104Y-91926316D02*
X126859104Y-92212030D01*
X126859104Y-92212030D02*
X126811485Y-92307268D01*
X126811485Y-92307268D02*
X126763865Y-92354887D01*
X125859104Y-91450125D02*
X126859104Y-91116792D01*
X126859104Y-91116792D02*
X125859104Y-90783459D01*
D11*
X110713533Y-87276529D02*
X110856390Y-87324148D01*
X110856390Y-87324148D02*
X110904009Y-87371767D01*
X110904009Y-87371767D02*
X110951628Y-87467005D01*
X110951628Y-87467005D02*
X110951628Y-87609862D01*
X110951628Y-87609862D02*
X110904009Y-87705100D01*
X110904009Y-87705100D02*
X110856390Y-87752720D01*
X110856390Y-87752720D02*
X110761152Y-87800339D01*
X110761152Y-87800339D02*
X110380200Y-87800339D01*
X110380200Y-87800339D02*
X110380200Y-86800339D01*
X110380200Y-86800339D02*
X110713533Y-86800339D01*
X110713533Y-86800339D02*
X110808771Y-86847958D01*
X110808771Y-86847958D02*
X110856390Y-86895577D01*
X110856390Y-86895577D02*
X110904009Y-86990815D01*
X110904009Y-86990815D02*
X110904009Y-87086053D01*
X110904009Y-87086053D02*
X110856390Y-87181291D01*
X110856390Y-87181291D02*
X110808771Y-87228910D01*
X110808771Y-87228910D02*
X110713533Y-87276529D01*
X110713533Y-87276529D02*
X110380200Y-87276529D01*
X111570676Y-86800339D02*
X111761152Y-86800339D01*
X111761152Y-86800339D02*
X111856390Y-86847958D01*
X111856390Y-86847958D02*
X111951628Y-86943196D01*
X111951628Y-86943196D02*
X111999247Y-87133672D01*
X111999247Y-87133672D02*
X111999247Y-87467005D01*
X111999247Y-87467005D02*
X111951628Y-87657481D01*
X111951628Y-87657481D02*
X111856390Y-87752720D01*
X111856390Y-87752720D02*
X111761152Y-87800339D01*
X111761152Y-87800339D02*
X111570676Y-87800339D01*
X111570676Y-87800339D02*
X111475438Y-87752720D01*
X111475438Y-87752720D02*
X111380200Y-87657481D01*
X111380200Y-87657481D02*
X111332581Y-87467005D01*
X111332581Y-87467005D02*
X111332581Y-87133672D01*
X111332581Y-87133672D02*
X111380200Y-86943196D01*
X111380200Y-86943196D02*
X111475438Y-86847958D01*
X111475438Y-86847958D02*
X111570676Y-86800339D01*
X112999247Y-87800339D02*
X112665914Y-87324148D01*
X112427819Y-87800339D02*
X112427819Y-86800339D01*
X112427819Y-86800339D02*
X112808771Y-86800339D01*
X112808771Y-86800339D02*
X112904009Y-86847958D01*
X112904009Y-86847958D02*
X112951628Y-86895577D01*
X112951628Y-86895577D02*
X112999247Y-86990815D01*
X112999247Y-86990815D02*
X112999247Y-87133672D01*
X112999247Y-87133672D02*
X112951628Y-87228910D01*
X112951628Y-87228910D02*
X112904009Y-87276529D01*
X112904009Y-87276529D02*
X112808771Y-87324148D01*
X112808771Y-87324148D02*
X112427819Y-87324148D01*
X113427819Y-87800339D02*
X113427819Y-86800339D01*
X113427819Y-86800339D02*
X113665914Y-86800339D01*
X113665914Y-86800339D02*
X113808771Y-86847958D01*
X113808771Y-86847958D02*
X113904009Y-86943196D01*
X113904009Y-86943196D02*
X113951628Y-87038434D01*
X113951628Y-87038434D02*
X113999247Y-87228910D01*
X113999247Y-87228910D02*
X113999247Y-87371767D01*
X113999247Y-87371767D02*
X113951628Y-87562243D01*
X113951628Y-87562243D02*
X113904009Y-87657481D01*
X113904009Y-87657481D02*
X113808771Y-87752720D01*
X113808771Y-87752720D02*
X113665914Y-87800339D01*
X113665914Y-87800339D02*
X113427819Y-87800339D01*
X114427819Y-87276529D02*
X114761152Y-87276529D01*
X114904009Y-87800339D02*
X114427819Y-87800339D01*
X114427819Y-87800339D02*
X114427819Y-86800339D01*
X114427819Y-86800339D02*
X114904009Y-86800339D01*
X115904009Y-87800339D02*
X115570676Y-87324148D01*
X115332581Y-87800339D02*
X115332581Y-86800339D01*
X115332581Y-86800339D02*
X115713533Y-86800339D01*
X115713533Y-86800339D02*
X115808771Y-86847958D01*
X115808771Y-86847958D02*
X115856390Y-86895577D01*
X115856390Y-86895577D02*
X115904009Y-86990815D01*
X115904009Y-86990815D02*
X115904009Y-87133672D01*
X115904009Y-87133672D02*
X115856390Y-87228910D01*
X115856390Y-87228910D02*
X115808771Y-87276529D01*
X115808771Y-87276529D02*
X115713533Y-87324148D01*
X115713533Y-87324148D02*
X115332581Y-87324148D01*
D10*
X103074285Y-88948152D02*
X103074285Y-89614819D01*
X102836190Y-88567200D02*
X102598095Y-89281485D01*
X102598095Y-89281485D02*
X103217142Y-89281485D01*
X103788571Y-88614819D02*
X103883809Y-88614819D01*
X103883809Y-88614819D02*
X103979047Y-88662438D01*
X103979047Y-88662438D02*
X104026666Y-88710057D01*
X104026666Y-88710057D02*
X104074285Y-88805295D01*
X104074285Y-88805295D02*
X104121904Y-88995771D01*
X104121904Y-88995771D02*
X104121904Y-89233866D01*
X104121904Y-89233866D02*
X104074285Y-89424342D01*
X104074285Y-89424342D02*
X104026666Y-89519580D01*
X104026666Y-89519580D02*
X103979047Y-89567200D01*
X103979047Y-89567200D02*
X103883809Y-89614819D01*
X103883809Y-89614819D02*
X103788571Y-89614819D01*
X103788571Y-89614819D02*
X103693333Y-89567200D01*
X103693333Y-89567200D02*
X103645714Y-89519580D01*
X103645714Y-89519580D02*
X103598095Y-89424342D01*
X103598095Y-89424342D02*
X103550476Y-89233866D01*
X103550476Y-89233866D02*
X103550476Y-88995771D01*
X103550476Y-88995771D02*
X103598095Y-88805295D01*
X103598095Y-88805295D02*
X103645714Y-88710057D01*
X103645714Y-88710057D02*
X103693333Y-88662438D01*
X103693333Y-88662438D02*
X103788571Y-88614819D01*
X103360000Y-90462914D02*
X103360000Y-91224819D01*
X103550476Y-91034342D02*
X103360000Y-91224819D01*
X103360000Y-91224819D02*
X103169524Y-91034342D01*
X124386779Y-75744819D02*
X124386779Y-74744819D01*
X124386779Y-74744819D02*
X124720112Y-75459104D01*
X124720112Y-75459104D02*
X125053445Y-74744819D01*
X125053445Y-74744819D02*
X125053445Y-75744819D01*
X125529636Y-75744819D02*
X125529636Y-75078152D01*
X125529636Y-74744819D02*
X125482017Y-74792438D01*
X125482017Y-74792438D02*
X125529636Y-74840057D01*
X125529636Y-74840057D02*
X125577255Y-74792438D01*
X125577255Y-74792438D02*
X125529636Y-74744819D01*
X125529636Y-74744819D02*
X125529636Y-74840057D01*
X126434397Y-75697200D02*
X126339159Y-75744819D01*
X126339159Y-75744819D02*
X126148683Y-75744819D01*
X126148683Y-75744819D02*
X126053445Y-75697200D01*
X126053445Y-75697200D02*
X126005826Y-75649580D01*
X126005826Y-75649580D02*
X125958207Y-75554342D01*
X125958207Y-75554342D02*
X125958207Y-75268628D01*
X125958207Y-75268628D02*
X126005826Y-75173390D01*
X126005826Y-75173390D02*
X126053445Y-75125771D01*
X126053445Y-75125771D02*
X126148683Y-75078152D01*
X126148683Y-75078152D02*
X126339159Y-75078152D01*
X126339159Y-75078152D02*
X126434397Y-75125771D01*
X126862969Y-75744819D02*
X126862969Y-75078152D01*
X126862969Y-75268628D02*
X126910588Y-75173390D01*
X126910588Y-75173390D02*
X126958207Y-75125771D01*
X126958207Y-75125771D02*
X127053445Y-75078152D01*
X127053445Y-75078152D02*
X127148683Y-75078152D01*
X127624874Y-75744819D02*
X127529636Y-75697200D01*
X127529636Y-75697200D02*
X127482017Y-75649580D01*
X127482017Y-75649580D02*
X127434398Y-75554342D01*
X127434398Y-75554342D02*
X127434398Y-75268628D01*
X127434398Y-75268628D02*
X127482017Y-75173390D01*
X127482017Y-75173390D02*
X127529636Y-75125771D01*
X127529636Y-75125771D02*
X127624874Y-75078152D01*
X127624874Y-75078152D02*
X127767731Y-75078152D01*
X127767731Y-75078152D02*
X127862969Y-75125771D01*
X127862969Y-75125771D02*
X127910588Y-75173390D01*
X127910588Y-75173390D02*
X127958207Y-75268628D01*
X127958207Y-75268628D02*
X127958207Y-75554342D01*
X127958207Y-75554342D02*
X127910588Y-75649580D01*
X127910588Y-75649580D02*
X127862969Y-75697200D01*
X127862969Y-75697200D02*
X127767731Y-75744819D01*
X127767731Y-75744819D02*
X127624874Y-75744819D01*
X128339160Y-75697200D02*
X128482017Y-75744819D01*
X128482017Y-75744819D02*
X128720112Y-75744819D01*
X128720112Y-75744819D02*
X128815350Y-75697200D01*
X128815350Y-75697200D02*
X128862969Y-75649580D01*
X128862969Y-75649580D02*
X128910588Y-75554342D01*
X128910588Y-75554342D02*
X128910588Y-75459104D01*
X128910588Y-75459104D02*
X128862969Y-75363866D01*
X128862969Y-75363866D02*
X128815350Y-75316247D01*
X128815350Y-75316247D02*
X128720112Y-75268628D01*
X128720112Y-75268628D02*
X128529636Y-75221009D01*
X128529636Y-75221009D02*
X128434398Y-75173390D01*
X128434398Y-75173390D02*
X128386779Y-75125771D01*
X128386779Y-75125771D02*
X128339160Y-75030533D01*
X128339160Y-75030533D02*
X128339160Y-74935295D01*
X128339160Y-74935295D02*
X128386779Y-74840057D01*
X128386779Y-74840057D02*
X128434398Y-74792438D01*
X128434398Y-74792438D02*
X128529636Y-74744819D01*
X128529636Y-74744819D02*
X128767731Y-74744819D01*
X128767731Y-74744819D02*
X128910588Y-74792438D01*
X129339160Y-75744819D02*
X129339160Y-74744819D01*
X129339160Y-74744819D02*
X129577255Y-74744819D01*
X129577255Y-74744819D02*
X129720112Y-74792438D01*
X129720112Y-74792438D02*
X129815350Y-74887676D01*
X129815350Y-74887676D02*
X129862969Y-74982914D01*
X129862969Y-74982914D02*
X129910588Y-75173390D01*
X129910588Y-75173390D02*
X129910588Y-75316247D01*
X129910588Y-75316247D02*
X129862969Y-75506723D01*
X129862969Y-75506723D02*
X129815350Y-75601961D01*
X129815350Y-75601961D02*
X129720112Y-75697200D01*
X129720112Y-75697200D02*
X129577255Y-75744819D01*
X129577255Y-75744819D02*
X129339160Y-75744819D01*
X131101065Y-75744819D02*
X131101065Y-75078152D01*
X131101065Y-75173390D02*
X131148684Y-75125771D01*
X131148684Y-75125771D02*
X131243922Y-75078152D01*
X131243922Y-75078152D02*
X131386779Y-75078152D01*
X131386779Y-75078152D02*
X131482017Y-75125771D01*
X131482017Y-75125771D02*
X131529636Y-75221009D01*
X131529636Y-75221009D02*
X131529636Y-75744819D01*
X131529636Y-75221009D02*
X131577255Y-75125771D01*
X131577255Y-75125771D02*
X131672493Y-75078152D01*
X131672493Y-75078152D02*
X131815350Y-75078152D01*
X131815350Y-75078152D02*
X131910589Y-75125771D01*
X131910589Y-75125771D02*
X131958208Y-75221009D01*
X131958208Y-75221009D02*
X131958208Y-75744819D01*
X132577255Y-75744819D02*
X132482017Y-75697200D01*
X132482017Y-75697200D02*
X132434398Y-75649580D01*
X132434398Y-75649580D02*
X132386779Y-75554342D01*
X132386779Y-75554342D02*
X132386779Y-75268628D01*
X132386779Y-75268628D02*
X132434398Y-75173390D01*
X132434398Y-75173390D02*
X132482017Y-75125771D01*
X132482017Y-75125771D02*
X132577255Y-75078152D01*
X132577255Y-75078152D02*
X132720112Y-75078152D01*
X132720112Y-75078152D02*
X132815350Y-75125771D01*
X132815350Y-75125771D02*
X132862969Y-75173390D01*
X132862969Y-75173390D02*
X132910588Y-75268628D01*
X132910588Y-75268628D02*
X132910588Y-75554342D01*
X132910588Y-75554342D02*
X132862969Y-75649580D01*
X132862969Y-75649580D02*
X132815350Y-75697200D01*
X132815350Y-75697200D02*
X132720112Y-75744819D01*
X132720112Y-75744819D02*
X132577255Y-75744819D01*
X133767731Y-75744819D02*
X133767731Y-74744819D01*
X133767731Y-75697200D02*
X133672493Y-75744819D01*
X133672493Y-75744819D02*
X133482017Y-75744819D01*
X133482017Y-75744819D02*
X133386779Y-75697200D01*
X133386779Y-75697200D02*
X133339160Y-75649580D01*
X133339160Y-75649580D02*
X133291541Y-75554342D01*
X133291541Y-75554342D02*
X133291541Y-75268628D01*
X133291541Y-75268628D02*
X133339160Y-75173390D01*
X133339160Y-75173390D02*
X133386779Y-75125771D01*
X133386779Y-75125771D02*
X133482017Y-75078152D01*
X133482017Y-75078152D02*
X133672493Y-75078152D01*
X133672493Y-75078152D02*
X133767731Y-75125771D01*
X134672493Y-75078152D02*
X134672493Y-75744819D01*
X134243922Y-75078152D02*
X134243922Y-75601961D01*
X134243922Y-75601961D02*
X134291541Y-75697200D01*
X134291541Y-75697200D02*
X134386779Y-75744819D01*
X134386779Y-75744819D02*
X134529636Y-75744819D01*
X134529636Y-75744819D02*
X134624874Y-75697200D01*
X134624874Y-75697200D02*
X134672493Y-75649580D01*
X135291541Y-75744819D02*
X135196303Y-75697200D01*
X135196303Y-75697200D02*
X135148684Y-75601961D01*
X135148684Y-75601961D02*
X135148684Y-74744819D01*
X136053446Y-75697200D02*
X135958208Y-75744819D01*
X135958208Y-75744819D02*
X135767732Y-75744819D01*
X135767732Y-75744819D02*
X135672494Y-75697200D01*
X135672494Y-75697200D02*
X135624875Y-75601961D01*
X135624875Y-75601961D02*
X135624875Y-75221009D01*
X135624875Y-75221009D02*
X135672494Y-75125771D01*
X135672494Y-75125771D02*
X135767732Y-75078152D01*
X135767732Y-75078152D02*
X135958208Y-75078152D01*
X135958208Y-75078152D02*
X136053446Y-75125771D01*
X136053446Y-75125771D02*
X136101065Y-75221009D01*
X136101065Y-75221009D02*
X136101065Y-75316247D01*
X136101065Y-75316247D02*
X135624875Y-75411485D01*
X137148685Y-75078152D02*
X137529637Y-75078152D01*
X137291542Y-74744819D02*
X137291542Y-75601961D01*
X137291542Y-75601961D02*
X137339161Y-75697200D01*
X137339161Y-75697200D02*
X137434399Y-75744819D01*
X137434399Y-75744819D02*
X137529637Y-75744819D01*
X138243923Y-75697200D02*
X138148685Y-75744819D01*
X138148685Y-75744819D02*
X137958209Y-75744819D01*
X137958209Y-75744819D02*
X137862971Y-75697200D01*
X137862971Y-75697200D02*
X137815352Y-75601961D01*
X137815352Y-75601961D02*
X137815352Y-75221009D01*
X137815352Y-75221009D02*
X137862971Y-75125771D01*
X137862971Y-75125771D02*
X137958209Y-75078152D01*
X137958209Y-75078152D02*
X138148685Y-75078152D01*
X138148685Y-75078152D02*
X138243923Y-75125771D01*
X138243923Y-75125771D02*
X138291542Y-75221009D01*
X138291542Y-75221009D02*
X138291542Y-75316247D01*
X138291542Y-75316247D02*
X137815352Y-75411485D01*
X138672495Y-75697200D02*
X138767733Y-75744819D01*
X138767733Y-75744819D02*
X138958209Y-75744819D01*
X138958209Y-75744819D02*
X139053447Y-75697200D01*
X139053447Y-75697200D02*
X139101066Y-75601961D01*
X139101066Y-75601961D02*
X139101066Y-75554342D01*
X139101066Y-75554342D02*
X139053447Y-75459104D01*
X139053447Y-75459104D02*
X138958209Y-75411485D01*
X138958209Y-75411485D02*
X138815352Y-75411485D01*
X138815352Y-75411485D02*
X138720114Y-75363866D01*
X138720114Y-75363866D02*
X138672495Y-75268628D01*
X138672495Y-75268628D02*
X138672495Y-75221009D01*
X138672495Y-75221009D02*
X138720114Y-75125771D01*
X138720114Y-75125771D02*
X138815352Y-75078152D01*
X138815352Y-75078152D02*
X138958209Y-75078152D01*
X138958209Y-75078152D02*
X139053447Y-75125771D01*
X139386781Y-75078152D02*
X139767733Y-75078152D01*
X139529638Y-74744819D02*
X139529638Y-75601961D01*
X139529638Y-75601961D02*
X139577257Y-75697200D01*
X139577257Y-75697200D02*
X139672495Y-75744819D01*
X139672495Y-75744819D02*
X139767733Y-75744819D01*
X142094819Y-93688220D02*
X141094819Y-93688220D01*
X141094819Y-93688220D02*
X141094819Y-93450125D01*
X141094819Y-93450125D02*
X141142438Y-93307268D01*
X141142438Y-93307268D02*
X141237676Y-93212030D01*
X141237676Y-93212030D02*
X141332914Y-93164411D01*
X141332914Y-93164411D02*
X141523390Y-93116792D01*
X141523390Y-93116792D02*
X141666247Y-93116792D01*
X141666247Y-93116792D02*
X141856723Y-93164411D01*
X141856723Y-93164411D02*
X141951961Y-93212030D01*
X141951961Y-93212030D02*
X142047200Y-93307268D01*
X142047200Y-93307268D02*
X142094819Y-93450125D01*
X142094819Y-93450125D02*
X142094819Y-93688220D01*
X141809104Y-92735839D02*
X141809104Y-92259649D01*
X142094819Y-92831077D02*
X141094819Y-92497744D01*
X141094819Y-92497744D02*
X142094819Y-92164411D01*
X141094819Y-91973934D02*
X141094819Y-91402506D01*
X142094819Y-91688220D02*
X141094819Y-91688220D01*
X141094819Y-90878696D02*
X141094819Y-90783458D01*
X141094819Y-90783458D02*
X141142438Y-90688220D01*
X141142438Y-90688220D02*
X141190057Y-90640601D01*
X141190057Y-90640601D02*
X141285295Y-90592982D01*
X141285295Y-90592982D02*
X141475771Y-90545363D01*
X141475771Y-90545363D02*
X141713866Y-90545363D01*
X141713866Y-90545363D02*
X141904342Y-90592982D01*
X141904342Y-90592982D02*
X141999580Y-90640601D01*
X141999580Y-90640601D02*
X142047200Y-90688220D01*
X142047200Y-90688220D02*
X142094819Y-90783458D01*
X142094819Y-90783458D02*
X142094819Y-90878696D01*
X142094819Y-90878696D02*
X142047200Y-90973934D01*
X142047200Y-90973934D02*
X141999580Y-91021553D01*
X141999580Y-91021553D02*
X141904342Y-91069172D01*
X141904342Y-91069172D02*
X141713866Y-91116791D01*
X141713866Y-91116791D02*
X141475771Y-91116791D01*
X141475771Y-91116791D02*
X141285295Y-91069172D01*
X141285295Y-91069172D02*
X141190057Y-91021553D01*
X141190057Y-91021553D02*
X141142438Y-90973934D01*
X141142438Y-90973934D02*
X141094819Y-90878696D01*
X131842435Y-93116792D02*
X131890055Y-93164411D01*
X131890055Y-93164411D02*
X131937674Y-93307268D01*
X131937674Y-93307268D02*
X131937674Y-93402506D01*
X131937674Y-93402506D02*
X131890055Y-93545363D01*
X131890055Y-93545363D02*
X131794816Y-93640601D01*
X131794816Y-93640601D02*
X131699578Y-93688220D01*
X131699578Y-93688220D02*
X131509102Y-93735839D01*
X131509102Y-93735839D02*
X131366245Y-93735839D01*
X131366245Y-93735839D02*
X131175769Y-93688220D01*
X131175769Y-93688220D02*
X131080531Y-93640601D01*
X131080531Y-93640601D02*
X130985293Y-93545363D01*
X130985293Y-93545363D02*
X130937674Y-93402506D01*
X130937674Y-93402506D02*
X130937674Y-93307268D01*
X130937674Y-93307268D02*
X130985293Y-93164411D01*
X130985293Y-93164411D02*
X131032912Y-93116792D01*
X131937674Y-92212030D02*
X131937674Y-92688220D01*
X131937674Y-92688220D02*
X130937674Y-92688220D01*
X131937674Y-91878696D02*
X130937674Y-91878696D01*
X131937674Y-91307268D02*
X131366245Y-91735839D01*
X130937674Y-91307268D02*
X131509102Y-91878696D01*
X134476959Y-93688220D02*
X133476959Y-93688220D01*
X133476959Y-93688220D02*
X133476959Y-93450125D01*
X133476959Y-93450125D02*
X133524578Y-93307268D01*
X133524578Y-93307268D02*
X133619816Y-93212030D01*
X133619816Y-93212030D02*
X133715054Y-93164411D01*
X133715054Y-93164411D02*
X133905530Y-93116792D01*
X133905530Y-93116792D02*
X134048387Y-93116792D01*
X134048387Y-93116792D02*
X134238863Y-93164411D01*
X134238863Y-93164411D02*
X134334101Y-93212030D01*
X134334101Y-93212030D02*
X134429340Y-93307268D01*
X134429340Y-93307268D02*
X134476959Y-93450125D01*
X134476959Y-93450125D02*
X134476959Y-93688220D01*
X134191244Y-92735839D02*
X134191244Y-92259649D01*
X134476959Y-92831077D02*
X133476959Y-92497744D01*
X133476959Y-92497744D02*
X134476959Y-92164411D01*
X133476959Y-91973934D02*
X133476959Y-91402506D01*
X134476959Y-91688220D02*
X133476959Y-91688220D01*
X133476959Y-91164410D02*
X133476959Y-90545363D01*
X133476959Y-90545363D02*
X133857911Y-90878696D01*
X133857911Y-90878696D02*
X133857911Y-90735839D01*
X133857911Y-90735839D02*
X133905530Y-90640601D01*
X133905530Y-90640601D02*
X133953149Y-90592982D01*
X133953149Y-90592982D02*
X134048387Y-90545363D01*
X134048387Y-90545363D02*
X134286482Y-90545363D01*
X134286482Y-90545363D02*
X134381720Y-90592982D01*
X134381720Y-90592982D02*
X134429340Y-90640601D01*
X134429340Y-90640601D02*
X134476959Y-90735839D01*
X134476959Y-90735839D02*
X134476959Y-91021553D01*
X134476959Y-91021553D02*
X134429340Y-91116791D01*
X134429340Y-91116791D02*
X134381720Y-91164410D01*
D11*
X89836667Y-77439955D02*
X89570000Y-77059002D01*
X89379524Y-77439955D02*
X89379524Y-76639955D01*
X89379524Y-76639955D02*
X89684286Y-76639955D01*
X89684286Y-76639955D02*
X89760476Y-76678050D01*
X89760476Y-76678050D02*
X89798571Y-76716145D01*
X89798571Y-76716145D02*
X89836667Y-76792336D01*
X89836667Y-76792336D02*
X89836667Y-76906621D01*
X89836667Y-76906621D02*
X89798571Y-76982812D01*
X89798571Y-76982812D02*
X89760476Y-77020907D01*
X89760476Y-77020907D02*
X89684286Y-77059002D01*
X89684286Y-77059002D02*
X89379524Y-77059002D01*
X90293809Y-76982812D02*
X90217619Y-76944717D01*
X90217619Y-76944717D02*
X90179524Y-76906621D01*
X90179524Y-76906621D02*
X90141428Y-76830431D01*
X90141428Y-76830431D02*
X90141428Y-76792336D01*
X90141428Y-76792336D02*
X90179524Y-76716145D01*
X90179524Y-76716145D02*
X90217619Y-76678050D01*
X90217619Y-76678050D02*
X90293809Y-76639955D01*
X90293809Y-76639955D02*
X90446190Y-76639955D01*
X90446190Y-76639955D02*
X90522381Y-76678050D01*
X90522381Y-76678050D02*
X90560476Y-76716145D01*
X90560476Y-76716145D02*
X90598571Y-76792336D01*
X90598571Y-76792336D02*
X90598571Y-76830431D01*
X90598571Y-76830431D02*
X90560476Y-76906621D01*
X90560476Y-76906621D02*
X90522381Y-76944717D01*
X90522381Y-76944717D02*
X90446190Y-76982812D01*
X90446190Y-76982812D02*
X90293809Y-76982812D01*
X90293809Y-76982812D02*
X90217619Y-77020907D01*
X90217619Y-77020907D02*
X90179524Y-77059002D01*
X90179524Y-77059002D02*
X90141428Y-77135193D01*
X90141428Y-77135193D02*
X90141428Y-77287574D01*
X90141428Y-77287574D02*
X90179524Y-77363764D01*
X90179524Y-77363764D02*
X90217619Y-77401860D01*
X90217619Y-77401860D02*
X90293809Y-77439955D01*
X90293809Y-77439955D02*
X90446190Y-77439955D01*
X90446190Y-77439955D02*
X90522381Y-77401860D01*
X90522381Y-77401860D02*
X90560476Y-77363764D01*
X90560476Y-77363764D02*
X90598571Y-77287574D01*
X90598571Y-77287574D02*
X90598571Y-77135193D01*
X90598571Y-77135193D02*
X90560476Y-77059002D01*
X90560476Y-77059002D02*
X90522381Y-77020907D01*
X90522381Y-77020907D02*
X90446190Y-76982812D01*
X89836667Y-80391383D02*
X89570000Y-80010430D01*
X89379524Y-80391383D02*
X89379524Y-79591383D01*
X89379524Y-79591383D02*
X89684286Y-79591383D01*
X89684286Y-79591383D02*
X89760476Y-79629478D01*
X89760476Y-79629478D02*
X89798571Y-79667573D01*
X89798571Y-79667573D02*
X89836667Y-79743764D01*
X89836667Y-79743764D02*
X89836667Y-79858049D01*
X89836667Y-79858049D02*
X89798571Y-79934240D01*
X89798571Y-79934240D02*
X89760476Y-79972335D01*
X89760476Y-79972335D02*
X89684286Y-80010430D01*
X89684286Y-80010430D02*
X89379524Y-80010430D01*
X90103333Y-79591383D02*
X90636667Y-79591383D01*
X90636667Y-79591383D02*
X90293809Y-80391383D01*
X110935714Y-79822815D02*
X110669047Y-79441862D01*
X110478571Y-79822815D02*
X110478571Y-79022815D01*
X110478571Y-79022815D02*
X110783333Y-79022815D01*
X110783333Y-79022815D02*
X110859523Y-79060910D01*
X110859523Y-79060910D02*
X110897618Y-79099005D01*
X110897618Y-79099005D02*
X110935714Y-79175196D01*
X110935714Y-79175196D02*
X110935714Y-79289481D01*
X110935714Y-79289481D02*
X110897618Y-79365672D01*
X110897618Y-79365672D02*
X110859523Y-79403767D01*
X110859523Y-79403767D02*
X110783333Y-79441862D01*
X110783333Y-79441862D02*
X110478571Y-79441862D01*
X111240475Y-79099005D02*
X111278571Y-79060910D01*
X111278571Y-79060910D02*
X111354761Y-79022815D01*
X111354761Y-79022815D02*
X111545237Y-79022815D01*
X111545237Y-79022815D02*
X111621428Y-79060910D01*
X111621428Y-79060910D02*
X111659523Y-79099005D01*
X111659523Y-79099005D02*
X111697618Y-79175196D01*
X111697618Y-79175196D02*
X111697618Y-79251386D01*
X111697618Y-79251386D02*
X111659523Y-79365672D01*
X111659523Y-79365672D02*
X111202380Y-79822815D01*
X111202380Y-79822815D02*
X111697618Y-79822815D01*
X112002380Y-79099005D02*
X112040476Y-79060910D01*
X112040476Y-79060910D02*
X112116666Y-79022815D01*
X112116666Y-79022815D02*
X112307142Y-79022815D01*
X112307142Y-79022815D02*
X112383333Y-79060910D01*
X112383333Y-79060910D02*
X112421428Y-79099005D01*
X112421428Y-79099005D02*
X112459523Y-79175196D01*
X112459523Y-79175196D02*
X112459523Y-79251386D01*
X112459523Y-79251386D02*
X112421428Y-79365672D01*
X112421428Y-79365672D02*
X111964285Y-79822815D01*
X111964285Y-79822815D02*
X112459523Y-79822815D01*
X101420714Y-85462815D02*
X101154047Y-85081862D01*
X100963571Y-85462815D02*
X100963571Y-84662815D01*
X100963571Y-84662815D02*
X101268333Y-84662815D01*
X101268333Y-84662815D02*
X101344523Y-84700910D01*
X101344523Y-84700910D02*
X101382618Y-84739005D01*
X101382618Y-84739005D02*
X101420714Y-84815196D01*
X101420714Y-84815196D02*
X101420714Y-84929481D01*
X101420714Y-84929481D02*
X101382618Y-85005672D01*
X101382618Y-85005672D02*
X101344523Y-85043767D01*
X101344523Y-85043767D02*
X101268333Y-85081862D01*
X101268333Y-85081862D02*
X100963571Y-85081862D01*
X102182618Y-85462815D02*
X101725475Y-85462815D01*
X101954047Y-85462815D02*
X101954047Y-84662815D01*
X101954047Y-84662815D02*
X101877856Y-84777100D01*
X101877856Y-84777100D02*
X101801666Y-84853291D01*
X101801666Y-84853291D02*
X101725475Y-84891386D01*
X102868333Y-84929481D02*
X102868333Y-85462815D01*
X102677857Y-84624720D02*
X102487380Y-85196148D01*
X102487380Y-85196148D02*
X102982619Y-85196148D01*
D10*
X82761905Y-64226247D02*
X82761905Y-63226247D01*
X82761905Y-63226247D02*
X83000000Y-63226247D01*
X83000000Y-63226247D02*
X83142857Y-63273866D01*
X83142857Y-63273866D02*
X83238095Y-63369104D01*
X83238095Y-63369104D02*
X83285714Y-63464342D01*
X83285714Y-63464342D02*
X83333333Y-63654818D01*
X83333333Y-63654818D02*
X83333333Y-63797675D01*
X83333333Y-63797675D02*
X83285714Y-63988151D01*
X83285714Y-63988151D02*
X83238095Y-64083389D01*
X83238095Y-64083389D02*
X83142857Y-64178628D01*
X83142857Y-64178628D02*
X83000000Y-64226247D01*
X83000000Y-64226247D02*
X82761905Y-64226247D01*
X83666667Y-63226247D02*
X84333333Y-63226247D01*
X84333333Y-63226247D02*
X83904762Y-64226247D01*
X82761905Y-81638951D02*
X82761905Y-80638951D01*
X82761905Y-80638951D02*
X83000000Y-80638951D01*
X83000000Y-80638951D02*
X83142857Y-80686570D01*
X83142857Y-80686570D02*
X83238095Y-80781808D01*
X83238095Y-80781808D02*
X83285714Y-80877046D01*
X83285714Y-80877046D02*
X83333333Y-81067522D01*
X83333333Y-81067522D02*
X83333333Y-81210379D01*
X83333333Y-81210379D02*
X83285714Y-81400855D01*
X83285714Y-81400855D02*
X83238095Y-81496093D01*
X83238095Y-81496093D02*
X83142857Y-81591332D01*
X83142857Y-81591332D02*
X83000000Y-81638951D01*
X83000000Y-81638951D02*
X82761905Y-81638951D01*
X84285714Y-81638951D02*
X83714286Y-81638951D01*
X84000000Y-81638951D02*
X84000000Y-80638951D01*
X84000000Y-80638951D02*
X83904762Y-80781808D01*
X83904762Y-80781808D02*
X83809524Y-80877046D01*
X83809524Y-80877046D02*
X83714286Y-80924665D01*
X76631310Y-75336104D02*
X76593214Y-75374200D01*
X76593214Y-75374200D02*
X76478929Y-75412295D01*
X76478929Y-75412295D02*
X76402738Y-75412295D01*
X76402738Y-75412295D02*
X76288452Y-75374200D01*
X76288452Y-75374200D02*
X76212262Y-75298009D01*
X76212262Y-75298009D02*
X76174167Y-75221819D01*
X76174167Y-75221819D02*
X76136071Y-75069438D01*
X76136071Y-75069438D02*
X76136071Y-74955152D01*
X76136071Y-74955152D02*
X76174167Y-74802771D01*
X76174167Y-74802771D02*
X76212262Y-74726580D01*
X76212262Y-74726580D02*
X76288452Y-74650390D01*
X76288452Y-74650390D02*
X76402738Y-74612295D01*
X76402738Y-74612295D02*
X76478929Y-74612295D01*
X76478929Y-74612295D02*
X76593214Y-74650390D01*
X76593214Y-74650390D02*
X76631310Y-74688485D01*
X76974167Y-75412295D02*
X76974167Y-74612295D01*
X77431310Y-75412295D02*
X77088452Y-74955152D01*
X77431310Y-74612295D02*
X76974167Y-75069438D01*
X77659881Y-74612295D02*
X77926548Y-75412295D01*
X77926548Y-75412295D02*
X78193214Y-74612295D01*
X78878928Y-75412295D02*
X78421785Y-75412295D01*
X78650357Y-75412295D02*
X78650357Y-74612295D01*
X78650357Y-74612295D02*
X78574166Y-74726580D01*
X78574166Y-74726580D02*
X78497976Y-74802771D01*
X78497976Y-74802771D02*
X78421785Y-74840866D01*
X106546071Y-61554819D02*
X107212737Y-62554819D01*
X107212737Y-61554819D02*
X106546071Y-62554819D01*
X107546071Y-62507200D02*
X107688928Y-62554819D01*
X107688928Y-62554819D02*
X107927023Y-62554819D01*
X107927023Y-62554819D02*
X108022261Y-62507200D01*
X108022261Y-62507200D02*
X108069880Y-62459580D01*
X108069880Y-62459580D02*
X108117499Y-62364342D01*
X108117499Y-62364342D02*
X108117499Y-62269104D01*
X108117499Y-62269104D02*
X108069880Y-62173866D01*
X108069880Y-62173866D02*
X108022261Y-62126247D01*
X108022261Y-62126247D02*
X107927023Y-62078628D01*
X107927023Y-62078628D02*
X107736547Y-62031009D01*
X107736547Y-62031009D02*
X107641309Y-61983390D01*
X107641309Y-61983390D02*
X107593690Y-61935771D01*
X107593690Y-61935771D02*
X107546071Y-61840533D01*
X107546071Y-61840533D02*
X107546071Y-61745295D01*
X107546071Y-61745295D02*
X107593690Y-61650057D01*
X107593690Y-61650057D02*
X107641309Y-61602438D01*
X107641309Y-61602438D02*
X107736547Y-61554819D01*
X107736547Y-61554819D02*
X107974642Y-61554819D01*
X107974642Y-61554819D02*
X108117499Y-61602438D01*
X108403214Y-61554819D02*
X108974642Y-61554819D01*
X108688928Y-62554819D02*
X108688928Y-61554819D01*
X109784166Y-62554819D02*
X109307976Y-62554819D01*
X109307976Y-62554819D02*
X109307976Y-61554819D01*
X110641309Y-62554819D02*
X110069881Y-62554819D01*
X110355595Y-62554819D02*
X110355595Y-61554819D01*
X110355595Y-61554819D02*
X110260357Y-61697676D01*
X110260357Y-61697676D02*
X110165119Y-61792914D01*
X110165119Y-61792914D02*
X110069881Y-61840533D01*
X111790476Y-88304295D02*
X112247619Y-88304295D01*
X112019047Y-89104295D02*
X112019047Y-88304295D01*
X112514286Y-89104295D02*
X112514286Y-88304295D01*
X112514286Y-88304295D02*
X112819048Y-88304295D01*
X112819048Y-88304295D02*
X112895238Y-88342390D01*
X112895238Y-88342390D02*
X112933333Y-88380485D01*
X112933333Y-88380485D02*
X112971429Y-88456676D01*
X112971429Y-88456676D02*
X112971429Y-88570961D01*
X112971429Y-88570961D02*
X112933333Y-88647152D01*
X112933333Y-88647152D02*
X112895238Y-88685247D01*
X112895238Y-88685247D02*
X112819048Y-88723342D01*
X112819048Y-88723342D02*
X112514286Y-88723342D01*
X113733333Y-89104295D02*
X113276190Y-89104295D01*
X113504762Y-89104295D02*
X113504762Y-88304295D01*
X113504762Y-88304295D02*
X113428571Y-88418580D01*
X113428571Y-88418580D02*
X113352381Y-88494771D01*
X113352381Y-88494771D02*
X113276190Y-88532866D01*
X93585714Y-64294819D02*
X93585714Y-63294819D01*
X93585714Y-63294819D02*
X93823809Y-63294819D01*
X93823809Y-63294819D02*
X93966666Y-63342438D01*
X93966666Y-63342438D02*
X94061904Y-63437676D01*
X94061904Y-63437676D02*
X94109523Y-63532914D01*
X94109523Y-63532914D02*
X94157142Y-63723390D01*
X94157142Y-63723390D02*
X94157142Y-63866247D01*
X94157142Y-63866247D02*
X94109523Y-64056723D01*
X94109523Y-64056723D02*
X94061904Y-64151961D01*
X94061904Y-64151961D02*
X93966666Y-64247200D01*
X93966666Y-64247200D02*
X93823809Y-64294819D01*
X93823809Y-64294819D02*
X93585714Y-64294819D01*
X95109523Y-64294819D02*
X94538095Y-64294819D01*
X94823809Y-64294819D02*
X94823809Y-63294819D01*
X94823809Y-63294819D02*
X94728571Y-63437676D01*
X94728571Y-63437676D02*
X94633333Y-63532914D01*
X94633333Y-63532914D02*
X94538095Y-63580533D01*
X96014285Y-63294819D02*
X95538095Y-63294819D01*
X95538095Y-63294819D02*
X95490476Y-63771009D01*
X95490476Y-63771009D02*
X95538095Y-63723390D01*
X95538095Y-63723390D02*
X95633333Y-63675771D01*
X95633333Y-63675771D02*
X95871428Y-63675771D01*
X95871428Y-63675771D02*
X95966666Y-63723390D01*
X95966666Y-63723390D02*
X96014285Y-63771009D01*
X96014285Y-63771009D02*
X96061904Y-63866247D01*
X96061904Y-63866247D02*
X96061904Y-64104342D01*
X96061904Y-64104342D02*
X96014285Y-64199580D01*
X96014285Y-64199580D02*
X95966666Y-64247200D01*
X95966666Y-64247200D02*
X95871428Y-64294819D01*
X95871428Y-64294819D02*
X95633333Y-64294819D01*
X95633333Y-64294819D02*
X95538095Y-64247200D01*
X95538095Y-64247200D02*
X95490476Y-64199580D01*
X93635714Y-77124819D02*
X93635714Y-76124819D01*
X93635714Y-76124819D02*
X93873809Y-76124819D01*
X93873809Y-76124819D02*
X94016666Y-76172438D01*
X94016666Y-76172438D02*
X94111904Y-76267676D01*
X94111904Y-76267676D02*
X94159523Y-76362914D01*
X94159523Y-76362914D02*
X94207142Y-76553390D01*
X94207142Y-76553390D02*
X94207142Y-76696247D01*
X94207142Y-76696247D02*
X94159523Y-76886723D01*
X94159523Y-76886723D02*
X94111904Y-76981961D01*
X94111904Y-76981961D02*
X94016666Y-77077200D01*
X94016666Y-77077200D02*
X93873809Y-77124819D01*
X93873809Y-77124819D02*
X93635714Y-77124819D01*
X95159523Y-77124819D02*
X94588095Y-77124819D01*
X94873809Y-77124819D02*
X94873809Y-76124819D01*
X94873809Y-76124819D02*
X94778571Y-76267676D01*
X94778571Y-76267676D02*
X94683333Y-76362914D01*
X94683333Y-76362914D02*
X94588095Y-76410533D01*
X96111904Y-77124819D02*
X95540476Y-77124819D01*
X95826190Y-77124819D02*
X95826190Y-76124819D01*
X95826190Y-76124819D02*
X95730952Y-76267676D01*
X95730952Y-76267676D02*
X95635714Y-76362914D01*
X95635714Y-76362914D02*
X95540476Y-76410533D01*
X93715714Y-67474819D02*
X93715714Y-66474819D01*
X93715714Y-66474819D02*
X93953809Y-66474819D01*
X93953809Y-66474819D02*
X94096666Y-66522438D01*
X94096666Y-66522438D02*
X94191904Y-66617676D01*
X94191904Y-66617676D02*
X94239523Y-66712914D01*
X94239523Y-66712914D02*
X94287142Y-66903390D01*
X94287142Y-66903390D02*
X94287142Y-67046247D01*
X94287142Y-67046247D02*
X94239523Y-67236723D01*
X94239523Y-67236723D02*
X94191904Y-67331961D01*
X94191904Y-67331961D02*
X94096666Y-67427200D01*
X94096666Y-67427200D02*
X93953809Y-67474819D01*
X93953809Y-67474819D02*
X93715714Y-67474819D01*
X95239523Y-67474819D02*
X94668095Y-67474819D01*
X94953809Y-67474819D02*
X94953809Y-66474819D01*
X94953809Y-66474819D02*
X94858571Y-66617676D01*
X94858571Y-66617676D02*
X94763333Y-66712914D01*
X94763333Y-66712914D02*
X94668095Y-66760533D01*
X96096666Y-66808152D02*
X96096666Y-67474819D01*
X95858571Y-66427200D02*
X95620476Y-67141485D01*
X95620476Y-67141485D02*
X96239523Y-67141485D01*
D11*
X136410714Y-87912815D02*
X136144047Y-87531862D01*
X135953571Y-87912815D02*
X135953571Y-87112815D01*
X135953571Y-87112815D02*
X136258333Y-87112815D01*
X136258333Y-87112815D02*
X136334523Y-87150910D01*
X136334523Y-87150910D02*
X136372618Y-87189005D01*
X136372618Y-87189005D02*
X136410714Y-87265196D01*
X136410714Y-87265196D02*
X136410714Y-87379481D01*
X136410714Y-87379481D02*
X136372618Y-87455672D01*
X136372618Y-87455672D02*
X136334523Y-87493767D01*
X136334523Y-87493767D02*
X136258333Y-87531862D01*
X136258333Y-87531862D02*
X135953571Y-87531862D01*
X136715475Y-87189005D02*
X136753571Y-87150910D01*
X136753571Y-87150910D02*
X136829761Y-87112815D01*
X136829761Y-87112815D02*
X137020237Y-87112815D01*
X137020237Y-87112815D02*
X137096428Y-87150910D01*
X137096428Y-87150910D02*
X137134523Y-87189005D01*
X137134523Y-87189005D02*
X137172618Y-87265196D01*
X137172618Y-87265196D02*
X137172618Y-87341386D01*
X137172618Y-87341386D02*
X137134523Y-87455672D01*
X137134523Y-87455672D02*
X136677380Y-87912815D01*
X136677380Y-87912815D02*
X137172618Y-87912815D01*
X137896428Y-87112815D02*
X137515476Y-87112815D01*
X137515476Y-87112815D02*
X137477380Y-87493767D01*
X137477380Y-87493767D02*
X137515476Y-87455672D01*
X137515476Y-87455672D02*
X137591666Y-87417577D01*
X137591666Y-87417577D02*
X137782142Y-87417577D01*
X137782142Y-87417577D02*
X137858333Y-87455672D01*
X137858333Y-87455672D02*
X137896428Y-87493767D01*
X137896428Y-87493767D02*
X137934523Y-87569958D01*
X137934523Y-87569958D02*
X137934523Y-87760434D01*
X137934523Y-87760434D02*
X137896428Y-87836624D01*
X137896428Y-87836624D02*
X137858333Y-87874720D01*
X137858333Y-87874720D02*
X137782142Y-87912815D01*
X137782142Y-87912815D02*
X137591666Y-87912815D01*
X137591666Y-87912815D02*
X137515476Y-87874720D01*
X137515476Y-87874720D02*
X137477380Y-87836624D01*
D10*
X94344405Y-86894819D02*
X94344405Y-85894819D01*
X94344405Y-85894819D02*
X94582500Y-85894819D01*
X94582500Y-85894819D02*
X94725357Y-85942438D01*
X94725357Y-85942438D02*
X94820595Y-86037676D01*
X94820595Y-86037676D02*
X94868214Y-86132914D01*
X94868214Y-86132914D02*
X94915833Y-86323390D01*
X94915833Y-86323390D02*
X94915833Y-86466247D01*
X94915833Y-86466247D02*
X94868214Y-86656723D01*
X94868214Y-86656723D02*
X94820595Y-86751961D01*
X94820595Y-86751961D02*
X94725357Y-86847200D01*
X94725357Y-86847200D02*
X94582500Y-86894819D01*
X94582500Y-86894819D02*
X94344405Y-86894819D01*
X95487262Y-86323390D02*
X95392024Y-86275771D01*
X95392024Y-86275771D02*
X95344405Y-86228152D01*
X95344405Y-86228152D02*
X95296786Y-86132914D01*
X95296786Y-86132914D02*
X95296786Y-86085295D01*
X95296786Y-86085295D02*
X95344405Y-85990057D01*
X95344405Y-85990057D02*
X95392024Y-85942438D01*
X95392024Y-85942438D02*
X95487262Y-85894819D01*
X95487262Y-85894819D02*
X95677738Y-85894819D01*
X95677738Y-85894819D02*
X95772976Y-85942438D01*
X95772976Y-85942438D02*
X95820595Y-85990057D01*
X95820595Y-85990057D02*
X95868214Y-86085295D01*
X95868214Y-86085295D02*
X95868214Y-86132914D01*
X95868214Y-86132914D02*
X95820595Y-86228152D01*
X95820595Y-86228152D02*
X95772976Y-86275771D01*
X95772976Y-86275771D02*
X95677738Y-86323390D01*
X95677738Y-86323390D02*
X95487262Y-86323390D01*
X95487262Y-86323390D02*
X95392024Y-86371009D01*
X95392024Y-86371009D02*
X95344405Y-86418628D01*
X95344405Y-86418628D02*
X95296786Y-86513866D01*
X95296786Y-86513866D02*
X95296786Y-86704342D01*
X95296786Y-86704342D02*
X95344405Y-86799580D01*
X95344405Y-86799580D02*
X95392024Y-86847200D01*
X95392024Y-86847200D02*
X95487262Y-86894819D01*
X95487262Y-86894819D02*
X95677738Y-86894819D01*
X95677738Y-86894819D02*
X95772976Y-86847200D01*
X95772976Y-86847200D02*
X95820595Y-86799580D01*
X95820595Y-86799580D02*
X95868214Y-86704342D01*
X95868214Y-86704342D02*
X95868214Y-86513866D01*
X95868214Y-86513866D02*
X95820595Y-86418628D01*
X95820595Y-86418628D02*
X95772976Y-86371009D01*
X95772976Y-86371009D02*
X95677738Y-86323390D01*
X94601905Y-83564819D02*
X94601905Y-82564819D01*
X94601905Y-82564819D02*
X94840000Y-82564819D01*
X94840000Y-82564819D02*
X94982857Y-82612438D01*
X94982857Y-82612438D02*
X95078095Y-82707676D01*
X95078095Y-82707676D02*
X95125714Y-82802914D01*
X95125714Y-82802914D02*
X95173333Y-82993390D01*
X95173333Y-82993390D02*
X95173333Y-83136247D01*
X95173333Y-83136247D02*
X95125714Y-83326723D01*
X95125714Y-83326723D02*
X95078095Y-83421961D01*
X95078095Y-83421961D02*
X94982857Y-83517200D01*
X94982857Y-83517200D02*
X94840000Y-83564819D01*
X94840000Y-83564819D02*
X94601905Y-83564819D01*
X95649524Y-83564819D02*
X95840000Y-83564819D01*
X95840000Y-83564819D02*
X95935238Y-83517200D01*
X95935238Y-83517200D02*
X95982857Y-83469580D01*
X95982857Y-83469580D02*
X96078095Y-83326723D01*
X96078095Y-83326723D02*
X96125714Y-83136247D01*
X96125714Y-83136247D02*
X96125714Y-82755295D01*
X96125714Y-82755295D02*
X96078095Y-82660057D01*
X96078095Y-82660057D02*
X96030476Y-82612438D01*
X96030476Y-82612438D02*
X95935238Y-82564819D01*
X95935238Y-82564819D02*
X95744762Y-82564819D01*
X95744762Y-82564819D02*
X95649524Y-82612438D01*
X95649524Y-82612438D02*
X95601905Y-82660057D01*
X95601905Y-82660057D02*
X95554286Y-82755295D01*
X95554286Y-82755295D02*
X95554286Y-82993390D01*
X95554286Y-82993390D02*
X95601905Y-83088628D01*
X95601905Y-83088628D02*
X95649524Y-83136247D01*
X95649524Y-83136247D02*
X95744762Y-83183866D01*
X95744762Y-83183866D02*
X95935238Y-83183866D01*
X95935238Y-83183866D02*
X96030476Y-83136247D01*
X96030476Y-83136247D02*
X96078095Y-83088628D01*
X96078095Y-83088628D02*
X96125714Y-82993390D01*
X93505714Y-70514819D02*
X93505714Y-69514819D01*
X93505714Y-69514819D02*
X93743809Y-69514819D01*
X93743809Y-69514819D02*
X93886666Y-69562438D01*
X93886666Y-69562438D02*
X93981904Y-69657676D01*
X93981904Y-69657676D02*
X94029523Y-69752914D01*
X94029523Y-69752914D02*
X94077142Y-69943390D01*
X94077142Y-69943390D02*
X94077142Y-70086247D01*
X94077142Y-70086247D02*
X94029523Y-70276723D01*
X94029523Y-70276723D02*
X93981904Y-70371961D01*
X93981904Y-70371961D02*
X93886666Y-70467200D01*
X93886666Y-70467200D02*
X93743809Y-70514819D01*
X93743809Y-70514819D02*
X93505714Y-70514819D01*
X95029523Y-70514819D02*
X94458095Y-70514819D01*
X94743809Y-70514819D02*
X94743809Y-69514819D01*
X94743809Y-69514819D02*
X94648571Y-69657676D01*
X94648571Y-69657676D02*
X94553333Y-69752914D01*
X94553333Y-69752914D02*
X94458095Y-69800533D01*
X95362857Y-69514819D02*
X95981904Y-69514819D01*
X95981904Y-69514819D02*
X95648571Y-69895771D01*
X95648571Y-69895771D02*
X95791428Y-69895771D01*
X95791428Y-69895771D02*
X95886666Y-69943390D01*
X95886666Y-69943390D02*
X95934285Y-69991009D01*
X95934285Y-69991009D02*
X95981904Y-70086247D01*
X95981904Y-70086247D02*
X95981904Y-70324342D01*
X95981904Y-70324342D02*
X95934285Y-70419580D01*
X95934285Y-70419580D02*
X95886666Y-70467200D01*
X95886666Y-70467200D02*
X95791428Y-70514819D01*
X95791428Y-70514819D02*
X95505714Y-70514819D01*
X95505714Y-70514819D02*
X95410476Y-70467200D01*
X95410476Y-70467200D02*
X95362857Y-70419580D01*
X82761905Y-72932597D02*
X82761905Y-71932597D01*
X82761905Y-71932597D02*
X83000000Y-71932597D01*
X83000000Y-71932597D02*
X83142857Y-71980216D01*
X83142857Y-71980216D02*
X83238095Y-72075454D01*
X83238095Y-72075454D02*
X83285714Y-72170692D01*
X83285714Y-72170692D02*
X83333333Y-72361168D01*
X83333333Y-72361168D02*
X83333333Y-72504025D01*
X83333333Y-72504025D02*
X83285714Y-72694501D01*
X83285714Y-72694501D02*
X83238095Y-72789739D01*
X83238095Y-72789739D02*
X83142857Y-72884978D01*
X83142857Y-72884978D02*
X83000000Y-72932597D01*
X83000000Y-72932597D02*
X82761905Y-72932597D01*
X84190476Y-72265930D02*
X84190476Y-72932597D01*
X83952381Y-71884978D02*
X83714286Y-72599263D01*
X83714286Y-72599263D02*
X84333333Y-72599263D01*
D11*
X89836667Y-74488527D02*
X89570000Y-74107574D01*
X89379524Y-74488527D02*
X89379524Y-73688527D01*
X89379524Y-73688527D02*
X89684286Y-73688527D01*
X89684286Y-73688527D02*
X89760476Y-73726622D01*
X89760476Y-73726622D02*
X89798571Y-73764717D01*
X89798571Y-73764717D02*
X89836667Y-73840908D01*
X89836667Y-73840908D02*
X89836667Y-73955193D01*
X89836667Y-73955193D02*
X89798571Y-74031384D01*
X89798571Y-74031384D02*
X89760476Y-74069479D01*
X89760476Y-74069479D02*
X89684286Y-74107574D01*
X89684286Y-74107574D02*
X89379524Y-74107574D01*
X90217619Y-74488527D02*
X90370000Y-74488527D01*
X90370000Y-74488527D02*
X90446190Y-74450432D01*
X90446190Y-74450432D02*
X90484286Y-74412336D01*
X90484286Y-74412336D02*
X90560476Y-74298051D01*
X90560476Y-74298051D02*
X90598571Y-74145670D01*
X90598571Y-74145670D02*
X90598571Y-73840908D01*
X90598571Y-73840908D02*
X90560476Y-73764717D01*
X90560476Y-73764717D02*
X90522381Y-73726622D01*
X90522381Y-73726622D02*
X90446190Y-73688527D01*
X90446190Y-73688527D02*
X90293809Y-73688527D01*
X90293809Y-73688527D02*
X90217619Y-73726622D01*
X90217619Y-73726622D02*
X90179524Y-73764717D01*
X90179524Y-73764717D02*
X90141428Y-73840908D01*
X90141428Y-73840908D02*
X90141428Y-74031384D01*
X90141428Y-74031384D02*
X90179524Y-74107574D01*
X90179524Y-74107574D02*
X90217619Y-74145670D01*
X90217619Y-74145670D02*
X90293809Y-74183765D01*
X90293809Y-74183765D02*
X90446190Y-74183765D01*
X90446190Y-74183765D02*
X90522381Y-74145670D01*
X90522381Y-74145670D02*
X90560476Y-74107574D01*
X90560476Y-74107574D02*
X90598571Y-74031384D01*
D10*
X107593690Y-74214819D02*
X107784166Y-74214819D01*
X107784166Y-74214819D02*
X107879404Y-74262438D01*
X107879404Y-74262438D02*
X107974642Y-74357676D01*
X107974642Y-74357676D02*
X108022261Y-74548152D01*
X108022261Y-74548152D02*
X108022261Y-74881485D01*
X108022261Y-74881485D02*
X107974642Y-75071961D01*
X107974642Y-75071961D02*
X107879404Y-75167200D01*
X107879404Y-75167200D02*
X107784166Y-75214819D01*
X107784166Y-75214819D02*
X107593690Y-75214819D01*
X107593690Y-75214819D02*
X107498452Y-75167200D01*
X107498452Y-75167200D02*
X107403214Y-75071961D01*
X107403214Y-75071961D02*
X107355595Y-74881485D01*
X107355595Y-74881485D02*
X107355595Y-74548152D01*
X107355595Y-74548152D02*
X107403214Y-74357676D01*
X107403214Y-74357676D02*
X107498452Y-74262438D01*
X107498452Y-74262438D02*
X107593690Y-74214819D01*
X108450833Y-74691009D02*
X108784166Y-74691009D01*
X108927023Y-75214819D02*
X108450833Y-75214819D01*
X108450833Y-75214819D02*
X108450833Y-74214819D01*
X108450833Y-74214819D02*
X108927023Y-74214819D01*
X109879404Y-75214819D02*
X109307976Y-75214819D01*
X109593690Y-75214819D02*
X109593690Y-74214819D01*
X109593690Y-74214819D02*
X109498452Y-74357676D01*
X109498452Y-74357676D02*
X109403214Y-74452914D01*
X109403214Y-74452914D02*
X109307976Y-74500533D01*
D11*
X114336667Y-64152815D02*
X114070000Y-63771862D01*
X113879524Y-64152815D02*
X113879524Y-63352815D01*
X113879524Y-63352815D02*
X114184286Y-63352815D01*
X114184286Y-63352815D02*
X114260476Y-63390910D01*
X114260476Y-63390910D02*
X114298571Y-63429005D01*
X114298571Y-63429005D02*
X114336667Y-63505196D01*
X114336667Y-63505196D02*
X114336667Y-63619481D01*
X114336667Y-63619481D02*
X114298571Y-63695672D01*
X114298571Y-63695672D02*
X114260476Y-63733767D01*
X114260476Y-63733767D02*
X114184286Y-63771862D01*
X114184286Y-63771862D02*
X113879524Y-63771862D01*
X115022381Y-63619481D02*
X115022381Y-64152815D01*
X114831905Y-63314720D02*
X114641428Y-63886148D01*
X114641428Y-63886148D02*
X115136667Y-63886148D01*
X76726667Y-86552815D02*
X76460000Y-86171862D01*
X76269524Y-86552815D02*
X76269524Y-85752815D01*
X76269524Y-85752815D02*
X76574286Y-85752815D01*
X76574286Y-85752815D02*
X76650476Y-85790910D01*
X76650476Y-85790910D02*
X76688571Y-85829005D01*
X76688571Y-85829005D02*
X76726667Y-85905196D01*
X76726667Y-85905196D02*
X76726667Y-86019481D01*
X76726667Y-86019481D02*
X76688571Y-86095672D01*
X76688571Y-86095672D02*
X76650476Y-86133767D01*
X76650476Y-86133767D02*
X76574286Y-86171862D01*
X76574286Y-86171862D02*
X76269524Y-86171862D01*
X77488571Y-86552815D02*
X77031428Y-86552815D01*
X77260000Y-86552815D02*
X77260000Y-85752815D01*
X77260000Y-85752815D02*
X77183809Y-85867100D01*
X77183809Y-85867100D02*
X77107619Y-85943291D01*
X77107619Y-85943291D02*
X77031428Y-85981386D01*
X101420714Y-65922815D02*
X101154047Y-65541862D01*
X100963571Y-65922815D02*
X100963571Y-65122815D01*
X100963571Y-65122815D02*
X101268333Y-65122815D01*
X101268333Y-65122815D02*
X101344523Y-65160910D01*
X101344523Y-65160910D02*
X101382618Y-65199005D01*
X101382618Y-65199005D02*
X101420714Y-65275196D01*
X101420714Y-65275196D02*
X101420714Y-65389481D01*
X101420714Y-65389481D02*
X101382618Y-65465672D01*
X101382618Y-65465672D02*
X101344523Y-65503767D01*
X101344523Y-65503767D02*
X101268333Y-65541862D01*
X101268333Y-65541862D02*
X100963571Y-65541862D01*
X101725475Y-65199005D02*
X101763571Y-65160910D01*
X101763571Y-65160910D02*
X101839761Y-65122815D01*
X101839761Y-65122815D02*
X102030237Y-65122815D01*
X102030237Y-65122815D02*
X102106428Y-65160910D01*
X102106428Y-65160910D02*
X102144523Y-65199005D01*
X102144523Y-65199005D02*
X102182618Y-65275196D01*
X102182618Y-65275196D02*
X102182618Y-65351386D01*
X102182618Y-65351386D02*
X102144523Y-65465672D01*
X102144523Y-65465672D02*
X101687380Y-65922815D01*
X101687380Y-65922815D02*
X102182618Y-65922815D01*
X102677857Y-65122815D02*
X102754047Y-65122815D01*
X102754047Y-65122815D02*
X102830238Y-65160910D01*
X102830238Y-65160910D02*
X102868333Y-65199005D01*
X102868333Y-65199005D02*
X102906428Y-65275196D01*
X102906428Y-65275196D02*
X102944523Y-65427577D01*
X102944523Y-65427577D02*
X102944523Y-65618053D01*
X102944523Y-65618053D02*
X102906428Y-65770434D01*
X102906428Y-65770434D02*
X102868333Y-65846624D01*
X102868333Y-65846624D02*
X102830238Y-65884720D01*
X102830238Y-65884720D02*
X102754047Y-65922815D01*
X102754047Y-65922815D02*
X102677857Y-65922815D01*
X102677857Y-65922815D02*
X102601666Y-65884720D01*
X102601666Y-65884720D02*
X102563571Y-65846624D01*
X102563571Y-65846624D02*
X102525476Y-65770434D01*
X102525476Y-65770434D02*
X102487380Y-65618053D01*
X102487380Y-65618053D02*
X102487380Y-65427577D01*
X102487380Y-65427577D02*
X102525476Y-65275196D01*
X102525476Y-65275196D02*
X102563571Y-65199005D01*
X102563571Y-65199005D02*
X102601666Y-65160910D01*
X102601666Y-65160910D02*
X102677857Y-65122815D01*
X101425714Y-62672815D02*
X101159047Y-62291862D01*
X100968571Y-62672815D02*
X100968571Y-61872815D01*
X100968571Y-61872815D02*
X101273333Y-61872815D01*
X101273333Y-61872815D02*
X101349523Y-61910910D01*
X101349523Y-61910910D02*
X101387618Y-61949005D01*
X101387618Y-61949005D02*
X101425714Y-62025196D01*
X101425714Y-62025196D02*
X101425714Y-62139481D01*
X101425714Y-62139481D02*
X101387618Y-62215672D01*
X101387618Y-62215672D02*
X101349523Y-62253767D01*
X101349523Y-62253767D02*
X101273333Y-62291862D01*
X101273333Y-62291862D02*
X100968571Y-62291862D01*
X101730475Y-61949005D02*
X101768571Y-61910910D01*
X101768571Y-61910910D02*
X101844761Y-61872815D01*
X101844761Y-61872815D02*
X102035237Y-61872815D01*
X102035237Y-61872815D02*
X102111428Y-61910910D01*
X102111428Y-61910910D02*
X102149523Y-61949005D01*
X102149523Y-61949005D02*
X102187618Y-62025196D01*
X102187618Y-62025196D02*
X102187618Y-62101386D01*
X102187618Y-62101386D02*
X102149523Y-62215672D01*
X102149523Y-62215672D02*
X101692380Y-62672815D01*
X101692380Y-62672815D02*
X102187618Y-62672815D01*
X102949523Y-62672815D02*
X102492380Y-62672815D01*
X102720952Y-62672815D02*
X102720952Y-61872815D01*
X102720952Y-61872815D02*
X102644761Y-61987100D01*
X102644761Y-61987100D02*
X102568571Y-62063291D01*
X102568571Y-62063291D02*
X102492380Y-62101386D01*
X89455714Y-65634243D02*
X89189047Y-65253290D01*
X88998571Y-65634243D02*
X88998571Y-64834243D01*
X88998571Y-64834243D02*
X89303333Y-64834243D01*
X89303333Y-64834243D02*
X89379523Y-64872338D01*
X89379523Y-64872338D02*
X89417618Y-64910433D01*
X89417618Y-64910433D02*
X89455714Y-64986624D01*
X89455714Y-64986624D02*
X89455714Y-65100909D01*
X89455714Y-65100909D02*
X89417618Y-65177100D01*
X89417618Y-65177100D02*
X89379523Y-65215195D01*
X89379523Y-65215195D02*
X89303333Y-65253290D01*
X89303333Y-65253290D02*
X88998571Y-65253290D01*
X90217618Y-65634243D02*
X89760475Y-65634243D01*
X89989047Y-65634243D02*
X89989047Y-64834243D01*
X89989047Y-64834243D02*
X89912856Y-64948528D01*
X89912856Y-64948528D02*
X89836666Y-65024719D01*
X89836666Y-65024719D02*
X89760475Y-65062814D01*
X90522380Y-64910433D02*
X90560476Y-64872338D01*
X90560476Y-64872338D02*
X90636666Y-64834243D01*
X90636666Y-64834243D02*
X90827142Y-64834243D01*
X90827142Y-64834243D02*
X90903333Y-64872338D01*
X90903333Y-64872338D02*
X90941428Y-64910433D01*
X90941428Y-64910433D02*
X90979523Y-64986624D01*
X90979523Y-64986624D02*
X90979523Y-65062814D01*
X90979523Y-65062814D02*
X90941428Y-65177100D01*
X90941428Y-65177100D02*
X90484285Y-65634243D01*
X90484285Y-65634243D02*
X90979523Y-65634243D01*
X101420714Y-69192815D02*
X101154047Y-68811862D01*
X100963571Y-69192815D02*
X100963571Y-68392815D01*
X100963571Y-68392815D02*
X101268333Y-68392815D01*
X101268333Y-68392815D02*
X101344523Y-68430910D01*
X101344523Y-68430910D02*
X101382618Y-68469005D01*
X101382618Y-68469005D02*
X101420714Y-68545196D01*
X101420714Y-68545196D02*
X101420714Y-68659481D01*
X101420714Y-68659481D02*
X101382618Y-68735672D01*
X101382618Y-68735672D02*
X101344523Y-68773767D01*
X101344523Y-68773767D02*
X101268333Y-68811862D01*
X101268333Y-68811862D02*
X100963571Y-68811862D01*
X102182618Y-69192815D02*
X101725475Y-69192815D01*
X101954047Y-69192815D02*
X101954047Y-68392815D01*
X101954047Y-68392815D02*
X101877856Y-68507100D01*
X101877856Y-68507100D02*
X101801666Y-68583291D01*
X101801666Y-68583291D02*
X101725475Y-68621386D01*
X102563571Y-69192815D02*
X102715952Y-69192815D01*
X102715952Y-69192815D02*
X102792142Y-69154720D01*
X102792142Y-69154720D02*
X102830238Y-69116624D01*
X102830238Y-69116624D02*
X102906428Y-69002339D01*
X102906428Y-69002339D02*
X102944523Y-68849958D01*
X102944523Y-68849958D02*
X102944523Y-68545196D01*
X102944523Y-68545196D02*
X102906428Y-68469005D01*
X102906428Y-68469005D02*
X102868333Y-68430910D01*
X102868333Y-68430910D02*
X102792142Y-68392815D01*
X102792142Y-68392815D02*
X102639761Y-68392815D01*
X102639761Y-68392815D02*
X102563571Y-68430910D01*
X102563571Y-68430910D02*
X102525476Y-68469005D01*
X102525476Y-68469005D02*
X102487380Y-68545196D01*
X102487380Y-68545196D02*
X102487380Y-68735672D01*
X102487380Y-68735672D02*
X102525476Y-68811862D01*
X102525476Y-68811862D02*
X102563571Y-68849958D01*
X102563571Y-68849958D02*
X102639761Y-68888053D01*
X102639761Y-68888053D02*
X102792142Y-68888053D01*
X102792142Y-68888053D02*
X102868333Y-68849958D01*
X102868333Y-68849958D02*
X102906428Y-68811862D01*
X102906428Y-68811862D02*
X102944523Y-68735672D01*
D10*
X75936071Y-71037200D02*
X76078928Y-71084819D01*
X76078928Y-71084819D02*
X76317023Y-71084819D01*
X76317023Y-71084819D02*
X76412261Y-71037200D01*
X76412261Y-71037200D02*
X76459880Y-70989580D01*
X76459880Y-70989580D02*
X76507499Y-70894342D01*
X76507499Y-70894342D02*
X76507499Y-70799104D01*
X76507499Y-70799104D02*
X76459880Y-70703866D01*
X76459880Y-70703866D02*
X76412261Y-70656247D01*
X76412261Y-70656247D02*
X76317023Y-70608628D01*
X76317023Y-70608628D02*
X76126547Y-70561009D01*
X76126547Y-70561009D02*
X76031309Y-70513390D01*
X76031309Y-70513390D02*
X75983690Y-70465771D01*
X75983690Y-70465771D02*
X75936071Y-70370533D01*
X75936071Y-70370533D02*
X75936071Y-70275295D01*
X75936071Y-70275295D02*
X75983690Y-70180057D01*
X75983690Y-70180057D02*
X76031309Y-70132438D01*
X76031309Y-70132438D02*
X76126547Y-70084819D01*
X76126547Y-70084819D02*
X76364642Y-70084819D01*
X76364642Y-70084819D02*
X76507499Y-70132438D01*
X76793214Y-70084819D02*
X77364642Y-70084819D01*
X77078928Y-71084819D02*
X77078928Y-70084819D01*
X77555119Y-70084819D02*
X77888452Y-71084819D01*
X77888452Y-71084819D02*
X78221785Y-70084819D01*
X79078928Y-71084819D02*
X78507500Y-71084819D01*
X78793214Y-71084819D02*
X78793214Y-70084819D01*
X78793214Y-70084819D02*
X78697976Y-70227676D01*
X78697976Y-70227676D02*
X78602738Y-70322914D01*
X78602738Y-70322914D02*
X78507500Y-70370533D01*
X93678214Y-73944819D02*
X93678214Y-72944819D01*
X93678214Y-72944819D02*
X93916309Y-72944819D01*
X93916309Y-72944819D02*
X94059166Y-72992438D01*
X94059166Y-72992438D02*
X94154404Y-73087676D01*
X94154404Y-73087676D02*
X94202023Y-73182914D01*
X94202023Y-73182914D02*
X94249642Y-73373390D01*
X94249642Y-73373390D02*
X94249642Y-73516247D01*
X94249642Y-73516247D02*
X94202023Y-73706723D01*
X94202023Y-73706723D02*
X94154404Y-73801961D01*
X94154404Y-73801961D02*
X94059166Y-73897200D01*
X94059166Y-73897200D02*
X93916309Y-73944819D01*
X93916309Y-73944819D02*
X93678214Y-73944819D01*
X95202023Y-73944819D02*
X94630595Y-73944819D01*
X94916309Y-73944819D02*
X94916309Y-72944819D01*
X94916309Y-72944819D02*
X94821071Y-73087676D01*
X94821071Y-73087676D02*
X94725833Y-73182914D01*
X94725833Y-73182914D02*
X94630595Y-73230533D01*
X95582976Y-73040057D02*
X95630595Y-72992438D01*
X95630595Y-72992438D02*
X95725833Y-72944819D01*
X95725833Y-72944819D02*
X95963928Y-72944819D01*
X95963928Y-72944819D02*
X96059166Y-72992438D01*
X96059166Y-72992438D02*
X96106785Y-73040057D01*
X96106785Y-73040057D02*
X96154404Y-73135295D01*
X96154404Y-73135295D02*
X96154404Y-73230533D01*
X96154404Y-73230533D02*
X96106785Y-73373390D01*
X96106785Y-73373390D02*
X95535357Y-73944819D01*
X95535357Y-73944819D02*
X96154404Y-73944819D01*
D11*
X89455714Y-68585671D02*
X89189047Y-68204718D01*
X88998571Y-68585671D02*
X88998571Y-67785671D01*
X88998571Y-67785671D02*
X89303333Y-67785671D01*
X89303333Y-67785671D02*
X89379523Y-67823766D01*
X89379523Y-67823766D02*
X89417618Y-67861861D01*
X89417618Y-67861861D02*
X89455714Y-67938052D01*
X89455714Y-67938052D02*
X89455714Y-68052337D01*
X89455714Y-68052337D02*
X89417618Y-68128528D01*
X89417618Y-68128528D02*
X89379523Y-68166623D01*
X89379523Y-68166623D02*
X89303333Y-68204718D01*
X89303333Y-68204718D02*
X88998571Y-68204718D01*
X90217618Y-68585671D02*
X89760475Y-68585671D01*
X89989047Y-68585671D02*
X89989047Y-67785671D01*
X89989047Y-67785671D02*
X89912856Y-67899956D01*
X89912856Y-67899956D02*
X89836666Y-67976147D01*
X89836666Y-67976147D02*
X89760475Y-68014242D01*
X90979523Y-68585671D02*
X90522380Y-68585671D01*
X90750952Y-68585671D02*
X90750952Y-67785671D01*
X90750952Y-67785671D02*
X90674761Y-67899956D01*
X90674761Y-67899956D02*
X90598571Y-67976147D01*
X90598571Y-67976147D02*
X90522380Y-68014242D01*
D13*
X131886667Y-64304318D02*
X131886667Y-65211461D01*
X131886667Y-65211461D02*
X131826190Y-65392889D01*
X131826190Y-65392889D02*
X131705238Y-65513842D01*
X131705238Y-65513842D02*
X131523809Y-65574318D01*
X131523809Y-65574318D02*
X131402857Y-65574318D01*
X133156667Y-65574318D02*
X132430952Y-65574318D01*
X132793809Y-65574318D02*
X132793809Y-64304318D01*
X132793809Y-64304318D02*
X132672857Y-64485746D01*
X132672857Y-64485746D02*
X132551905Y-64606699D01*
X132551905Y-64606699D02*
X132430952Y-64667175D01*
D11*
X101420714Y-72452815D02*
X101154047Y-72071862D01*
X100963571Y-72452815D02*
X100963571Y-71652815D01*
X100963571Y-71652815D02*
X101268333Y-71652815D01*
X101268333Y-71652815D02*
X101344523Y-71690910D01*
X101344523Y-71690910D02*
X101382618Y-71729005D01*
X101382618Y-71729005D02*
X101420714Y-71805196D01*
X101420714Y-71805196D02*
X101420714Y-71919481D01*
X101420714Y-71919481D02*
X101382618Y-71995672D01*
X101382618Y-71995672D02*
X101344523Y-72033767D01*
X101344523Y-72033767D02*
X101268333Y-72071862D01*
X101268333Y-72071862D02*
X100963571Y-72071862D01*
X102182618Y-72452815D02*
X101725475Y-72452815D01*
X101954047Y-72452815D02*
X101954047Y-71652815D01*
X101954047Y-71652815D02*
X101877856Y-71767100D01*
X101877856Y-71767100D02*
X101801666Y-71843291D01*
X101801666Y-71843291D02*
X101725475Y-71881386D01*
X102639761Y-71995672D02*
X102563571Y-71957577D01*
X102563571Y-71957577D02*
X102525476Y-71919481D01*
X102525476Y-71919481D02*
X102487380Y-71843291D01*
X102487380Y-71843291D02*
X102487380Y-71805196D01*
X102487380Y-71805196D02*
X102525476Y-71729005D01*
X102525476Y-71729005D02*
X102563571Y-71690910D01*
X102563571Y-71690910D02*
X102639761Y-71652815D01*
X102639761Y-71652815D02*
X102792142Y-71652815D01*
X102792142Y-71652815D02*
X102868333Y-71690910D01*
X102868333Y-71690910D02*
X102906428Y-71729005D01*
X102906428Y-71729005D02*
X102944523Y-71805196D01*
X102944523Y-71805196D02*
X102944523Y-71843291D01*
X102944523Y-71843291D02*
X102906428Y-71919481D01*
X102906428Y-71919481D02*
X102868333Y-71957577D01*
X102868333Y-71957577D02*
X102792142Y-71995672D01*
X102792142Y-71995672D02*
X102639761Y-71995672D01*
X102639761Y-71995672D02*
X102563571Y-72033767D01*
X102563571Y-72033767D02*
X102525476Y-72071862D01*
X102525476Y-72071862D02*
X102487380Y-72148053D01*
X102487380Y-72148053D02*
X102487380Y-72300434D01*
X102487380Y-72300434D02*
X102525476Y-72376624D01*
X102525476Y-72376624D02*
X102563571Y-72414720D01*
X102563571Y-72414720D02*
X102639761Y-72452815D01*
X102639761Y-72452815D02*
X102792142Y-72452815D01*
X102792142Y-72452815D02*
X102868333Y-72414720D01*
X102868333Y-72414720D02*
X102906428Y-72376624D01*
X102906428Y-72376624D02*
X102944523Y-72300434D01*
X102944523Y-72300434D02*
X102944523Y-72148053D01*
X102944523Y-72148053D02*
X102906428Y-72071862D01*
X102906428Y-72071862D02*
X102868333Y-72033767D01*
X102868333Y-72033767D02*
X102792142Y-71995672D01*
X89836667Y-83342815D02*
X89570000Y-82961862D01*
X89379524Y-83342815D02*
X89379524Y-82542815D01*
X89379524Y-82542815D02*
X89684286Y-82542815D01*
X89684286Y-82542815D02*
X89760476Y-82580910D01*
X89760476Y-82580910D02*
X89798571Y-82619005D01*
X89798571Y-82619005D02*
X89836667Y-82695196D01*
X89836667Y-82695196D02*
X89836667Y-82809481D01*
X89836667Y-82809481D02*
X89798571Y-82885672D01*
X89798571Y-82885672D02*
X89760476Y-82923767D01*
X89760476Y-82923767D02*
X89684286Y-82961862D01*
X89684286Y-82961862D02*
X89379524Y-82961862D01*
X90522381Y-82542815D02*
X90370000Y-82542815D01*
X90370000Y-82542815D02*
X90293809Y-82580910D01*
X90293809Y-82580910D02*
X90255714Y-82619005D01*
X90255714Y-82619005D02*
X90179524Y-82733291D01*
X90179524Y-82733291D02*
X90141428Y-82885672D01*
X90141428Y-82885672D02*
X90141428Y-83190434D01*
X90141428Y-83190434D02*
X90179524Y-83266624D01*
X90179524Y-83266624D02*
X90217619Y-83304720D01*
X90217619Y-83304720D02*
X90293809Y-83342815D01*
X90293809Y-83342815D02*
X90446190Y-83342815D01*
X90446190Y-83342815D02*
X90522381Y-83304720D01*
X90522381Y-83304720D02*
X90560476Y-83266624D01*
X90560476Y-83266624D02*
X90598571Y-83190434D01*
X90598571Y-83190434D02*
X90598571Y-82999958D01*
X90598571Y-82999958D02*
X90560476Y-82923767D01*
X90560476Y-82923767D02*
X90522381Y-82885672D01*
X90522381Y-82885672D02*
X90446190Y-82847577D01*
X90446190Y-82847577D02*
X90293809Y-82847577D01*
X90293809Y-82847577D02*
X90217619Y-82885672D01*
X90217619Y-82885672D02*
X90179524Y-82923767D01*
X90179524Y-82923767D02*
X90141428Y-82999958D01*
X80051667Y-76567815D02*
X79785000Y-76186862D01*
X79594524Y-76567815D02*
X79594524Y-75767815D01*
X79594524Y-75767815D02*
X79899286Y-75767815D01*
X79899286Y-75767815D02*
X79975476Y-75805910D01*
X79975476Y-75805910D02*
X80013571Y-75844005D01*
X80013571Y-75844005D02*
X80051667Y-75920196D01*
X80051667Y-75920196D02*
X80051667Y-76034481D01*
X80051667Y-76034481D02*
X80013571Y-76110672D01*
X80013571Y-76110672D02*
X79975476Y-76148767D01*
X79975476Y-76148767D02*
X79899286Y-76186862D01*
X79899286Y-76186862D02*
X79594524Y-76186862D01*
X80318333Y-75767815D02*
X80813571Y-75767815D01*
X80813571Y-75767815D02*
X80546905Y-76072577D01*
X80546905Y-76072577D02*
X80661190Y-76072577D01*
X80661190Y-76072577D02*
X80737381Y-76110672D01*
X80737381Y-76110672D02*
X80775476Y-76148767D01*
X80775476Y-76148767D02*
X80813571Y-76224958D01*
X80813571Y-76224958D02*
X80813571Y-76415434D01*
X80813571Y-76415434D02*
X80775476Y-76491624D01*
X80775476Y-76491624D02*
X80737381Y-76529720D01*
X80737381Y-76529720D02*
X80661190Y-76567815D01*
X80661190Y-76567815D02*
X80432619Y-76567815D01*
X80432619Y-76567815D02*
X80356428Y-76529720D01*
X80356428Y-76529720D02*
X80318333Y-76491624D01*
X80070714Y-69792815D02*
X79804047Y-69411862D01*
X79613571Y-69792815D02*
X79613571Y-68992815D01*
X79613571Y-68992815D02*
X79918333Y-68992815D01*
X79918333Y-68992815D02*
X79994523Y-69030910D01*
X79994523Y-69030910D02*
X80032618Y-69069005D01*
X80032618Y-69069005D02*
X80070714Y-69145196D01*
X80070714Y-69145196D02*
X80070714Y-69259481D01*
X80070714Y-69259481D02*
X80032618Y-69335672D01*
X80032618Y-69335672D02*
X79994523Y-69373767D01*
X79994523Y-69373767D02*
X79918333Y-69411862D01*
X79918333Y-69411862D02*
X79613571Y-69411862D01*
X80375475Y-69069005D02*
X80413571Y-69030910D01*
X80413571Y-69030910D02*
X80489761Y-68992815D01*
X80489761Y-68992815D02*
X80680237Y-68992815D01*
X80680237Y-68992815D02*
X80756428Y-69030910D01*
X80756428Y-69030910D02*
X80794523Y-69069005D01*
X80794523Y-69069005D02*
X80832618Y-69145196D01*
X80832618Y-69145196D02*
X80832618Y-69221386D01*
X80832618Y-69221386D02*
X80794523Y-69335672D01*
X80794523Y-69335672D02*
X80337380Y-69792815D01*
X80337380Y-69792815D02*
X80832618Y-69792815D01*
X81099285Y-68992815D02*
X81594523Y-68992815D01*
X81594523Y-68992815D02*
X81327857Y-69297577D01*
X81327857Y-69297577D02*
X81442142Y-69297577D01*
X81442142Y-69297577D02*
X81518333Y-69335672D01*
X81518333Y-69335672D02*
X81556428Y-69373767D01*
X81556428Y-69373767D02*
X81594523Y-69449958D01*
X81594523Y-69449958D02*
X81594523Y-69640434D01*
X81594523Y-69640434D02*
X81556428Y-69716624D01*
X81556428Y-69716624D02*
X81518333Y-69754720D01*
X81518333Y-69754720D02*
X81442142Y-69792815D01*
X81442142Y-69792815D02*
X81213571Y-69792815D01*
X81213571Y-69792815D02*
X81137380Y-69754720D01*
X81137380Y-69754720D02*
X81099285Y-69716624D01*
D10*
X82761905Y-70030479D02*
X82761905Y-69030479D01*
X82761905Y-69030479D02*
X83000000Y-69030479D01*
X83000000Y-69030479D02*
X83142857Y-69078098D01*
X83142857Y-69078098D02*
X83238095Y-69173336D01*
X83238095Y-69173336D02*
X83285714Y-69268574D01*
X83285714Y-69268574D02*
X83333333Y-69459050D01*
X83333333Y-69459050D02*
X83333333Y-69601907D01*
X83333333Y-69601907D02*
X83285714Y-69792383D01*
X83285714Y-69792383D02*
X83238095Y-69887621D01*
X83238095Y-69887621D02*
X83142857Y-69982860D01*
X83142857Y-69982860D02*
X83000000Y-70030479D01*
X83000000Y-70030479D02*
X82761905Y-70030479D01*
X84238095Y-69030479D02*
X83761905Y-69030479D01*
X83761905Y-69030479D02*
X83714286Y-69506669D01*
X83714286Y-69506669D02*
X83761905Y-69459050D01*
X83761905Y-69459050D02*
X83857143Y-69411431D01*
X83857143Y-69411431D02*
X84095238Y-69411431D01*
X84095238Y-69411431D02*
X84190476Y-69459050D01*
X84190476Y-69459050D02*
X84238095Y-69506669D01*
X84238095Y-69506669D02*
X84285714Y-69601907D01*
X84285714Y-69601907D02*
X84285714Y-69840002D01*
X84285714Y-69840002D02*
X84238095Y-69935240D01*
X84238095Y-69935240D02*
X84190476Y-69982860D01*
X84190476Y-69982860D02*
X84095238Y-70030479D01*
X84095238Y-70030479D02*
X83857143Y-70030479D01*
X83857143Y-70030479D02*
X83761905Y-69982860D01*
X83761905Y-69982860D02*
X83714286Y-69935240D01*
X82761905Y-78736833D02*
X82761905Y-77736833D01*
X82761905Y-77736833D02*
X83000000Y-77736833D01*
X83000000Y-77736833D02*
X83142857Y-77784452D01*
X83142857Y-77784452D02*
X83238095Y-77879690D01*
X83238095Y-77879690D02*
X83285714Y-77974928D01*
X83285714Y-77974928D02*
X83333333Y-78165404D01*
X83333333Y-78165404D02*
X83333333Y-78308261D01*
X83333333Y-78308261D02*
X83285714Y-78498737D01*
X83285714Y-78498737D02*
X83238095Y-78593975D01*
X83238095Y-78593975D02*
X83142857Y-78689214D01*
X83142857Y-78689214D02*
X83000000Y-78736833D01*
X83000000Y-78736833D02*
X82761905Y-78736833D01*
X83714286Y-77832071D02*
X83761905Y-77784452D01*
X83761905Y-77784452D02*
X83857143Y-77736833D01*
X83857143Y-77736833D02*
X84095238Y-77736833D01*
X84095238Y-77736833D02*
X84190476Y-77784452D01*
X84190476Y-77784452D02*
X84238095Y-77832071D01*
X84238095Y-77832071D02*
X84285714Y-77927309D01*
X84285714Y-77927309D02*
X84285714Y-78022547D01*
X84285714Y-78022547D02*
X84238095Y-78165404D01*
X84238095Y-78165404D02*
X83666667Y-78736833D01*
X83666667Y-78736833D02*
X84285714Y-78736833D01*
X82761905Y-84544819D02*
X82761905Y-83544819D01*
X82761905Y-83544819D02*
X83000000Y-83544819D01*
X83000000Y-83544819D02*
X83142857Y-83592438D01*
X83142857Y-83592438D02*
X83238095Y-83687676D01*
X83238095Y-83687676D02*
X83285714Y-83782914D01*
X83285714Y-83782914D02*
X83333333Y-83973390D01*
X83333333Y-83973390D02*
X83333333Y-84116247D01*
X83333333Y-84116247D02*
X83285714Y-84306723D01*
X83285714Y-84306723D02*
X83238095Y-84401961D01*
X83238095Y-84401961D02*
X83142857Y-84497200D01*
X83142857Y-84497200D02*
X83000000Y-84544819D01*
X83000000Y-84544819D02*
X82761905Y-84544819D01*
X83952381Y-83544819D02*
X84047619Y-83544819D01*
X84047619Y-83544819D02*
X84142857Y-83592438D01*
X84142857Y-83592438D02*
X84190476Y-83640057D01*
X84190476Y-83640057D02*
X84238095Y-83735295D01*
X84238095Y-83735295D02*
X84285714Y-83925771D01*
X84285714Y-83925771D02*
X84285714Y-84163866D01*
X84285714Y-84163866D02*
X84238095Y-84354342D01*
X84238095Y-84354342D02*
X84190476Y-84449580D01*
X84190476Y-84449580D02*
X84142857Y-84497200D01*
X84142857Y-84497200D02*
X84047619Y-84544819D01*
X84047619Y-84544819D02*
X83952381Y-84544819D01*
X83952381Y-84544819D02*
X83857143Y-84497200D01*
X83857143Y-84497200D02*
X83809524Y-84449580D01*
X83809524Y-84449580D02*
X83761905Y-84354342D01*
X83761905Y-84354342D02*
X83714286Y-84163866D01*
X83714286Y-84163866D02*
X83714286Y-83925771D01*
X83714286Y-83925771D02*
X83761905Y-83735295D01*
X83761905Y-83735295D02*
X83809524Y-83640057D01*
X83809524Y-83640057D02*
X83857143Y-83592438D01*
X83857143Y-83592438D02*
X83952381Y-83544819D01*
X82761905Y-67128361D02*
X82761905Y-66128361D01*
X82761905Y-66128361D02*
X83000000Y-66128361D01*
X83000000Y-66128361D02*
X83142857Y-66175980D01*
X83142857Y-66175980D02*
X83238095Y-66271218D01*
X83238095Y-66271218D02*
X83285714Y-66366456D01*
X83285714Y-66366456D02*
X83333333Y-66556932D01*
X83333333Y-66556932D02*
X83333333Y-66699789D01*
X83333333Y-66699789D02*
X83285714Y-66890265D01*
X83285714Y-66890265D02*
X83238095Y-66985503D01*
X83238095Y-66985503D02*
X83142857Y-67080742D01*
X83142857Y-67080742D02*
X83000000Y-67128361D01*
X83000000Y-67128361D02*
X82761905Y-67128361D01*
X84190476Y-66128361D02*
X84000000Y-66128361D01*
X84000000Y-66128361D02*
X83904762Y-66175980D01*
X83904762Y-66175980D02*
X83857143Y-66223599D01*
X83857143Y-66223599D02*
X83761905Y-66366456D01*
X83761905Y-66366456D02*
X83714286Y-66556932D01*
X83714286Y-66556932D02*
X83714286Y-66937884D01*
X83714286Y-66937884D02*
X83761905Y-67033122D01*
X83761905Y-67033122D02*
X83809524Y-67080742D01*
X83809524Y-67080742D02*
X83904762Y-67128361D01*
X83904762Y-67128361D02*
X84095238Y-67128361D01*
X84095238Y-67128361D02*
X84190476Y-67080742D01*
X84190476Y-67080742D02*
X84238095Y-67033122D01*
X84238095Y-67033122D02*
X84285714Y-66937884D01*
X84285714Y-66937884D02*
X84285714Y-66699789D01*
X84285714Y-66699789D02*
X84238095Y-66604551D01*
X84238095Y-66604551D02*
X84190476Y-66556932D01*
X84190476Y-66556932D02*
X84095238Y-66509313D01*
X84095238Y-66509313D02*
X83904762Y-66509313D01*
X83904762Y-66509313D02*
X83809524Y-66556932D01*
X83809524Y-66556932D02*
X83761905Y-66604551D01*
X83761905Y-66604551D02*
X83714286Y-66699789D01*
D11*
X74612261Y-81883767D02*
X74878927Y-81883767D01*
X74993213Y-82302815D02*
X74612261Y-82302815D01*
X74612261Y-82302815D02*
X74612261Y-81502815D01*
X74612261Y-81502815D02*
X74993213Y-81502815D01*
X75336071Y-82302815D02*
X75336071Y-81502815D01*
X75336071Y-81502815D02*
X75640833Y-81502815D01*
X75640833Y-81502815D02*
X75717023Y-81540910D01*
X75717023Y-81540910D02*
X75755118Y-81579005D01*
X75755118Y-81579005D02*
X75793214Y-81655196D01*
X75793214Y-81655196D02*
X75793214Y-81769481D01*
X75793214Y-81769481D02*
X75755118Y-81845672D01*
X75755118Y-81845672D02*
X75717023Y-81883767D01*
X75717023Y-81883767D02*
X75640833Y-81921862D01*
X75640833Y-81921862D02*
X75336071Y-81921862D01*
X75945595Y-82379005D02*
X76555118Y-82379005D01*
X76745595Y-82302815D02*
X76745595Y-81502815D01*
X76745595Y-81502815D02*
X77012261Y-82074243D01*
X77012261Y-82074243D02*
X77278928Y-81502815D01*
X77278928Y-81502815D02*
X77278928Y-82302815D01*
X77812262Y-81502815D02*
X77964643Y-81502815D01*
X77964643Y-81502815D02*
X78040833Y-81540910D01*
X78040833Y-81540910D02*
X78117024Y-81617100D01*
X78117024Y-81617100D02*
X78155119Y-81769481D01*
X78155119Y-81769481D02*
X78155119Y-82036148D01*
X78155119Y-82036148D02*
X78117024Y-82188529D01*
X78117024Y-82188529D02*
X78040833Y-82264720D01*
X78040833Y-82264720D02*
X77964643Y-82302815D01*
X77964643Y-82302815D02*
X77812262Y-82302815D01*
X77812262Y-82302815D02*
X77736071Y-82264720D01*
X77736071Y-82264720D02*
X77659881Y-82188529D01*
X77659881Y-82188529D02*
X77621785Y-82036148D01*
X77621785Y-82036148D02*
X77621785Y-81769481D01*
X77621785Y-81769481D02*
X77659881Y-81617100D01*
X77659881Y-81617100D02*
X77736071Y-81540910D01*
X77736071Y-81540910D02*
X77812262Y-81502815D01*
X78497976Y-82302815D02*
X78497976Y-81502815D01*
X78497976Y-81502815D02*
X78688452Y-81502815D01*
X78688452Y-81502815D02*
X78802738Y-81540910D01*
X78802738Y-81540910D02*
X78878928Y-81617100D01*
X78878928Y-81617100D02*
X78917023Y-81693291D01*
X78917023Y-81693291D02*
X78955119Y-81845672D01*
X78955119Y-81845672D02*
X78955119Y-81959958D01*
X78955119Y-81959958D02*
X78917023Y-82112339D01*
X78917023Y-82112339D02*
X78878928Y-82188529D01*
X78878928Y-82188529D02*
X78802738Y-82264720D01*
X78802738Y-82264720D02*
X78688452Y-82302815D01*
X78688452Y-82302815D02*
X78497976Y-82302815D01*
X79297976Y-81883767D02*
X79564642Y-81883767D01*
X79678928Y-82302815D02*
X79297976Y-82302815D01*
X79297976Y-82302815D02*
X79297976Y-81502815D01*
X79297976Y-81502815D02*
X79678928Y-81502815D01*
X80440833Y-82302815D02*
X79983690Y-82302815D01*
X80212262Y-82302815D02*
X80212262Y-81502815D01*
X80212262Y-81502815D02*
X80136071Y-81617100D01*
X80136071Y-81617100D02*
X80059881Y-81693291D01*
X80059881Y-81693291D02*
X79983690Y-81731386D01*
D10*
X139010714Y-84287295D02*
X138744047Y-83906342D01*
X138553571Y-84287295D02*
X138553571Y-83487295D01*
X138553571Y-83487295D02*
X138858333Y-83487295D01*
X138858333Y-83487295D02*
X138934523Y-83525390D01*
X138934523Y-83525390D02*
X138972618Y-83563485D01*
X138972618Y-83563485D02*
X139010714Y-83639676D01*
X139010714Y-83639676D02*
X139010714Y-83753961D01*
X139010714Y-83753961D02*
X138972618Y-83830152D01*
X138972618Y-83830152D02*
X138934523Y-83868247D01*
X138934523Y-83868247D02*
X138858333Y-83906342D01*
X138858333Y-83906342D02*
X138553571Y-83906342D01*
X139315475Y-83563485D02*
X139353571Y-83525390D01*
X139353571Y-83525390D02*
X139429761Y-83487295D01*
X139429761Y-83487295D02*
X139620237Y-83487295D01*
X139620237Y-83487295D02*
X139696428Y-83525390D01*
X139696428Y-83525390D02*
X139734523Y-83563485D01*
X139734523Y-83563485D02*
X139772618Y-83639676D01*
X139772618Y-83639676D02*
X139772618Y-83715866D01*
X139772618Y-83715866D02*
X139734523Y-83830152D01*
X139734523Y-83830152D02*
X139277380Y-84287295D01*
X139277380Y-84287295D02*
X139772618Y-84287295D01*
X140458333Y-83753961D02*
X140458333Y-84287295D01*
X140267857Y-83449200D02*
X140077380Y-84020628D01*
X140077380Y-84020628D02*
X140572619Y-84020628D01*
D11*
X79751667Y-79867815D02*
X79485000Y-79486862D01*
X79294524Y-79867815D02*
X79294524Y-79067815D01*
X79294524Y-79067815D02*
X79599286Y-79067815D01*
X79599286Y-79067815D02*
X79675476Y-79105910D01*
X79675476Y-79105910D02*
X79713571Y-79144005D01*
X79713571Y-79144005D02*
X79751667Y-79220196D01*
X79751667Y-79220196D02*
X79751667Y-79334481D01*
X79751667Y-79334481D02*
X79713571Y-79410672D01*
X79713571Y-79410672D02*
X79675476Y-79448767D01*
X79675476Y-79448767D02*
X79599286Y-79486862D01*
X79599286Y-79486862D02*
X79294524Y-79486862D01*
X80056428Y-79144005D02*
X80094524Y-79105910D01*
X80094524Y-79105910D02*
X80170714Y-79067815D01*
X80170714Y-79067815D02*
X80361190Y-79067815D01*
X80361190Y-79067815D02*
X80437381Y-79105910D01*
X80437381Y-79105910D02*
X80475476Y-79144005D01*
X80475476Y-79144005D02*
X80513571Y-79220196D01*
X80513571Y-79220196D02*
X80513571Y-79296386D01*
X80513571Y-79296386D02*
X80475476Y-79410672D01*
X80475476Y-79410672D02*
X80018333Y-79867815D01*
X80018333Y-79867815D02*
X80513571Y-79867815D01*
D10*
X89327142Y-71629103D02*
X88993809Y-71152912D01*
X88755714Y-71629103D02*
X88755714Y-70629103D01*
X88755714Y-70629103D02*
X89136666Y-70629103D01*
X89136666Y-70629103D02*
X89231904Y-70676722D01*
X89231904Y-70676722D02*
X89279523Y-70724341D01*
X89279523Y-70724341D02*
X89327142Y-70819579D01*
X89327142Y-70819579D02*
X89327142Y-70962436D01*
X89327142Y-70962436D02*
X89279523Y-71057674D01*
X89279523Y-71057674D02*
X89231904Y-71105293D01*
X89231904Y-71105293D02*
X89136666Y-71152912D01*
X89136666Y-71152912D02*
X88755714Y-71152912D01*
X90279523Y-71629103D02*
X89708095Y-71629103D01*
X89993809Y-71629103D02*
X89993809Y-70629103D01*
X89993809Y-70629103D02*
X89898571Y-70771960D01*
X89898571Y-70771960D02*
X89803333Y-70867198D01*
X89803333Y-70867198D02*
X89708095Y-70914817D01*
X90898571Y-70629103D02*
X90993809Y-70629103D01*
X90993809Y-70629103D02*
X91089047Y-70676722D01*
X91089047Y-70676722D02*
X91136666Y-70724341D01*
X91136666Y-70724341D02*
X91184285Y-70819579D01*
X91184285Y-70819579D02*
X91231904Y-71010055D01*
X91231904Y-71010055D02*
X91231904Y-71248150D01*
X91231904Y-71248150D02*
X91184285Y-71438626D01*
X91184285Y-71438626D02*
X91136666Y-71533864D01*
X91136666Y-71533864D02*
X91089047Y-71581484D01*
X91089047Y-71581484D02*
X90993809Y-71629103D01*
X90993809Y-71629103D02*
X90898571Y-71629103D01*
X90898571Y-71629103D02*
X90803333Y-71581484D01*
X90803333Y-71581484D02*
X90755714Y-71533864D01*
X90755714Y-71533864D02*
X90708095Y-71438626D01*
X90708095Y-71438626D02*
X90660476Y-71248150D01*
X90660476Y-71248150D02*
X90660476Y-71010055D01*
X90660476Y-71010055D02*
X90708095Y-70819579D01*
X90708095Y-70819579D02*
X90755714Y-70724341D01*
X90755714Y-70724341D02*
X90803333Y-70676722D01*
X90803333Y-70676722D02*
X90898571Y-70629103D01*
X75805714Y-65824819D02*
X76472380Y-66824819D01*
X76472380Y-65824819D02*
X75805714Y-66824819D01*
X77424761Y-66729580D02*
X77377142Y-66777200D01*
X77377142Y-66777200D02*
X77234285Y-66824819D01*
X77234285Y-66824819D02*
X77139047Y-66824819D01*
X77139047Y-66824819D02*
X76996190Y-66777200D01*
X76996190Y-66777200D02*
X76900952Y-66681961D01*
X76900952Y-66681961D02*
X76853333Y-66586723D01*
X76853333Y-66586723D02*
X76805714Y-66396247D01*
X76805714Y-66396247D02*
X76805714Y-66253390D01*
X76805714Y-66253390D02*
X76853333Y-66062914D01*
X76853333Y-66062914D02*
X76900952Y-65967676D01*
X76900952Y-65967676D02*
X76996190Y-65872438D01*
X76996190Y-65872438D02*
X77139047Y-65824819D01*
X77139047Y-65824819D02*
X77234285Y-65824819D01*
X77234285Y-65824819D02*
X77377142Y-65872438D01*
X77377142Y-65872438D02*
X77424761Y-65920057D01*
X78329523Y-66824819D02*
X77853333Y-66824819D01*
X77853333Y-66824819D02*
X77853333Y-65824819D01*
X79186666Y-66824819D02*
X78615238Y-66824819D01*
X78900952Y-66824819D02*
X78900952Y-65824819D01*
X78900952Y-65824819D02*
X78805714Y-65967676D01*
X78805714Y-65967676D02*
X78710476Y-66062914D01*
X78710476Y-66062914D02*
X78615238Y-66110533D01*
D11*
X101420714Y-78922815D02*
X101154047Y-78541862D01*
X100963571Y-78922815D02*
X100963571Y-78122815D01*
X100963571Y-78122815D02*
X101268333Y-78122815D01*
X101268333Y-78122815D02*
X101344523Y-78160910D01*
X101344523Y-78160910D02*
X101382618Y-78199005D01*
X101382618Y-78199005D02*
X101420714Y-78275196D01*
X101420714Y-78275196D02*
X101420714Y-78389481D01*
X101420714Y-78389481D02*
X101382618Y-78465672D01*
X101382618Y-78465672D02*
X101344523Y-78503767D01*
X101344523Y-78503767D02*
X101268333Y-78541862D01*
X101268333Y-78541862D02*
X100963571Y-78541862D01*
X102182618Y-78922815D02*
X101725475Y-78922815D01*
X101954047Y-78922815D02*
X101954047Y-78122815D01*
X101954047Y-78122815D02*
X101877856Y-78237100D01*
X101877856Y-78237100D02*
X101801666Y-78313291D01*
X101801666Y-78313291D02*
X101725475Y-78351386D01*
X102868333Y-78122815D02*
X102715952Y-78122815D01*
X102715952Y-78122815D02*
X102639761Y-78160910D01*
X102639761Y-78160910D02*
X102601666Y-78199005D01*
X102601666Y-78199005D02*
X102525476Y-78313291D01*
X102525476Y-78313291D02*
X102487380Y-78465672D01*
X102487380Y-78465672D02*
X102487380Y-78770434D01*
X102487380Y-78770434D02*
X102525476Y-78846624D01*
X102525476Y-78846624D02*
X102563571Y-78884720D01*
X102563571Y-78884720D02*
X102639761Y-78922815D01*
X102639761Y-78922815D02*
X102792142Y-78922815D01*
X102792142Y-78922815D02*
X102868333Y-78884720D01*
X102868333Y-78884720D02*
X102906428Y-78846624D01*
X102906428Y-78846624D02*
X102944523Y-78770434D01*
X102944523Y-78770434D02*
X102944523Y-78579958D01*
X102944523Y-78579958D02*
X102906428Y-78503767D01*
X102906428Y-78503767D02*
X102868333Y-78465672D01*
X102868333Y-78465672D02*
X102792142Y-78427577D01*
X102792142Y-78427577D02*
X102639761Y-78427577D01*
X102639761Y-78427577D02*
X102563571Y-78465672D01*
X102563571Y-78465672D02*
X102525476Y-78503767D01*
X102525476Y-78503767D02*
X102487380Y-78579958D01*
X101420714Y-82162815D02*
X101154047Y-81781862D01*
X100963571Y-82162815D02*
X100963571Y-81362815D01*
X100963571Y-81362815D02*
X101268333Y-81362815D01*
X101268333Y-81362815D02*
X101344523Y-81400910D01*
X101344523Y-81400910D02*
X101382618Y-81439005D01*
X101382618Y-81439005D02*
X101420714Y-81515196D01*
X101420714Y-81515196D02*
X101420714Y-81629481D01*
X101420714Y-81629481D02*
X101382618Y-81705672D01*
X101382618Y-81705672D02*
X101344523Y-81743767D01*
X101344523Y-81743767D02*
X101268333Y-81781862D01*
X101268333Y-81781862D02*
X100963571Y-81781862D01*
X102182618Y-82162815D02*
X101725475Y-82162815D01*
X101954047Y-82162815D02*
X101954047Y-81362815D01*
X101954047Y-81362815D02*
X101877856Y-81477100D01*
X101877856Y-81477100D02*
X101801666Y-81553291D01*
X101801666Y-81553291D02*
X101725475Y-81591386D01*
X102906428Y-81362815D02*
X102525476Y-81362815D01*
X102525476Y-81362815D02*
X102487380Y-81743767D01*
X102487380Y-81743767D02*
X102525476Y-81705672D01*
X102525476Y-81705672D02*
X102601666Y-81667577D01*
X102601666Y-81667577D02*
X102792142Y-81667577D01*
X102792142Y-81667577D02*
X102868333Y-81705672D01*
X102868333Y-81705672D02*
X102906428Y-81743767D01*
X102906428Y-81743767D02*
X102944523Y-81819958D01*
X102944523Y-81819958D02*
X102944523Y-82010434D01*
X102944523Y-82010434D02*
X102906428Y-82086624D01*
X102906428Y-82086624D02*
X102868333Y-82124720D01*
X102868333Y-82124720D02*
X102792142Y-82162815D01*
X102792142Y-82162815D02*
X102601666Y-82162815D01*
X102601666Y-82162815D02*
X102525476Y-82124720D01*
X102525476Y-82124720D02*
X102487380Y-82086624D01*
X89455714Y-62682815D02*
X89189047Y-62301862D01*
X88998571Y-62682815D02*
X88998571Y-61882815D01*
X88998571Y-61882815D02*
X89303333Y-61882815D01*
X89303333Y-61882815D02*
X89379523Y-61920910D01*
X89379523Y-61920910D02*
X89417618Y-61959005D01*
X89417618Y-61959005D02*
X89455714Y-62035196D01*
X89455714Y-62035196D02*
X89455714Y-62149481D01*
X89455714Y-62149481D02*
X89417618Y-62225672D01*
X89417618Y-62225672D02*
X89379523Y-62263767D01*
X89379523Y-62263767D02*
X89303333Y-62301862D01*
X89303333Y-62301862D02*
X88998571Y-62301862D01*
X90217618Y-62682815D02*
X89760475Y-62682815D01*
X89989047Y-62682815D02*
X89989047Y-61882815D01*
X89989047Y-61882815D02*
X89912856Y-61997100D01*
X89912856Y-61997100D02*
X89836666Y-62073291D01*
X89836666Y-62073291D02*
X89760475Y-62111386D01*
X90484285Y-61882815D02*
X90979523Y-61882815D01*
X90979523Y-61882815D02*
X90712857Y-62187577D01*
X90712857Y-62187577D02*
X90827142Y-62187577D01*
X90827142Y-62187577D02*
X90903333Y-62225672D01*
X90903333Y-62225672D02*
X90941428Y-62263767D01*
X90941428Y-62263767D02*
X90979523Y-62339958D01*
X90979523Y-62339958D02*
X90979523Y-62530434D01*
X90979523Y-62530434D02*
X90941428Y-62606624D01*
X90941428Y-62606624D02*
X90903333Y-62644720D01*
X90903333Y-62644720D02*
X90827142Y-62682815D01*
X90827142Y-62682815D02*
X90598571Y-62682815D01*
X90598571Y-62682815D02*
X90522380Y-62644720D01*
X90522380Y-62644720D02*
X90484285Y-62606624D01*
X101420714Y-75722815D02*
X101154047Y-75341862D01*
X100963571Y-75722815D02*
X100963571Y-74922815D01*
X100963571Y-74922815D02*
X101268333Y-74922815D01*
X101268333Y-74922815D02*
X101344523Y-74960910D01*
X101344523Y-74960910D02*
X101382618Y-74999005D01*
X101382618Y-74999005D02*
X101420714Y-75075196D01*
X101420714Y-75075196D02*
X101420714Y-75189481D01*
X101420714Y-75189481D02*
X101382618Y-75265672D01*
X101382618Y-75265672D02*
X101344523Y-75303767D01*
X101344523Y-75303767D02*
X101268333Y-75341862D01*
X101268333Y-75341862D02*
X100963571Y-75341862D01*
X102182618Y-75722815D02*
X101725475Y-75722815D01*
X101954047Y-75722815D02*
X101954047Y-74922815D01*
X101954047Y-74922815D02*
X101877856Y-75037100D01*
X101877856Y-75037100D02*
X101801666Y-75113291D01*
X101801666Y-75113291D02*
X101725475Y-75151386D01*
X102449285Y-74922815D02*
X102982619Y-74922815D01*
X102982619Y-74922815D02*
X102639761Y-75722815D01*
D13*
X92692380Y-95304318D02*
X92692380Y-96332413D01*
X92692380Y-96332413D02*
X92752857Y-96453365D01*
X92752857Y-96453365D02*
X92813333Y-96513842D01*
X92813333Y-96513842D02*
X92934285Y-96574318D01*
X92934285Y-96574318D02*
X93176190Y-96574318D01*
X93176190Y-96574318D02*
X93297142Y-96513842D01*
X93297142Y-96513842D02*
X93357619Y-96453365D01*
X93357619Y-96453365D02*
X93418095Y-96332413D01*
X93418095Y-96332413D02*
X93418095Y-95304318D01*
X94688095Y-96574318D02*
X93962380Y-96574318D01*
X94325237Y-96574318D02*
X94325237Y-95304318D01*
X94325237Y-95304318D02*
X94204285Y-95485746D01*
X94204285Y-95485746D02*
X94083333Y-95606699D01*
X94083333Y-95606699D02*
X93962380Y-95667175D01*
D10*
X93670714Y-80439819D02*
X93670714Y-79439819D01*
X93670714Y-79439819D02*
X93908809Y-79439819D01*
X93908809Y-79439819D02*
X94051666Y-79487438D01*
X94051666Y-79487438D02*
X94146904Y-79582676D01*
X94146904Y-79582676D02*
X94194523Y-79677914D01*
X94194523Y-79677914D02*
X94242142Y-79868390D01*
X94242142Y-79868390D02*
X94242142Y-80011247D01*
X94242142Y-80011247D02*
X94194523Y-80201723D01*
X94194523Y-80201723D02*
X94146904Y-80296961D01*
X94146904Y-80296961D02*
X94051666Y-80392200D01*
X94051666Y-80392200D02*
X93908809Y-80439819D01*
X93908809Y-80439819D02*
X93670714Y-80439819D01*
X95194523Y-80439819D02*
X94623095Y-80439819D01*
X94908809Y-80439819D02*
X94908809Y-79439819D01*
X94908809Y-79439819D02*
X94813571Y-79582676D01*
X94813571Y-79582676D02*
X94718333Y-79677914D01*
X94718333Y-79677914D02*
X94623095Y-79725533D01*
X95813571Y-79439819D02*
X95908809Y-79439819D01*
X95908809Y-79439819D02*
X96004047Y-79487438D01*
X96004047Y-79487438D02*
X96051666Y-79535057D01*
X96051666Y-79535057D02*
X96099285Y-79630295D01*
X96099285Y-79630295D02*
X96146904Y-79820771D01*
X96146904Y-79820771D02*
X96146904Y-80058866D01*
X96146904Y-80058866D02*
X96099285Y-80249342D01*
X96099285Y-80249342D02*
X96051666Y-80344580D01*
X96051666Y-80344580D02*
X96004047Y-80392200D01*
X96004047Y-80392200D02*
X95908809Y-80439819D01*
X95908809Y-80439819D02*
X95813571Y-80439819D01*
X95813571Y-80439819D02*
X95718333Y-80392200D01*
X95718333Y-80392200D02*
X95670714Y-80344580D01*
X95670714Y-80344580D02*
X95623095Y-80249342D01*
X95623095Y-80249342D02*
X95575476Y-80058866D01*
X95575476Y-80058866D02*
X95575476Y-79820771D01*
X95575476Y-79820771D02*
X95623095Y-79630295D01*
X95623095Y-79630295D02*
X95670714Y-79535057D01*
X95670714Y-79535057D02*
X95718333Y-79487438D01*
X95718333Y-79487438D02*
X95813571Y-79439819D01*
D11*
X111596667Y-72822815D02*
X111330000Y-72441862D01*
X111139524Y-72822815D02*
X111139524Y-72022815D01*
X111139524Y-72022815D02*
X111444286Y-72022815D01*
X111444286Y-72022815D02*
X111520476Y-72060910D01*
X111520476Y-72060910D02*
X111558571Y-72099005D01*
X111558571Y-72099005D02*
X111596667Y-72175196D01*
X111596667Y-72175196D02*
X111596667Y-72289481D01*
X111596667Y-72289481D02*
X111558571Y-72365672D01*
X111558571Y-72365672D02*
X111520476Y-72403767D01*
X111520476Y-72403767D02*
X111444286Y-72441862D01*
X111444286Y-72441862D02*
X111139524Y-72441862D01*
X112320476Y-72022815D02*
X111939524Y-72022815D01*
X111939524Y-72022815D02*
X111901428Y-72403767D01*
X111901428Y-72403767D02*
X111939524Y-72365672D01*
X111939524Y-72365672D02*
X112015714Y-72327577D01*
X112015714Y-72327577D02*
X112206190Y-72327577D01*
X112206190Y-72327577D02*
X112282381Y-72365672D01*
X112282381Y-72365672D02*
X112320476Y-72403767D01*
X112320476Y-72403767D02*
X112358571Y-72479958D01*
X112358571Y-72479958D02*
X112358571Y-72670434D01*
X112358571Y-72670434D02*
X112320476Y-72746624D01*
X112320476Y-72746624D02*
X112282381Y-72784720D01*
X112282381Y-72784720D02*
X112206190Y-72822815D01*
X112206190Y-72822815D02*
X112015714Y-72822815D01*
X112015714Y-72822815D02*
X111939524Y-72784720D01*
X111939524Y-72784720D02*
X111901428Y-72746624D01*
D10*
X107474642Y-68254819D02*
X106998452Y-68254819D01*
X106998452Y-68254819D02*
X106998452Y-67254819D01*
X107807976Y-67731009D02*
X108141309Y-67731009D01*
X108284166Y-68254819D02*
X107807976Y-68254819D01*
X107807976Y-68254819D02*
X107807976Y-67254819D01*
X107807976Y-67254819D02*
X108284166Y-67254819D01*
X108712738Y-68254819D02*
X108712738Y-67254819D01*
X108712738Y-67731009D02*
X109284166Y-67731009D01*
X109284166Y-68254819D02*
X109284166Y-67254819D01*
X110284166Y-68254819D02*
X109712738Y-68254819D01*
X109998452Y-68254819D02*
X109998452Y-67254819D01*
X109998452Y-67254819D02*
X109903214Y-67397676D01*
X109903214Y-67397676D02*
X109807976Y-67492914D01*
X109807976Y-67492914D02*
X109712738Y-67540533D01*
X127761976Y-84244991D02*
X128095309Y-84721182D01*
X128333404Y-84244991D02*
X128333404Y-85244991D01*
X128333404Y-85244991D02*
X127952452Y-85244991D01*
X127952452Y-85244991D02*
X127857214Y-85197372D01*
X127857214Y-85197372D02*
X127809595Y-85149753D01*
X127809595Y-85149753D02*
X127761976Y-85054515D01*
X127761976Y-85054515D02*
X127761976Y-84911658D01*
X127761976Y-84911658D02*
X127809595Y-84816420D01*
X127809595Y-84816420D02*
X127857214Y-84768801D01*
X127857214Y-84768801D02*
X127952452Y-84721182D01*
X127952452Y-84721182D02*
X128333404Y-84721182D01*
X127333404Y-84244991D02*
X127333404Y-85244991D01*
X127333404Y-85244991D02*
X126761976Y-84244991D01*
X126761976Y-84244991D02*
X126761976Y-85244991D01*
X125761976Y-84244991D02*
X126333404Y-84244991D01*
X126047690Y-84244991D02*
X126047690Y-85244991D01*
X126047690Y-85244991D02*
X126142928Y-85102134D01*
X126142928Y-85102134D02*
X126238166Y-85006896D01*
X126238166Y-85006896D02*
X126333404Y-84959277D01*
X128371499Y-88544991D02*
X128371499Y-88306896D01*
X128609594Y-88402134D02*
X128371499Y-88306896D01*
X128371499Y-88306896D02*
X128133404Y-88402134D01*
X128514356Y-88116420D02*
X128371499Y-88306896D01*
X128371499Y-88306896D02*
X128228642Y-88116420D01*
X82761905Y-75834715D02*
X82761905Y-74834715D01*
X82761905Y-74834715D02*
X83000000Y-74834715D01*
X83000000Y-74834715D02*
X83142857Y-74882334D01*
X83142857Y-74882334D02*
X83238095Y-74977572D01*
X83238095Y-74977572D02*
X83285714Y-75072810D01*
X83285714Y-75072810D02*
X83333333Y-75263286D01*
X83333333Y-75263286D02*
X83333333Y-75406143D01*
X83333333Y-75406143D02*
X83285714Y-75596619D01*
X83285714Y-75596619D02*
X83238095Y-75691857D01*
X83238095Y-75691857D02*
X83142857Y-75787096D01*
X83142857Y-75787096D02*
X83000000Y-75834715D01*
X83000000Y-75834715D02*
X82761905Y-75834715D01*
X83666667Y-74834715D02*
X84285714Y-74834715D01*
X84285714Y-74834715D02*
X83952381Y-75215667D01*
X83952381Y-75215667D02*
X84095238Y-75215667D01*
X84095238Y-75215667D02*
X84190476Y-75263286D01*
X84190476Y-75263286D02*
X84238095Y-75310905D01*
X84238095Y-75310905D02*
X84285714Y-75406143D01*
X84285714Y-75406143D02*
X84285714Y-75644238D01*
X84285714Y-75644238D02*
X84238095Y-75739476D01*
X84238095Y-75739476D02*
X84190476Y-75787096D01*
X84190476Y-75787096D02*
X84095238Y-75834715D01*
X84095238Y-75834715D02*
X83809524Y-75834715D01*
X83809524Y-75834715D02*
X83714286Y-75787096D01*
X83714286Y-75787096D02*
X83666667Y-75739476D01*
D14*
X89732742Y-77984640D02*
X90207258Y-77984640D01*
X89732742Y-79029640D02*
X90207258Y-79029640D01*
X89732742Y-80936068D02*
X90207258Y-80936068D01*
X89732742Y-81981068D02*
X90207258Y-81981068D01*
X112082500Y-76992742D02*
X112082500Y-77467258D01*
X111037500Y-76992742D02*
X111037500Y-77467258D01*
X101697742Y-86007500D02*
X102172258Y-86007500D01*
X101697742Y-87052500D02*
X102172258Y-87052500D01*
X84795000Y-62790000D02*
X84795000Y-64710000D01*
X84795000Y-64710000D02*
X87480000Y-64710000D01*
X87480000Y-62790000D02*
X84795000Y-62790000D01*
X84795000Y-80332500D02*
X84795000Y-82252500D01*
X84795000Y-82252500D02*
X87480000Y-82252500D01*
X87480000Y-80332500D02*
X84795000Y-80332500D01*
X75822500Y-75740000D02*
X75822500Y-77660000D01*
X75822500Y-77660000D02*
X78507500Y-77660000D01*
X78507500Y-75740000D02*
X75822500Y-75740000D01*
X106932500Y-62790000D02*
X106932500Y-64710000D01*
X106932500Y-64710000D02*
X109617500Y-64710000D01*
X109617500Y-62790000D02*
X106932500Y-62790000D01*
X111600000Y-89540000D02*
X114000000Y-89540000D01*
X111600000Y-91940000D02*
X111600000Y-89540000D01*
X114000000Y-89540000D02*
X114000000Y-91940000D01*
X114000000Y-91940000D02*
X111600000Y-91940000D01*
X96605000Y-62790000D02*
X96605000Y-64710000D01*
X96605000Y-64710000D02*
X99290000Y-64710000D01*
X99290000Y-62790000D02*
X96605000Y-62790000D01*
X96605000Y-75790000D02*
X96605000Y-77710000D01*
X96605000Y-77710000D02*
X99290000Y-77710000D01*
X99290000Y-75790000D02*
X96605000Y-75790000D01*
X96605000Y-66040000D02*
X96605000Y-67960000D01*
X96605000Y-67960000D02*
X99290000Y-67960000D01*
X99290000Y-66040000D02*
X96605000Y-66040000D01*
X137112742Y-88402500D02*
X137587258Y-88402500D01*
X137112742Y-89447500D02*
X137587258Y-89447500D01*
X96605000Y-85540000D02*
X96605000Y-87460000D01*
X96605000Y-87460000D02*
X99290000Y-87460000D01*
X99290000Y-85540000D02*
X96605000Y-85540000D01*
X96605000Y-82290000D02*
X96605000Y-84210000D01*
X96605000Y-84210000D02*
X99290000Y-84210000D01*
X99290000Y-82290000D02*
X96605000Y-82290000D01*
X96605000Y-69290000D02*
X96605000Y-71210000D01*
X96605000Y-71210000D02*
X99290000Y-71210000D01*
X99290000Y-69290000D02*
X96605000Y-69290000D01*
X84795000Y-71561250D02*
X84795000Y-73481250D01*
X84795000Y-73481250D02*
X87480000Y-73481250D01*
X87480000Y-71561250D02*
X84795000Y-71561250D01*
X89732742Y-75033212D02*
X90207258Y-75033212D01*
X89732742Y-76078212D02*
X90207258Y-76078212D01*
X106932500Y-75450000D02*
X106932500Y-77370000D01*
X106932500Y-77370000D02*
X109617500Y-77370000D01*
X109617500Y-75450000D02*
X106932500Y-75450000D01*
X111972742Y-63247500D02*
X112447258Y-63247500D01*
X111972742Y-64292500D02*
X112447258Y-64292500D01*
X78972500Y-85962742D02*
X78972500Y-86437258D01*
X77927500Y-85962742D02*
X77927500Y-86437258D01*
X101697742Y-66467500D02*
X102172258Y-66467500D01*
X101697742Y-67512500D02*
X102172258Y-67512500D01*
X101702742Y-63217500D02*
X102177258Y-63217500D01*
X101702742Y-64262500D02*
X102177258Y-64262500D01*
X89732742Y-66178928D02*
X90207258Y-66178928D01*
X89732742Y-67223928D02*
X90207258Y-67223928D01*
X101697742Y-69737500D02*
X102172258Y-69737500D01*
X101697742Y-70782500D02*
X102172258Y-70782500D01*
X75822500Y-71320000D02*
X75822500Y-73240000D01*
X75822500Y-73240000D02*
X78507500Y-73240000D01*
X78507500Y-71320000D02*
X75822500Y-71320000D01*
X96605000Y-72540000D02*
X96605000Y-74460000D01*
X96605000Y-74460000D02*
X99290000Y-74460000D01*
X99290000Y-72540000D02*
X96605000Y-72540000D01*
X89732742Y-69130356D02*
X90207258Y-69130356D01*
X89732742Y-70175356D02*
X90207258Y-70175356D01*
D15*
X139160000Y-69675000D02*
X139160000Y-63900000D01*
X139160000Y-60900000D02*
X139160000Y-58175000D01*
X139160000Y-58175000D02*
X125460000Y-58175000D01*
X137910000Y-69675000D02*
X139160000Y-69675000D01*
D16*
X129360000Y-72400000D02*
X129360000Y-72400000D01*
X129360000Y-72300000D02*
X129360000Y-72300000D01*
D15*
X125460000Y-69675000D02*
X126310000Y-69675000D01*
X125460000Y-63900000D02*
X125460000Y-69675000D01*
X125460000Y-58175000D02*
X125460000Y-60900000D01*
D16*
X129360000Y-72300000D02*
G75*
G03*
X129360000Y-72400000I0J-50000D01*
G01*
X129360000Y-72400000D02*
G75*
G03*
X129360000Y-72300000I0J50000D01*
G01*
D14*
X101697742Y-72997500D02*
X102172258Y-72997500D01*
X101697742Y-74042500D02*
X102172258Y-74042500D01*
X89732742Y-83887500D02*
X90207258Y-83887500D01*
X89732742Y-84932500D02*
X90207258Y-84932500D01*
X80772500Y-72892742D02*
X80772500Y-73367258D01*
X79727500Y-72892742D02*
X79727500Y-73367258D01*
X80777742Y-67497500D02*
X81252258Y-67497500D01*
X80777742Y-68542500D02*
X81252258Y-68542500D01*
X84795000Y-68637500D02*
X84795000Y-70557500D01*
X84795000Y-70557500D02*
X87480000Y-70557500D01*
X87480000Y-68637500D02*
X84795000Y-68637500D01*
X84795000Y-77408750D02*
X84795000Y-79328750D01*
X84795000Y-79328750D02*
X87480000Y-79328750D01*
X87480000Y-77408750D02*
X84795000Y-77408750D01*
X84795000Y-83260000D02*
X84795000Y-85180000D01*
X84795000Y-85180000D02*
X87480000Y-85180000D01*
X87480000Y-83260000D02*
X84795000Y-83260000D01*
X84795000Y-65713750D02*
X84795000Y-67633750D01*
X84795000Y-67633750D02*
X87480000Y-67633750D01*
X87480000Y-65713750D02*
X84795000Y-65713750D01*
X75822500Y-82630000D02*
X75822500Y-84550000D01*
X75822500Y-84550000D02*
X78507500Y-84550000D01*
X78507500Y-82630000D02*
X75822500Y-82630000D01*
X140137258Y-85897500D02*
X139662742Y-85897500D01*
X140137258Y-84852500D02*
X139662742Y-84852500D01*
X78757500Y-79262742D02*
X78757500Y-79737258D01*
X77712500Y-79262742D02*
X77712500Y-79737258D01*
X89732742Y-72081784D02*
X90207258Y-72081784D01*
X89732742Y-73126784D02*
X90207258Y-73126784D01*
X75835000Y-67060000D02*
X75835000Y-68980000D01*
X75835000Y-68980000D02*
X78520000Y-68980000D01*
X78520000Y-67060000D02*
X75835000Y-67060000D01*
X101697742Y-79467500D02*
X102172258Y-79467500D01*
X101697742Y-80512500D02*
X102172258Y-80512500D01*
X101697742Y-82707500D02*
X102172258Y-82707500D01*
X101697742Y-83752500D02*
X102172258Y-83752500D01*
X89732742Y-63227500D02*
X90207258Y-63227500D01*
X89732742Y-64272500D02*
X90207258Y-64272500D01*
X101697742Y-76267500D02*
X102172258Y-76267500D01*
X101697742Y-77312500D02*
X102172258Y-77312500D01*
D16*
X82110000Y-93975000D02*
X82110000Y-94975000D01*
X82160000Y-93975000D02*
X82110000Y-93975000D01*
X83160000Y-93975000D02*
X82160000Y-93975000D01*
X83860000Y-92475000D02*
X83860000Y-92475000D01*
X83960000Y-92475000D02*
X83960000Y-92475000D01*
X104160000Y-93975000D02*
X105210000Y-93975000D01*
X105210000Y-93975000D02*
X105210000Y-94975000D01*
X83960000Y-92475000D02*
G75*
G03*
X83860000Y-92475000I-50000J0D01*
G01*
X83860000Y-92475000D02*
G75*
G03*
X83960000Y-92475000I50000J0D01*
G01*
D14*
X96605000Y-79040000D02*
X96605000Y-80960000D01*
X96605000Y-80960000D02*
X99290000Y-80960000D01*
X99290000Y-79040000D02*
X96605000Y-79040000D01*
X112332500Y-70052742D02*
X112332500Y-70527258D01*
X111287500Y-70052742D02*
X111287500Y-70527258D01*
X106932500Y-68490000D02*
X106932500Y-70410000D01*
X106932500Y-70410000D02*
X109617500Y-70410000D01*
X109617500Y-68490000D02*
X106932500Y-68490000D01*
X125090000Y-97285000D02*
X142930000Y-97285000D01*
X125090000Y-97285000D02*
X125090000Y-94625000D01*
X142930000Y-97285000D02*
X142930000Y-94625000D01*
X122490000Y-95955000D02*
X122490000Y-94625000D01*
X122490000Y-94625000D02*
X123820000Y-94625000D01*
X125090000Y-94625000D02*
X142930000Y-94625000D01*
D17*
X127239212Y-87960911D02*
X126883788Y-87960911D01*
X127239212Y-85598711D02*
X126883788Y-85598711D01*
D14*
X84795000Y-74485000D02*
X84795000Y-76405000D01*
X84795000Y-76405000D02*
X87480000Y-76405000D01*
X87480000Y-74485000D02*
X84795000Y-74485000D01*
%LPC*%
D18*
X89145000Y-78507140D03*
X90795000Y-78507140D03*
X89145000Y-81458568D03*
X90795000Y-81458568D03*
D19*
X111560000Y-76405000D03*
X111560000Y-78055000D03*
D18*
X101110000Y-86530000D03*
X102760000Y-86530000D03*
D20*
X85542500Y-63750000D03*
X87417500Y-63750000D03*
X85542500Y-81292500D03*
X87417500Y-81292500D03*
X76570000Y-76700000D03*
X78445000Y-76700000D03*
X107680000Y-63750000D03*
X109555000Y-63750000D03*
D21*
X112800000Y-90740000D03*
D20*
X97352500Y-63750000D03*
X99227500Y-63750000D03*
X97352500Y-76750000D03*
X99227500Y-76750000D03*
X97352500Y-67000000D03*
X99227500Y-67000000D03*
D18*
X136525000Y-88925000D03*
X138175000Y-88925000D03*
D20*
X97352500Y-86500000D03*
X99227500Y-86500000D03*
X97352500Y-83250000D03*
X99227500Y-83250000D03*
X97352500Y-70250000D03*
X99227500Y-70250000D03*
X85542500Y-72521250D03*
X87417500Y-72521250D03*
D18*
X89145000Y-75555712D03*
X90795000Y-75555712D03*
D20*
X107680000Y-76410000D03*
X109555000Y-76410000D03*
D18*
X111385000Y-63770000D03*
X113035000Y-63770000D03*
D19*
X78450000Y-85375000D03*
X78450000Y-87025000D03*
D18*
X101110000Y-66990000D03*
X102760000Y-66990000D03*
X101115000Y-63740000D03*
X102765000Y-63740000D03*
X89145000Y-66701428D03*
X90795000Y-66701428D03*
X101110000Y-70260000D03*
X102760000Y-70260000D03*
D20*
X76570000Y-72280000D03*
X78445000Y-72280000D03*
X97352500Y-73500000D03*
X99227500Y-73500000D03*
D18*
X89145000Y-69652856D03*
X90795000Y-69652856D03*
D22*
X137310000Y-67225000D03*
X127310000Y-67225000D03*
D23*
X127160000Y-70825000D03*
D24*
X125135000Y-62325000D03*
X139485000Y-62325000D03*
D23*
X129360000Y-70825000D03*
X130460000Y-70825000D03*
X131560000Y-70825000D03*
X132660000Y-70825000D03*
X133760000Y-70825000D03*
X134860000Y-70825000D03*
X135960000Y-70825000D03*
X137060000Y-70825000D03*
X128260000Y-70825000D03*
D18*
X101110000Y-73520000D03*
X102760000Y-73520000D03*
X89145000Y-84410000D03*
X90795000Y-84410000D03*
D25*
X73000000Y-79460000D03*
D19*
X80250000Y-72305000D03*
X80250000Y-73955000D03*
D18*
X80190000Y-68020000D03*
X81840000Y-68020000D03*
D20*
X85542500Y-69597500D03*
X87417500Y-69597500D03*
X85542500Y-78368750D03*
X87417500Y-78368750D03*
D25*
X115770000Y-79460000D03*
D20*
X85542500Y-84220000D03*
X87417500Y-84220000D03*
X85542500Y-66673750D03*
X87417500Y-66673750D03*
X76570000Y-83590000D03*
X78445000Y-83590000D03*
D26*
X140725000Y-85375000D03*
X139075000Y-85375000D03*
D19*
X78235000Y-78675000D03*
X78235000Y-80325000D03*
D18*
X89145000Y-72604284D03*
X90795000Y-72604284D03*
D20*
X76582500Y-68020000D03*
X78457500Y-68020000D03*
D18*
X101110000Y-79990000D03*
X102760000Y-79990000D03*
X101110000Y-83230000D03*
X102760000Y-83230000D03*
X89145000Y-63750000D03*
X90795000Y-63750000D03*
X101110000Y-76790000D03*
X102760000Y-76790000D03*
D27*
X83910000Y-93325000D03*
X84410000Y-93325000D03*
X84910000Y-93325000D03*
X85410000Y-93325000D03*
X85910000Y-93325000D03*
X86410000Y-93325000D03*
X86910000Y-93325000D03*
X87410000Y-93325000D03*
X87910000Y-93325000D03*
X88410000Y-93325000D03*
X88910000Y-93325000D03*
X89410000Y-93325000D03*
X89910000Y-93325000D03*
X90410000Y-93325000D03*
X90910000Y-93325000D03*
X91410000Y-93325000D03*
X91910000Y-93325000D03*
X92410000Y-93325000D03*
X92910000Y-93325000D03*
X93410000Y-93325000D03*
X93910000Y-93325000D03*
X94410000Y-93325000D03*
X94910000Y-93325000D03*
X95410000Y-93325000D03*
X95910000Y-93325000D03*
X96410000Y-93325000D03*
X96910000Y-93325000D03*
X97410000Y-93325000D03*
X97910000Y-93325000D03*
X98410000Y-93325000D03*
X98910000Y-93325000D03*
X99410000Y-93325000D03*
X99910000Y-93325000D03*
X100410000Y-93325000D03*
X100910000Y-93325000D03*
X101410000Y-93325000D03*
X101910000Y-93325000D03*
X102410000Y-93325000D03*
X102910000Y-93325000D03*
X103410000Y-93325000D03*
D28*
X82010000Y-96575000D03*
X105310000Y-96575000D03*
D20*
X97352500Y-80000000D03*
X99227500Y-80000000D03*
D19*
X111810000Y-69465000D03*
X111810000Y-71115000D03*
D20*
X107680000Y-69450000D03*
X109555000Y-69450000D03*
D29*
X123820000Y-95955000D03*
D30*
X126360000Y-95955000D03*
X128900000Y-95955000D03*
X131440000Y-95955000D03*
X133980000Y-95955000D03*
X136520000Y-95955000D03*
X139060000Y-95955000D03*
X141600000Y-95955000D03*
D31*
X127760000Y-87530000D03*
X127760000Y-87029874D03*
X127760000Y-86529748D03*
X127760000Y-86029622D03*
X126363000Y-86029622D03*
X126363000Y-86529748D03*
X126363000Y-87029874D03*
X126363000Y-87530000D03*
D20*
X85542500Y-75445000D03*
X87417500Y-75445000D03*
%LPD*%
M02*
