%TF.GenerationSoftware,KiCad,Pcbnew,7.0.8-7.0.8~ubuntu22.04.1*%
%TF.CreationDate,2023-10-22T18:31:10+02:00*%
%TF.ProjectId,extension-cable,65787465-6e73-4696-9f6e-2d6361626c65,rev?*%
%TF.SameCoordinates,Original*%
%TF.FileFunction,Copper,L1,Top*%
%TF.FilePolarity,Positive*%
%FSLAX46Y46*%
G04 Gerber Fmt 4.6, Leading zero omitted, Abs format (unit mm)*
G04 Created by KiCad (PCBNEW 7.0.8-7.0.8~ubuntu22.04.1) date 2023-10-22 18:31:10*
%MOMM*%
%LPD*%
G01*
G04 APERTURE LIST*
%TA.AperFunction,SMDPad,CuDef*%
%ADD10R,0.300000X1.300000*%
%TD*%
%TA.AperFunction,SMDPad,CuDef*%
%ADD11R,1.800000X2.200000*%
%TD*%
%TA.AperFunction,SMDPad,CuDef*%
%ADD12R,1.600000X2.800000*%
%TD*%
%TA.AperFunction,SMDPad,CuDef*%
%ADD13R,0.250000X1.300000*%
%TD*%
%TA.AperFunction,ViaPad*%
%ADD14C,0.500000*%
%TD*%
%TA.AperFunction,ViaPad*%
%ADD15C,0.800000*%
%TD*%
%TA.AperFunction,Conductor*%
%ADD16C,0.250000*%
%TD*%
G04 APERTURE END LIST*
D10*
X117780000Y-90420000D03*
X118280000Y-90420000D03*
X118780000Y-90420000D03*
X119280000Y-90420000D03*
X119780000Y-90420000D03*
X120280000Y-90420000D03*
X120780000Y-90420000D03*
X121280000Y-90420000D03*
X121780000Y-90420000D03*
X122280000Y-90420000D03*
X122780000Y-90420000D03*
X123280000Y-90420000D03*
X123780000Y-90420000D03*
X124280000Y-90420000D03*
X124780000Y-90420000D03*
X125280000Y-90420000D03*
X125780000Y-90420000D03*
X126280000Y-90420000D03*
X126780000Y-90420000D03*
X127280000Y-90420000D03*
X127780000Y-90420000D03*
X128280000Y-90420000D03*
X128780000Y-90420000D03*
X129280000Y-90420000D03*
X129780000Y-90420000D03*
X130280000Y-90420000D03*
X130780000Y-90420000D03*
X131280000Y-90420000D03*
X131780000Y-90420000D03*
X132280000Y-90420000D03*
X132780000Y-90420000D03*
X133280000Y-90420000D03*
X133780000Y-90420000D03*
D11*
X115880000Y-93670000D03*
X135680000Y-93670000D03*
D12*
X103740000Y-66320000D03*
X83240000Y-66320000D03*
D13*
X101740000Y-69320000D03*
X101240000Y-69320000D03*
X100740000Y-69320000D03*
X100240000Y-69320000D03*
X99740000Y-69320000D03*
X99240000Y-69320000D03*
X98740000Y-69320000D03*
X98240000Y-69320000D03*
X97740000Y-69320000D03*
X97240000Y-69320000D03*
X96740000Y-69320000D03*
X96240000Y-69320000D03*
X95740000Y-69320000D03*
X95240000Y-69320000D03*
X94740000Y-69320000D03*
X94240000Y-69320000D03*
X93740000Y-69320000D03*
X93240000Y-69320000D03*
X92740000Y-69320000D03*
X92240000Y-69320000D03*
X91740000Y-69320000D03*
X91240000Y-69320000D03*
X90740000Y-69320000D03*
X90240000Y-69320000D03*
X89740000Y-69320000D03*
X89240000Y-69320000D03*
X88740000Y-69320000D03*
X88240000Y-69320000D03*
X87740000Y-69320000D03*
X87240000Y-69320000D03*
X86740000Y-69320000D03*
X86240000Y-69320000D03*
X85740000Y-69320000D03*
X85240000Y-69320000D03*
D10*
X83520000Y-89485000D03*
X84020000Y-89485000D03*
X84520000Y-89485000D03*
X85020000Y-89485000D03*
X85520000Y-89485000D03*
X86020000Y-89485000D03*
X86520000Y-89485000D03*
X87020000Y-89485000D03*
X87520000Y-89485000D03*
X88020000Y-89485000D03*
X88520000Y-89485000D03*
X89020000Y-89485000D03*
X89520000Y-89485000D03*
X90020000Y-89485000D03*
X90520000Y-89485000D03*
X91020000Y-89485000D03*
X91520000Y-89485000D03*
X92020000Y-89485000D03*
X92520000Y-89485000D03*
X93020000Y-89485000D03*
X93520000Y-89485000D03*
X94020000Y-89485000D03*
X94520000Y-89485000D03*
X95020000Y-89485000D03*
X95520000Y-89485000D03*
X96020000Y-89485000D03*
X96520000Y-89485000D03*
X97020000Y-89485000D03*
X97520000Y-89485000D03*
X98020000Y-89485000D03*
X98520000Y-89485000D03*
X99020000Y-89485000D03*
X99520000Y-89485000D03*
X100020000Y-89485000D03*
X100520000Y-89485000D03*
X101020000Y-89485000D03*
X101520000Y-89485000D03*
X102020000Y-89485000D03*
X102520000Y-89485000D03*
X103020000Y-89485000D03*
D11*
X81620000Y-92735000D03*
X104920000Y-92735000D03*
D12*
X136020000Y-66350000D03*
X115520000Y-66350000D03*
D13*
X134020000Y-69350000D03*
X133520000Y-69350000D03*
X133020000Y-69350000D03*
X132520000Y-69350000D03*
X132020000Y-69350000D03*
X131520000Y-69350000D03*
X131020000Y-69350000D03*
X130520000Y-69350000D03*
X130020000Y-69350000D03*
X129520000Y-69350000D03*
X129020000Y-69350000D03*
X128520000Y-69350000D03*
X128020000Y-69350000D03*
X127520000Y-69350000D03*
X127020000Y-69350000D03*
X126520000Y-69350000D03*
X126020000Y-69350000D03*
X125520000Y-69350000D03*
X125020000Y-69350000D03*
X124520000Y-69350000D03*
X124020000Y-69350000D03*
X123520000Y-69350000D03*
X123020000Y-69350000D03*
X122520000Y-69350000D03*
X122020000Y-69350000D03*
X121520000Y-69350000D03*
X121020000Y-69350000D03*
X120520000Y-69350000D03*
X120020000Y-69350000D03*
X119520000Y-69350000D03*
X119020000Y-69350000D03*
X118520000Y-69350000D03*
X118020000Y-69350000D03*
X117520000Y-69350000D03*
D14*
X109900000Y-74870000D03*
X109900000Y-76916000D03*
X109900000Y-78962000D03*
X109900000Y-85100000D03*
X109900000Y-83054000D03*
X109900000Y-81008000D03*
X117800000Y-88320000D03*
X85860000Y-80150000D03*
X100755000Y-90765000D03*
D15*
X119770000Y-91820000D03*
X118520000Y-67660000D03*
X89249829Y-67956895D03*
D14*
X94033948Y-91780000D03*
D15*
X133020000Y-67540000D03*
X100740000Y-67850000D03*
X130540000Y-67590000D03*
D14*
X89040000Y-91390000D03*
D15*
X98260000Y-67900000D03*
X121529829Y-67646895D03*
X86240000Y-67970000D03*
D14*
X87500000Y-91240000D03*
X89520000Y-85180000D03*
X98090000Y-75570000D03*
X97320000Y-82210000D03*
X97270000Y-80310000D03*
X90560000Y-84380000D03*
X90550000Y-87040000D03*
X91250000Y-83750000D03*
X91142198Y-85553987D03*
X91659983Y-86017590D03*
X91820000Y-82390000D03*
X92400000Y-85090000D03*
X92329909Y-81399910D03*
X93270000Y-84150000D03*
X92578807Y-80344909D03*
X93840000Y-83390000D03*
X92720000Y-78320000D03*
X92290000Y-77400000D03*
X94410000Y-83910000D03*
X87740000Y-72390000D03*
X88060000Y-67870000D03*
X86580000Y-91260000D03*
X83600000Y-86770000D03*
X102310000Y-91210000D03*
X86740000Y-81861834D03*
X117630000Y-91820000D03*
X134040000Y-83830000D03*
X121740000Y-83440000D03*
X121750000Y-84990000D03*
X122290000Y-85450000D03*
X122330000Y-82030000D03*
X122820000Y-80710000D03*
X123075000Y-84690070D03*
X123645000Y-83840000D03*
X123266382Y-79373996D03*
X124215000Y-84550000D03*
X123956404Y-77977493D03*
X124250000Y-76810000D03*
X124660000Y-85190000D03*
X125240000Y-85770000D03*
X124710000Y-75530000D03*
X125910000Y-81070000D03*
X125050000Y-74380000D03*
X125281949Y-73248051D03*
X126656252Y-81568319D03*
X127090000Y-80040000D03*
X124926949Y-72113051D03*
X127680000Y-80860000D03*
X124440000Y-71210000D03*
X128300000Y-79790000D03*
X124030000Y-68340000D03*
X129280000Y-91930000D03*
X134910000Y-70790000D03*
X132380000Y-64650000D03*
X120640000Y-88940000D03*
X131900000Y-88930000D03*
X133620000Y-91910000D03*
X137850000Y-75260000D03*
X132030000Y-88020000D03*
X119380000Y-85650000D03*
D16*
X109900000Y-83054000D02*
X109900000Y-85100000D01*
X109900000Y-81008000D02*
X109900000Y-83054000D01*
X109900000Y-78962000D02*
X109900000Y-81008000D01*
X109900000Y-76916000D02*
X109900000Y-78962000D01*
X109900000Y-74870000D02*
X109900000Y-76916000D01*
X117800000Y-88320000D02*
X117800000Y-86830000D01*
X117800000Y-86830000D02*
X117520000Y-86550000D01*
X117520000Y-86550000D02*
X117520000Y-69010000D01*
X102020000Y-89485000D02*
X102020000Y-69600000D01*
X102020000Y-69600000D02*
X101740000Y-69320000D01*
X85740000Y-69320000D02*
X85740000Y-80030000D01*
X101020000Y-90500000D02*
X101020000Y-89485000D01*
X85740000Y-80030000D02*
X85860000Y-80150000D01*
X100755000Y-90765000D02*
X101020000Y-90500000D01*
X119780000Y-90400000D02*
X119780000Y-91810000D01*
X89240000Y-67966724D02*
X89249829Y-67956895D01*
X89020000Y-89485000D02*
X89020000Y-91370000D01*
X119780000Y-91810000D02*
X119770000Y-91820000D01*
X130020000Y-69010000D02*
X130020000Y-67930000D01*
X98260000Y-67900000D02*
X98450000Y-67900000D01*
X130540000Y-67590000D02*
X130730000Y-67590000D01*
X131020000Y-69010000D02*
X131020000Y-67880000D01*
X98740000Y-69320000D02*
X98740000Y-68190000D01*
X121520000Y-69010000D02*
X121520000Y-67656724D01*
X89020000Y-91370000D02*
X89040000Y-91390000D01*
X98080000Y-67900000D02*
X98260000Y-67900000D01*
X130020000Y-67930000D02*
X130360000Y-67590000D01*
X130360000Y-67590000D02*
X130540000Y-67590000D01*
X100740000Y-69320000D02*
X100740000Y-67850000D01*
X97740000Y-69320000D02*
X97740000Y-68240000D01*
X87520000Y-91220000D02*
X87500000Y-91240000D01*
X119751999Y-90533097D02*
X119752002Y-90533100D01*
X94020000Y-89485000D02*
X94020000Y-91766052D01*
X94020000Y-91766052D02*
X94033948Y-91780000D01*
X97740000Y-68240000D02*
X98080000Y-67900000D01*
X86240000Y-69320000D02*
X86240000Y-67970000D01*
X121520000Y-67656724D02*
X121529829Y-67646895D01*
X89240000Y-69320000D02*
X89240000Y-67966724D01*
X118520000Y-69010000D02*
X118520000Y-67660000D01*
X87520000Y-89485000D02*
X87520000Y-91220000D01*
X131020000Y-67880000D02*
X130730000Y-67590000D01*
X98740000Y-68190000D02*
X98450000Y-67900000D01*
X133020000Y-69010000D02*
X133020000Y-67540000D01*
X100020000Y-91140000D02*
X98810000Y-92350000D01*
X88520000Y-91030000D02*
X88520000Y-89485000D01*
X86343898Y-91830000D02*
X87720000Y-91830000D01*
X100020000Y-70827548D02*
X99240000Y-70047548D01*
X87720000Y-91830000D02*
X87890000Y-91660000D01*
X85520000Y-89485000D02*
X85520000Y-91006102D01*
X98810000Y-92350000D02*
X88580000Y-92350000D01*
X100020000Y-89485000D02*
X100020000Y-91140000D01*
X87890000Y-91660000D02*
X88520000Y-91030000D01*
X85520000Y-91006102D02*
X86343898Y-91830000D01*
X99240000Y-70047548D02*
X99240000Y-69320000D01*
X100020000Y-89485000D02*
X100020000Y-70827548D01*
X88580000Y-92350000D02*
X87890000Y-91660000D01*
X98240000Y-69320000D02*
X98240000Y-75420000D01*
X89520000Y-89485000D02*
X89520000Y-85180000D01*
X98240000Y-75420000D02*
X98090000Y-75570000D01*
X97240000Y-80280000D02*
X97270000Y-80310000D01*
X99020000Y-83910000D02*
X97320000Y-82210000D01*
X99020000Y-89485000D02*
X99020000Y-83910000D01*
X97240000Y-69320000D02*
X97240000Y-80280000D01*
X96740000Y-69320000D02*
X96700000Y-69360000D01*
X96700000Y-80680000D02*
X99520000Y-83500000D01*
X96700000Y-69360000D02*
X96700000Y-80680000D01*
X99520000Y-83500000D02*
X99520000Y-89485000D01*
X96240000Y-69320000D02*
X96240000Y-82090000D01*
X96240000Y-82090000D02*
X98520000Y-84370000D01*
X98520000Y-84370000D02*
X98520000Y-89485000D01*
X93270000Y-83153898D02*
X93270000Y-83183898D01*
X89980000Y-87306102D02*
X90020000Y-87346102D01*
X89980000Y-85910083D02*
X89980000Y-87306102D01*
X95740000Y-80683898D02*
X93270000Y-83153898D01*
X95740000Y-69320000D02*
X95740000Y-80683898D01*
X90020000Y-87346102D02*
X90020000Y-89485000D01*
X90906096Y-84983987D02*
X89980000Y-85910083D01*
X93270000Y-83183898D02*
X91469911Y-84983987D01*
X91469911Y-84983987D02*
X90906096Y-84983987D01*
X92825000Y-82969573D02*
X92825000Y-82999573D01*
X90550000Y-87040000D02*
X90550000Y-89455000D01*
X90550000Y-89455000D02*
X90520000Y-89485000D01*
X92825000Y-82999573D02*
X91444573Y-84380000D01*
X91444573Y-84380000D02*
X90560000Y-84380000D01*
X95240000Y-69320000D02*
X95240000Y-80554573D01*
X95240000Y-80554573D02*
X92825000Y-82969573D01*
X91130000Y-86293709D02*
X91089983Y-86253692D01*
X91020000Y-89485000D02*
X91020000Y-87371349D01*
X91089983Y-85781488D02*
X91142198Y-85729273D01*
X94740000Y-69320000D02*
X94740000Y-80425249D01*
X94740000Y-80425249D02*
X91415249Y-83750000D01*
X91142198Y-85729273D02*
X91142198Y-85553987D01*
X91020000Y-87371349D02*
X91130000Y-87261349D01*
X91130000Y-87261349D02*
X91130000Y-86293709D01*
X91089983Y-86253692D02*
X91089983Y-85781488D01*
X91415249Y-83750000D02*
X91250000Y-83750000D01*
X94240000Y-69320000D02*
X94240000Y-80295924D01*
X94240000Y-80295924D02*
X92145924Y-82390000D01*
X91520000Y-87480000D02*
X91685000Y-87315000D01*
X92145924Y-82390000D02*
X91820000Y-82390000D01*
X91685000Y-86042607D02*
X91659983Y-86017590D01*
X91520000Y-89485000D02*
X91520000Y-87480000D01*
X91685000Y-87315000D02*
X91685000Y-86042607D01*
X92145000Y-86327022D02*
X92145000Y-86317022D01*
X92020000Y-89485000D02*
X92020000Y-87621349D01*
X93750000Y-79979819D02*
X92329909Y-81399910D01*
X93740000Y-69320000D02*
X93750000Y-69330000D01*
X92400000Y-86062023D02*
X92400000Y-85090000D01*
X92020000Y-87621349D02*
X92130000Y-87511349D01*
X92145000Y-86317022D02*
X92400000Y-86062023D01*
X92130000Y-86342022D02*
X92145000Y-86327022D01*
X93750000Y-69330000D02*
X93750000Y-79979819D01*
X92130000Y-87511349D02*
X92130000Y-86342022D01*
X92575000Y-86526348D02*
X92590000Y-86511348D01*
X92575000Y-87695674D02*
X92575000Y-86526348D01*
X93305000Y-76969573D02*
X93305000Y-79618716D01*
X92590000Y-86501348D02*
X93270000Y-85821348D01*
X92520000Y-87750674D02*
X92575000Y-87695674D01*
X92590000Y-86511348D02*
X92590000Y-86501348D01*
X93240000Y-76904573D02*
X93305000Y-76969573D01*
X92520000Y-89485000D02*
X92520000Y-87750674D01*
X93240000Y-69320000D02*
X93240000Y-76904573D01*
X93270000Y-85821348D02*
X93270000Y-84150000D01*
X93305000Y-79618716D02*
X92578807Y-80344909D01*
X92860000Y-77153898D02*
X92860000Y-78180000D01*
X93020000Y-89485000D02*
X93020000Y-86700674D01*
X93840000Y-85880674D02*
X93840000Y-83390000D01*
X92740000Y-77033898D02*
X92860000Y-77153898D01*
X93020000Y-86700674D02*
X93840000Y-85880674D01*
X92860000Y-78180000D02*
X92720000Y-78320000D01*
X92740000Y-69320000D02*
X92740000Y-77033898D01*
X94410000Y-85940000D02*
X93520000Y-86830000D01*
X92240000Y-69320000D02*
X92240000Y-77350000D01*
X93520000Y-86830000D02*
X93520000Y-89485000D01*
X94410000Y-83910000D02*
X94410000Y-85940000D01*
X92240000Y-77350000D02*
X92290000Y-77400000D01*
X91690000Y-69370000D02*
X91740000Y-69320000D01*
X88020000Y-85383898D02*
X91690000Y-81713898D01*
X88020000Y-89485000D02*
X88020000Y-85383898D01*
X91690000Y-81713898D02*
X91690000Y-69370000D01*
X84520000Y-70040000D02*
X85240000Y-69320000D01*
X84520000Y-89485000D02*
X84520000Y-70040000D01*
X83520000Y-93310000D02*
X85650000Y-95440000D01*
X85650000Y-95440000D02*
X104667548Y-95440000D01*
X106140000Y-93967548D02*
X106140000Y-91352452D01*
X102370000Y-68120000D02*
X101712452Y-68120000D01*
X103280000Y-88492452D02*
X103280000Y-69030000D01*
X83520000Y-89485000D02*
X83520000Y-93310000D01*
X101240000Y-68592452D02*
X101240000Y-69320000D01*
X106140000Y-91352452D02*
X103280000Y-88492452D01*
X104667548Y-95440000D02*
X106140000Y-93967548D01*
X101712452Y-68120000D02*
X101240000Y-68592452D01*
X103280000Y-69030000D02*
X102370000Y-68120000D01*
X86020000Y-83880000D02*
X87740000Y-82160000D01*
X86020000Y-89485000D02*
X86020000Y-83880000D01*
X87740000Y-82160000D02*
X87740000Y-72390000D01*
X88060000Y-67870000D02*
X88740000Y-68550000D01*
X88740000Y-68550000D02*
X88740000Y-69320000D01*
X86423898Y-67040000D02*
X86292452Y-67040000D01*
X86580000Y-91260000D02*
X87020000Y-90820000D01*
X85430000Y-67040000D02*
X83600000Y-68870000D01*
X83600000Y-68870000D02*
X83600000Y-86770000D01*
X86292452Y-67040000D02*
X85430000Y-67040000D01*
X87740000Y-68356102D02*
X86423898Y-67040000D01*
X87020000Y-90820000D02*
X87020000Y-89485000D01*
X87740000Y-69320000D02*
X87740000Y-68356102D01*
X88240000Y-72083898D02*
X88310000Y-72153898D01*
X86520000Y-84330000D02*
X86520000Y-89485000D01*
X88240000Y-69320000D02*
X88240000Y-72083898D01*
X88310000Y-82540000D02*
X86520000Y-84330000D01*
X88310000Y-72153898D02*
X88310000Y-82540000D01*
X102310000Y-91210000D02*
X103020000Y-90500000D01*
X103020000Y-90500000D02*
X103020000Y-89485000D01*
X86740000Y-69320000D02*
X86740000Y-81861834D01*
X134020000Y-69010000D02*
X134020000Y-83810000D01*
X134020000Y-83810000D02*
X134030000Y-83820000D01*
X117780000Y-91670000D02*
X117630000Y-91820000D01*
X117751998Y-90533097D02*
X117752001Y-90533100D01*
X117780000Y-90400000D02*
X117780000Y-91670000D01*
X118020000Y-86240000D02*
X118780000Y-87000000D01*
X118020000Y-69010000D02*
X118020000Y-86240000D01*
X118780000Y-87000000D02*
X118780000Y-90400000D01*
X122340000Y-92660000D02*
X121160000Y-92660000D01*
X122751998Y-90533097D02*
X122752001Y-90533100D01*
X120780000Y-90400000D02*
X120780000Y-92280000D01*
X135880000Y-68862548D02*
X135880000Y-90970000D01*
X122780000Y-90400000D02*
X122780000Y-92220000D01*
X131520000Y-67460000D02*
X132380000Y-66600000D01*
X132720000Y-92480000D02*
X132280000Y-92040000D01*
X131520000Y-69010000D02*
X131520000Y-67460000D01*
X132380000Y-66600000D02*
X133617452Y-66600000D01*
X134370000Y-92480000D02*
X132720000Y-92480000D01*
X135880000Y-90970000D02*
X134370000Y-92480000D01*
X120780000Y-92280000D02*
X121160000Y-92660000D01*
X132280000Y-92040000D02*
X132280000Y-90400000D01*
X133617452Y-66600000D02*
X135880000Y-68862548D01*
X131660000Y-92660000D02*
X132280000Y-92040000D01*
X122340000Y-92660000D02*
X131660000Y-92660000D01*
X122780000Y-92220000D02*
X122340000Y-92660000D01*
X121583898Y-84420000D02*
X121513898Y-84420000D01*
X121280000Y-85875428D02*
X121280000Y-90400000D01*
X121251999Y-90533098D02*
X121252001Y-90533100D01*
X121180000Y-85775428D02*
X121280000Y-85875428D01*
X130520000Y-69010000D02*
X130520000Y-75483898D01*
X121513898Y-84420000D02*
X121180000Y-84753898D01*
X130520000Y-75483898D02*
X121583898Y-84420000D01*
X121180000Y-84753898D02*
X121180000Y-85775428D01*
X121780000Y-85746102D02*
X121720000Y-85686102D01*
X129520000Y-69010000D02*
X129520000Y-75660000D01*
X121720000Y-85213898D02*
X121730000Y-85203898D01*
X121780000Y-90400000D02*
X121780000Y-85746102D01*
X129520000Y-75660000D02*
X121740000Y-83440000D01*
X121750000Y-84990000D02*
X121750000Y-85245000D01*
X121720000Y-85686102D02*
X121720000Y-85213898D01*
X121750000Y-85245000D02*
X121755000Y-85250000D01*
X121730000Y-85203898D02*
X121730000Y-85050000D01*
X121730000Y-85050000D02*
X121755000Y-85025000D01*
X122280000Y-85350000D02*
X122280000Y-90400000D01*
X129020000Y-69010000D02*
X129020000Y-75340000D01*
X129020000Y-75340000D02*
X122330000Y-82030000D01*
X122251999Y-90533097D02*
X122252002Y-90533100D01*
X123200000Y-84815070D02*
X123075000Y-84690070D01*
X123280000Y-85874752D02*
X123199999Y-85794750D01*
X123280000Y-90400000D02*
X123280000Y-85874752D01*
X128520000Y-75010000D02*
X122820000Y-80710000D01*
X128520000Y-69010000D02*
X128520000Y-75010000D01*
X123199999Y-85794750D02*
X123200000Y-84815070D01*
X128020000Y-74764203D02*
X123410207Y-79373996D01*
X128020000Y-69010000D02*
X128020000Y-74764203D01*
X123780000Y-85745428D02*
X123645000Y-85610427D01*
X123780000Y-90400000D02*
X123780000Y-85745428D01*
X123410207Y-79373996D02*
X123266382Y-79373996D01*
X123645000Y-85610427D02*
X123645000Y-83840000D01*
X123751999Y-90533098D02*
X123752001Y-90533100D01*
X127520000Y-69010000D02*
X127520000Y-74413897D01*
X127520000Y-74413897D02*
X123956404Y-77977493D01*
X124090000Y-85426102D02*
X124090000Y-84675000D01*
X124225000Y-86190427D02*
X124225000Y-85561102D01*
X124280000Y-90400000D02*
X124280000Y-86245428D01*
X124090000Y-84675000D02*
X124215000Y-84550000D01*
X124280000Y-86245428D02*
X124225000Y-86190427D01*
X124225000Y-85561102D02*
X124090000Y-85426102D01*
X127020000Y-69010000D02*
X127020000Y-74040000D01*
X124751999Y-90533097D02*
X124752002Y-90533100D01*
X124780000Y-85423898D02*
X124780000Y-85310000D01*
X127020000Y-74040000D02*
X124250000Y-76810000D01*
X124670000Y-86006102D02*
X124670000Y-85533898D01*
X124670000Y-85533898D02*
X124780000Y-85423898D01*
X124780000Y-85310000D02*
X124660000Y-85190000D01*
X124780000Y-86116102D02*
X124670000Y-86006102D01*
X124780000Y-90400000D02*
X124780000Y-86116102D01*
X126520000Y-73720000D02*
X124710000Y-75530000D01*
X126520000Y-69010000D02*
X126520000Y-73720000D01*
X125240000Y-87132463D02*
X125280000Y-87172463D01*
X125240000Y-85770000D02*
X125240000Y-87132463D01*
X125251998Y-90533097D02*
X125252001Y-90533100D01*
X125280000Y-90400000D02*
X125280000Y-87172463D01*
X125835000Y-81145000D02*
X125835000Y-85955675D01*
X125835000Y-85955675D02*
X125780000Y-86010675D01*
X125910000Y-81070000D02*
X125835000Y-81145000D01*
X126020000Y-69010000D02*
X126020000Y-73410000D01*
X126020000Y-73410000D02*
X125050000Y-74380000D01*
X125780000Y-86010675D02*
X125780000Y-90400000D01*
X125520000Y-73010000D02*
X125281949Y-73248051D01*
X126280000Y-90400000D02*
X126280000Y-81944571D01*
X126251999Y-90533097D02*
X126252002Y-90533100D01*
X126280000Y-81944571D02*
X126656252Y-81568319D01*
X125520000Y-69010000D02*
X125520000Y-73010000D01*
X125020000Y-72020000D02*
X124926949Y-72113051D01*
X127090000Y-80040000D02*
X126902355Y-80227645D01*
X125020000Y-69010000D02*
X125020000Y-72020000D01*
X126902355Y-80227645D02*
X126902355Y-81008320D01*
X127226252Y-81332217D02*
X127226252Y-81804422D01*
X126751998Y-90533097D02*
X126752001Y-90533100D01*
X127226252Y-81804422D02*
X126780000Y-82250674D01*
X126780000Y-82250674D02*
X126780000Y-90400000D01*
X126902355Y-81008320D02*
X127226252Y-81332217D01*
X124525000Y-71125000D02*
X124440000Y-71210000D01*
X124520000Y-69010000D02*
X124525000Y-69015000D01*
X127280000Y-90400000D02*
X127280000Y-82400000D01*
X127280000Y-82400000D02*
X127680000Y-82000000D01*
X124525000Y-69015000D02*
X124525000Y-71125000D01*
X127680000Y-82000000D02*
X127680000Y-80860000D01*
X128280000Y-79810000D02*
X128300000Y-79790000D01*
X124020000Y-68350000D02*
X124030000Y-68340000D01*
X124020000Y-69350000D02*
X124020000Y-68350000D01*
X128280000Y-90400000D02*
X128280000Y-79810000D01*
X129251998Y-90533097D02*
X129252001Y-90533100D01*
X129280000Y-90400000D02*
X129280000Y-91930000D01*
X130280000Y-86827537D02*
X133520000Y-83587537D01*
X130251999Y-90533098D02*
X130252001Y-90533100D01*
X133520000Y-83587537D02*
X133520000Y-69010000D01*
X130280000Y-90400000D02*
X130280000Y-86827537D01*
X121020000Y-68275380D02*
X121020000Y-69010000D01*
X120800000Y-67918984D02*
X120920000Y-68038984D01*
X131280000Y-87396102D02*
X134910000Y-83766102D01*
X131280000Y-90400000D02*
X131280000Y-87396102D01*
X120920000Y-68038984D02*
X120920000Y-68175380D01*
X131251999Y-90533097D02*
X131252002Y-90533100D01*
X122660000Y-64650000D02*
X132380000Y-64650000D01*
X131751998Y-90533097D02*
X131752001Y-90533100D01*
X134910000Y-83766102D02*
X134910000Y-70790000D01*
X120920000Y-68175380D02*
X121020000Y-68275380D01*
X120800000Y-67918984D02*
X120800000Y-66510000D01*
X131780000Y-90400000D02*
X131280000Y-90400000D01*
X120800000Y-66510000D02*
X122660000Y-64650000D01*
X120020000Y-88320000D02*
X120640000Y-88940000D01*
X120020000Y-69010000D02*
X120020000Y-88320000D01*
X132780000Y-89350000D02*
X132360000Y-88930000D01*
X132751999Y-90533098D02*
X132752001Y-90533100D01*
X132780000Y-89350000D02*
X132780000Y-90400000D01*
X132360000Y-88930000D02*
X131900000Y-88930000D01*
X120270000Y-66233898D02*
X122501949Y-64001949D01*
X133280000Y-91570000D02*
X133620000Y-91910000D01*
X133280000Y-91570000D02*
X133280000Y-90400000D01*
X120520000Y-69010000D02*
X120470000Y-68960000D01*
X120470000Y-68960000D02*
X120470000Y-68225380D01*
X138270000Y-74840000D02*
X137850000Y-75260000D01*
X120470000Y-68225380D02*
X120270000Y-68025380D01*
X138270000Y-64720000D02*
X138270000Y-74840000D01*
X122501949Y-64001949D02*
X137551949Y-64001949D01*
X120270000Y-68025380D02*
X120270000Y-66233898D01*
X137551949Y-64001949D02*
X138270000Y-64720000D01*
X119020000Y-85290000D02*
X119380000Y-85650000D01*
X133780000Y-90400000D02*
X133780000Y-89607537D01*
X119020000Y-83220000D02*
X119020000Y-69010000D01*
X133751999Y-90533097D02*
X133752002Y-90533100D01*
X132192463Y-88020000D02*
X132030000Y-88020000D01*
X133780000Y-89607537D02*
X132192463Y-88020000D01*
X119020000Y-83220000D02*
X119020000Y-85290000D01*
M02*
