%TF.GenerationSoftware,KiCad,Pcbnew,7.0.8-7.0.8~ubuntu22.04.1*%
%TF.CreationDate,2023-10-25T08:52:26+02:00*%
%TF.ProjectId,extension-cable,65787465-6e73-4696-9f6e-2d6361626c65,rev?*%
%TF.SameCoordinates,Original*%
%TF.FileFunction,Drillmap*%
%TF.FilePolarity,Positive*%
%FSLAX45Y45*%
G04 Gerber Fmt 4.5, Leading zero omitted, Abs format (unit mm)*
G04 Created by KiCad (PCBNEW 7.0.8-7.0.8~ubuntu22.04.1) date 2023-10-25 08:52:26*
%MOMM*%
%LPD*%
G01*
G04 APERTURE LIST*
%ADD10C,0.100000*%
%ADD11C,0.200000*%
%ADD12C,0.165000*%
%ADD13C,0.220000*%
G04 APERTURE END LIST*
D10*
X14400000Y-10100000D02*
X12030000Y-10100000D01*
X12030000Y-5800000D02*
X12030000Y-7400000D01*
X11950000Y-10100000D02*
X7000000Y-10100000D01*
X12030000Y-8600000D02*
X12030000Y-10100000D01*
X11950000Y-8600000D02*
X11950000Y-10100000D01*
X14400000Y-10100000D02*
X14400000Y-5800000D01*
X11950000Y-7400000D02*
X12030000Y-7400000D01*
X11950000Y-8600000D02*
X12030000Y-8600000D01*
X11950000Y-5800000D02*
X11950000Y-7400000D01*
X12030000Y-5800000D02*
X14400000Y-5800000D01*
X7000000Y-10100000D02*
X7000000Y-5800000D01*
X7000000Y-5800000D02*
X11950000Y-5800000D01*
D11*
D12*
X12648500Y-6640000D02*
X12813500Y-6805000D01*
X12813500Y-6640000D02*
X12648500Y-6805000D01*
X13648500Y-6640000D02*
X13813500Y-6805000D01*
X13813500Y-6640000D02*
X13648500Y-6805000D01*
D13*
X7410000Y-7946000D02*
G75*
G03*
X7410000Y-7946000I-110000J0D01*
G01*
X11687000Y-7946000D02*
G75*
G03*
X11687000Y-7946000I-110000J0D01*
G01*
D11*
X7255777Y-10416484D02*
X7255777Y-10216484D01*
X7255777Y-10216484D02*
X7303396Y-10216484D01*
X7303396Y-10216484D02*
X7331967Y-10226008D01*
X7331967Y-10226008D02*
X7351015Y-10245055D01*
X7351015Y-10245055D02*
X7360539Y-10264103D01*
X7360539Y-10264103D02*
X7370062Y-10302198D01*
X7370062Y-10302198D02*
X7370062Y-10330770D01*
X7370062Y-10330770D02*
X7360539Y-10368865D01*
X7360539Y-10368865D02*
X7351015Y-10387912D01*
X7351015Y-10387912D02*
X7331967Y-10406960D01*
X7331967Y-10406960D02*
X7303396Y-10416484D01*
X7303396Y-10416484D02*
X7255777Y-10416484D01*
X7455777Y-10416484D02*
X7455777Y-10283150D01*
X7455777Y-10321246D02*
X7465301Y-10302198D01*
X7465301Y-10302198D02*
X7474824Y-10292674D01*
X7474824Y-10292674D02*
X7493872Y-10283150D01*
X7493872Y-10283150D02*
X7512920Y-10283150D01*
X7579586Y-10416484D02*
X7579586Y-10283150D01*
X7579586Y-10216484D02*
X7570062Y-10226008D01*
X7570062Y-10226008D02*
X7579586Y-10235531D01*
X7579586Y-10235531D02*
X7589110Y-10226008D01*
X7589110Y-10226008D02*
X7579586Y-10216484D01*
X7579586Y-10216484D02*
X7579586Y-10235531D01*
X7703396Y-10416484D02*
X7684348Y-10406960D01*
X7684348Y-10406960D02*
X7674824Y-10387912D01*
X7674824Y-10387912D02*
X7674824Y-10216484D01*
X7808158Y-10416484D02*
X7789110Y-10406960D01*
X7789110Y-10406960D02*
X7779586Y-10387912D01*
X7779586Y-10387912D02*
X7779586Y-10216484D01*
X8036729Y-10416484D02*
X8036729Y-10216484D01*
X8036729Y-10216484D02*
X8103396Y-10359341D01*
X8103396Y-10359341D02*
X8170062Y-10216484D01*
X8170062Y-10216484D02*
X8170062Y-10416484D01*
X8351015Y-10416484D02*
X8351015Y-10311722D01*
X8351015Y-10311722D02*
X8341491Y-10292674D01*
X8341491Y-10292674D02*
X8322443Y-10283150D01*
X8322443Y-10283150D02*
X8284348Y-10283150D01*
X8284348Y-10283150D02*
X8265301Y-10292674D01*
X8351015Y-10406960D02*
X8331967Y-10416484D01*
X8331967Y-10416484D02*
X8284348Y-10416484D01*
X8284348Y-10416484D02*
X8265301Y-10406960D01*
X8265301Y-10406960D02*
X8255777Y-10387912D01*
X8255777Y-10387912D02*
X8255777Y-10368865D01*
X8255777Y-10368865D02*
X8265301Y-10349817D01*
X8265301Y-10349817D02*
X8284348Y-10340293D01*
X8284348Y-10340293D02*
X8331967Y-10340293D01*
X8331967Y-10340293D02*
X8351015Y-10330770D01*
X8446253Y-10283150D02*
X8446253Y-10483150D01*
X8446253Y-10292674D02*
X8465301Y-10283150D01*
X8465301Y-10283150D02*
X8503396Y-10283150D01*
X8503396Y-10283150D02*
X8522444Y-10292674D01*
X8522444Y-10292674D02*
X8531967Y-10302198D01*
X8531967Y-10302198D02*
X8541491Y-10321246D01*
X8541491Y-10321246D02*
X8541491Y-10378389D01*
X8541491Y-10378389D02*
X8531967Y-10397436D01*
X8531967Y-10397436D02*
X8522444Y-10406960D01*
X8522444Y-10406960D02*
X8503396Y-10416484D01*
X8503396Y-10416484D02*
X8465301Y-10416484D01*
X8465301Y-10416484D02*
X8446253Y-10406960D01*
X8627205Y-10397436D02*
X8636729Y-10406960D01*
X8636729Y-10406960D02*
X8627205Y-10416484D01*
X8627205Y-10416484D02*
X8617682Y-10406960D01*
X8617682Y-10406960D02*
X8627205Y-10397436D01*
X8627205Y-10397436D02*
X8627205Y-10416484D01*
X8627205Y-10292674D02*
X8636729Y-10302198D01*
X8636729Y-10302198D02*
X8627205Y-10311722D01*
X8627205Y-10311722D02*
X8617682Y-10302198D01*
X8617682Y-10302198D02*
X8627205Y-10292674D01*
X8627205Y-10292674D02*
X8627205Y-10311722D01*
D12*
X6830000Y-10662500D02*
X6995000Y-10827500D01*
X6995000Y-10662500D02*
X6830000Y-10827500D01*
D11*
X7360539Y-10836484D02*
X7246253Y-10836484D01*
X7303396Y-10836484D02*
X7303396Y-10636484D01*
X7303396Y-10636484D02*
X7284348Y-10665055D01*
X7284348Y-10665055D02*
X7265301Y-10684103D01*
X7265301Y-10684103D02*
X7246253Y-10693627D01*
X7446253Y-10817436D02*
X7455777Y-10826960D01*
X7455777Y-10826960D02*
X7446253Y-10836484D01*
X7446253Y-10836484D02*
X7436729Y-10826960D01*
X7436729Y-10826960D02*
X7446253Y-10817436D01*
X7446253Y-10817436D02*
X7446253Y-10836484D01*
X7627205Y-10636484D02*
X7589110Y-10636484D01*
X7589110Y-10636484D02*
X7570062Y-10646008D01*
X7570062Y-10646008D02*
X7560539Y-10655531D01*
X7560539Y-10655531D02*
X7541491Y-10684103D01*
X7541491Y-10684103D02*
X7531967Y-10722198D01*
X7531967Y-10722198D02*
X7531967Y-10798389D01*
X7531967Y-10798389D02*
X7541491Y-10817436D01*
X7541491Y-10817436D02*
X7551015Y-10826960D01*
X7551015Y-10826960D02*
X7570062Y-10836484D01*
X7570062Y-10836484D02*
X7608158Y-10836484D01*
X7608158Y-10836484D02*
X7627205Y-10826960D01*
X7627205Y-10826960D02*
X7636729Y-10817436D01*
X7636729Y-10817436D02*
X7646253Y-10798389D01*
X7646253Y-10798389D02*
X7646253Y-10750770D01*
X7646253Y-10750770D02*
X7636729Y-10731722D01*
X7636729Y-10731722D02*
X7627205Y-10722198D01*
X7627205Y-10722198D02*
X7608158Y-10712674D01*
X7608158Y-10712674D02*
X7570062Y-10712674D01*
X7570062Y-10712674D02*
X7551015Y-10722198D01*
X7551015Y-10722198D02*
X7541491Y-10731722D01*
X7541491Y-10731722D02*
X7531967Y-10750770D01*
X7827205Y-10636484D02*
X7731967Y-10636484D01*
X7731967Y-10636484D02*
X7722443Y-10731722D01*
X7722443Y-10731722D02*
X7731967Y-10722198D01*
X7731967Y-10722198D02*
X7751015Y-10712674D01*
X7751015Y-10712674D02*
X7798634Y-10712674D01*
X7798634Y-10712674D02*
X7817682Y-10722198D01*
X7817682Y-10722198D02*
X7827205Y-10731722D01*
X7827205Y-10731722D02*
X7836729Y-10750770D01*
X7836729Y-10750770D02*
X7836729Y-10798389D01*
X7836729Y-10798389D02*
X7827205Y-10817436D01*
X7827205Y-10817436D02*
X7817682Y-10826960D01*
X7817682Y-10826960D02*
X7798634Y-10836484D01*
X7798634Y-10836484D02*
X7751015Y-10836484D01*
X7751015Y-10836484D02*
X7731967Y-10826960D01*
X7731967Y-10826960D02*
X7722443Y-10817436D01*
X7960539Y-10636484D02*
X7979586Y-10636484D01*
X7979586Y-10636484D02*
X7998634Y-10646008D01*
X7998634Y-10646008D02*
X8008158Y-10655531D01*
X8008158Y-10655531D02*
X8017682Y-10674579D01*
X8017682Y-10674579D02*
X8027205Y-10712674D01*
X8027205Y-10712674D02*
X8027205Y-10760293D01*
X8027205Y-10760293D02*
X8017682Y-10798389D01*
X8017682Y-10798389D02*
X8008158Y-10817436D01*
X8008158Y-10817436D02*
X7998634Y-10826960D01*
X7998634Y-10826960D02*
X7979586Y-10836484D01*
X7979586Y-10836484D02*
X7960539Y-10836484D01*
X7960539Y-10836484D02*
X7941491Y-10826960D01*
X7941491Y-10826960D02*
X7931967Y-10817436D01*
X7931967Y-10817436D02*
X7922443Y-10798389D01*
X7922443Y-10798389D02*
X7912920Y-10760293D01*
X7912920Y-10760293D02*
X7912920Y-10712674D01*
X7912920Y-10712674D02*
X7922443Y-10674579D01*
X7922443Y-10674579D02*
X7931967Y-10655531D01*
X7931967Y-10655531D02*
X7941491Y-10646008D01*
X7941491Y-10646008D02*
X7960539Y-10636484D01*
X8112920Y-10836484D02*
X8112920Y-10703150D01*
X8112920Y-10722198D02*
X8122443Y-10712674D01*
X8122443Y-10712674D02*
X8141491Y-10703150D01*
X8141491Y-10703150D02*
X8170063Y-10703150D01*
X8170063Y-10703150D02*
X8189110Y-10712674D01*
X8189110Y-10712674D02*
X8198634Y-10731722D01*
X8198634Y-10731722D02*
X8198634Y-10836484D01*
X8198634Y-10731722D02*
X8208158Y-10712674D01*
X8208158Y-10712674D02*
X8227205Y-10703150D01*
X8227205Y-10703150D02*
X8255777Y-10703150D01*
X8255777Y-10703150D02*
X8274824Y-10712674D01*
X8274824Y-10712674D02*
X8284348Y-10731722D01*
X8284348Y-10731722D02*
X8284348Y-10836484D01*
X8379586Y-10836484D02*
X8379586Y-10703150D01*
X8379586Y-10722198D02*
X8389110Y-10712674D01*
X8389110Y-10712674D02*
X8408158Y-10703150D01*
X8408158Y-10703150D02*
X8436729Y-10703150D01*
X8436729Y-10703150D02*
X8455777Y-10712674D01*
X8455777Y-10712674D02*
X8465301Y-10731722D01*
X8465301Y-10731722D02*
X8465301Y-10836484D01*
X8465301Y-10731722D02*
X8474825Y-10712674D01*
X8474825Y-10712674D02*
X8493872Y-10703150D01*
X8493872Y-10703150D02*
X8522444Y-10703150D01*
X8522444Y-10703150D02*
X8541491Y-10712674D01*
X8541491Y-10712674D02*
X8551015Y-10731722D01*
X8551015Y-10731722D02*
X8551015Y-10836484D01*
X8941491Y-10626960D02*
X8770063Y-10884103D01*
X9198634Y-10636484D02*
X9217682Y-10636484D01*
X9217682Y-10636484D02*
X9236729Y-10646008D01*
X9236729Y-10646008D02*
X9246253Y-10655531D01*
X9246253Y-10655531D02*
X9255777Y-10674579D01*
X9255777Y-10674579D02*
X9265301Y-10712674D01*
X9265301Y-10712674D02*
X9265301Y-10760293D01*
X9265301Y-10760293D02*
X9255777Y-10798389D01*
X9255777Y-10798389D02*
X9246253Y-10817436D01*
X9246253Y-10817436D02*
X9236729Y-10826960D01*
X9236729Y-10826960D02*
X9217682Y-10836484D01*
X9217682Y-10836484D02*
X9198634Y-10836484D01*
X9198634Y-10836484D02*
X9179587Y-10826960D01*
X9179587Y-10826960D02*
X9170063Y-10817436D01*
X9170063Y-10817436D02*
X9160539Y-10798389D01*
X9160539Y-10798389D02*
X9151015Y-10760293D01*
X9151015Y-10760293D02*
X9151015Y-10712674D01*
X9151015Y-10712674D02*
X9160539Y-10674579D01*
X9160539Y-10674579D02*
X9170063Y-10655531D01*
X9170063Y-10655531D02*
X9179587Y-10646008D01*
X9179587Y-10646008D02*
X9198634Y-10636484D01*
X9351015Y-10817436D02*
X9360539Y-10826960D01*
X9360539Y-10826960D02*
X9351015Y-10836484D01*
X9351015Y-10836484D02*
X9341491Y-10826960D01*
X9341491Y-10826960D02*
X9351015Y-10817436D01*
X9351015Y-10817436D02*
X9351015Y-10836484D01*
X9484348Y-10636484D02*
X9503396Y-10636484D01*
X9503396Y-10636484D02*
X9522444Y-10646008D01*
X9522444Y-10646008D02*
X9531968Y-10655531D01*
X9531968Y-10655531D02*
X9541491Y-10674579D01*
X9541491Y-10674579D02*
X9551015Y-10712674D01*
X9551015Y-10712674D02*
X9551015Y-10760293D01*
X9551015Y-10760293D02*
X9541491Y-10798389D01*
X9541491Y-10798389D02*
X9531968Y-10817436D01*
X9531968Y-10817436D02*
X9522444Y-10826960D01*
X9522444Y-10826960D02*
X9503396Y-10836484D01*
X9503396Y-10836484D02*
X9484348Y-10836484D01*
X9484348Y-10836484D02*
X9465301Y-10826960D01*
X9465301Y-10826960D02*
X9455777Y-10817436D01*
X9455777Y-10817436D02*
X9446253Y-10798389D01*
X9446253Y-10798389D02*
X9436729Y-10760293D01*
X9436729Y-10760293D02*
X9436729Y-10712674D01*
X9436729Y-10712674D02*
X9446253Y-10674579D01*
X9446253Y-10674579D02*
X9455777Y-10655531D01*
X9455777Y-10655531D02*
X9465301Y-10646008D01*
X9465301Y-10646008D02*
X9484348Y-10636484D01*
X9722444Y-10636484D02*
X9684348Y-10636484D01*
X9684348Y-10636484D02*
X9665301Y-10646008D01*
X9665301Y-10646008D02*
X9655777Y-10655531D01*
X9655777Y-10655531D02*
X9636729Y-10684103D01*
X9636729Y-10684103D02*
X9627206Y-10722198D01*
X9627206Y-10722198D02*
X9627206Y-10798389D01*
X9627206Y-10798389D02*
X9636729Y-10817436D01*
X9636729Y-10817436D02*
X9646253Y-10826960D01*
X9646253Y-10826960D02*
X9665301Y-10836484D01*
X9665301Y-10836484D02*
X9703396Y-10836484D01*
X9703396Y-10836484D02*
X9722444Y-10826960D01*
X9722444Y-10826960D02*
X9731968Y-10817436D01*
X9731968Y-10817436D02*
X9741491Y-10798389D01*
X9741491Y-10798389D02*
X9741491Y-10750770D01*
X9741491Y-10750770D02*
X9731968Y-10731722D01*
X9731968Y-10731722D02*
X9722444Y-10722198D01*
X9722444Y-10722198D02*
X9703396Y-10712674D01*
X9703396Y-10712674D02*
X9665301Y-10712674D01*
X9665301Y-10712674D02*
X9646253Y-10722198D01*
X9646253Y-10722198D02*
X9636729Y-10731722D01*
X9636729Y-10731722D02*
X9627206Y-10750770D01*
X9922444Y-10636484D02*
X9827206Y-10636484D01*
X9827206Y-10636484D02*
X9817682Y-10731722D01*
X9817682Y-10731722D02*
X9827206Y-10722198D01*
X9827206Y-10722198D02*
X9846253Y-10712674D01*
X9846253Y-10712674D02*
X9893872Y-10712674D01*
X9893872Y-10712674D02*
X9912920Y-10722198D01*
X9912920Y-10722198D02*
X9922444Y-10731722D01*
X9922444Y-10731722D02*
X9931968Y-10750770D01*
X9931968Y-10750770D02*
X9931968Y-10798389D01*
X9931968Y-10798389D02*
X9922444Y-10817436D01*
X9922444Y-10817436D02*
X9912920Y-10826960D01*
X9912920Y-10826960D02*
X9893872Y-10836484D01*
X9893872Y-10836484D02*
X9846253Y-10836484D01*
X9846253Y-10836484D02*
X9827206Y-10826960D01*
X9827206Y-10826960D02*
X9817682Y-10817436D01*
X10055777Y-10636484D02*
X10074825Y-10636484D01*
X10074825Y-10636484D02*
X10093872Y-10646008D01*
X10093872Y-10646008D02*
X10103396Y-10655531D01*
X10103396Y-10655531D02*
X10112920Y-10674579D01*
X10112920Y-10674579D02*
X10122444Y-10712674D01*
X10122444Y-10712674D02*
X10122444Y-10760293D01*
X10122444Y-10760293D02*
X10112920Y-10798389D01*
X10112920Y-10798389D02*
X10103396Y-10817436D01*
X10103396Y-10817436D02*
X10093872Y-10826960D01*
X10093872Y-10826960D02*
X10074825Y-10836484D01*
X10074825Y-10836484D02*
X10055777Y-10836484D01*
X10055777Y-10836484D02*
X10036729Y-10826960D01*
X10036729Y-10826960D02*
X10027206Y-10817436D01*
X10027206Y-10817436D02*
X10017682Y-10798389D01*
X10017682Y-10798389D02*
X10008158Y-10760293D01*
X10008158Y-10760293D02*
X10008158Y-10712674D01*
X10008158Y-10712674D02*
X10017682Y-10674579D01*
X10017682Y-10674579D02*
X10027206Y-10655531D01*
X10027206Y-10655531D02*
X10036729Y-10646008D01*
X10036729Y-10646008D02*
X10055777Y-10636484D01*
X10198634Y-10636484D02*
X10198634Y-10674579D01*
X10274825Y-10636484D02*
X10274825Y-10674579D01*
X10570063Y-10912674D02*
X10560539Y-10903150D01*
X10560539Y-10903150D02*
X10541491Y-10874579D01*
X10541491Y-10874579D02*
X10531968Y-10855531D01*
X10531968Y-10855531D02*
X10522444Y-10826960D01*
X10522444Y-10826960D02*
X10512920Y-10779341D01*
X10512920Y-10779341D02*
X10512920Y-10741246D01*
X10512920Y-10741246D02*
X10522444Y-10693627D01*
X10522444Y-10693627D02*
X10531968Y-10665055D01*
X10531968Y-10665055D02*
X10541491Y-10646008D01*
X10541491Y-10646008D02*
X10560539Y-10617436D01*
X10560539Y-10617436D02*
X10570063Y-10607912D01*
X10636730Y-10655531D02*
X10646253Y-10646008D01*
X10646253Y-10646008D02*
X10665301Y-10636484D01*
X10665301Y-10636484D02*
X10712920Y-10636484D01*
X10712920Y-10636484D02*
X10731968Y-10646008D01*
X10731968Y-10646008D02*
X10741491Y-10655531D01*
X10741491Y-10655531D02*
X10751015Y-10674579D01*
X10751015Y-10674579D02*
X10751015Y-10693627D01*
X10751015Y-10693627D02*
X10741491Y-10722198D01*
X10741491Y-10722198D02*
X10627206Y-10836484D01*
X10627206Y-10836484D02*
X10751015Y-10836484D01*
X10989111Y-10836484D02*
X10989111Y-10636484D01*
X11074825Y-10836484D02*
X11074825Y-10731722D01*
X11074825Y-10731722D02*
X11065301Y-10712674D01*
X11065301Y-10712674D02*
X11046253Y-10703150D01*
X11046253Y-10703150D02*
X11017682Y-10703150D01*
X11017682Y-10703150D02*
X10998634Y-10712674D01*
X10998634Y-10712674D02*
X10989111Y-10722198D01*
X11198634Y-10836484D02*
X11179587Y-10826960D01*
X11179587Y-10826960D02*
X11170063Y-10817436D01*
X11170063Y-10817436D02*
X11160539Y-10798389D01*
X11160539Y-10798389D02*
X11160539Y-10741246D01*
X11160539Y-10741246D02*
X11170063Y-10722198D01*
X11170063Y-10722198D02*
X11179587Y-10712674D01*
X11179587Y-10712674D02*
X11198634Y-10703150D01*
X11198634Y-10703150D02*
X11227206Y-10703150D01*
X11227206Y-10703150D02*
X11246253Y-10712674D01*
X11246253Y-10712674D02*
X11255777Y-10722198D01*
X11255777Y-10722198D02*
X11265301Y-10741246D01*
X11265301Y-10741246D02*
X11265301Y-10798389D01*
X11265301Y-10798389D02*
X11255777Y-10817436D01*
X11255777Y-10817436D02*
X11246253Y-10826960D01*
X11246253Y-10826960D02*
X11227206Y-10836484D01*
X11227206Y-10836484D02*
X11198634Y-10836484D01*
X11379587Y-10836484D02*
X11360539Y-10826960D01*
X11360539Y-10826960D02*
X11351015Y-10807912D01*
X11351015Y-10807912D02*
X11351015Y-10636484D01*
X11531968Y-10826960D02*
X11512920Y-10836484D01*
X11512920Y-10836484D02*
X11474825Y-10836484D01*
X11474825Y-10836484D02*
X11455777Y-10826960D01*
X11455777Y-10826960D02*
X11446253Y-10807912D01*
X11446253Y-10807912D02*
X11446253Y-10731722D01*
X11446253Y-10731722D02*
X11455777Y-10712674D01*
X11455777Y-10712674D02*
X11474825Y-10703150D01*
X11474825Y-10703150D02*
X11512920Y-10703150D01*
X11512920Y-10703150D02*
X11531968Y-10712674D01*
X11531968Y-10712674D02*
X11541491Y-10731722D01*
X11541491Y-10731722D02*
X11541491Y-10750770D01*
X11541491Y-10750770D02*
X11446253Y-10769817D01*
X11617682Y-10826960D02*
X11636730Y-10836484D01*
X11636730Y-10836484D02*
X11674825Y-10836484D01*
X11674825Y-10836484D02*
X11693872Y-10826960D01*
X11693872Y-10826960D02*
X11703396Y-10807912D01*
X11703396Y-10807912D02*
X11703396Y-10798389D01*
X11703396Y-10798389D02*
X11693872Y-10779341D01*
X11693872Y-10779341D02*
X11674825Y-10769817D01*
X11674825Y-10769817D02*
X11646253Y-10769817D01*
X11646253Y-10769817D02*
X11627206Y-10760293D01*
X11627206Y-10760293D02*
X11617682Y-10741246D01*
X11617682Y-10741246D02*
X11617682Y-10731722D01*
X11617682Y-10731722D02*
X11627206Y-10712674D01*
X11627206Y-10712674D02*
X11646253Y-10703150D01*
X11646253Y-10703150D02*
X11674825Y-10703150D01*
X11674825Y-10703150D02*
X11693872Y-10712674D01*
X11770063Y-10912674D02*
X11779587Y-10903150D01*
X11779587Y-10903150D02*
X11798634Y-10874579D01*
X11798634Y-10874579D02*
X11808158Y-10855531D01*
X11808158Y-10855531D02*
X11817682Y-10826960D01*
X11817682Y-10826960D02*
X11827206Y-10779341D01*
X11827206Y-10779341D02*
X11827206Y-10741246D01*
X11827206Y-10741246D02*
X11817682Y-10693627D01*
X11817682Y-10693627D02*
X11808158Y-10665055D01*
X11808158Y-10665055D02*
X11798634Y-10646008D01*
X11798634Y-10646008D02*
X11779587Y-10617436D01*
X11779587Y-10617436D02*
X11770063Y-10607912D01*
X12131968Y-10912674D02*
X12122444Y-10903150D01*
X12122444Y-10903150D02*
X12103396Y-10874579D01*
X12103396Y-10874579D02*
X12093872Y-10855531D01*
X12093872Y-10855531D02*
X12084349Y-10826960D01*
X12084349Y-10826960D02*
X12074825Y-10779341D01*
X12074825Y-10779341D02*
X12074825Y-10741246D01*
X12074825Y-10741246D02*
X12084349Y-10693627D01*
X12084349Y-10693627D02*
X12093872Y-10665055D01*
X12093872Y-10665055D02*
X12103396Y-10646008D01*
X12103396Y-10646008D02*
X12122444Y-10617436D01*
X12122444Y-10617436D02*
X12131968Y-10607912D01*
X12208158Y-10703150D02*
X12208158Y-10836484D01*
X12208158Y-10722198D02*
X12217682Y-10712674D01*
X12217682Y-10712674D02*
X12236730Y-10703150D01*
X12236730Y-10703150D02*
X12265301Y-10703150D01*
X12265301Y-10703150D02*
X12284349Y-10712674D01*
X12284349Y-10712674D02*
X12293872Y-10731722D01*
X12293872Y-10731722D02*
X12293872Y-10836484D01*
X12417682Y-10836484D02*
X12398634Y-10826960D01*
X12398634Y-10826960D02*
X12389111Y-10817436D01*
X12389111Y-10817436D02*
X12379587Y-10798389D01*
X12379587Y-10798389D02*
X12379587Y-10741246D01*
X12379587Y-10741246D02*
X12389111Y-10722198D01*
X12389111Y-10722198D02*
X12398634Y-10712674D01*
X12398634Y-10712674D02*
X12417682Y-10703150D01*
X12417682Y-10703150D02*
X12446253Y-10703150D01*
X12446253Y-10703150D02*
X12465301Y-10712674D01*
X12465301Y-10712674D02*
X12474825Y-10722198D01*
X12474825Y-10722198D02*
X12484349Y-10741246D01*
X12484349Y-10741246D02*
X12484349Y-10798389D01*
X12484349Y-10798389D02*
X12474825Y-10817436D01*
X12474825Y-10817436D02*
X12465301Y-10826960D01*
X12465301Y-10826960D02*
X12446253Y-10836484D01*
X12446253Y-10836484D02*
X12417682Y-10836484D01*
X12541492Y-10703150D02*
X12617682Y-10703150D01*
X12570063Y-10636484D02*
X12570063Y-10807912D01*
X12570063Y-10807912D02*
X12579587Y-10826960D01*
X12579587Y-10826960D02*
X12598634Y-10836484D01*
X12598634Y-10836484D02*
X12617682Y-10836484D01*
X12836730Y-10703150D02*
X12836730Y-10903150D01*
X12836730Y-10712674D02*
X12855777Y-10703150D01*
X12855777Y-10703150D02*
X12893873Y-10703150D01*
X12893873Y-10703150D02*
X12912920Y-10712674D01*
X12912920Y-10712674D02*
X12922444Y-10722198D01*
X12922444Y-10722198D02*
X12931968Y-10741246D01*
X12931968Y-10741246D02*
X12931968Y-10798389D01*
X12931968Y-10798389D02*
X12922444Y-10817436D01*
X12922444Y-10817436D02*
X12912920Y-10826960D01*
X12912920Y-10826960D02*
X12893873Y-10836484D01*
X12893873Y-10836484D02*
X12855777Y-10836484D01*
X12855777Y-10836484D02*
X12836730Y-10826960D01*
X13046253Y-10836484D02*
X13027206Y-10826960D01*
X13027206Y-10826960D02*
X13017682Y-10807912D01*
X13017682Y-10807912D02*
X13017682Y-10636484D01*
X13208158Y-10836484D02*
X13208158Y-10731722D01*
X13208158Y-10731722D02*
X13198634Y-10712674D01*
X13198634Y-10712674D02*
X13179587Y-10703150D01*
X13179587Y-10703150D02*
X13141492Y-10703150D01*
X13141492Y-10703150D02*
X13122444Y-10712674D01*
X13208158Y-10826960D02*
X13189111Y-10836484D01*
X13189111Y-10836484D02*
X13141492Y-10836484D01*
X13141492Y-10836484D02*
X13122444Y-10826960D01*
X13122444Y-10826960D02*
X13112920Y-10807912D01*
X13112920Y-10807912D02*
X13112920Y-10788865D01*
X13112920Y-10788865D02*
X13122444Y-10769817D01*
X13122444Y-10769817D02*
X13141492Y-10760293D01*
X13141492Y-10760293D02*
X13189111Y-10760293D01*
X13189111Y-10760293D02*
X13208158Y-10750770D01*
X13274825Y-10703150D02*
X13351015Y-10703150D01*
X13303396Y-10636484D02*
X13303396Y-10807912D01*
X13303396Y-10807912D02*
X13312920Y-10826960D01*
X13312920Y-10826960D02*
X13331968Y-10836484D01*
X13331968Y-10836484D02*
X13351015Y-10836484D01*
X13493873Y-10826960D02*
X13474825Y-10836484D01*
X13474825Y-10836484D02*
X13436730Y-10836484D01*
X13436730Y-10836484D02*
X13417682Y-10826960D01*
X13417682Y-10826960D02*
X13408158Y-10807912D01*
X13408158Y-10807912D02*
X13408158Y-10731722D01*
X13408158Y-10731722D02*
X13417682Y-10712674D01*
X13417682Y-10712674D02*
X13436730Y-10703150D01*
X13436730Y-10703150D02*
X13474825Y-10703150D01*
X13474825Y-10703150D02*
X13493873Y-10712674D01*
X13493873Y-10712674D02*
X13503396Y-10731722D01*
X13503396Y-10731722D02*
X13503396Y-10750770D01*
X13503396Y-10750770D02*
X13408158Y-10769817D01*
X13674825Y-10836484D02*
X13674825Y-10636484D01*
X13674825Y-10826960D02*
X13655777Y-10836484D01*
X13655777Y-10836484D02*
X13617682Y-10836484D01*
X13617682Y-10836484D02*
X13598634Y-10826960D01*
X13598634Y-10826960D02*
X13589111Y-10817436D01*
X13589111Y-10817436D02*
X13579587Y-10798389D01*
X13579587Y-10798389D02*
X13579587Y-10741246D01*
X13579587Y-10741246D02*
X13589111Y-10722198D01*
X13589111Y-10722198D02*
X13598634Y-10712674D01*
X13598634Y-10712674D02*
X13617682Y-10703150D01*
X13617682Y-10703150D02*
X13655777Y-10703150D01*
X13655777Y-10703150D02*
X13674825Y-10712674D01*
X13751015Y-10912674D02*
X13760539Y-10903150D01*
X13760539Y-10903150D02*
X13779587Y-10874579D01*
X13779587Y-10874579D02*
X13789111Y-10855531D01*
X13789111Y-10855531D02*
X13798634Y-10826960D01*
X13798634Y-10826960D02*
X13808158Y-10779341D01*
X13808158Y-10779341D02*
X13808158Y-10741246D01*
X13808158Y-10741246D02*
X13798634Y-10693627D01*
X13798634Y-10693627D02*
X13789111Y-10665055D01*
X13789111Y-10665055D02*
X13779587Y-10646008D01*
X13779587Y-10646008D02*
X13760539Y-10617436D01*
X13760539Y-10617436D02*
X13751015Y-10607912D01*
X6995000Y-11030000D02*
G75*
G03*
X6995000Y-11030000I-100000J0D01*
G01*
X7246253Y-10940531D02*
X7255777Y-10931008D01*
X7255777Y-10931008D02*
X7274824Y-10921484D01*
X7274824Y-10921484D02*
X7322443Y-10921484D01*
X7322443Y-10921484D02*
X7341491Y-10931008D01*
X7341491Y-10931008D02*
X7351015Y-10940531D01*
X7351015Y-10940531D02*
X7360539Y-10959579D01*
X7360539Y-10959579D02*
X7360539Y-10978627D01*
X7360539Y-10978627D02*
X7351015Y-11007198D01*
X7351015Y-11007198D02*
X7236729Y-11121484D01*
X7236729Y-11121484D02*
X7360539Y-11121484D01*
X7446253Y-11102436D02*
X7455777Y-11111960D01*
X7455777Y-11111960D02*
X7446253Y-11121484D01*
X7446253Y-11121484D02*
X7436729Y-11111960D01*
X7436729Y-11111960D02*
X7446253Y-11102436D01*
X7446253Y-11102436D02*
X7446253Y-11121484D01*
X7531967Y-10940531D02*
X7541491Y-10931008D01*
X7541491Y-10931008D02*
X7560539Y-10921484D01*
X7560539Y-10921484D02*
X7608158Y-10921484D01*
X7608158Y-10921484D02*
X7627205Y-10931008D01*
X7627205Y-10931008D02*
X7636729Y-10940531D01*
X7636729Y-10940531D02*
X7646253Y-10959579D01*
X7646253Y-10959579D02*
X7646253Y-10978627D01*
X7646253Y-10978627D02*
X7636729Y-11007198D01*
X7636729Y-11007198D02*
X7522443Y-11121484D01*
X7522443Y-11121484D02*
X7646253Y-11121484D01*
X7770062Y-10921484D02*
X7789110Y-10921484D01*
X7789110Y-10921484D02*
X7808158Y-10931008D01*
X7808158Y-10931008D02*
X7817682Y-10940531D01*
X7817682Y-10940531D02*
X7827205Y-10959579D01*
X7827205Y-10959579D02*
X7836729Y-10997674D01*
X7836729Y-10997674D02*
X7836729Y-11045293D01*
X7836729Y-11045293D02*
X7827205Y-11083389D01*
X7827205Y-11083389D02*
X7817682Y-11102436D01*
X7817682Y-11102436D02*
X7808158Y-11111960D01*
X7808158Y-11111960D02*
X7789110Y-11121484D01*
X7789110Y-11121484D02*
X7770062Y-11121484D01*
X7770062Y-11121484D02*
X7751015Y-11111960D01*
X7751015Y-11111960D02*
X7741491Y-11102436D01*
X7741491Y-11102436D02*
X7731967Y-11083389D01*
X7731967Y-11083389D02*
X7722443Y-11045293D01*
X7722443Y-11045293D02*
X7722443Y-10997674D01*
X7722443Y-10997674D02*
X7731967Y-10959579D01*
X7731967Y-10959579D02*
X7741491Y-10940531D01*
X7741491Y-10940531D02*
X7751015Y-10931008D01*
X7751015Y-10931008D02*
X7770062Y-10921484D01*
X7960539Y-10921484D02*
X7979586Y-10921484D01*
X7979586Y-10921484D02*
X7998634Y-10931008D01*
X7998634Y-10931008D02*
X8008158Y-10940531D01*
X8008158Y-10940531D02*
X8017682Y-10959579D01*
X8017682Y-10959579D02*
X8027205Y-10997674D01*
X8027205Y-10997674D02*
X8027205Y-11045293D01*
X8027205Y-11045293D02*
X8017682Y-11083389D01*
X8017682Y-11083389D02*
X8008158Y-11102436D01*
X8008158Y-11102436D02*
X7998634Y-11111960D01*
X7998634Y-11111960D02*
X7979586Y-11121484D01*
X7979586Y-11121484D02*
X7960539Y-11121484D01*
X7960539Y-11121484D02*
X7941491Y-11111960D01*
X7941491Y-11111960D02*
X7931967Y-11102436D01*
X7931967Y-11102436D02*
X7922443Y-11083389D01*
X7922443Y-11083389D02*
X7912920Y-11045293D01*
X7912920Y-11045293D02*
X7912920Y-10997674D01*
X7912920Y-10997674D02*
X7922443Y-10959579D01*
X7922443Y-10959579D02*
X7931967Y-10940531D01*
X7931967Y-10940531D02*
X7941491Y-10931008D01*
X7941491Y-10931008D02*
X7960539Y-10921484D01*
X8112920Y-11121484D02*
X8112920Y-10988150D01*
X8112920Y-11007198D02*
X8122443Y-10997674D01*
X8122443Y-10997674D02*
X8141491Y-10988150D01*
X8141491Y-10988150D02*
X8170063Y-10988150D01*
X8170063Y-10988150D02*
X8189110Y-10997674D01*
X8189110Y-10997674D02*
X8198634Y-11016722D01*
X8198634Y-11016722D02*
X8198634Y-11121484D01*
X8198634Y-11016722D02*
X8208158Y-10997674D01*
X8208158Y-10997674D02*
X8227205Y-10988150D01*
X8227205Y-10988150D02*
X8255777Y-10988150D01*
X8255777Y-10988150D02*
X8274824Y-10997674D01*
X8274824Y-10997674D02*
X8284348Y-11016722D01*
X8284348Y-11016722D02*
X8284348Y-11121484D01*
X8379586Y-11121484D02*
X8379586Y-10988150D01*
X8379586Y-11007198D02*
X8389110Y-10997674D01*
X8389110Y-10997674D02*
X8408158Y-10988150D01*
X8408158Y-10988150D02*
X8436729Y-10988150D01*
X8436729Y-10988150D02*
X8455777Y-10997674D01*
X8455777Y-10997674D02*
X8465301Y-11016722D01*
X8465301Y-11016722D02*
X8465301Y-11121484D01*
X8465301Y-11016722D02*
X8474825Y-10997674D01*
X8474825Y-10997674D02*
X8493872Y-10988150D01*
X8493872Y-10988150D02*
X8522444Y-10988150D01*
X8522444Y-10988150D02*
X8541491Y-10997674D01*
X8541491Y-10997674D02*
X8551015Y-11016722D01*
X8551015Y-11016722D02*
X8551015Y-11121484D01*
X8941491Y-10911960D02*
X8770063Y-11169103D01*
X9198634Y-10921484D02*
X9217682Y-10921484D01*
X9217682Y-10921484D02*
X9236729Y-10931008D01*
X9236729Y-10931008D02*
X9246253Y-10940531D01*
X9246253Y-10940531D02*
X9255777Y-10959579D01*
X9255777Y-10959579D02*
X9265301Y-10997674D01*
X9265301Y-10997674D02*
X9265301Y-11045293D01*
X9265301Y-11045293D02*
X9255777Y-11083389D01*
X9255777Y-11083389D02*
X9246253Y-11102436D01*
X9246253Y-11102436D02*
X9236729Y-11111960D01*
X9236729Y-11111960D02*
X9217682Y-11121484D01*
X9217682Y-11121484D02*
X9198634Y-11121484D01*
X9198634Y-11121484D02*
X9179587Y-11111960D01*
X9179587Y-11111960D02*
X9170063Y-11102436D01*
X9170063Y-11102436D02*
X9160539Y-11083389D01*
X9160539Y-11083389D02*
X9151015Y-11045293D01*
X9151015Y-11045293D02*
X9151015Y-10997674D01*
X9151015Y-10997674D02*
X9160539Y-10959579D01*
X9160539Y-10959579D02*
X9170063Y-10940531D01*
X9170063Y-10940531D02*
X9179587Y-10931008D01*
X9179587Y-10931008D02*
X9198634Y-10921484D01*
X9351015Y-11102436D02*
X9360539Y-11111960D01*
X9360539Y-11111960D02*
X9351015Y-11121484D01*
X9351015Y-11121484D02*
X9341491Y-11111960D01*
X9341491Y-11111960D02*
X9351015Y-11102436D01*
X9351015Y-11102436D02*
X9351015Y-11121484D01*
X9484348Y-10921484D02*
X9503396Y-10921484D01*
X9503396Y-10921484D02*
X9522444Y-10931008D01*
X9522444Y-10931008D02*
X9531968Y-10940531D01*
X9531968Y-10940531D02*
X9541491Y-10959579D01*
X9541491Y-10959579D02*
X9551015Y-10997674D01*
X9551015Y-10997674D02*
X9551015Y-11045293D01*
X9551015Y-11045293D02*
X9541491Y-11083389D01*
X9541491Y-11083389D02*
X9531968Y-11102436D01*
X9531968Y-11102436D02*
X9522444Y-11111960D01*
X9522444Y-11111960D02*
X9503396Y-11121484D01*
X9503396Y-11121484D02*
X9484348Y-11121484D01*
X9484348Y-11121484D02*
X9465301Y-11111960D01*
X9465301Y-11111960D02*
X9455777Y-11102436D01*
X9455777Y-11102436D02*
X9446253Y-11083389D01*
X9446253Y-11083389D02*
X9436729Y-11045293D01*
X9436729Y-11045293D02*
X9436729Y-10997674D01*
X9436729Y-10997674D02*
X9446253Y-10959579D01*
X9446253Y-10959579D02*
X9455777Y-10940531D01*
X9455777Y-10940531D02*
X9465301Y-10931008D01*
X9465301Y-10931008D02*
X9484348Y-10921484D01*
X9665301Y-11007198D02*
X9646253Y-10997674D01*
X9646253Y-10997674D02*
X9636729Y-10988150D01*
X9636729Y-10988150D02*
X9627206Y-10969103D01*
X9627206Y-10969103D02*
X9627206Y-10959579D01*
X9627206Y-10959579D02*
X9636729Y-10940531D01*
X9636729Y-10940531D02*
X9646253Y-10931008D01*
X9646253Y-10931008D02*
X9665301Y-10921484D01*
X9665301Y-10921484D02*
X9703396Y-10921484D01*
X9703396Y-10921484D02*
X9722444Y-10931008D01*
X9722444Y-10931008D02*
X9731968Y-10940531D01*
X9731968Y-10940531D02*
X9741491Y-10959579D01*
X9741491Y-10959579D02*
X9741491Y-10969103D01*
X9741491Y-10969103D02*
X9731968Y-10988150D01*
X9731968Y-10988150D02*
X9722444Y-10997674D01*
X9722444Y-10997674D02*
X9703396Y-11007198D01*
X9703396Y-11007198D02*
X9665301Y-11007198D01*
X9665301Y-11007198D02*
X9646253Y-11016722D01*
X9646253Y-11016722D02*
X9636729Y-11026246D01*
X9636729Y-11026246D02*
X9627206Y-11045293D01*
X9627206Y-11045293D02*
X9627206Y-11083389D01*
X9627206Y-11083389D02*
X9636729Y-11102436D01*
X9636729Y-11102436D02*
X9646253Y-11111960D01*
X9646253Y-11111960D02*
X9665301Y-11121484D01*
X9665301Y-11121484D02*
X9703396Y-11121484D01*
X9703396Y-11121484D02*
X9722444Y-11111960D01*
X9722444Y-11111960D02*
X9731968Y-11102436D01*
X9731968Y-11102436D02*
X9741491Y-11083389D01*
X9741491Y-11083389D02*
X9741491Y-11045293D01*
X9741491Y-11045293D02*
X9731968Y-11026246D01*
X9731968Y-11026246D02*
X9722444Y-11016722D01*
X9722444Y-11016722D02*
X9703396Y-11007198D01*
X9912920Y-10921484D02*
X9874825Y-10921484D01*
X9874825Y-10921484D02*
X9855777Y-10931008D01*
X9855777Y-10931008D02*
X9846253Y-10940531D01*
X9846253Y-10940531D02*
X9827206Y-10969103D01*
X9827206Y-10969103D02*
X9817682Y-11007198D01*
X9817682Y-11007198D02*
X9817682Y-11083389D01*
X9817682Y-11083389D02*
X9827206Y-11102436D01*
X9827206Y-11102436D02*
X9836729Y-11111960D01*
X9836729Y-11111960D02*
X9855777Y-11121484D01*
X9855777Y-11121484D02*
X9893872Y-11121484D01*
X9893872Y-11121484D02*
X9912920Y-11111960D01*
X9912920Y-11111960D02*
X9922444Y-11102436D01*
X9922444Y-11102436D02*
X9931968Y-11083389D01*
X9931968Y-11083389D02*
X9931968Y-11035770D01*
X9931968Y-11035770D02*
X9922444Y-11016722D01*
X9922444Y-11016722D02*
X9912920Y-11007198D01*
X9912920Y-11007198D02*
X9893872Y-10997674D01*
X9893872Y-10997674D02*
X9855777Y-10997674D01*
X9855777Y-10997674D02*
X9836729Y-11007198D01*
X9836729Y-11007198D02*
X9827206Y-11016722D01*
X9827206Y-11016722D02*
X9817682Y-11035770D01*
X10103396Y-10921484D02*
X10065301Y-10921484D01*
X10065301Y-10921484D02*
X10046253Y-10931008D01*
X10046253Y-10931008D02*
X10036729Y-10940531D01*
X10036729Y-10940531D02*
X10017682Y-10969103D01*
X10017682Y-10969103D02*
X10008158Y-11007198D01*
X10008158Y-11007198D02*
X10008158Y-11083389D01*
X10008158Y-11083389D02*
X10017682Y-11102436D01*
X10017682Y-11102436D02*
X10027206Y-11111960D01*
X10027206Y-11111960D02*
X10046253Y-11121484D01*
X10046253Y-11121484D02*
X10084349Y-11121484D01*
X10084349Y-11121484D02*
X10103396Y-11111960D01*
X10103396Y-11111960D02*
X10112920Y-11102436D01*
X10112920Y-11102436D02*
X10122444Y-11083389D01*
X10122444Y-11083389D02*
X10122444Y-11035770D01*
X10122444Y-11035770D02*
X10112920Y-11016722D01*
X10112920Y-11016722D02*
X10103396Y-11007198D01*
X10103396Y-11007198D02*
X10084349Y-10997674D01*
X10084349Y-10997674D02*
X10046253Y-10997674D01*
X10046253Y-10997674D02*
X10027206Y-11007198D01*
X10027206Y-11007198D02*
X10017682Y-11016722D01*
X10017682Y-11016722D02*
X10008158Y-11035770D01*
X10198634Y-10921484D02*
X10198634Y-10959579D01*
X10274825Y-10921484D02*
X10274825Y-10959579D01*
X10570063Y-11197674D02*
X10560539Y-11188150D01*
X10560539Y-11188150D02*
X10541491Y-11159579D01*
X10541491Y-11159579D02*
X10531968Y-11140531D01*
X10531968Y-11140531D02*
X10522444Y-11111960D01*
X10522444Y-11111960D02*
X10512920Y-11064341D01*
X10512920Y-11064341D02*
X10512920Y-11026246D01*
X10512920Y-11026246D02*
X10522444Y-10978627D01*
X10522444Y-10978627D02*
X10531968Y-10950055D01*
X10531968Y-10950055D02*
X10541491Y-10931008D01*
X10541491Y-10931008D02*
X10560539Y-10902436D01*
X10560539Y-10902436D02*
X10570063Y-10892912D01*
X10636730Y-10940531D02*
X10646253Y-10931008D01*
X10646253Y-10931008D02*
X10665301Y-10921484D01*
X10665301Y-10921484D02*
X10712920Y-10921484D01*
X10712920Y-10921484D02*
X10731968Y-10931008D01*
X10731968Y-10931008D02*
X10741491Y-10940531D01*
X10741491Y-10940531D02*
X10751015Y-10959579D01*
X10751015Y-10959579D02*
X10751015Y-10978627D01*
X10751015Y-10978627D02*
X10741491Y-11007198D01*
X10741491Y-11007198D02*
X10627206Y-11121484D01*
X10627206Y-11121484D02*
X10751015Y-11121484D01*
X10989111Y-11121484D02*
X10989111Y-10921484D01*
X11074825Y-11121484D02*
X11074825Y-11016722D01*
X11074825Y-11016722D02*
X11065301Y-10997674D01*
X11065301Y-10997674D02*
X11046253Y-10988150D01*
X11046253Y-10988150D02*
X11017682Y-10988150D01*
X11017682Y-10988150D02*
X10998634Y-10997674D01*
X10998634Y-10997674D02*
X10989111Y-11007198D01*
X11198634Y-11121484D02*
X11179587Y-11111960D01*
X11179587Y-11111960D02*
X11170063Y-11102436D01*
X11170063Y-11102436D02*
X11160539Y-11083389D01*
X11160539Y-11083389D02*
X11160539Y-11026246D01*
X11160539Y-11026246D02*
X11170063Y-11007198D01*
X11170063Y-11007198D02*
X11179587Y-10997674D01*
X11179587Y-10997674D02*
X11198634Y-10988150D01*
X11198634Y-10988150D02*
X11227206Y-10988150D01*
X11227206Y-10988150D02*
X11246253Y-10997674D01*
X11246253Y-10997674D02*
X11255777Y-11007198D01*
X11255777Y-11007198D02*
X11265301Y-11026246D01*
X11265301Y-11026246D02*
X11265301Y-11083389D01*
X11265301Y-11083389D02*
X11255777Y-11102436D01*
X11255777Y-11102436D02*
X11246253Y-11111960D01*
X11246253Y-11111960D02*
X11227206Y-11121484D01*
X11227206Y-11121484D02*
X11198634Y-11121484D01*
X11379587Y-11121484D02*
X11360539Y-11111960D01*
X11360539Y-11111960D02*
X11351015Y-11092912D01*
X11351015Y-11092912D02*
X11351015Y-10921484D01*
X11531968Y-11111960D02*
X11512920Y-11121484D01*
X11512920Y-11121484D02*
X11474825Y-11121484D01*
X11474825Y-11121484D02*
X11455777Y-11111960D01*
X11455777Y-11111960D02*
X11446253Y-11092912D01*
X11446253Y-11092912D02*
X11446253Y-11016722D01*
X11446253Y-11016722D02*
X11455777Y-10997674D01*
X11455777Y-10997674D02*
X11474825Y-10988150D01*
X11474825Y-10988150D02*
X11512920Y-10988150D01*
X11512920Y-10988150D02*
X11531968Y-10997674D01*
X11531968Y-10997674D02*
X11541491Y-11016722D01*
X11541491Y-11016722D02*
X11541491Y-11035770D01*
X11541491Y-11035770D02*
X11446253Y-11054817D01*
X11617682Y-11111960D02*
X11636730Y-11121484D01*
X11636730Y-11121484D02*
X11674825Y-11121484D01*
X11674825Y-11121484D02*
X11693872Y-11111960D01*
X11693872Y-11111960D02*
X11703396Y-11092912D01*
X11703396Y-11092912D02*
X11703396Y-11083389D01*
X11703396Y-11083389D02*
X11693872Y-11064341D01*
X11693872Y-11064341D02*
X11674825Y-11054817D01*
X11674825Y-11054817D02*
X11646253Y-11054817D01*
X11646253Y-11054817D02*
X11627206Y-11045293D01*
X11627206Y-11045293D02*
X11617682Y-11026246D01*
X11617682Y-11026246D02*
X11617682Y-11016722D01*
X11617682Y-11016722D02*
X11627206Y-10997674D01*
X11627206Y-10997674D02*
X11646253Y-10988150D01*
X11646253Y-10988150D02*
X11674825Y-10988150D01*
X11674825Y-10988150D02*
X11693872Y-10997674D01*
X11770063Y-11197674D02*
X11779587Y-11188150D01*
X11779587Y-11188150D02*
X11798634Y-11159579D01*
X11798634Y-11159579D02*
X11808158Y-11140531D01*
X11808158Y-11140531D02*
X11817682Y-11111960D01*
X11817682Y-11111960D02*
X11827206Y-11064341D01*
X11827206Y-11064341D02*
X11827206Y-11026246D01*
X11827206Y-11026246D02*
X11817682Y-10978627D01*
X11817682Y-10978627D02*
X11808158Y-10950055D01*
X11808158Y-10950055D02*
X11798634Y-10931008D01*
X11798634Y-10931008D02*
X11779587Y-10902436D01*
X11779587Y-10902436D02*
X11770063Y-10892912D01*
X12131968Y-11197674D02*
X12122444Y-11188150D01*
X12122444Y-11188150D02*
X12103396Y-11159579D01*
X12103396Y-11159579D02*
X12093872Y-11140531D01*
X12093872Y-11140531D02*
X12084349Y-11111960D01*
X12084349Y-11111960D02*
X12074825Y-11064341D01*
X12074825Y-11064341D02*
X12074825Y-11026246D01*
X12074825Y-11026246D02*
X12084349Y-10978627D01*
X12084349Y-10978627D02*
X12093872Y-10950055D01*
X12093872Y-10950055D02*
X12103396Y-10931008D01*
X12103396Y-10931008D02*
X12122444Y-10902436D01*
X12122444Y-10902436D02*
X12131968Y-10892912D01*
X12208158Y-10988150D02*
X12208158Y-11121484D01*
X12208158Y-11007198D02*
X12217682Y-10997674D01*
X12217682Y-10997674D02*
X12236730Y-10988150D01*
X12236730Y-10988150D02*
X12265301Y-10988150D01*
X12265301Y-10988150D02*
X12284349Y-10997674D01*
X12284349Y-10997674D02*
X12293872Y-11016722D01*
X12293872Y-11016722D02*
X12293872Y-11121484D01*
X12417682Y-11121484D02*
X12398634Y-11111960D01*
X12398634Y-11111960D02*
X12389111Y-11102436D01*
X12389111Y-11102436D02*
X12379587Y-11083389D01*
X12379587Y-11083389D02*
X12379587Y-11026246D01*
X12379587Y-11026246D02*
X12389111Y-11007198D01*
X12389111Y-11007198D02*
X12398634Y-10997674D01*
X12398634Y-10997674D02*
X12417682Y-10988150D01*
X12417682Y-10988150D02*
X12446253Y-10988150D01*
X12446253Y-10988150D02*
X12465301Y-10997674D01*
X12465301Y-10997674D02*
X12474825Y-11007198D01*
X12474825Y-11007198D02*
X12484349Y-11026246D01*
X12484349Y-11026246D02*
X12484349Y-11083389D01*
X12484349Y-11083389D02*
X12474825Y-11102436D01*
X12474825Y-11102436D02*
X12465301Y-11111960D01*
X12465301Y-11111960D02*
X12446253Y-11121484D01*
X12446253Y-11121484D02*
X12417682Y-11121484D01*
X12541492Y-10988150D02*
X12617682Y-10988150D01*
X12570063Y-10921484D02*
X12570063Y-11092912D01*
X12570063Y-11092912D02*
X12579587Y-11111960D01*
X12579587Y-11111960D02*
X12598634Y-11121484D01*
X12598634Y-11121484D02*
X12617682Y-11121484D01*
X12836730Y-10988150D02*
X12836730Y-11188150D01*
X12836730Y-10997674D02*
X12855777Y-10988150D01*
X12855777Y-10988150D02*
X12893873Y-10988150D01*
X12893873Y-10988150D02*
X12912920Y-10997674D01*
X12912920Y-10997674D02*
X12922444Y-11007198D01*
X12922444Y-11007198D02*
X12931968Y-11026246D01*
X12931968Y-11026246D02*
X12931968Y-11083389D01*
X12931968Y-11083389D02*
X12922444Y-11102436D01*
X12922444Y-11102436D02*
X12912920Y-11111960D01*
X12912920Y-11111960D02*
X12893873Y-11121484D01*
X12893873Y-11121484D02*
X12855777Y-11121484D01*
X12855777Y-11121484D02*
X12836730Y-11111960D01*
X13046253Y-11121484D02*
X13027206Y-11111960D01*
X13027206Y-11111960D02*
X13017682Y-11092912D01*
X13017682Y-11092912D02*
X13017682Y-10921484D01*
X13208158Y-11121484D02*
X13208158Y-11016722D01*
X13208158Y-11016722D02*
X13198634Y-10997674D01*
X13198634Y-10997674D02*
X13179587Y-10988150D01*
X13179587Y-10988150D02*
X13141492Y-10988150D01*
X13141492Y-10988150D02*
X13122444Y-10997674D01*
X13208158Y-11111960D02*
X13189111Y-11121484D01*
X13189111Y-11121484D02*
X13141492Y-11121484D01*
X13141492Y-11121484D02*
X13122444Y-11111960D01*
X13122444Y-11111960D02*
X13112920Y-11092912D01*
X13112920Y-11092912D02*
X13112920Y-11073865D01*
X13112920Y-11073865D02*
X13122444Y-11054817D01*
X13122444Y-11054817D02*
X13141492Y-11045293D01*
X13141492Y-11045293D02*
X13189111Y-11045293D01*
X13189111Y-11045293D02*
X13208158Y-11035770D01*
X13274825Y-10988150D02*
X13351015Y-10988150D01*
X13303396Y-10921484D02*
X13303396Y-11092912D01*
X13303396Y-11092912D02*
X13312920Y-11111960D01*
X13312920Y-11111960D02*
X13331968Y-11121484D01*
X13331968Y-11121484D02*
X13351015Y-11121484D01*
X13493873Y-11111960D02*
X13474825Y-11121484D01*
X13474825Y-11121484D02*
X13436730Y-11121484D01*
X13436730Y-11121484D02*
X13417682Y-11111960D01*
X13417682Y-11111960D02*
X13408158Y-11092912D01*
X13408158Y-11092912D02*
X13408158Y-11016722D01*
X13408158Y-11016722D02*
X13417682Y-10997674D01*
X13417682Y-10997674D02*
X13436730Y-10988150D01*
X13436730Y-10988150D02*
X13474825Y-10988150D01*
X13474825Y-10988150D02*
X13493873Y-10997674D01*
X13493873Y-10997674D02*
X13503396Y-11016722D01*
X13503396Y-11016722D02*
X13503396Y-11035770D01*
X13503396Y-11035770D02*
X13408158Y-11054817D01*
X13674825Y-11121484D02*
X13674825Y-10921484D01*
X13674825Y-11111960D02*
X13655777Y-11121484D01*
X13655777Y-11121484D02*
X13617682Y-11121484D01*
X13617682Y-11121484D02*
X13598634Y-11111960D01*
X13598634Y-11111960D02*
X13589111Y-11102436D01*
X13589111Y-11102436D02*
X13579587Y-11083389D01*
X13579587Y-11083389D02*
X13579587Y-11026246D01*
X13579587Y-11026246D02*
X13589111Y-11007198D01*
X13589111Y-11007198D02*
X13598634Y-10997674D01*
X13598634Y-10997674D02*
X13617682Y-10988150D01*
X13617682Y-10988150D02*
X13655777Y-10988150D01*
X13655777Y-10988150D02*
X13674825Y-10997674D01*
X13751015Y-11197674D02*
X13760539Y-11188150D01*
X13760539Y-11188150D02*
X13779587Y-11159579D01*
X13779587Y-11159579D02*
X13789111Y-11140531D01*
X13789111Y-11140531D02*
X13798634Y-11111960D01*
X13798634Y-11111960D02*
X13808158Y-11064341D01*
X13808158Y-11064341D02*
X13808158Y-11026246D01*
X13808158Y-11026246D02*
X13798634Y-10978627D01*
X13798634Y-10978627D02*
X13789111Y-10950055D01*
X13789111Y-10950055D02*
X13779587Y-10931008D01*
X13779587Y-10931008D02*
X13760539Y-10902436D01*
X13760539Y-10902436D02*
X13751015Y-10892912D01*
M02*
