%TF.GenerationSoftware,KiCad,Pcbnew,7.0.8-7.0.8~ubuntu22.04.1*%
%TF.CreationDate,2023-10-22T18:31:15+02:00*%
%TF.ProjectId,extension-cable,65787465-6e73-4696-9f6e-2d6361626c65,rev?*%
%TF.SameCoordinates,Original*%
%TF.FileFunction,Drillmap*%
%TF.FilePolarity,Positive*%
%FSLAX45Y45*%
G04 Gerber Fmt 4.5, Leading zero omitted, Abs format (unit mm)*
G04 Created by KiCad (PCBNEW 7.0.8-7.0.8~ubuntu22.04.1) date 2023-10-22 18:31:15*
%MOMM*%
%LPD*%
G01*
G04 APERTURE LIST*
%ADD10C,0.100000*%
%ADD11C,0.200000*%
%ADD12C,0.030000*%
%ADD13C,0.040000*%
G04 APERTURE END LIST*
D10*
X14230000Y-9850000D02*
X11030000Y-9850000D01*
X11030000Y-6150000D02*
X11030000Y-7400000D01*
X10950000Y-9850000D02*
X7747000Y-9850000D01*
X11030000Y-8600000D02*
X11030000Y-9850000D01*
X10950000Y-8600000D02*
X10950000Y-9850000D01*
X14230000Y-9850000D02*
X14230000Y-6150000D01*
X10950000Y-7400000D02*
X11030000Y-7400000D01*
X10950000Y-8600000D02*
X11030000Y-8600000D01*
X10950000Y-6150000D02*
X10950000Y-7400000D01*
X11030000Y-6150000D02*
X14230000Y-6150000D01*
X7747000Y-9850000D02*
X7747000Y-6150000D01*
X7747000Y-6150000D02*
X10950000Y-6150000D01*
D11*
D12*
X8345000Y-8662000D02*
X8375000Y-8692000D01*
X8375000Y-8662000D02*
X8345000Y-8692000D01*
X8571000Y-8000000D02*
X8601000Y-8030000D01*
X8601000Y-8000000D02*
X8571000Y-8030000D01*
X8643000Y-9111000D02*
X8673000Y-9141000D01*
X8673000Y-9111000D02*
X8643000Y-9141000D01*
X8659000Y-8171183D02*
X8689000Y-8201183D01*
X8689000Y-8171183D02*
X8659000Y-8201183D01*
X8735000Y-9109000D02*
X8765000Y-9139000D01*
X8765000Y-9109000D02*
X8735000Y-9139000D01*
X8759000Y-7224000D02*
X8789000Y-7254000D01*
X8789000Y-7224000D02*
X8759000Y-7254000D01*
X8791000Y-6772000D02*
X8821000Y-6802000D01*
X8821000Y-6772000D02*
X8791000Y-6802000D01*
X8889000Y-9124000D02*
X8919000Y-9154000D01*
X8919000Y-9124000D02*
X8889000Y-9154000D01*
X8937000Y-8503000D02*
X8967000Y-8533000D01*
X8967000Y-8503000D02*
X8937000Y-8533000D01*
X9040000Y-8689000D02*
X9070000Y-8719000D01*
X9070000Y-8689000D02*
X9040000Y-8719000D01*
X9041000Y-8423000D02*
X9071000Y-8453000D01*
X9071000Y-8423000D02*
X9041000Y-8453000D01*
X9099220Y-8540399D02*
X9129220Y-8570399D01*
X9129220Y-8540399D02*
X9099220Y-8570399D01*
X9110000Y-8360000D02*
X9140000Y-8390000D01*
X9140000Y-8360000D02*
X9110000Y-8390000D01*
X9150998Y-8586759D02*
X9180998Y-8616759D01*
X9180998Y-8586759D02*
X9150998Y-8616759D01*
X9167000Y-8224000D02*
X9197000Y-8254000D01*
X9197000Y-8224000D02*
X9167000Y-8254000D01*
X9214000Y-7725000D02*
X9244000Y-7755000D01*
X9244000Y-7725000D02*
X9214000Y-7755000D01*
X9217991Y-8124991D02*
X9247991Y-8154991D01*
X9247991Y-8124991D02*
X9217991Y-8154991D01*
X9225000Y-8494000D02*
X9255000Y-8524000D01*
X9255000Y-8494000D02*
X9225000Y-8524000D01*
X9242881Y-8019491D02*
X9272881Y-8049491D01*
X9272881Y-8019491D02*
X9242881Y-8049491D01*
X9257000Y-7817000D02*
X9287000Y-7847000D01*
X9287000Y-7817000D02*
X9257000Y-7847000D01*
X9312000Y-8400000D02*
X9342000Y-8430000D01*
X9342000Y-8400000D02*
X9312000Y-8430000D01*
X9369000Y-8324000D02*
X9399000Y-8354000D01*
X9399000Y-8324000D02*
X9369000Y-8354000D01*
X9388395Y-9163000D02*
X9418395Y-9193000D01*
X9418395Y-9163000D02*
X9388395Y-9193000D01*
X9426000Y-8376000D02*
X9456000Y-8406000D01*
X9456000Y-8376000D02*
X9426000Y-8406000D01*
X9712000Y-8016000D02*
X9742000Y-8046000D01*
X9742000Y-8016000D02*
X9712000Y-8046000D01*
X9717000Y-8206000D02*
X9747000Y-8236000D01*
X9747000Y-8206000D02*
X9717000Y-8236000D01*
X9794000Y-7542000D02*
X9824000Y-7572000D01*
X9824000Y-7542000D02*
X9794000Y-7572000D01*
X10060500Y-9061500D02*
X10090500Y-9091500D01*
X10090500Y-9061500D02*
X10060500Y-9091500D01*
X10216000Y-9106000D02*
X10246000Y-9136000D01*
X10246000Y-9106000D02*
X10216000Y-9136000D01*
X10975000Y-7472000D02*
X11005000Y-7502000D01*
X11005000Y-7472000D02*
X10975000Y-7502000D01*
X10975000Y-7676600D02*
X11005000Y-7706600D01*
X11005000Y-7676600D02*
X10975000Y-7706600D01*
X10975000Y-7881200D02*
X11005000Y-7911200D01*
X11005000Y-7881200D02*
X10975000Y-7911200D01*
X10975000Y-8085800D02*
X11005000Y-8115800D01*
X11005000Y-8085800D02*
X10975000Y-8115800D01*
X10975000Y-8290400D02*
X11005000Y-8320400D01*
X11005000Y-8290400D02*
X10975000Y-8320400D01*
X10975000Y-8495000D02*
X11005000Y-8525000D01*
X11005000Y-8495000D02*
X10975000Y-8525000D01*
X11748000Y-9167000D02*
X11778000Y-9197000D01*
X11778000Y-9167000D02*
X11748000Y-9197000D01*
X11765000Y-8817000D02*
X11795000Y-8847000D01*
X11795000Y-8817000D02*
X11765000Y-8847000D01*
X11923000Y-8550000D02*
X11953000Y-8580000D01*
X11953000Y-8550000D02*
X11923000Y-8580000D01*
X12049000Y-8879000D02*
X12079000Y-8909000D01*
X12079000Y-8879000D02*
X12049000Y-8909000D01*
X12159000Y-8329000D02*
X12189000Y-8359000D01*
X12189000Y-8329000D02*
X12159000Y-8359000D01*
X12160000Y-8484000D02*
X12190000Y-8514000D01*
X12190000Y-8484000D02*
X12160000Y-8514000D01*
X12214000Y-8530000D02*
X12244000Y-8560000D01*
X12244000Y-8530000D02*
X12214000Y-8560000D01*
X12218000Y-8188000D02*
X12248000Y-8218000D01*
X12248000Y-8188000D02*
X12218000Y-8218000D01*
X12267000Y-8056000D02*
X12297000Y-8086000D01*
X12297000Y-8056000D02*
X12267000Y-8086000D01*
X12292500Y-8454007D02*
X12322500Y-8484007D01*
X12322500Y-8454007D02*
X12292500Y-8484007D01*
X12311638Y-7922400D02*
X12341638Y-7952400D01*
X12341638Y-7922400D02*
X12311638Y-7952400D01*
X12349500Y-8369000D02*
X12379500Y-8399000D01*
X12379500Y-8369000D02*
X12349500Y-8399000D01*
X12380640Y-7782749D02*
X12410640Y-7812749D01*
X12410640Y-7782749D02*
X12380640Y-7812749D01*
X12388000Y-6819000D02*
X12418000Y-6849000D01*
X12418000Y-6819000D02*
X12388000Y-6849000D01*
X12406500Y-8440000D02*
X12436500Y-8470000D01*
X12436500Y-8440000D02*
X12406500Y-8470000D01*
X12410000Y-7666000D02*
X12440000Y-7696000D01*
X12440000Y-7666000D02*
X12410000Y-7696000D01*
X12429000Y-7106000D02*
X12459000Y-7136000D01*
X12459000Y-7106000D02*
X12429000Y-7136000D01*
X12451000Y-8504000D02*
X12481000Y-8534000D01*
X12481000Y-8504000D02*
X12451000Y-8534000D01*
X12456000Y-7538000D02*
X12486000Y-7568000D01*
X12486000Y-7538000D02*
X12456000Y-7568000D01*
X12477695Y-7196305D02*
X12507695Y-7226305D01*
X12507695Y-7196305D02*
X12477695Y-7226305D01*
X12490000Y-7423000D02*
X12520000Y-7453000D01*
X12520000Y-7423000D02*
X12490000Y-7453000D01*
X12509000Y-8562000D02*
X12539000Y-8592000D01*
X12539000Y-8562000D02*
X12509000Y-8592000D01*
X12513195Y-7309805D02*
X12543195Y-7339805D01*
X12543195Y-7309805D02*
X12513195Y-7339805D01*
X12576000Y-8092000D02*
X12606000Y-8122000D01*
X12606000Y-8092000D02*
X12576000Y-8122000D01*
X12650625Y-8141832D02*
X12680625Y-8171832D01*
X12680625Y-8141832D02*
X12650625Y-8171832D01*
X12694000Y-7989000D02*
X12724000Y-8019000D01*
X12724000Y-7989000D02*
X12694000Y-8019000D01*
X12753000Y-8071000D02*
X12783000Y-8101000D01*
X12783000Y-8071000D02*
X12753000Y-8101000D01*
X12815000Y-7964000D02*
X12845000Y-7994000D01*
X12845000Y-7964000D02*
X12815000Y-7994000D01*
X12913000Y-9178000D02*
X12943000Y-9208000D01*
X12943000Y-9178000D02*
X12913000Y-9208000D01*
X13175000Y-8878000D02*
X13205000Y-8908000D01*
X13205000Y-8878000D02*
X13175000Y-8908000D01*
X13188000Y-8787000D02*
X13218000Y-8817000D01*
X13218000Y-8787000D02*
X13188000Y-8817000D01*
X13223000Y-6450000D02*
X13253000Y-6480000D01*
X13253000Y-6450000D02*
X13223000Y-6480000D01*
X13347000Y-9176000D02*
X13377000Y-9206000D01*
X13377000Y-9176000D02*
X13347000Y-9206000D01*
X13389000Y-8368000D02*
X13419000Y-8398000D01*
X13419000Y-8368000D02*
X13389000Y-8398000D01*
X13476000Y-7064000D02*
X13506000Y-7094000D01*
X13506000Y-7064000D02*
X13476000Y-7094000D01*
X13770000Y-7511000D02*
X13800000Y-7541000D01*
X13800000Y-7511000D02*
X13770000Y-7541000D01*
D13*
X8644000Y-6797000D02*
G75*
G03*
X8644000Y-6797000I-20000J0D01*
G01*
X8944983Y-6795689D02*
G75*
G03*
X8944983Y-6795689I-20000J0D01*
G01*
X9846000Y-6790000D02*
G75*
G03*
X9846000Y-6790000I-20000J0D01*
G01*
X10094000Y-6785000D02*
G75*
G03*
X10094000Y-6785000I-20000J0D01*
G01*
X11872000Y-6766000D02*
G75*
G03*
X11872000Y-6766000I-20000J0D01*
G01*
X11997000Y-9182000D02*
G75*
G03*
X11997000Y-9182000I-20000J0D01*
G01*
X12172983Y-6764689D02*
G75*
G03*
X12172983Y-6764689I-20000J0D01*
G01*
X13074000Y-6759000D02*
G75*
G03*
X13074000Y-6759000I-20000J0D01*
G01*
X13322000Y-6754000D02*
G75*
G03*
X13322000Y-6754000I-20000J0D01*
G01*
D11*
X8002777Y-10166484D02*
X8002777Y-9966484D01*
X8002777Y-9966484D02*
X8050396Y-9966484D01*
X8050396Y-9966484D02*
X8078967Y-9976008D01*
X8078967Y-9976008D02*
X8098015Y-9995055D01*
X8098015Y-9995055D02*
X8107539Y-10014103D01*
X8107539Y-10014103D02*
X8117062Y-10052198D01*
X8117062Y-10052198D02*
X8117062Y-10080770D01*
X8117062Y-10080770D02*
X8107539Y-10118865D01*
X8107539Y-10118865D02*
X8098015Y-10137912D01*
X8098015Y-10137912D02*
X8078967Y-10156960D01*
X8078967Y-10156960D02*
X8050396Y-10166484D01*
X8050396Y-10166484D02*
X8002777Y-10166484D01*
X8202777Y-10166484D02*
X8202777Y-10033150D01*
X8202777Y-10071246D02*
X8212301Y-10052198D01*
X8212301Y-10052198D02*
X8221824Y-10042674D01*
X8221824Y-10042674D02*
X8240872Y-10033150D01*
X8240872Y-10033150D02*
X8259920Y-10033150D01*
X8326586Y-10166484D02*
X8326586Y-10033150D01*
X8326586Y-9966484D02*
X8317062Y-9976008D01*
X8317062Y-9976008D02*
X8326586Y-9985531D01*
X8326586Y-9985531D02*
X8336110Y-9976008D01*
X8336110Y-9976008D02*
X8326586Y-9966484D01*
X8326586Y-9966484D02*
X8326586Y-9985531D01*
X8450396Y-10166484D02*
X8431348Y-10156960D01*
X8431348Y-10156960D02*
X8421824Y-10137912D01*
X8421824Y-10137912D02*
X8421824Y-9966484D01*
X8555158Y-10166484D02*
X8536110Y-10156960D01*
X8536110Y-10156960D02*
X8526586Y-10137912D01*
X8526586Y-10137912D02*
X8526586Y-9966484D01*
X8783729Y-10166484D02*
X8783729Y-9966484D01*
X8783729Y-9966484D02*
X8850396Y-10109341D01*
X8850396Y-10109341D02*
X8917063Y-9966484D01*
X8917063Y-9966484D02*
X8917063Y-10166484D01*
X9098015Y-10166484D02*
X9098015Y-10061722D01*
X9098015Y-10061722D02*
X9088491Y-10042674D01*
X9088491Y-10042674D02*
X9069444Y-10033150D01*
X9069444Y-10033150D02*
X9031348Y-10033150D01*
X9031348Y-10033150D02*
X9012301Y-10042674D01*
X9098015Y-10156960D02*
X9078967Y-10166484D01*
X9078967Y-10166484D02*
X9031348Y-10166484D01*
X9031348Y-10166484D02*
X9012301Y-10156960D01*
X9012301Y-10156960D02*
X9002777Y-10137912D01*
X9002777Y-10137912D02*
X9002777Y-10118865D01*
X9002777Y-10118865D02*
X9012301Y-10099817D01*
X9012301Y-10099817D02*
X9031348Y-10090293D01*
X9031348Y-10090293D02*
X9078967Y-10090293D01*
X9078967Y-10090293D02*
X9098015Y-10080770D01*
X9193253Y-10033150D02*
X9193253Y-10233150D01*
X9193253Y-10042674D02*
X9212301Y-10033150D01*
X9212301Y-10033150D02*
X9250396Y-10033150D01*
X9250396Y-10033150D02*
X9269444Y-10042674D01*
X9269444Y-10042674D02*
X9278967Y-10052198D01*
X9278967Y-10052198D02*
X9288491Y-10071246D01*
X9288491Y-10071246D02*
X9288491Y-10128389D01*
X9288491Y-10128389D02*
X9278967Y-10147436D01*
X9278967Y-10147436D02*
X9269444Y-10156960D01*
X9269444Y-10156960D02*
X9250396Y-10166484D01*
X9250396Y-10166484D02*
X9212301Y-10166484D01*
X9212301Y-10166484D02*
X9193253Y-10156960D01*
X9374205Y-10147436D02*
X9383729Y-10156960D01*
X9383729Y-10156960D02*
X9374205Y-10166484D01*
X9374205Y-10166484D02*
X9364682Y-10156960D01*
X9364682Y-10156960D02*
X9374205Y-10147436D01*
X9374205Y-10147436D02*
X9374205Y-10166484D01*
X9374205Y-10042674D02*
X9383729Y-10052198D01*
X9383729Y-10052198D02*
X9374205Y-10061722D01*
X9374205Y-10061722D02*
X9364682Y-10052198D01*
X9364682Y-10052198D02*
X9374205Y-10042674D01*
X9374205Y-10042674D02*
X9374205Y-10061722D01*
D12*
X7712000Y-10480000D02*
X7742000Y-10510000D01*
X7742000Y-10480000D02*
X7712000Y-10510000D01*
D11*
X8040872Y-10386484D02*
X8059920Y-10386484D01*
X8059920Y-10386484D02*
X8078967Y-10396008D01*
X8078967Y-10396008D02*
X8088491Y-10405531D01*
X8088491Y-10405531D02*
X8098015Y-10424579D01*
X8098015Y-10424579D02*
X8107539Y-10462674D01*
X8107539Y-10462674D02*
X8107539Y-10510293D01*
X8107539Y-10510293D02*
X8098015Y-10548389D01*
X8098015Y-10548389D02*
X8088491Y-10567436D01*
X8088491Y-10567436D02*
X8078967Y-10576960D01*
X8078967Y-10576960D02*
X8059920Y-10586484D01*
X8059920Y-10586484D02*
X8040872Y-10586484D01*
X8040872Y-10586484D02*
X8021824Y-10576960D01*
X8021824Y-10576960D02*
X8012301Y-10567436D01*
X8012301Y-10567436D02*
X8002777Y-10548389D01*
X8002777Y-10548389D02*
X7993253Y-10510293D01*
X7993253Y-10510293D02*
X7993253Y-10462674D01*
X7993253Y-10462674D02*
X8002777Y-10424579D01*
X8002777Y-10424579D02*
X8012301Y-10405531D01*
X8012301Y-10405531D02*
X8021824Y-10396008D01*
X8021824Y-10396008D02*
X8040872Y-10386484D01*
X8193253Y-10567436D02*
X8202777Y-10576960D01*
X8202777Y-10576960D02*
X8193253Y-10586484D01*
X8193253Y-10586484D02*
X8183729Y-10576960D01*
X8183729Y-10576960D02*
X8193253Y-10567436D01*
X8193253Y-10567436D02*
X8193253Y-10586484D01*
X8269443Y-10386484D02*
X8393253Y-10386484D01*
X8393253Y-10386484D02*
X8326586Y-10462674D01*
X8326586Y-10462674D02*
X8355158Y-10462674D01*
X8355158Y-10462674D02*
X8374205Y-10472198D01*
X8374205Y-10472198D02*
X8383729Y-10481722D01*
X8383729Y-10481722D02*
X8393253Y-10500770D01*
X8393253Y-10500770D02*
X8393253Y-10548389D01*
X8393253Y-10548389D02*
X8383729Y-10567436D01*
X8383729Y-10567436D02*
X8374205Y-10576960D01*
X8374205Y-10576960D02*
X8355158Y-10586484D01*
X8355158Y-10586484D02*
X8298015Y-10586484D01*
X8298015Y-10586484D02*
X8278967Y-10576960D01*
X8278967Y-10576960D02*
X8269443Y-10567436D01*
X8517063Y-10386484D02*
X8536110Y-10386484D01*
X8536110Y-10386484D02*
X8555158Y-10396008D01*
X8555158Y-10396008D02*
X8564682Y-10405531D01*
X8564682Y-10405531D02*
X8574205Y-10424579D01*
X8574205Y-10424579D02*
X8583729Y-10462674D01*
X8583729Y-10462674D02*
X8583729Y-10510293D01*
X8583729Y-10510293D02*
X8574205Y-10548389D01*
X8574205Y-10548389D02*
X8564682Y-10567436D01*
X8564682Y-10567436D02*
X8555158Y-10576960D01*
X8555158Y-10576960D02*
X8536110Y-10586484D01*
X8536110Y-10586484D02*
X8517063Y-10586484D01*
X8517063Y-10586484D02*
X8498015Y-10576960D01*
X8498015Y-10576960D02*
X8488491Y-10567436D01*
X8488491Y-10567436D02*
X8478967Y-10548389D01*
X8478967Y-10548389D02*
X8469444Y-10510293D01*
X8469444Y-10510293D02*
X8469444Y-10462674D01*
X8469444Y-10462674D02*
X8478967Y-10424579D01*
X8478967Y-10424579D02*
X8488491Y-10405531D01*
X8488491Y-10405531D02*
X8498015Y-10396008D01*
X8498015Y-10396008D02*
X8517063Y-10386484D01*
X8707539Y-10386484D02*
X8726586Y-10386484D01*
X8726586Y-10386484D02*
X8745634Y-10396008D01*
X8745634Y-10396008D02*
X8755158Y-10405531D01*
X8755158Y-10405531D02*
X8764682Y-10424579D01*
X8764682Y-10424579D02*
X8774205Y-10462674D01*
X8774205Y-10462674D02*
X8774205Y-10510293D01*
X8774205Y-10510293D02*
X8764682Y-10548389D01*
X8764682Y-10548389D02*
X8755158Y-10567436D01*
X8755158Y-10567436D02*
X8745634Y-10576960D01*
X8745634Y-10576960D02*
X8726586Y-10586484D01*
X8726586Y-10586484D02*
X8707539Y-10586484D01*
X8707539Y-10586484D02*
X8688491Y-10576960D01*
X8688491Y-10576960D02*
X8678967Y-10567436D01*
X8678967Y-10567436D02*
X8669444Y-10548389D01*
X8669444Y-10548389D02*
X8659920Y-10510293D01*
X8659920Y-10510293D02*
X8659920Y-10462674D01*
X8659920Y-10462674D02*
X8669444Y-10424579D01*
X8669444Y-10424579D02*
X8678967Y-10405531D01*
X8678967Y-10405531D02*
X8688491Y-10396008D01*
X8688491Y-10396008D02*
X8707539Y-10386484D01*
X8859920Y-10586484D02*
X8859920Y-10453150D01*
X8859920Y-10472198D02*
X8869444Y-10462674D01*
X8869444Y-10462674D02*
X8888491Y-10453150D01*
X8888491Y-10453150D02*
X8917063Y-10453150D01*
X8917063Y-10453150D02*
X8936110Y-10462674D01*
X8936110Y-10462674D02*
X8945634Y-10481722D01*
X8945634Y-10481722D02*
X8945634Y-10586484D01*
X8945634Y-10481722D02*
X8955158Y-10462674D01*
X8955158Y-10462674D02*
X8974205Y-10453150D01*
X8974205Y-10453150D02*
X9002777Y-10453150D01*
X9002777Y-10453150D02*
X9021825Y-10462674D01*
X9021825Y-10462674D02*
X9031348Y-10481722D01*
X9031348Y-10481722D02*
X9031348Y-10586484D01*
X9126586Y-10586484D02*
X9126586Y-10453150D01*
X9126586Y-10472198D02*
X9136110Y-10462674D01*
X9136110Y-10462674D02*
X9155158Y-10453150D01*
X9155158Y-10453150D02*
X9183729Y-10453150D01*
X9183729Y-10453150D02*
X9202777Y-10462674D01*
X9202777Y-10462674D02*
X9212301Y-10481722D01*
X9212301Y-10481722D02*
X9212301Y-10586484D01*
X9212301Y-10481722D02*
X9221825Y-10462674D01*
X9221825Y-10462674D02*
X9240872Y-10453150D01*
X9240872Y-10453150D02*
X9269444Y-10453150D01*
X9269444Y-10453150D02*
X9288491Y-10462674D01*
X9288491Y-10462674D02*
X9298015Y-10481722D01*
X9298015Y-10481722D02*
X9298015Y-10586484D01*
X9688491Y-10376960D02*
X9517063Y-10634103D01*
X9945634Y-10386484D02*
X9964682Y-10386484D01*
X9964682Y-10386484D02*
X9983729Y-10396008D01*
X9983729Y-10396008D02*
X9993253Y-10405531D01*
X9993253Y-10405531D02*
X10002777Y-10424579D01*
X10002777Y-10424579D02*
X10012301Y-10462674D01*
X10012301Y-10462674D02*
X10012301Y-10510293D01*
X10012301Y-10510293D02*
X10002777Y-10548389D01*
X10002777Y-10548389D02*
X9993253Y-10567436D01*
X9993253Y-10567436D02*
X9983729Y-10576960D01*
X9983729Y-10576960D02*
X9964682Y-10586484D01*
X9964682Y-10586484D02*
X9945634Y-10586484D01*
X9945634Y-10586484D02*
X9926587Y-10576960D01*
X9926587Y-10576960D02*
X9917063Y-10567436D01*
X9917063Y-10567436D02*
X9907539Y-10548389D01*
X9907539Y-10548389D02*
X9898015Y-10510293D01*
X9898015Y-10510293D02*
X9898015Y-10462674D01*
X9898015Y-10462674D02*
X9907539Y-10424579D01*
X9907539Y-10424579D02*
X9917063Y-10405531D01*
X9917063Y-10405531D02*
X9926587Y-10396008D01*
X9926587Y-10396008D02*
X9945634Y-10386484D01*
X10098015Y-10567436D02*
X10107539Y-10576960D01*
X10107539Y-10576960D02*
X10098015Y-10586484D01*
X10098015Y-10586484D02*
X10088491Y-10576960D01*
X10088491Y-10576960D02*
X10098015Y-10567436D01*
X10098015Y-10567436D02*
X10098015Y-10586484D01*
X10231348Y-10386484D02*
X10250396Y-10386484D01*
X10250396Y-10386484D02*
X10269444Y-10396008D01*
X10269444Y-10396008D02*
X10278968Y-10405531D01*
X10278968Y-10405531D02*
X10288491Y-10424579D01*
X10288491Y-10424579D02*
X10298015Y-10462674D01*
X10298015Y-10462674D02*
X10298015Y-10510293D01*
X10298015Y-10510293D02*
X10288491Y-10548389D01*
X10288491Y-10548389D02*
X10278968Y-10567436D01*
X10278968Y-10567436D02*
X10269444Y-10576960D01*
X10269444Y-10576960D02*
X10250396Y-10586484D01*
X10250396Y-10586484D02*
X10231348Y-10586484D01*
X10231348Y-10586484D02*
X10212301Y-10576960D01*
X10212301Y-10576960D02*
X10202777Y-10567436D01*
X10202777Y-10567436D02*
X10193253Y-10548389D01*
X10193253Y-10548389D02*
X10183729Y-10510293D01*
X10183729Y-10510293D02*
X10183729Y-10462674D01*
X10183729Y-10462674D02*
X10193253Y-10424579D01*
X10193253Y-10424579D02*
X10202777Y-10405531D01*
X10202777Y-10405531D02*
X10212301Y-10396008D01*
X10212301Y-10396008D02*
X10231348Y-10386484D01*
X10488491Y-10586484D02*
X10374206Y-10586484D01*
X10431348Y-10586484D02*
X10431348Y-10386484D01*
X10431348Y-10386484D02*
X10412301Y-10415055D01*
X10412301Y-10415055D02*
X10393253Y-10434103D01*
X10393253Y-10434103D02*
X10374206Y-10443627D01*
X10678968Y-10586484D02*
X10564682Y-10586484D01*
X10621825Y-10586484D02*
X10621825Y-10386484D01*
X10621825Y-10386484D02*
X10602777Y-10415055D01*
X10602777Y-10415055D02*
X10583729Y-10434103D01*
X10583729Y-10434103D02*
X10564682Y-10443627D01*
X10793253Y-10472198D02*
X10774206Y-10462674D01*
X10774206Y-10462674D02*
X10764682Y-10453150D01*
X10764682Y-10453150D02*
X10755158Y-10434103D01*
X10755158Y-10434103D02*
X10755158Y-10424579D01*
X10755158Y-10424579D02*
X10764682Y-10405531D01*
X10764682Y-10405531D02*
X10774206Y-10396008D01*
X10774206Y-10396008D02*
X10793253Y-10386484D01*
X10793253Y-10386484D02*
X10831349Y-10386484D01*
X10831349Y-10386484D02*
X10850396Y-10396008D01*
X10850396Y-10396008D02*
X10859920Y-10405531D01*
X10859920Y-10405531D02*
X10869444Y-10424579D01*
X10869444Y-10424579D02*
X10869444Y-10434103D01*
X10869444Y-10434103D02*
X10859920Y-10453150D01*
X10859920Y-10453150D02*
X10850396Y-10462674D01*
X10850396Y-10462674D02*
X10831349Y-10472198D01*
X10831349Y-10472198D02*
X10793253Y-10472198D01*
X10793253Y-10472198D02*
X10774206Y-10481722D01*
X10774206Y-10481722D02*
X10764682Y-10491246D01*
X10764682Y-10491246D02*
X10755158Y-10510293D01*
X10755158Y-10510293D02*
X10755158Y-10548389D01*
X10755158Y-10548389D02*
X10764682Y-10567436D01*
X10764682Y-10567436D02*
X10774206Y-10576960D01*
X10774206Y-10576960D02*
X10793253Y-10586484D01*
X10793253Y-10586484D02*
X10831349Y-10586484D01*
X10831349Y-10586484D02*
X10850396Y-10576960D01*
X10850396Y-10576960D02*
X10859920Y-10567436D01*
X10859920Y-10567436D02*
X10869444Y-10548389D01*
X10869444Y-10548389D02*
X10869444Y-10510293D01*
X10869444Y-10510293D02*
X10859920Y-10491246D01*
X10859920Y-10491246D02*
X10850396Y-10481722D01*
X10850396Y-10481722D02*
X10831349Y-10472198D01*
X10945634Y-10386484D02*
X10945634Y-10424579D01*
X11021825Y-10386484D02*
X11021825Y-10424579D01*
X11317063Y-10662674D02*
X11307539Y-10653150D01*
X11307539Y-10653150D02*
X11288491Y-10624579D01*
X11288491Y-10624579D02*
X11278968Y-10605531D01*
X11278968Y-10605531D02*
X11269444Y-10576960D01*
X11269444Y-10576960D02*
X11259920Y-10529341D01*
X11259920Y-10529341D02*
X11259920Y-10491246D01*
X11259920Y-10491246D02*
X11269444Y-10443627D01*
X11269444Y-10443627D02*
X11278968Y-10415055D01*
X11278968Y-10415055D02*
X11288491Y-10396008D01*
X11288491Y-10396008D02*
X11307539Y-10367436D01*
X11307539Y-10367436D02*
X11317063Y-10357912D01*
X11374206Y-10386484D02*
X11507539Y-10386484D01*
X11507539Y-10386484D02*
X11421825Y-10586484D01*
X11688491Y-10586484D02*
X11574206Y-10586484D01*
X11631348Y-10586484D02*
X11631348Y-10386484D01*
X11631348Y-10386484D02*
X11612301Y-10415055D01*
X11612301Y-10415055D02*
X11593253Y-10434103D01*
X11593253Y-10434103D02*
X11574206Y-10443627D01*
X11926587Y-10586484D02*
X11926587Y-10386484D01*
X12012301Y-10586484D02*
X12012301Y-10481722D01*
X12012301Y-10481722D02*
X12002777Y-10462674D01*
X12002777Y-10462674D02*
X11983730Y-10453150D01*
X11983730Y-10453150D02*
X11955158Y-10453150D01*
X11955158Y-10453150D02*
X11936110Y-10462674D01*
X11936110Y-10462674D02*
X11926587Y-10472198D01*
X12136110Y-10586484D02*
X12117063Y-10576960D01*
X12117063Y-10576960D02*
X12107539Y-10567436D01*
X12107539Y-10567436D02*
X12098015Y-10548389D01*
X12098015Y-10548389D02*
X12098015Y-10491246D01*
X12098015Y-10491246D02*
X12107539Y-10472198D01*
X12107539Y-10472198D02*
X12117063Y-10462674D01*
X12117063Y-10462674D02*
X12136110Y-10453150D01*
X12136110Y-10453150D02*
X12164682Y-10453150D01*
X12164682Y-10453150D02*
X12183730Y-10462674D01*
X12183730Y-10462674D02*
X12193253Y-10472198D01*
X12193253Y-10472198D02*
X12202777Y-10491246D01*
X12202777Y-10491246D02*
X12202777Y-10548389D01*
X12202777Y-10548389D02*
X12193253Y-10567436D01*
X12193253Y-10567436D02*
X12183730Y-10576960D01*
X12183730Y-10576960D02*
X12164682Y-10586484D01*
X12164682Y-10586484D02*
X12136110Y-10586484D01*
X12317063Y-10586484D02*
X12298015Y-10576960D01*
X12298015Y-10576960D02*
X12288491Y-10557912D01*
X12288491Y-10557912D02*
X12288491Y-10386484D01*
X12469444Y-10576960D02*
X12450396Y-10586484D01*
X12450396Y-10586484D02*
X12412301Y-10586484D01*
X12412301Y-10586484D02*
X12393253Y-10576960D01*
X12393253Y-10576960D02*
X12383730Y-10557912D01*
X12383730Y-10557912D02*
X12383730Y-10481722D01*
X12383730Y-10481722D02*
X12393253Y-10462674D01*
X12393253Y-10462674D02*
X12412301Y-10453150D01*
X12412301Y-10453150D02*
X12450396Y-10453150D01*
X12450396Y-10453150D02*
X12469444Y-10462674D01*
X12469444Y-10462674D02*
X12478968Y-10481722D01*
X12478968Y-10481722D02*
X12478968Y-10500770D01*
X12478968Y-10500770D02*
X12383730Y-10519817D01*
X12555158Y-10576960D02*
X12574206Y-10586484D01*
X12574206Y-10586484D02*
X12612301Y-10586484D01*
X12612301Y-10586484D02*
X12631349Y-10576960D01*
X12631349Y-10576960D02*
X12640872Y-10557912D01*
X12640872Y-10557912D02*
X12640872Y-10548389D01*
X12640872Y-10548389D02*
X12631349Y-10529341D01*
X12631349Y-10529341D02*
X12612301Y-10519817D01*
X12612301Y-10519817D02*
X12583730Y-10519817D01*
X12583730Y-10519817D02*
X12564682Y-10510293D01*
X12564682Y-10510293D02*
X12555158Y-10491246D01*
X12555158Y-10491246D02*
X12555158Y-10481722D01*
X12555158Y-10481722D02*
X12564682Y-10462674D01*
X12564682Y-10462674D02*
X12583730Y-10453150D01*
X12583730Y-10453150D02*
X12612301Y-10453150D01*
X12612301Y-10453150D02*
X12631349Y-10462674D01*
X12707539Y-10662674D02*
X12717063Y-10653150D01*
X12717063Y-10653150D02*
X12736111Y-10624579D01*
X12736111Y-10624579D02*
X12745634Y-10605531D01*
X12745634Y-10605531D02*
X12755158Y-10576960D01*
X12755158Y-10576960D02*
X12764682Y-10529341D01*
X12764682Y-10529341D02*
X12764682Y-10491246D01*
X12764682Y-10491246D02*
X12755158Y-10443627D01*
X12755158Y-10443627D02*
X12745634Y-10415055D01*
X12745634Y-10415055D02*
X12736111Y-10396008D01*
X12736111Y-10396008D02*
X12717063Y-10367436D01*
X12717063Y-10367436D02*
X12707539Y-10357912D01*
D13*
X7742000Y-10759000D02*
G75*
G03*
X7742000Y-10759000I-20000J0D01*
G01*
D11*
X8040872Y-10650484D02*
X8059920Y-10650484D01*
X8059920Y-10650484D02*
X8078967Y-10660008D01*
X8078967Y-10660008D02*
X8088491Y-10669531D01*
X8088491Y-10669531D02*
X8098015Y-10688579D01*
X8098015Y-10688579D02*
X8107539Y-10726674D01*
X8107539Y-10726674D02*
X8107539Y-10774293D01*
X8107539Y-10774293D02*
X8098015Y-10812389D01*
X8098015Y-10812389D02*
X8088491Y-10831436D01*
X8088491Y-10831436D02*
X8078967Y-10840960D01*
X8078967Y-10840960D02*
X8059920Y-10850484D01*
X8059920Y-10850484D02*
X8040872Y-10850484D01*
X8040872Y-10850484D02*
X8021824Y-10840960D01*
X8021824Y-10840960D02*
X8012301Y-10831436D01*
X8012301Y-10831436D02*
X8002777Y-10812389D01*
X8002777Y-10812389D02*
X7993253Y-10774293D01*
X7993253Y-10774293D02*
X7993253Y-10726674D01*
X7993253Y-10726674D02*
X8002777Y-10688579D01*
X8002777Y-10688579D02*
X8012301Y-10669531D01*
X8012301Y-10669531D02*
X8021824Y-10660008D01*
X8021824Y-10660008D02*
X8040872Y-10650484D01*
X8193253Y-10831436D02*
X8202777Y-10840960D01*
X8202777Y-10840960D02*
X8193253Y-10850484D01*
X8193253Y-10850484D02*
X8183729Y-10840960D01*
X8183729Y-10840960D02*
X8193253Y-10831436D01*
X8193253Y-10831436D02*
X8193253Y-10850484D01*
X8374205Y-10717150D02*
X8374205Y-10850484D01*
X8326586Y-10640960D02*
X8278967Y-10783817D01*
X8278967Y-10783817D02*
X8402777Y-10783817D01*
X8517063Y-10650484D02*
X8536110Y-10650484D01*
X8536110Y-10650484D02*
X8555158Y-10660008D01*
X8555158Y-10660008D02*
X8564682Y-10669531D01*
X8564682Y-10669531D02*
X8574205Y-10688579D01*
X8574205Y-10688579D02*
X8583729Y-10726674D01*
X8583729Y-10726674D02*
X8583729Y-10774293D01*
X8583729Y-10774293D02*
X8574205Y-10812389D01*
X8574205Y-10812389D02*
X8564682Y-10831436D01*
X8564682Y-10831436D02*
X8555158Y-10840960D01*
X8555158Y-10840960D02*
X8536110Y-10850484D01*
X8536110Y-10850484D02*
X8517063Y-10850484D01*
X8517063Y-10850484D02*
X8498015Y-10840960D01*
X8498015Y-10840960D02*
X8488491Y-10831436D01*
X8488491Y-10831436D02*
X8478967Y-10812389D01*
X8478967Y-10812389D02*
X8469444Y-10774293D01*
X8469444Y-10774293D02*
X8469444Y-10726674D01*
X8469444Y-10726674D02*
X8478967Y-10688579D01*
X8478967Y-10688579D02*
X8488491Y-10669531D01*
X8488491Y-10669531D02*
X8498015Y-10660008D01*
X8498015Y-10660008D02*
X8517063Y-10650484D01*
X8707539Y-10650484D02*
X8726586Y-10650484D01*
X8726586Y-10650484D02*
X8745634Y-10660008D01*
X8745634Y-10660008D02*
X8755158Y-10669531D01*
X8755158Y-10669531D02*
X8764682Y-10688579D01*
X8764682Y-10688579D02*
X8774205Y-10726674D01*
X8774205Y-10726674D02*
X8774205Y-10774293D01*
X8774205Y-10774293D02*
X8764682Y-10812389D01*
X8764682Y-10812389D02*
X8755158Y-10831436D01*
X8755158Y-10831436D02*
X8745634Y-10840960D01*
X8745634Y-10840960D02*
X8726586Y-10850484D01*
X8726586Y-10850484D02*
X8707539Y-10850484D01*
X8707539Y-10850484D02*
X8688491Y-10840960D01*
X8688491Y-10840960D02*
X8678967Y-10831436D01*
X8678967Y-10831436D02*
X8669444Y-10812389D01*
X8669444Y-10812389D02*
X8659920Y-10774293D01*
X8659920Y-10774293D02*
X8659920Y-10726674D01*
X8659920Y-10726674D02*
X8669444Y-10688579D01*
X8669444Y-10688579D02*
X8678967Y-10669531D01*
X8678967Y-10669531D02*
X8688491Y-10660008D01*
X8688491Y-10660008D02*
X8707539Y-10650484D01*
X8859920Y-10850484D02*
X8859920Y-10717150D01*
X8859920Y-10736198D02*
X8869444Y-10726674D01*
X8869444Y-10726674D02*
X8888491Y-10717150D01*
X8888491Y-10717150D02*
X8917063Y-10717150D01*
X8917063Y-10717150D02*
X8936110Y-10726674D01*
X8936110Y-10726674D02*
X8945634Y-10745722D01*
X8945634Y-10745722D02*
X8945634Y-10850484D01*
X8945634Y-10745722D02*
X8955158Y-10726674D01*
X8955158Y-10726674D02*
X8974205Y-10717150D01*
X8974205Y-10717150D02*
X9002777Y-10717150D01*
X9002777Y-10717150D02*
X9021825Y-10726674D01*
X9021825Y-10726674D02*
X9031348Y-10745722D01*
X9031348Y-10745722D02*
X9031348Y-10850484D01*
X9126586Y-10850484D02*
X9126586Y-10717150D01*
X9126586Y-10736198D02*
X9136110Y-10726674D01*
X9136110Y-10726674D02*
X9155158Y-10717150D01*
X9155158Y-10717150D02*
X9183729Y-10717150D01*
X9183729Y-10717150D02*
X9202777Y-10726674D01*
X9202777Y-10726674D02*
X9212301Y-10745722D01*
X9212301Y-10745722D02*
X9212301Y-10850484D01*
X9212301Y-10745722D02*
X9221825Y-10726674D01*
X9221825Y-10726674D02*
X9240872Y-10717150D01*
X9240872Y-10717150D02*
X9269444Y-10717150D01*
X9269444Y-10717150D02*
X9288491Y-10726674D01*
X9288491Y-10726674D02*
X9298015Y-10745722D01*
X9298015Y-10745722D02*
X9298015Y-10850484D01*
X9688491Y-10640960D02*
X9517063Y-10898103D01*
X9945634Y-10650484D02*
X9964682Y-10650484D01*
X9964682Y-10650484D02*
X9983729Y-10660008D01*
X9983729Y-10660008D02*
X9993253Y-10669531D01*
X9993253Y-10669531D02*
X10002777Y-10688579D01*
X10002777Y-10688579D02*
X10012301Y-10726674D01*
X10012301Y-10726674D02*
X10012301Y-10774293D01*
X10012301Y-10774293D02*
X10002777Y-10812389D01*
X10002777Y-10812389D02*
X9993253Y-10831436D01*
X9993253Y-10831436D02*
X9983729Y-10840960D01*
X9983729Y-10840960D02*
X9964682Y-10850484D01*
X9964682Y-10850484D02*
X9945634Y-10850484D01*
X9945634Y-10850484D02*
X9926587Y-10840960D01*
X9926587Y-10840960D02*
X9917063Y-10831436D01*
X9917063Y-10831436D02*
X9907539Y-10812389D01*
X9907539Y-10812389D02*
X9898015Y-10774293D01*
X9898015Y-10774293D02*
X9898015Y-10726674D01*
X9898015Y-10726674D02*
X9907539Y-10688579D01*
X9907539Y-10688579D02*
X9917063Y-10669531D01*
X9917063Y-10669531D02*
X9926587Y-10660008D01*
X9926587Y-10660008D02*
X9945634Y-10650484D01*
X10098015Y-10831436D02*
X10107539Y-10840960D01*
X10107539Y-10840960D02*
X10098015Y-10850484D01*
X10098015Y-10850484D02*
X10088491Y-10840960D01*
X10088491Y-10840960D02*
X10098015Y-10831436D01*
X10098015Y-10831436D02*
X10098015Y-10850484D01*
X10231348Y-10650484D02*
X10250396Y-10650484D01*
X10250396Y-10650484D02*
X10269444Y-10660008D01*
X10269444Y-10660008D02*
X10278968Y-10669531D01*
X10278968Y-10669531D02*
X10288491Y-10688579D01*
X10288491Y-10688579D02*
X10298015Y-10726674D01*
X10298015Y-10726674D02*
X10298015Y-10774293D01*
X10298015Y-10774293D02*
X10288491Y-10812389D01*
X10288491Y-10812389D02*
X10278968Y-10831436D01*
X10278968Y-10831436D02*
X10269444Y-10840960D01*
X10269444Y-10840960D02*
X10250396Y-10850484D01*
X10250396Y-10850484D02*
X10231348Y-10850484D01*
X10231348Y-10850484D02*
X10212301Y-10840960D01*
X10212301Y-10840960D02*
X10202777Y-10831436D01*
X10202777Y-10831436D02*
X10193253Y-10812389D01*
X10193253Y-10812389D02*
X10183729Y-10774293D01*
X10183729Y-10774293D02*
X10183729Y-10726674D01*
X10183729Y-10726674D02*
X10193253Y-10688579D01*
X10193253Y-10688579D02*
X10202777Y-10669531D01*
X10202777Y-10669531D02*
X10212301Y-10660008D01*
X10212301Y-10660008D02*
X10231348Y-10650484D01*
X10488491Y-10850484D02*
X10374206Y-10850484D01*
X10431348Y-10850484D02*
X10431348Y-10650484D01*
X10431348Y-10650484D02*
X10412301Y-10679055D01*
X10412301Y-10679055D02*
X10393253Y-10698103D01*
X10393253Y-10698103D02*
X10374206Y-10707627D01*
X10669444Y-10650484D02*
X10574206Y-10650484D01*
X10574206Y-10650484D02*
X10564682Y-10745722D01*
X10564682Y-10745722D02*
X10574206Y-10736198D01*
X10574206Y-10736198D02*
X10593253Y-10726674D01*
X10593253Y-10726674D02*
X10640872Y-10726674D01*
X10640872Y-10726674D02*
X10659920Y-10736198D01*
X10659920Y-10736198D02*
X10669444Y-10745722D01*
X10669444Y-10745722D02*
X10678968Y-10764770D01*
X10678968Y-10764770D02*
X10678968Y-10812389D01*
X10678968Y-10812389D02*
X10669444Y-10831436D01*
X10669444Y-10831436D02*
X10659920Y-10840960D01*
X10659920Y-10840960D02*
X10640872Y-10850484D01*
X10640872Y-10850484D02*
X10593253Y-10850484D01*
X10593253Y-10850484D02*
X10574206Y-10840960D01*
X10574206Y-10840960D02*
X10564682Y-10831436D01*
X10745634Y-10650484D02*
X10878968Y-10650484D01*
X10878968Y-10650484D02*
X10793253Y-10850484D01*
X10945634Y-10650484D02*
X10945634Y-10688579D01*
X11021825Y-10650484D02*
X11021825Y-10688579D01*
X11317063Y-10926674D02*
X11307539Y-10917150D01*
X11307539Y-10917150D02*
X11288491Y-10888579D01*
X11288491Y-10888579D02*
X11278968Y-10869531D01*
X11278968Y-10869531D02*
X11269444Y-10840960D01*
X11269444Y-10840960D02*
X11259920Y-10793341D01*
X11259920Y-10793341D02*
X11259920Y-10755246D01*
X11259920Y-10755246D02*
X11269444Y-10707627D01*
X11269444Y-10707627D02*
X11278968Y-10679055D01*
X11278968Y-10679055D02*
X11288491Y-10660008D01*
X11288491Y-10660008D02*
X11307539Y-10631436D01*
X11307539Y-10631436D02*
X11317063Y-10621912D01*
X11402777Y-10850484D02*
X11440872Y-10850484D01*
X11440872Y-10850484D02*
X11459920Y-10840960D01*
X11459920Y-10840960D02*
X11469444Y-10831436D01*
X11469444Y-10831436D02*
X11488491Y-10802865D01*
X11488491Y-10802865D02*
X11498015Y-10764770D01*
X11498015Y-10764770D02*
X11498015Y-10688579D01*
X11498015Y-10688579D02*
X11488491Y-10669531D01*
X11488491Y-10669531D02*
X11478968Y-10660008D01*
X11478968Y-10660008D02*
X11459920Y-10650484D01*
X11459920Y-10650484D02*
X11421825Y-10650484D01*
X11421825Y-10650484D02*
X11402777Y-10660008D01*
X11402777Y-10660008D02*
X11393253Y-10669531D01*
X11393253Y-10669531D02*
X11383729Y-10688579D01*
X11383729Y-10688579D02*
X11383729Y-10736198D01*
X11383729Y-10736198D02*
X11393253Y-10755246D01*
X11393253Y-10755246D02*
X11402777Y-10764770D01*
X11402777Y-10764770D02*
X11421825Y-10774293D01*
X11421825Y-10774293D02*
X11459920Y-10774293D01*
X11459920Y-10774293D02*
X11478968Y-10764770D01*
X11478968Y-10764770D02*
X11488491Y-10755246D01*
X11488491Y-10755246D02*
X11498015Y-10736198D01*
X11736110Y-10850484D02*
X11736110Y-10650484D01*
X11821825Y-10850484D02*
X11821825Y-10745722D01*
X11821825Y-10745722D02*
X11812301Y-10726674D01*
X11812301Y-10726674D02*
X11793253Y-10717150D01*
X11793253Y-10717150D02*
X11764682Y-10717150D01*
X11764682Y-10717150D02*
X11745634Y-10726674D01*
X11745634Y-10726674D02*
X11736110Y-10736198D01*
X11945634Y-10850484D02*
X11926587Y-10840960D01*
X11926587Y-10840960D02*
X11917063Y-10831436D01*
X11917063Y-10831436D02*
X11907539Y-10812389D01*
X11907539Y-10812389D02*
X11907539Y-10755246D01*
X11907539Y-10755246D02*
X11917063Y-10736198D01*
X11917063Y-10736198D02*
X11926587Y-10726674D01*
X11926587Y-10726674D02*
X11945634Y-10717150D01*
X11945634Y-10717150D02*
X11974206Y-10717150D01*
X11974206Y-10717150D02*
X11993253Y-10726674D01*
X11993253Y-10726674D02*
X12002777Y-10736198D01*
X12002777Y-10736198D02*
X12012301Y-10755246D01*
X12012301Y-10755246D02*
X12012301Y-10812389D01*
X12012301Y-10812389D02*
X12002777Y-10831436D01*
X12002777Y-10831436D02*
X11993253Y-10840960D01*
X11993253Y-10840960D02*
X11974206Y-10850484D01*
X11974206Y-10850484D02*
X11945634Y-10850484D01*
X12126587Y-10850484D02*
X12107539Y-10840960D01*
X12107539Y-10840960D02*
X12098015Y-10821912D01*
X12098015Y-10821912D02*
X12098015Y-10650484D01*
X12278968Y-10840960D02*
X12259920Y-10850484D01*
X12259920Y-10850484D02*
X12221825Y-10850484D01*
X12221825Y-10850484D02*
X12202777Y-10840960D01*
X12202777Y-10840960D02*
X12193253Y-10821912D01*
X12193253Y-10821912D02*
X12193253Y-10745722D01*
X12193253Y-10745722D02*
X12202777Y-10726674D01*
X12202777Y-10726674D02*
X12221825Y-10717150D01*
X12221825Y-10717150D02*
X12259920Y-10717150D01*
X12259920Y-10717150D02*
X12278968Y-10726674D01*
X12278968Y-10726674D02*
X12288491Y-10745722D01*
X12288491Y-10745722D02*
X12288491Y-10764770D01*
X12288491Y-10764770D02*
X12193253Y-10783817D01*
X12364682Y-10840960D02*
X12383730Y-10850484D01*
X12383730Y-10850484D02*
X12421825Y-10850484D01*
X12421825Y-10850484D02*
X12440872Y-10840960D01*
X12440872Y-10840960D02*
X12450396Y-10821912D01*
X12450396Y-10821912D02*
X12450396Y-10812389D01*
X12450396Y-10812389D02*
X12440872Y-10793341D01*
X12440872Y-10793341D02*
X12421825Y-10783817D01*
X12421825Y-10783817D02*
X12393253Y-10783817D01*
X12393253Y-10783817D02*
X12374206Y-10774293D01*
X12374206Y-10774293D02*
X12364682Y-10755246D01*
X12364682Y-10755246D02*
X12364682Y-10745722D01*
X12364682Y-10745722D02*
X12374206Y-10726674D01*
X12374206Y-10726674D02*
X12393253Y-10717150D01*
X12393253Y-10717150D02*
X12421825Y-10717150D01*
X12421825Y-10717150D02*
X12440872Y-10726674D01*
X12517063Y-10926674D02*
X12526587Y-10917150D01*
X12526587Y-10917150D02*
X12545634Y-10888579D01*
X12545634Y-10888579D02*
X12555158Y-10869531D01*
X12555158Y-10869531D02*
X12564682Y-10840960D01*
X12564682Y-10840960D02*
X12574206Y-10793341D01*
X12574206Y-10793341D02*
X12574206Y-10755246D01*
X12574206Y-10755246D02*
X12564682Y-10707627D01*
X12564682Y-10707627D02*
X12555158Y-10679055D01*
X12555158Y-10679055D02*
X12545634Y-10660008D01*
X12545634Y-10660008D02*
X12526587Y-10631436D01*
X12526587Y-10631436D02*
X12517063Y-10621912D01*
M02*
