%TF.GenerationSoftware,KiCad,Pcbnew,7.0.8-7.0.8~ubuntu22.04.1*%
%TF.CreationDate,2023-10-22T18:31:10+02:00*%
%TF.ProjectId,extension-cable,65787465-6e73-4696-9f6e-2d6361626c65,rev?*%
%TF.SameCoordinates,Original*%
%TF.FileFunction,Legend,Top*%
%TF.FilePolarity,Positive*%
%FSLAX46Y46*%
G04 Gerber Fmt 4.6, Leading zero omitted, Abs format (unit mm)*
G04 Created by KiCad (PCBNEW 7.0.8-7.0.8~ubuntu22.04.1) date 2023-10-22 18:31:10*
%MOMM*%
%LPD*%
G01*
G04 APERTURE LIST*
%ADD10C,0.150000*%
%ADD11C,0.000000*%
%ADD12C,0.039687*%
%ADD13C,0.254000*%
%ADD14C,0.100000*%
%ADD15C,0.200000*%
%ADD16C,0.120000*%
G04 APERTURE END LIST*
D10*
X133181541Y-86619819D02*
X133800588Y-86619819D01*
X133800588Y-86619819D02*
X133467255Y-87000771D01*
X133467255Y-87000771D02*
X133610112Y-87000771D01*
X133610112Y-87000771D02*
X133705350Y-87048390D01*
X133705350Y-87048390D02*
X133752969Y-87096009D01*
X133752969Y-87096009D02*
X133800588Y-87191247D01*
X133800588Y-87191247D02*
X133800588Y-87429342D01*
X133800588Y-87429342D02*
X133752969Y-87524580D01*
X133752969Y-87524580D02*
X133705350Y-87572200D01*
X133705350Y-87572200D02*
X133610112Y-87619819D01*
X133610112Y-87619819D02*
X133324398Y-87619819D01*
X133324398Y-87619819D02*
X133229160Y-87572200D01*
X133229160Y-87572200D02*
X133181541Y-87524580D01*
X134133922Y-86619819D02*
X134752969Y-86619819D01*
X134752969Y-86619819D02*
X134419636Y-87000771D01*
X134419636Y-87000771D02*
X134562493Y-87000771D01*
X134562493Y-87000771D02*
X134657731Y-87048390D01*
X134657731Y-87048390D02*
X134705350Y-87096009D01*
X134705350Y-87096009D02*
X134752969Y-87191247D01*
X134752969Y-87191247D02*
X134752969Y-87429342D01*
X134752969Y-87429342D02*
X134705350Y-87524580D01*
X134705350Y-87524580D02*
X134657731Y-87572200D01*
X134657731Y-87572200D02*
X134562493Y-87619819D01*
X134562493Y-87619819D02*
X134276779Y-87619819D01*
X134276779Y-87619819D02*
X134181541Y-87572200D01*
X134181541Y-87572200D02*
X134133922Y-87524580D01*
X118030588Y-87619819D02*
X117459160Y-87619819D01*
X117744874Y-87619819D02*
X117744874Y-86619819D01*
X117744874Y-86619819D02*
X117649636Y-86762676D01*
X117649636Y-86762676D02*
X117554398Y-86857914D01*
X117554398Y-86857914D02*
X117459160Y-86905533D01*
X102855350Y-86723152D02*
X102855350Y-87389819D01*
X102617255Y-86342200D02*
X102379160Y-87056485D01*
X102379160Y-87056485D02*
X102998207Y-87056485D01*
X103569636Y-86389819D02*
X103664874Y-86389819D01*
X103664874Y-86389819D02*
X103760112Y-86437438D01*
X103760112Y-86437438D02*
X103807731Y-86485057D01*
X103807731Y-86485057D02*
X103855350Y-86580295D01*
X103855350Y-86580295D02*
X103902969Y-86770771D01*
X103902969Y-86770771D02*
X103902969Y-87008866D01*
X103902969Y-87008866D02*
X103855350Y-87199342D01*
X103855350Y-87199342D02*
X103807731Y-87294580D01*
X103807731Y-87294580D02*
X103760112Y-87342200D01*
X103760112Y-87342200D02*
X103664874Y-87389819D01*
X103664874Y-87389819D02*
X103569636Y-87389819D01*
X103569636Y-87389819D02*
X103474398Y-87342200D01*
X103474398Y-87342200D02*
X103426779Y-87294580D01*
X103426779Y-87294580D02*
X103379160Y-87199342D01*
X103379160Y-87199342D02*
X103331541Y-87008866D01*
X103331541Y-87008866D02*
X103331541Y-86770771D01*
X103331541Y-86770771D02*
X103379160Y-86580295D01*
X103379160Y-86580295D02*
X103426779Y-86485057D01*
X103426779Y-86485057D02*
X103474398Y-86437438D01*
X103474398Y-86437438D02*
X103569636Y-86389819D01*
X83930588Y-87389819D02*
X83359160Y-87389819D01*
X83644874Y-87389819D02*
X83644874Y-86389819D01*
X83644874Y-86389819D02*
X83549636Y-86532676D01*
X83549636Y-86532676D02*
X83454398Y-86627914D01*
X83454398Y-86627914D02*
X83359160Y-86675533D01*
X116931541Y-70909819D02*
X117550588Y-70909819D01*
X117550588Y-70909819D02*
X117217255Y-71290771D01*
X117217255Y-71290771D02*
X117360112Y-71290771D01*
X117360112Y-71290771D02*
X117455350Y-71338390D01*
X117455350Y-71338390D02*
X117502969Y-71386009D01*
X117502969Y-71386009D02*
X117550588Y-71481247D01*
X117550588Y-71481247D02*
X117550588Y-71719342D01*
X117550588Y-71719342D02*
X117502969Y-71814580D01*
X117502969Y-71814580D02*
X117455350Y-71862200D01*
X117455350Y-71862200D02*
X117360112Y-71909819D01*
X117360112Y-71909819D02*
X117074398Y-71909819D01*
X117074398Y-71909819D02*
X116979160Y-71862200D01*
X116979160Y-71862200D02*
X116931541Y-71814580D01*
X118407731Y-71243152D02*
X118407731Y-71909819D01*
X118169636Y-70862200D02*
X117931541Y-71576485D01*
X117931541Y-71576485D02*
X118550588Y-71576485D01*
X120786779Y-71243152D02*
X120786779Y-72243152D01*
X120786779Y-71290771D02*
X120882017Y-71243152D01*
X120882017Y-71243152D02*
X121072493Y-71243152D01*
X121072493Y-71243152D02*
X121167731Y-71290771D01*
X121167731Y-71290771D02*
X121215350Y-71338390D01*
X121215350Y-71338390D02*
X121262969Y-71433628D01*
X121262969Y-71433628D02*
X121262969Y-71719342D01*
X121262969Y-71719342D02*
X121215350Y-71814580D01*
X121215350Y-71814580D02*
X121167731Y-71862200D01*
X121167731Y-71862200D02*
X121072493Y-71909819D01*
X121072493Y-71909819D02*
X120882017Y-71909819D01*
X120882017Y-71909819D02*
X120786779Y-71862200D01*
X121691541Y-71909819D02*
X121691541Y-71243152D01*
X121691541Y-70909819D02*
X121643922Y-70957438D01*
X121643922Y-70957438D02*
X121691541Y-71005057D01*
X121691541Y-71005057D02*
X121739160Y-70957438D01*
X121739160Y-70957438D02*
X121691541Y-70909819D01*
X121691541Y-70909819D02*
X121691541Y-71005057D01*
X122167731Y-71243152D02*
X122167731Y-71909819D01*
X122167731Y-71338390D02*
X122215350Y-71290771D01*
X122215350Y-71290771D02*
X122310588Y-71243152D01*
X122310588Y-71243152D02*
X122453445Y-71243152D01*
X122453445Y-71243152D02*
X122548683Y-71290771D01*
X122548683Y-71290771D02*
X122596302Y-71386009D01*
X122596302Y-71386009D02*
X122596302Y-71909819D01*
X124262969Y-70909819D02*
X124072493Y-70909819D01*
X124072493Y-70909819D02*
X123977255Y-70957438D01*
X123977255Y-70957438D02*
X123929636Y-71005057D01*
X123929636Y-71005057D02*
X123834398Y-71147914D01*
X123834398Y-71147914D02*
X123786779Y-71338390D01*
X123786779Y-71338390D02*
X123786779Y-71719342D01*
X123786779Y-71719342D02*
X123834398Y-71814580D01*
X123834398Y-71814580D02*
X123882017Y-71862200D01*
X123882017Y-71862200D02*
X123977255Y-71909819D01*
X123977255Y-71909819D02*
X124167731Y-71909819D01*
X124167731Y-71909819D02*
X124262969Y-71862200D01*
X124262969Y-71862200D02*
X124310588Y-71814580D01*
X124310588Y-71814580D02*
X124358207Y-71719342D01*
X124358207Y-71719342D02*
X124358207Y-71481247D01*
X124358207Y-71481247D02*
X124310588Y-71386009D01*
X124310588Y-71386009D02*
X124262969Y-71338390D01*
X124262969Y-71338390D02*
X124167731Y-71290771D01*
X124167731Y-71290771D02*
X123977255Y-71290771D01*
X123977255Y-71290771D02*
X123882017Y-71338390D01*
X123882017Y-71338390D02*
X123834398Y-71386009D01*
X123834398Y-71386009D02*
X123786779Y-71481247D01*
X124739160Y-70909819D02*
X124739160Y-71100295D01*
X125120112Y-70909819D02*
X125120112Y-71100295D01*
X125596303Y-71862200D02*
X125596303Y-71909819D01*
X125596303Y-71909819D02*
X125548684Y-72005057D01*
X125548684Y-72005057D02*
X125501065Y-72052676D01*
X126929636Y-71338390D02*
X126834398Y-71290771D01*
X126834398Y-71290771D02*
X126786779Y-71243152D01*
X126786779Y-71243152D02*
X126739160Y-71147914D01*
X126739160Y-71147914D02*
X126739160Y-71100295D01*
X126739160Y-71100295D02*
X126786779Y-71005057D01*
X126786779Y-71005057D02*
X126834398Y-70957438D01*
X126834398Y-70957438D02*
X126929636Y-70909819D01*
X126929636Y-70909819D02*
X127120112Y-70909819D01*
X127120112Y-70909819D02*
X127215350Y-70957438D01*
X127215350Y-70957438D02*
X127262969Y-71005057D01*
X127262969Y-71005057D02*
X127310588Y-71100295D01*
X127310588Y-71100295D02*
X127310588Y-71147914D01*
X127310588Y-71147914D02*
X127262969Y-71243152D01*
X127262969Y-71243152D02*
X127215350Y-71290771D01*
X127215350Y-71290771D02*
X127120112Y-71338390D01*
X127120112Y-71338390D02*
X126929636Y-71338390D01*
X126929636Y-71338390D02*
X126834398Y-71386009D01*
X126834398Y-71386009D02*
X126786779Y-71433628D01*
X126786779Y-71433628D02*
X126739160Y-71528866D01*
X126739160Y-71528866D02*
X126739160Y-71719342D01*
X126739160Y-71719342D02*
X126786779Y-71814580D01*
X126786779Y-71814580D02*
X126834398Y-71862200D01*
X126834398Y-71862200D02*
X126929636Y-71909819D01*
X126929636Y-71909819D02*
X127120112Y-71909819D01*
X127120112Y-71909819D02*
X127215350Y-71862200D01*
X127215350Y-71862200D02*
X127262969Y-71814580D01*
X127262969Y-71814580D02*
X127310588Y-71719342D01*
X127310588Y-71719342D02*
X127310588Y-71528866D01*
X127310588Y-71528866D02*
X127262969Y-71433628D01*
X127262969Y-71433628D02*
X127215350Y-71386009D01*
X127215350Y-71386009D02*
X127120112Y-71338390D01*
X128501065Y-71909819D02*
X128501065Y-70909819D01*
X128501065Y-71290771D02*
X128596303Y-71243152D01*
X128596303Y-71243152D02*
X128786779Y-71243152D01*
X128786779Y-71243152D02*
X128882017Y-71290771D01*
X128882017Y-71290771D02*
X128929636Y-71338390D01*
X128929636Y-71338390D02*
X128977255Y-71433628D01*
X128977255Y-71433628D02*
X128977255Y-71719342D01*
X128977255Y-71719342D02*
X128929636Y-71814580D01*
X128929636Y-71814580D02*
X128882017Y-71862200D01*
X128882017Y-71862200D02*
X128786779Y-71909819D01*
X128786779Y-71909819D02*
X128596303Y-71909819D01*
X128596303Y-71909819D02*
X128501065Y-71862200D01*
X129405827Y-71909819D02*
X129405827Y-71243152D01*
X129405827Y-70909819D02*
X129358208Y-70957438D01*
X129358208Y-70957438D02*
X129405827Y-71005057D01*
X129405827Y-71005057D02*
X129453446Y-70957438D01*
X129453446Y-70957438D02*
X129405827Y-70909819D01*
X129405827Y-70909819D02*
X129405827Y-71005057D01*
X129739160Y-71243152D02*
X130120112Y-71243152D01*
X129882017Y-70909819D02*
X129882017Y-71766961D01*
X129882017Y-71766961D02*
X129929636Y-71862200D01*
X129929636Y-71862200D02*
X130024874Y-71909819D01*
X130024874Y-71909819D02*
X130120112Y-71909819D01*
X134500588Y-71909819D02*
X133929160Y-71909819D01*
X134214874Y-71909819D02*
X134214874Y-70909819D01*
X134214874Y-70909819D02*
X134119636Y-71052676D01*
X134119636Y-71052676D02*
X134024398Y-71147914D01*
X134024398Y-71147914D02*
X133929160Y-71195533D01*
X102080588Y-71909819D02*
X101509160Y-71909819D01*
X101794874Y-71909819D02*
X101794874Y-70909819D01*
X101794874Y-70909819D02*
X101699636Y-71052676D01*
X101699636Y-71052676D02*
X101604398Y-71147914D01*
X101604398Y-71147914D02*
X101509160Y-71195533D01*
X84511541Y-70909819D02*
X85130588Y-70909819D01*
X85130588Y-70909819D02*
X84797255Y-71290771D01*
X84797255Y-71290771D02*
X84940112Y-71290771D01*
X84940112Y-71290771D02*
X85035350Y-71338390D01*
X85035350Y-71338390D02*
X85082969Y-71386009D01*
X85082969Y-71386009D02*
X85130588Y-71481247D01*
X85130588Y-71481247D02*
X85130588Y-71719342D01*
X85130588Y-71719342D02*
X85082969Y-71814580D01*
X85082969Y-71814580D02*
X85035350Y-71862200D01*
X85035350Y-71862200D02*
X84940112Y-71909819D01*
X84940112Y-71909819D02*
X84654398Y-71909819D01*
X84654398Y-71909819D02*
X84559160Y-71862200D01*
X84559160Y-71862200D02*
X84511541Y-71814580D01*
X85987731Y-71243152D02*
X85987731Y-71909819D01*
X85749636Y-70862200D02*
X85511541Y-71576485D01*
X85511541Y-71576485D02*
X86130588Y-71576485D01*
D11*
G36*
X122702404Y-76539942D02*
G01*
X122164859Y-76539942D01*
X122164859Y-76768439D01*
X122670349Y-76768439D01*
X122670349Y-77007621D01*
X122164859Y-77007621D01*
X122164859Y-77527906D01*
X121848415Y-77527906D01*
X121848415Y-76300760D01*
X122702404Y-76300760D01*
X122702404Y-76539942D01*
G37*
G36*
X94972635Y-78266662D02*
G01*
X94972635Y-77424999D01*
X95272640Y-77424999D01*
X95272640Y-78652145D01*
X94919209Y-78652145D01*
X94472899Y-77810482D01*
X94472899Y-78652145D01*
X94172893Y-78652145D01*
X94172893Y-77424999D01*
X94526325Y-77424999D01*
X94972635Y-78266662D01*
G37*
D12*
X121060000Y-79689552D02*
X130103615Y-79689552D01*
D11*
G36*
X93334381Y-78994407D02*
G01*
X93368961Y-78996322D01*
X93402565Y-78999513D01*
X93435192Y-79003981D01*
X93466844Y-79009725D01*
X93497519Y-79016746D01*
X93527218Y-79025044D01*
X93555941Y-79034618D01*
X93583687Y-79045469D01*
X93610458Y-79057596D01*
X93636252Y-79071000D01*
X93661070Y-79085680D01*
X93684912Y-79101637D01*
X93707778Y-79118870D01*
X93729667Y-79137381D01*
X93750580Y-79157168D01*
X93770367Y-79178103D01*
X93788877Y-79200058D01*
X93806111Y-79223033D01*
X93822068Y-79247028D01*
X93836749Y-79272043D01*
X93850153Y-79298078D01*
X93862280Y-79325133D01*
X93873131Y-79353208D01*
X93882705Y-79382303D01*
X93891003Y-79412418D01*
X93898024Y-79443553D01*
X93903769Y-79475708D01*
X93908237Y-79508883D01*
X93911428Y-79543078D01*
X93913343Y-79578293D01*
X93913981Y-79614528D01*
X93913340Y-79650667D01*
X93911416Y-79685791D01*
X93908208Y-79719902D01*
X93903719Y-79752999D01*
X93897946Y-79785082D01*
X93890890Y-79816152D01*
X93882552Y-79846207D01*
X93872931Y-79875249D01*
X93862027Y-79903277D01*
X93849840Y-79930291D01*
X93836370Y-79956291D01*
X93821617Y-79981278D01*
X93805582Y-80005251D01*
X93788264Y-80028211D01*
X93769663Y-80050156D01*
X93749779Y-80071088D01*
X93728869Y-80090875D01*
X93706989Y-80109385D01*
X93684139Y-80126619D01*
X93660319Y-80142576D01*
X93635529Y-80157256D01*
X93609769Y-80170660D01*
X93583040Y-80182787D01*
X93555340Y-80193638D01*
X93526670Y-80203212D01*
X93497031Y-80211509D01*
X93466421Y-80218530D01*
X93434842Y-80224275D01*
X93402292Y-80228742D01*
X93368773Y-80231934D01*
X93334284Y-80233849D01*
X93298825Y-80234487D01*
X93263362Y-80233849D01*
X93228864Y-80231934D01*
X93195329Y-80228742D01*
X93162757Y-80224275D01*
X93131150Y-80218530D01*
X93100506Y-80211509D01*
X93070826Y-80203212D01*
X93042109Y-80193638D01*
X93014356Y-80182787D01*
X92987567Y-80170660D01*
X92961741Y-80157256D01*
X92936880Y-80142576D01*
X92912981Y-80126619D01*
X92890047Y-80109385D01*
X92868076Y-80090875D01*
X92847069Y-80071088D01*
X92827282Y-80050156D01*
X92808772Y-80028211D01*
X92791538Y-80005251D01*
X92775581Y-79981278D01*
X92760901Y-79956291D01*
X92747497Y-79930291D01*
X92735369Y-79903277D01*
X92724518Y-79875249D01*
X92714944Y-79846207D01*
X92706646Y-79816152D01*
X92699625Y-79785082D01*
X92693881Y-79752999D01*
X92689413Y-79719902D01*
X92686221Y-79685791D01*
X92684306Y-79650667D01*
X92683668Y-79614528D01*
X92683668Y-79614524D01*
X93002461Y-79614524D01*
X93002749Y-79636770D01*
X93003612Y-79658453D01*
X93005052Y-79679573D01*
X93007067Y-79700130D01*
X93009657Y-79720123D01*
X93012824Y-79739553D01*
X93016566Y-79758420D01*
X93020884Y-79776724D01*
X93025777Y-79794464D01*
X93031247Y-79811641D01*
X93037291Y-79828256D01*
X93043912Y-79844306D01*
X93051108Y-79859794D01*
X93058881Y-79874719D01*
X93067228Y-79889080D01*
X93076152Y-79902878D01*
X93085751Y-79915972D01*
X93095926Y-79928222D01*
X93101230Y-79934030D01*
X93106677Y-79939627D01*
X93112268Y-79945012D01*
X93118003Y-79950186D01*
X93123882Y-79955150D01*
X93129905Y-79959901D01*
X93136072Y-79964442D01*
X93142383Y-79968772D01*
X93148838Y-79972890D01*
X93155437Y-79976797D01*
X93162180Y-79980493D01*
X93169066Y-79983978D01*
X93176097Y-79987252D01*
X93183271Y-79990314D01*
X93190589Y-79993165D01*
X93198052Y-79995805D01*
X93213408Y-80000451D01*
X93229340Y-80004253D01*
X93245848Y-80007210D01*
X93262932Y-80009322D01*
X93280591Y-80010589D01*
X93298826Y-80011011D01*
X93308266Y-80010895D01*
X93317561Y-80010548D01*
X93326713Y-80009969D01*
X93335721Y-80009159D01*
X93344585Y-80008117D01*
X93353305Y-80006844D01*
X93361881Y-80005339D01*
X93370314Y-80003602D01*
X93378602Y-80001634D01*
X93386746Y-79999435D01*
X93394747Y-79997004D01*
X93402603Y-79994341D01*
X93410316Y-79991447D01*
X93417885Y-79988321D01*
X93425309Y-79984964D01*
X93432590Y-79981376D01*
X93439711Y-79977577D01*
X93446657Y-79973591D01*
X93453428Y-79969417D01*
X93460024Y-79965056D01*
X93466444Y-79960506D01*
X93472689Y-79955769D01*
X93478759Y-79950844D01*
X93484654Y-79945732D01*
X93490374Y-79940431D01*
X93495918Y-79934943D01*
X93501287Y-79929267D01*
X93506481Y-79923404D01*
X93511499Y-79917352D01*
X93516343Y-79911113D01*
X93521011Y-79904686D01*
X93525504Y-79898072D01*
X93529841Y-79891200D01*
X93534040Y-79884204D01*
X93538101Y-79877082D01*
X93542024Y-79869835D01*
X93545810Y-79862463D01*
X93549458Y-79854966D01*
X93552969Y-79847344D01*
X93556342Y-79839597D01*
X93559577Y-79831725D01*
X93562675Y-79823727D01*
X93565634Y-79815605D01*
X93568457Y-79807357D01*
X93571141Y-79798985D01*
X93573688Y-79790487D01*
X93576097Y-79781864D01*
X93578368Y-79773121D01*
X93582498Y-79755048D01*
X93586078Y-79736475D01*
X93589107Y-79717401D01*
X93591585Y-79697827D01*
X93593512Y-79677752D01*
X93594889Y-79657176D01*
X93595715Y-79636100D01*
X93595990Y-79614524D01*
X93595715Y-79592947D01*
X93594889Y-79571871D01*
X93593512Y-79551296D01*
X93591585Y-79531221D01*
X93589107Y-79511646D01*
X93586078Y-79492572D01*
X93582498Y-79473999D01*
X93578368Y-79455927D01*
X93573688Y-79438380D01*
X93568456Y-79421384D01*
X93562674Y-79404939D01*
X93559576Y-79396923D01*
X93556341Y-79389045D01*
X93552968Y-79381304D01*
X93549458Y-79373701D01*
X93545810Y-79366236D01*
X93542024Y-79358908D01*
X93538100Y-79351719D01*
X93534039Y-79344667D01*
X93529840Y-79337752D01*
X93525504Y-79330976D01*
X93521011Y-79324265D01*
X93516342Y-79317748D01*
X93511499Y-79311424D01*
X93506480Y-79305295D01*
X93501286Y-79299360D01*
X93495917Y-79293619D01*
X93490373Y-79288071D01*
X93484653Y-79282718D01*
X93478759Y-79277558D01*
X93472689Y-79272593D01*
X93466444Y-79267821D01*
X93460023Y-79263243D01*
X93453428Y-79258859D01*
X93446657Y-79254669D01*
X93439711Y-79250673D01*
X93432590Y-79246871D01*
X93425309Y-79243282D01*
X93417884Y-79239925D01*
X93410315Y-79236799D01*
X93402603Y-79233905D01*
X93394746Y-79231243D01*
X93386746Y-79228812D01*
X93378601Y-79226612D01*
X93370313Y-79224644D01*
X93361881Y-79222908D01*
X93353305Y-79221403D01*
X93344585Y-79220129D01*
X93335721Y-79219087D01*
X93326713Y-79218277D01*
X93317561Y-79217698D01*
X93308265Y-79217351D01*
X93298825Y-79217235D01*
X93286435Y-79217442D01*
X93274295Y-79218061D01*
X93262405Y-79219094D01*
X93250766Y-79220540D01*
X93239377Y-79222398D01*
X93228238Y-79224670D01*
X93217350Y-79227355D01*
X93206712Y-79230453D01*
X93196324Y-79233963D01*
X93186187Y-79237887D01*
X93176299Y-79242224D01*
X93166663Y-79246974D01*
X93157276Y-79252136D01*
X93148140Y-79257712D01*
X93139254Y-79263701D01*
X93130618Y-79270102D01*
X93122352Y-79276748D01*
X93114373Y-79283669D01*
X93106683Y-79290865D01*
X93099280Y-79298336D01*
X93092165Y-79306083D01*
X93085338Y-79314106D01*
X93078798Y-79322403D01*
X93072547Y-79330976D01*
X93066583Y-79339825D01*
X93060908Y-79348949D01*
X93055520Y-79358348D01*
X93050420Y-79368022D01*
X93045608Y-79377972D01*
X93041083Y-79388197D01*
X93036847Y-79398697D01*
X93032898Y-79409473D01*
X93029213Y-79420505D01*
X93025765Y-79431776D01*
X93022554Y-79443284D01*
X93019582Y-79455029D01*
X93016847Y-79467013D01*
X93014351Y-79479234D01*
X93012092Y-79491693D01*
X93010070Y-79504390D01*
X93008287Y-79517325D01*
X93006741Y-79530498D01*
X93005433Y-79543908D01*
X93004363Y-79557556D01*
X93002937Y-79585564D01*
X93002461Y-79614524D01*
X92683668Y-79614524D01*
X92684306Y-79578390D01*
X92686221Y-79543265D01*
X92689413Y-79509154D01*
X92693881Y-79476058D01*
X92699625Y-79443974D01*
X92706646Y-79412905D01*
X92714944Y-79382850D01*
X92724518Y-79353808D01*
X92735369Y-79325780D01*
X92747497Y-79298766D01*
X92760901Y-79272765D01*
X92775581Y-79247779D01*
X92791538Y-79223806D01*
X92808772Y-79200846D01*
X92827282Y-79178901D01*
X92847069Y-79157969D01*
X92868076Y-79138085D01*
X92890047Y-79119485D01*
X92912981Y-79102167D01*
X92936880Y-79086132D01*
X92961741Y-79071380D01*
X92987567Y-79057910D01*
X93014356Y-79045723D01*
X93042109Y-79034819D01*
X93070826Y-79025198D01*
X93100506Y-79016860D01*
X93131150Y-79009804D01*
X93162757Y-79004031D01*
X93195329Y-78999542D01*
X93228864Y-78996334D01*
X93263362Y-78994410D01*
X93298825Y-78993769D01*
X93334381Y-78994407D01*
G37*
G36*
X124116144Y-77527906D02*
G01*
X123798055Y-77527906D01*
X123720793Y-77304338D01*
X123225989Y-77304338D01*
X123147906Y-77527906D01*
X122829817Y-77527906D01*
X122996956Y-77076660D01*
X123304895Y-77076660D01*
X123641066Y-77076660D01*
X123473392Y-76588433D01*
X123304895Y-77076660D01*
X122996956Y-77076660D01*
X123284347Y-76300760D01*
X123661614Y-76300760D01*
X124116144Y-77527906D01*
G37*
D12*
X130719999Y-74390000D02*
X121060000Y-74390000D01*
X130103615Y-79689552D02*
X130719999Y-79065891D01*
D11*
G36*
X129906937Y-78553640D02*
G01*
X129925065Y-78555053D01*
X129942930Y-78557382D01*
X129960508Y-78560601D01*
X129977778Y-78564689D01*
X129994717Y-78569623D01*
X130011303Y-78575378D01*
X130027513Y-78581934D01*
X130043325Y-78589265D01*
X130058716Y-78597350D01*
X130073665Y-78606166D01*
X130088148Y-78615689D01*
X130102143Y-78625896D01*
X130115627Y-78636764D01*
X130128579Y-78648271D01*
X130140976Y-78660394D01*
X130152796Y-78673108D01*
X130164015Y-78686393D01*
X130174612Y-78700223D01*
X130184564Y-78714577D01*
X130193849Y-78729431D01*
X130202444Y-78744763D01*
X130210327Y-78760549D01*
X130217476Y-78776766D01*
X130223867Y-78793392D01*
X130229479Y-78810403D01*
X130234289Y-78827776D01*
X130238275Y-78845489D01*
X130241414Y-78863518D01*
X130243685Y-78881840D01*
X130245063Y-78900433D01*
X130245528Y-78919273D01*
X130245063Y-78938114D01*
X130243685Y-78956706D01*
X130241415Y-78975029D01*
X130238276Y-78993058D01*
X130234290Y-79010771D01*
X130229480Y-79028144D01*
X130223868Y-79045155D01*
X130217476Y-79061781D01*
X130210328Y-79077998D01*
X130202445Y-79093784D01*
X130193850Y-79109116D01*
X130184565Y-79123970D01*
X130174613Y-79138324D01*
X130164016Y-79152154D01*
X130152797Y-79165438D01*
X130140978Y-79178153D01*
X130128581Y-79190275D01*
X130115629Y-79201782D01*
X130102144Y-79212651D01*
X130088149Y-79222858D01*
X130073666Y-79232381D01*
X130058718Y-79241196D01*
X130043326Y-79249281D01*
X130027515Y-79256613D01*
X130011305Y-79263168D01*
X129994719Y-79268924D01*
X129977780Y-79273858D01*
X129960510Y-79277946D01*
X129942932Y-79281165D01*
X129925067Y-79283493D01*
X129906939Y-79284907D01*
X129888570Y-79285384D01*
X129870201Y-79284907D01*
X129852073Y-79283493D01*
X129834209Y-79281165D01*
X129816630Y-79277946D01*
X129799360Y-79273858D01*
X129782421Y-79268924D01*
X129765836Y-79263168D01*
X129749625Y-79256613D01*
X129733813Y-79249281D01*
X129718422Y-79241196D01*
X129703474Y-79232381D01*
X129688991Y-79222858D01*
X129674996Y-79212651D01*
X129661511Y-79201782D01*
X129648559Y-79190275D01*
X129636162Y-79178153D01*
X129624342Y-79165438D01*
X129613123Y-79152154D01*
X129602526Y-79138324D01*
X129592574Y-79123970D01*
X129583289Y-79109116D01*
X129574694Y-79093784D01*
X129566811Y-79077998D01*
X129559663Y-79061781D01*
X129553271Y-79045155D01*
X129547659Y-79028144D01*
X129542849Y-79010771D01*
X129538863Y-78993058D01*
X129535724Y-78975029D01*
X129533454Y-78956706D01*
X129532075Y-78938114D01*
X129531611Y-78919273D01*
X129532075Y-78900433D01*
X129533454Y-78881840D01*
X129535724Y-78863518D01*
X129538863Y-78845489D01*
X129542849Y-78827776D01*
X129547659Y-78810403D01*
X129553271Y-78793392D01*
X129559662Y-78776766D01*
X129566811Y-78760549D01*
X129574694Y-78744763D01*
X129583289Y-78729431D01*
X129592573Y-78714577D01*
X129602525Y-78700223D01*
X129613122Y-78686393D01*
X129624342Y-78673108D01*
X129636161Y-78660394D01*
X129648558Y-78648271D01*
X129661510Y-78636764D01*
X129674995Y-78625896D01*
X129688990Y-78615689D01*
X129703472Y-78606166D01*
X129718421Y-78597350D01*
X129733812Y-78589265D01*
X129749624Y-78581934D01*
X129765834Y-78575378D01*
X129782420Y-78569623D01*
X129799359Y-78564689D01*
X129816629Y-78560601D01*
X129834207Y-78557382D01*
X129852071Y-78555053D01*
X129870199Y-78553640D01*
X129888568Y-78553163D01*
X129906937Y-78553640D01*
G37*
D12*
X88226790Y-80813791D02*
X97270405Y-80813791D01*
D11*
G36*
X96170341Y-79015775D02*
G01*
X96196939Y-79016920D01*
X96222780Y-79018829D01*
X96247864Y-79021501D01*
X96272191Y-79024937D01*
X96295761Y-79029136D01*
X96318573Y-79034098D01*
X96340628Y-79039824D01*
X96361926Y-79046313D01*
X96382467Y-79053566D01*
X96402251Y-79061582D01*
X96421277Y-79070361D01*
X96439547Y-79079904D01*
X96457059Y-79090210D01*
X96473814Y-79101279D01*
X96489812Y-79113112D01*
X96505040Y-79125706D01*
X96519285Y-79139056D01*
X96532549Y-79153164D01*
X96544829Y-79168029D01*
X96556128Y-79183651D01*
X96566443Y-79200030D01*
X96575777Y-79217167D01*
X96584128Y-79235061D01*
X96591496Y-79253712D01*
X96597882Y-79273120D01*
X96603286Y-79293286D01*
X96607707Y-79314208D01*
X96611145Y-79335889D01*
X96613601Y-79358326D01*
X96615075Y-79381520D01*
X96615566Y-79405472D01*
X96615075Y-79429426D01*
X96613601Y-79452630D01*
X96611145Y-79475082D01*
X96607707Y-79496783D01*
X96603286Y-79517734D01*
X96597882Y-79537933D01*
X96591496Y-79557382D01*
X96584128Y-79576080D01*
X96575777Y-79594027D01*
X96566443Y-79611223D01*
X96556128Y-79627669D01*
X96544829Y-79643363D01*
X96532549Y-79658307D01*
X96519285Y-79672500D01*
X96505040Y-79685942D01*
X96489812Y-79698633D01*
X96473720Y-79710466D01*
X96456884Y-79721536D01*
X96439303Y-79731842D01*
X96420977Y-79741385D01*
X96401907Y-79750164D01*
X96382092Y-79758180D01*
X96361532Y-79765433D01*
X96340228Y-79771922D01*
X96318179Y-79777648D01*
X96295385Y-79782610D01*
X96271847Y-79786809D01*
X96247564Y-79790244D01*
X96222536Y-79792917D01*
X96196764Y-79794825D01*
X96170247Y-79795970D01*
X96142985Y-79796352D01*
X95939535Y-79796352D01*
X95939535Y-80211264D01*
X95631156Y-80211264D01*
X95631156Y-79238865D01*
X95939535Y-79238865D01*
X95939535Y-79572876D01*
X96110145Y-79572876D01*
X96121102Y-79572711D01*
X96131747Y-79572213D01*
X96142078Y-79571384D01*
X96152097Y-79570223D01*
X96161802Y-79568731D01*
X96171195Y-79566907D01*
X96180275Y-79564751D01*
X96189042Y-79562264D01*
X96197496Y-79559445D01*
X96205638Y-79556294D01*
X96213466Y-79552811D01*
X96220981Y-79548997D01*
X96228184Y-79544851D01*
X96235074Y-79540374D01*
X96241651Y-79535564D01*
X96247914Y-79530423D01*
X96253928Y-79524867D01*
X96259554Y-79519010D01*
X96264792Y-79512852D01*
X96269641Y-79506394D01*
X96274103Y-79499636D01*
X96278177Y-79492577D01*
X96281863Y-79485219D01*
X96285160Y-79477559D01*
X96288070Y-79469599D01*
X96290592Y-79461339D01*
X96292726Y-79452779D01*
X96294472Y-79443918D01*
X96295830Y-79434757D01*
X96296800Y-79425296D01*
X96297382Y-79415534D01*
X96297576Y-79405472D01*
X96297382Y-79395413D01*
X96296800Y-79385660D01*
X96295830Y-79376214D01*
X96294472Y-79367074D01*
X96292726Y-79358241D01*
X96290592Y-79349715D01*
X96288070Y-79341496D01*
X96285160Y-79333583D01*
X96281863Y-79325977D01*
X96278177Y-79318677D01*
X96274103Y-79311684D01*
X96269641Y-79304998D01*
X96264792Y-79298618D01*
X96259554Y-79292544D01*
X96253928Y-79286778D01*
X96247914Y-79281318D01*
X96241651Y-79276177D01*
X96235074Y-79271367D01*
X96228184Y-79266890D01*
X96220981Y-79262744D01*
X96213466Y-79258930D01*
X96205638Y-79255447D01*
X96197496Y-79252296D01*
X96189042Y-79249477D01*
X96180275Y-79246990D01*
X96171195Y-79244834D01*
X96161802Y-79243010D01*
X96152097Y-79241518D01*
X96142078Y-79240357D01*
X96131747Y-79239528D01*
X96121102Y-79239030D01*
X96110145Y-79238865D01*
X95939535Y-79238865D01*
X95631156Y-79238865D01*
X95631156Y-79015394D01*
X96142985Y-79015394D01*
X96170341Y-79015775D01*
G37*
D12*
X97886789Y-80190130D02*
X97886789Y-75514239D01*
D11*
G36*
X95968831Y-78652145D02*
G01*
X95652387Y-78652145D01*
X95652387Y-77424999D01*
X95968831Y-77424999D01*
X95968831Y-78652145D01*
G37*
D12*
X97886789Y-75514239D02*
X88226790Y-75514239D01*
D11*
G36*
X97073727Y-79677879D02*
G01*
X97091855Y-79679292D01*
X97109720Y-79681621D01*
X97127298Y-79684840D01*
X97144568Y-79688928D01*
X97161507Y-79693862D01*
X97178093Y-79699617D01*
X97194303Y-79706173D01*
X97210115Y-79713504D01*
X97225506Y-79721589D01*
X97240455Y-79730405D01*
X97254938Y-79739928D01*
X97268933Y-79750135D01*
X97282417Y-79761003D01*
X97295369Y-79772510D01*
X97307766Y-79784633D01*
X97319586Y-79797347D01*
X97330805Y-79810632D01*
X97341402Y-79824462D01*
X97351354Y-79838816D01*
X97360639Y-79853670D01*
X97369234Y-79869002D01*
X97377117Y-79884788D01*
X97384266Y-79901005D01*
X97390657Y-79917631D01*
X97396269Y-79934642D01*
X97401079Y-79952015D01*
X97405065Y-79969728D01*
X97408204Y-79987757D01*
X97410475Y-80006079D01*
X97411853Y-80024672D01*
X97412318Y-80043512D01*
X97411853Y-80062353D01*
X97410475Y-80080945D01*
X97408205Y-80099268D01*
X97405066Y-80117297D01*
X97401080Y-80135010D01*
X97396270Y-80152383D01*
X97390658Y-80169394D01*
X97384266Y-80186020D01*
X97377118Y-80202237D01*
X97369235Y-80218023D01*
X97360640Y-80233355D01*
X97351355Y-80248209D01*
X97341403Y-80262563D01*
X97330806Y-80276393D01*
X97319587Y-80289677D01*
X97307768Y-80302392D01*
X97295371Y-80314514D01*
X97282419Y-80326021D01*
X97268934Y-80336890D01*
X97254939Y-80347097D01*
X97240456Y-80356620D01*
X97225508Y-80365435D01*
X97210116Y-80373520D01*
X97194305Y-80380852D01*
X97178095Y-80387407D01*
X97161509Y-80393163D01*
X97144570Y-80398097D01*
X97127300Y-80402185D01*
X97109722Y-80405404D01*
X97091857Y-80407732D01*
X97073729Y-80409146D01*
X97055360Y-80409623D01*
X97036991Y-80409146D01*
X97018863Y-80407732D01*
X97000999Y-80405404D01*
X96983420Y-80402185D01*
X96966150Y-80398097D01*
X96949211Y-80393163D01*
X96932626Y-80387407D01*
X96916415Y-80380852D01*
X96900603Y-80373520D01*
X96885212Y-80365435D01*
X96870264Y-80356620D01*
X96855781Y-80347097D01*
X96841786Y-80336890D01*
X96828301Y-80326021D01*
X96815349Y-80314514D01*
X96802952Y-80302392D01*
X96791132Y-80289677D01*
X96779913Y-80276393D01*
X96769316Y-80262563D01*
X96759364Y-80248209D01*
X96750079Y-80233355D01*
X96741484Y-80218023D01*
X96733601Y-80202237D01*
X96726453Y-80186020D01*
X96720061Y-80169394D01*
X96714449Y-80152383D01*
X96709639Y-80135010D01*
X96705653Y-80117297D01*
X96702514Y-80099268D01*
X96700244Y-80080945D01*
X96698865Y-80062353D01*
X96698401Y-80043512D01*
X96698865Y-80024672D01*
X96700244Y-80006079D01*
X96702514Y-79987757D01*
X96705653Y-79969728D01*
X96709639Y-79952015D01*
X96714449Y-79934642D01*
X96720061Y-79917631D01*
X96726452Y-79901005D01*
X96733601Y-79884788D01*
X96741484Y-79869002D01*
X96750079Y-79853670D01*
X96759363Y-79838816D01*
X96769315Y-79824462D01*
X96779912Y-79810632D01*
X96791132Y-79797347D01*
X96802951Y-79784633D01*
X96815348Y-79772510D01*
X96828300Y-79761003D01*
X96841785Y-79750135D01*
X96855780Y-79739928D01*
X96870262Y-79730405D01*
X96885211Y-79721589D01*
X96900602Y-79713504D01*
X96916414Y-79706173D01*
X96932624Y-79699617D01*
X96949210Y-79693862D01*
X96966149Y-79688928D01*
X96983419Y-79684840D01*
X97000997Y-79681621D01*
X97018861Y-79679292D01*
X97036989Y-79677879D01*
X97055358Y-79677402D01*
X97073727Y-79677879D01*
G37*
G36*
X126772661Y-77527906D02*
G01*
X126454572Y-77527906D01*
X126377310Y-77304338D01*
X125882506Y-77304338D01*
X125804422Y-77527906D01*
X125486334Y-77527906D01*
X125653473Y-77076660D01*
X125961412Y-77076660D01*
X126297583Y-77076660D01*
X126129908Y-76588433D01*
X125961412Y-77076660D01*
X125653473Y-77076660D01*
X125940863Y-76300760D01*
X126318131Y-76300760D01*
X126772661Y-77527906D01*
G37*
D12*
X97270405Y-80813791D02*
X97886789Y-80190130D01*
D11*
G36*
X128802041Y-77527906D02*
G01*
X128485597Y-77527906D01*
X128485597Y-76300760D01*
X128802041Y-76300760D01*
X128802041Y-77527906D01*
G37*
D12*
X88226790Y-75514239D02*
X88226790Y-80813791D01*
D11*
G36*
X127593362Y-77891513D02*
G01*
X127623800Y-77892601D01*
X127653036Y-77894416D01*
X127681070Y-77896956D01*
X127707903Y-77900222D01*
X127733535Y-77904214D01*
X127757965Y-77908933D01*
X127781194Y-77914377D01*
X127792354Y-77917365D01*
X127803208Y-77920522D01*
X127813756Y-77923848D01*
X127823996Y-77927343D01*
X127833930Y-77931006D01*
X127843558Y-77934839D01*
X127852879Y-77938841D01*
X127861893Y-77943011D01*
X127870600Y-77947351D01*
X127879001Y-77951859D01*
X127887096Y-77956537D01*
X127894883Y-77961383D01*
X127902364Y-77966399D01*
X127909539Y-77971584D01*
X127916406Y-77976937D01*
X127922968Y-77982460D01*
X127929260Y-77988121D01*
X127935320Y-77993887D01*
X127941149Y-77999760D01*
X127946747Y-78005740D01*
X127952113Y-78011826D01*
X127957247Y-78018018D01*
X127962150Y-78024316D01*
X127966822Y-78030721D01*
X127971262Y-78037232D01*
X127975470Y-78043849D01*
X127979447Y-78050573D01*
X127983192Y-78057403D01*
X127986706Y-78064339D01*
X127989988Y-78071382D01*
X127993038Y-78078531D01*
X127995857Y-78085786D01*
X127998573Y-78093074D01*
X128001114Y-78100517D01*
X128003479Y-78108117D01*
X128005669Y-78115874D01*
X128007684Y-78123786D01*
X128009524Y-78131856D01*
X128011189Y-78140081D01*
X128012678Y-78148463D01*
X128013992Y-78157002D01*
X128015131Y-78165697D01*
X128016095Y-78174548D01*
X128016884Y-78183556D01*
X128017497Y-78192720D01*
X128017935Y-78202041D01*
X128018198Y-78211518D01*
X128018285Y-78221152D01*
X128018285Y-78221156D01*
X128017387Y-78249857D01*
X128014693Y-78277288D01*
X128010204Y-78303448D01*
X128003918Y-78328338D01*
X128000101Y-78340306D01*
X127995836Y-78351957D01*
X127991122Y-78363290D01*
X127985958Y-78374306D01*
X127980346Y-78385004D01*
X127974284Y-78395385D01*
X127967774Y-78405448D01*
X127960815Y-78415193D01*
X127953406Y-78424621D01*
X127945549Y-78433731D01*
X127937243Y-78442524D01*
X127928488Y-78450999D01*
X127919283Y-78459157D01*
X127909630Y-78466997D01*
X127899528Y-78474519D01*
X127888976Y-78481724D01*
X127866527Y-78495181D01*
X127842282Y-78507368D01*
X127816240Y-78518285D01*
X127788403Y-78527931D01*
X127797032Y-78530087D01*
X127805499Y-78532549D01*
X127813803Y-78535318D01*
X127821944Y-78538394D01*
X127829922Y-78541776D01*
X127837738Y-78545465D01*
X127845391Y-78549461D01*
X127852882Y-78553763D01*
X127860209Y-78558372D01*
X127867374Y-78563287D01*
X127874377Y-78568509D01*
X127881216Y-78574038D01*
X127887893Y-78579873D01*
X127894408Y-78586015D01*
X127900759Y-78592464D01*
X127906948Y-78599219D01*
X127913143Y-78606274D01*
X127919313Y-78613624D01*
X127925458Y-78621268D01*
X127931579Y-78629206D01*
X127937674Y-78637437D01*
X127943743Y-78645963D01*
X127949788Y-78654784D01*
X127955808Y-78663898D01*
X127961803Y-78673306D01*
X127967773Y-78683009D01*
X127979638Y-78703296D01*
X127991402Y-78724761D01*
X128003066Y-78747401D01*
X128170472Y-79087021D01*
X127842068Y-79087021D01*
X127696289Y-78789854D01*
X127691164Y-78779533D01*
X127686002Y-78769593D01*
X127680801Y-78760034D01*
X127675564Y-78750857D01*
X127670289Y-78742062D01*
X127664976Y-78733649D01*
X127659626Y-78725617D01*
X127654238Y-78717967D01*
X127648812Y-78710698D01*
X127643349Y-78703811D01*
X127637849Y-78697306D01*
X127632311Y-78691183D01*
X127626735Y-78685441D01*
X127621122Y-78680081D01*
X127615471Y-78675103D01*
X127609783Y-78670506D01*
X127604044Y-78666142D01*
X127598043Y-78662059D01*
X127591779Y-78658257D01*
X127585253Y-78654738D01*
X127578463Y-78651499D01*
X127571411Y-78648542D01*
X127564095Y-78645867D01*
X127556517Y-78643474D01*
X127548676Y-78641362D01*
X127540573Y-78639531D01*
X127532206Y-78637982D01*
X127523577Y-78636715D01*
X127514684Y-78635729D01*
X127505529Y-78635025D01*
X127496112Y-78634603D01*
X127486431Y-78634462D01*
X127399123Y-78634462D01*
X127399123Y-79087021D01*
X127090745Y-79087021D01*
X127090745Y-78114626D01*
X127399125Y-78114626D01*
X127399125Y-78421400D01*
X127528884Y-78421400D01*
X127541165Y-78421253D01*
X127552976Y-78420812D01*
X127564318Y-78420077D01*
X127575191Y-78419048D01*
X127585594Y-78417724D01*
X127595528Y-78416107D01*
X127604993Y-78414195D01*
X127613988Y-78411989D01*
X127622514Y-78409490D01*
X127630571Y-78406696D01*
X127638159Y-78403607D01*
X127645277Y-78400225D01*
X127651926Y-78396548D01*
X127658105Y-78392578D01*
X127663815Y-78388313D01*
X127669056Y-78383754D01*
X127674003Y-78378885D01*
X127678631Y-78373691D01*
X127682939Y-78368172D01*
X127686928Y-78362327D01*
X127690598Y-78356157D01*
X127693949Y-78349662D01*
X127696981Y-78342841D01*
X127699694Y-78335695D01*
X127702088Y-78328223D01*
X127704162Y-78320426D01*
X127705917Y-78312303D01*
X127707353Y-78303856D01*
X127708470Y-78295082D01*
X127709268Y-78285983D01*
X127709747Y-78276559D01*
X127709907Y-78266809D01*
X127709906Y-78266814D01*
X127709734Y-78256497D01*
X127709218Y-78246575D01*
X127708357Y-78237048D01*
X127707153Y-78227914D01*
X127705604Y-78219175D01*
X127703711Y-78210830D01*
X127701474Y-78202880D01*
X127698893Y-78195324D01*
X127695967Y-78188162D01*
X127692697Y-78181394D01*
X127689084Y-78175021D01*
X127685126Y-78169041D01*
X127680824Y-78163457D01*
X127676177Y-78158266D01*
X127671187Y-78153470D01*
X127665852Y-78149068D01*
X127660154Y-78144897D01*
X127654075Y-78140995D01*
X127647614Y-78137363D01*
X127640771Y-78133999D01*
X127633547Y-78130905D01*
X127625941Y-78128080D01*
X127617953Y-78125523D01*
X127609583Y-78123236D01*
X127600832Y-78121218D01*
X127591699Y-78119469D01*
X127582184Y-78117989D01*
X127572287Y-78116778D01*
X127562009Y-78115836D01*
X127551349Y-78115164D01*
X127540307Y-78114760D01*
X127528884Y-78114626D01*
X127399125Y-78114626D01*
X127090745Y-78114626D01*
X127090745Y-77891150D01*
X127561723Y-77891150D01*
X127593362Y-77891513D01*
G37*
G36*
X124875249Y-77869877D02*
G01*
X124899751Y-77870919D01*
X124924034Y-77872655D01*
X124948098Y-77875087D01*
X124971943Y-77878212D01*
X124995569Y-77882033D01*
X125018976Y-77886547D01*
X125042164Y-77891757D01*
X125065132Y-77897661D01*
X125087882Y-77904260D01*
X125110413Y-77911554D01*
X125132725Y-77919542D01*
X125154818Y-77928225D01*
X125176692Y-77937602D01*
X125198346Y-77947674D01*
X125219782Y-77958441D01*
X125219782Y-78205945D01*
X125198913Y-78192269D01*
X125177956Y-78179475D01*
X125156911Y-78167563D01*
X125135779Y-78156534D01*
X125114559Y-78146387D01*
X125093251Y-78137122D01*
X125071856Y-78128740D01*
X125050374Y-78121240D01*
X125028803Y-78114623D01*
X125007146Y-78108888D01*
X124985400Y-78104035D01*
X124963567Y-78100064D01*
X124941647Y-78096976D01*
X124919638Y-78094770D01*
X124897542Y-78093447D01*
X124875359Y-78093005D01*
X124854627Y-78093425D01*
X124834484Y-78094683D01*
X124814929Y-78096779D01*
X124795962Y-78099714D01*
X124777583Y-78103487D01*
X124759792Y-78108099D01*
X124742590Y-78113550D01*
X124725976Y-78119839D01*
X124709950Y-78126967D01*
X124694512Y-78134933D01*
X124679662Y-78143737D01*
X124665401Y-78153380D01*
X124651728Y-78163862D01*
X124638643Y-78175182D01*
X124626147Y-78187340D01*
X124614238Y-78200337D01*
X124602987Y-78213954D01*
X124592461Y-78228172D01*
X124582662Y-78242990D01*
X124573588Y-78258409D01*
X124565241Y-78274429D01*
X124557619Y-78291050D01*
X124550723Y-78308271D01*
X124544553Y-78326093D01*
X124539109Y-78344516D01*
X124534390Y-78363539D01*
X124530398Y-78383163D01*
X124527131Y-78403388D01*
X124524591Y-78424213D01*
X124522776Y-78445639D01*
X124521687Y-78467666D01*
X124521324Y-78490294D01*
X124521687Y-78512922D01*
X124522776Y-78534948D01*
X124524591Y-78556375D01*
X124527131Y-78577200D01*
X124530398Y-78597425D01*
X124534390Y-78617049D01*
X124539109Y-78636072D01*
X124544553Y-78654495D01*
X124550723Y-78672317D01*
X124557619Y-78689538D01*
X124565241Y-78706159D01*
X124573588Y-78722178D01*
X124582662Y-78737598D01*
X124592461Y-78752416D01*
X124602987Y-78766634D01*
X124614238Y-78780251D01*
X124626147Y-78793151D01*
X124638643Y-78805219D01*
X124651728Y-78816455D01*
X124665401Y-78826858D01*
X124679662Y-78836430D01*
X124694512Y-78845168D01*
X124709950Y-78853075D01*
X124725976Y-78860149D01*
X124742590Y-78866391D01*
X124759792Y-78871801D01*
X124777583Y-78876378D01*
X124795962Y-78880123D01*
X124814929Y-78883036D01*
X124834484Y-78885117D01*
X124854627Y-78886365D01*
X124875359Y-78886781D01*
X124875358Y-78886772D01*
X124897729Y-78886331D01*
X124919988Y-78885008D01*
X124942134Y-78882802D01*
X124964167Y-78879713D01*
X124986088Y-78875743D01*
X125007896Y-78870890D01*
X125029591Y-78865155D01*
X125051174Y-78858537D01*
X125072644Y-78851037D01*
X125094002Y-78842655D01*
X125115246Y-78833391D01*
X125136379Y-78823244D01*
X125157398Y-78812215D01*
X125178305Y-78800303D01*
X125199100Y-78787509D01*
X125219781Y-78773833D01*
X125219781Y-79021336D01*
X125198346Y-79032103D01*
X125176691Y-79042175D01*
X125154817Y-79051553D01*
X125132724Y-79060236D01*
X125110413Y-79068224D01*
X125087882Y-79075517D01*
X125065132Y-79082116D01*
X125042163Y-79088021D01*
X125018975Y-79093230D01*
X124995568Y-79097745D01*
X124971942Y-79101565D01*
X124948097Y-79104691D01*
X124924033Y-79107122D01*
X124899751Y-79108859D01*
X124875249Y-79109901D01*
X124850528Y-79110248D01*
X124813476Y-79109600D01*
X124777413Y-79107657D01*
X124742339Y-79104419D01*
X124708253Y-79099885D01*
X124675156Y-79094057D01*
X124643048Y-79086932D01*
X124611928Y-79078513D01*
X124581798Y-79068798D01*
X124552655Y-79057788D01*
X124524502Y-79045482D01*
X124497337Y-79031881D01*
X124471161Y-79016985D01*
X124445974Y-79000793D01*
X124421776Y-78983306D01*
X124398566Y-78964524D01*
X124376345Y-78944446D01*
X124355297Y-78923148D01*
X124335607Y-78900906D01*
X124317275Y-78877718D01*
X124300301Y-78853586D01*
X124284685Y-78828508D01*
X124270427Y-78802486D01*
X124257527Y-78775518D01*
X124245985Y-78747606D01*
X124235800Y-78718748D01*
X124226974Y-78688946D01*
X124219505Y-78658199D01*
X124213395Y-78626507D01*
X124208642Y-78593870D01*
X124205247Y-78560288D01*
X124203210Y-78525761D01*
X124202531Y-78490289D01*
X124203207Y-78454818D01*
X124205235Y-78420291D01*
X124208614Y-78386709D01*
X124213345Y-78354072D01*
X124219427Y-78322380D01*
X124226861Y-78291633D01*
X124235647Y-78261830D01*
X124245784Y-78232973D01*
X124257274Y-78205061D01*
X124270114Y-78178093D01*
X124284307Y-78152071D01*
X124299851Y-78126993D01*
X124316747Y-78102861D01*
X124334994Y-78079673D01*
X124354593Y-78057430D01*
X124375544Y-78036133D01*
X124397768Y-78015959D01*
X124420988Y-77997086D01*
X124445202Y-77979514D01*
X124470411Y-77963245D01*
X124496615Y-77948276D01*
X124523814Y-77934610D01*
X124552008Y-77922245D01*
X124581197Y-77911181D01*
X124611381Y-77901419D01*
X124642560Y-77892959D01*
X124674734Y-77885800D01*
X124707903Y-77879943D01*
X124742067Y-77875387D01*
X124777226Y-77872133D01*
X124813379Y-77870181D01*
X124850528Y-77869530D01*
X124875249Y-77869877D01*
G37*
D12*
X130719999Y-79065891D02*
X130719999Y-74390000D01*
D11*
G36*
X91282934Y-78652145D02*
G01*
X90964845Y-78652145D01*
X90887583Y-78428577D01*
X90392779Y-78428577D01*
X90314696Y-78652145D01*
X89996607Y-78652145D01*
X90163746Y-78200899D01*
X90471685Y-78200899D01*
X90807856Y-78200899D01*
X90640182Y-77712672D01*
X90471685Y-78200899D01*
X90163746Y-78200899D01*
X90451137Y-77424999D01*
X90828404Y-77424999D01*
X91282934Y-78652145D01*
G37*
G36*
X126167591Y-77870168D02*
G01*
X126202171Y-77872083D01*
X126235775Y-77875274D01*
X126268402Y-77879742D01*
X126300054Y-77885486D01*
X126330729Y-77892507D01*
X126360428Y-77900805D01*
X126389151Y-77910379D01*
X126416897Y-77921230D01*
X126443668Y-77933357D01*
X126469462Y-77946761D01*
X126494280Y-77961441D01*
X126518122Y-77977398D01*
X126540988Y-77994631D01*
X126562877Y-78013142D01*
X126583790Y-78032929D01*
X126603577Y-78053864D01*
X126622087Y-78075819D01*
X126639321Y-78098794D01*
X126655278Y-78122789D01*
X126669959Y-78147804D01*
X126683363Y-78173839D01*
X126695490Y-78200894D01*
X126706341Y-78228969D01*
X126715915Y-78258064D01*
X126724213Y-78288179D01*
X126731234Y-78319314D01*
X126736979Y-78351469D01*
X126741447Y-78384644D01*
X126744638Y-78418839D01*
X126746553Y-78454054D01*
X126747191Y-78490289D01*
X126746550Y-78526428D01*
X126744626Y-78561552D01*
X126741418Y-78595663D01*
X126736929Y-78628760D01*
X126731156Y-78660843D01*
X126724100Y-78691913D01*
X126715762Y-78721968D01*
X126706141Y-78751010D01*
X126695237Y-78779038D01*
X126683050Y-78806052D01*
X126669580Y-78832052D01*
X126654827Y-78857039D01*
X126638792Y-78881012D01*
X126621474Y-78903972D01*
X126602873Y-78925917D01*
X126582989Y-78946849D01*
X126562079Y-78966636D01*
X126540199Y-78985146D01*
X126517349Y-79002380D01*
X126493529Y-79018337D01*
X126468739Y-79033017D01*
X126442979Y-79046421D01*
X126416250Y-79058548D01*
X126388550Y-79069399D01*
X126359880Y-79078973D01*
X126330241Y-79087270D01*
X126299631Y-79094291D01*
X126268052Y-79100036D01*
X126235502Y-79104503D01*
X126201983Y-79107695D01*
X126167494Y-79109610D01*
X126132035Y-79110248D01*
X126096572Y-79109610D01*
X126062074Y-79107695D01*
X126028539Y-79104503D01*
X125995967Y-79100036D01*
X125964360Y-79094291D01*
X125933716Y-79087270D01*
X125904036Y-79078973D01*
X125875319Y-79069399D01*
X125847566Y-79058548D01*
X125820777Y-79046421D01*
X125794951Y-79033017D01*
X125770090Y-79018337D01*
X125746191Y-79002380D01*
X125723257Y-78985146D01*
X125701286Y-78966636D01*
X125680279Y-78946849D01*
X125660492Y-78925917D01*
X125641982Y-78903972D01*
X125624748Y-78881012D01*
X125608791Y-78857039D01*
X125594111Y-78832052D01*
X125580707Y-78806052D01*
X125568579Y-78779038D01*
X125557728Y-78751010D01*
X125548154Y-78721968D01*
X125539856Y-78691913D01*
X125532835Y-78660843D01*
X125527091Y-78628760D01*
X125522623Y-78595663D01*
X125519431Y-78561552D01*
X125517516Y-78526428D01*
X125516878Y-78490289D01*
X125516878Y-78490285D01*
X125835671Y-78490285D01*
X125835959Y-78512531D01*
X125836822Y-78534214D01*
X125838262Y-78555334D01*
X125840277Y-78575891D01*
X125842867Y-78595884D01*
X125846034Y-78615314D01*
X125849776Y-78634181D01*
X125854094Y-78652485D01*
X125858987Y-78670225D01*
X125864457Y-78687402D01*
X125870501Y-78704017D01*
X125877122Y-78720067D01*
X125884318Y-78735555D01*
X125892091Y-78750480D01*
X125900438Y-78764841D01*
X125909362Y-78778639D01*
X125918961Y-78791733D01*
X125929136Y-78803983D01*
X125934440Y-78809791D01*
X125939887Y-78815388D01*
X125945478Y-78820773D01*
X125951213Y-78825947D01*
X125957092Y-78830911D01*
X125963115Y-78835662D01*
X125969282Y-78840203D01*
X125975593Y-78844533D01*
X125982048Y-78848651D01*
X125988647Y-78852558D01*
X125995390Y-78856254D01*
X126002276Y-78859739D01*
X126009307Y-78863013D01*
X126016481Y-78866075D01*
X126023799Y-78868926D01*
X126031262Y-78871566D01*
X126046618Y-78876212D01*
X126062550Y-78880014D01*
X126079058Y-78882971D01*
X126096142Y-78885083D01*
X126113801Y-78886350D01*
X126132036Y-78886772D01*
X126141476Y-78886656D01*
X126150771Y-78886309D01*
X126159923Y-78885730D01*
X126168931Y-78884920D01*
X126177795Y-78883878D01*
X126186515Y-78882605D01*
X126195091Y-78881100D01*
X126203524Y-78879363D01*
X126211812Y-78877395D01*
X126219956Y-78875196D01*
X126227957Y-78872765D01*
X126235813Y-78870102D01*
X126243526Y-78867208D01*
X126251095Y-78864082D01*
X126258519Y-78860725D01*
X126265800Y-78857137D01*
X126272921Y-78853338D01*
X126279867Y-78849352D01*
X126286638Y-78845178D01*
X126293234Y-78840817D01*
X126299654Y-78836267D01*
X126305899Y-78831530D01*
X126311969Y-78826605D01*
X126317864Y-78821493D01*
X126323584Y-78816192D01*
X126329128Y-78810704D01*
X126334497Y-78805028D01*
X126339691Y-78799165D01*
X126344709Y-78793113D01*
X126349553Y-78786874D01*
X126354221Y-78780447D01*
X126358714Y-78773833D01*
X126363051Y-78766961D01*
X126367250Y-78759965D01*
X126371311Y-78752843D01*
X126375234Y-78745596D01*
X126379020Y-78738224D01*
X126382668Y-78730727D01*
X126386179Y-78723105D01*
X126389552Y-78715358D01*
X126392787Y-78707486D01*
X126395885Y-78699488D01*
X126398844Y-78691366D01*
X126401667Y-78683118D01*
X126404351Y-78674746D01*
X126406898Y-78666248D01*
X126409307Y-78657625D01*
X126411578Y-78648882D01*
X126415708Y-78630809D01*
X126419288Y-78612236D01*
X126422317Y-78593162D01*
X126424795Y-78573588D01*
X126426722Y-78553513D01*
X126428099Y-78532937D01*
X126428925Y-78511861D01*
X126429200Y-78490285D01*
X126428925Y-78468708D01*
X126428099Y-78447632D01*
X126426722Y-78427057D01*
X126424795Y-78406982D01*
X126422317Y-78387407D01*
X126419288Y-78368333D01*
X126415708Y-78349760D01*
X126411578Y-78331688D01*
X126406898Y-78314141D01*
X126401666Y-78297145D01*
X126395884Y-78280700D01*
X126392786Y-78272684D01*
X126389551Y-78264806D01*
X126386178Y-78257065D01*
X126382668Y-78249462D01*
X126379020Y-78241997D01*
X126375234Y-78234669D01*
X126371310Y-78227480D01*
X126367249Y-78220428D01*
X126363050Y-78213513D01*
X126358714Y-78206737D01*
X126354221Y-78200026D01*
X126349552Y-78193509D01*
X126344709Y-78187185D01*
X126339690Y-78181056D01*
X126334496Y-78175121D01*
X126329127Y-78169380D01*
X126323583Y-78163832D01*
X126317863Y-78158479D01*
X126311969Y-78153319D01*
X126305899Y-78148354D01*
X126299654Y-78143582D01*
X126293233Y-78139004D01*
X126286638Y-78134620D01*
X126279867Y-78130430D01*
X126272921Y-78126434D01*
X126265800Y-78122632D01*
X126258519Y-78119043D01*
X126251094Y-78115686D01*
X126243525Y-78112560D01*
X126235813Y-78109666D01*
X126227956Y-78107004D01*
X126219956Y-78104573D01*
X126211811Y-78102373D01*
X126203523Y-78100405D01*
X126195091Y-78098669D01*
X126186515Y-78097164D01*
X126177795Y-78095890D01*
X126168931Y-78094848D01*
X126159923Y-78094038D01*
X126150771Y-78093459D01*
X126141475Y-78093112D01*
X126132035Y-78092996D01*
X126119645Y-78093203D01*
X126107505Y-78093822D01*
X126095615Y-78094855D01*
X126083976Y-78096301D01*
X126072587Y-78098159D01*
X126061448Y-78100431D01*
X126050560Y-78103116D01*
X126039922Y-78106214D01*
X126029534Y-78109724D01*
X126019397Y-78113648D01*
X126009509Y-78117985D01*
X125999873Y-78122735D01*
X125990486Y-78127897D01*
X125981350Y-78133473D01*
X125972464Y-78139462D01*
X125963828Y-78145863D01*
X125955562Y-78152509D01*
X125947583Y-78159430D01*
X125939893Y-78166626D01*
X125932490Y-78174097D01*
X125925375Y-78181844D01*
X125918548Y-78189867D01*
X125912008Y-78198164D01*
X125905757Y-78206737D01*
X125899793Y-78215586D01*
X125894118Y-78224710D01*
X125888730Y-78234109D01*
X125883630Y-78243783D01*
X125878818Y-78253733D01*
X125874293Y-78263958D01*
X125870057Y-78274458D01*
X125866108Y-78285234D01*
X125862423Y-78296266D01*
X125858975Y-78307537D01*
X125855764Y-78319045D01*
X125852792Y-78330790D01*
X125850057Y-78342774D01*
X125847561Y-78354995D01*
X125845302Y-78367454D01*
X125843280Y-78380151D01*
X125841497Y-78393086D01*
X125839951Y-78406259D01*
X125838643Y-78419669D01*
X125837573Y-78433317D01*
X125836147Y-78461325D01*
X125835671Y-78490285D01*
X125516878Y-78490285D01*
X125517516Y-78454151D01*
X125519431Y-78419026D01*
X125522623Y-78384915D01*
X125527091Y-78351819D01*
X125532835Y-78319735D01*
X125539856Y-78288666D01*
X125548154Y-78258611D01*
X125557728Y-78229569D01*
X125568579Y-78201541D01*
X125580707Y-78174527D01*
X125594111Y-78148526D01*
X125608791Y-78123540D01*
X125624748Y-78099567D01*
X125641982Y-78076607D01*
X125660492Y-78054662D01*
X125680279Y-78033730D01*
X125701286Y-78013846D01*
X125723257Y-77995246D01*
X125746191Y-77977928D01*
X125770090Y-77961893D01*
X125794951Y-77947141D01*
X125820777Y-77933671D01*
X125847566Y-77921484D01*
X125875319Y-77910580D01*
X125904036Y-77900959D01*
X125933716Y-77892621D01*
X125964360Y-77885565D01*
X125995967Y-77879792D01*
X126028539Y-77875303D01*
X126062074Y-77872095D01*
X126096572Y-77870171D01*
X126132035Y-77869530D01*
X126167591Y-77870168D01*
G37*
G36*
X129003551Y-77891536D02*
G01*
X129030149Y-77892681D01*
X129055990Y-77894590D01*
X129081074Y-77897262D01*
X129105401Y-77900698D01*
X129128971Y-77904897D01*
X129151783Y-77909859D01*
X129173838Y-77915585D01*
X129195136Y-77922074D01*
X129215677Y-77929327D01*
X129235461Y-77937343D01*
X129254487Y-77946122D01*
X129272757Y-77955665D01*
X129290269Y-77965971D01*
X129307024Y-77977040D01*
X129323022Y-77988873D01*
X129338250Y-78001467D01*
X129352495Y-78014817D01*
X129365759Y-78028925D01*
X129378039Y-78043790D01*
X129389338Y-78059412D01*
X129399653Y-78075791D01*
X129408987Y-78092928D01*
X129417338Y-78110822D01*
X129424706Y-78129473D01*
X129431092Y-78148881D01*
X129436496Y-78169047D01*
X129440917Y-78189969D01*
X129444355Y-78211650D01*
X129446811Y-78234087D01*
X129448285Y-78257281D01*
X129448776Y-78281233D01*
X129448285Y-78305187D01*
X129446811Y-78328391D01*
X129444355Y-78350843D01*
X129440917Y-78372544D01*
X129436496Y-78393495D01*
X129431092Y-78413694D01*
X129424706Y-78433143D01*
X129417338Y-78451841D01*
X129408987Y-78469788D01*
X129399653Y-78486984D01*
X129389338Y-78503430D01*
X129378039Y-78519124D01*
X129365759Y-78534068D01*
X129352495Y-78548261D01*
X129338250Y-78561703D01*
X129323022Y-78574394D01*
X129306930Y-78586227D01*
X129290094Y-78597297D01*
X129272513Y-78607603D01*
X129254187Y-78617146D01*
X129235117Y-78625925D01*
X129215302Y-78633941D01*
X129194742Y-78641194D01*
X129173438Y-78647683D01*
X129151389Y-78653409D01*
X129128595Y-78658371D01*
X129105057Y-78662570D01*
X129080774Y-78666005D01*
X129055746Y-78668678D01*
X129029974Y-78670586D01*
X129003457Y-78671731D01*
X128976195Y-78672113D01*
X128772745Y-78672113D01*
X128772745Y-79087025D01*
X128464366Y-79087025D01*
X128464366Y-78114626D01*
X128772745Y-78114626D01*
X128772745Y-78448637D01*
X128943355Y-78448637D01*
X128954312Y-78448472D01*
X128964957Y-78447974D01*
X128975288Y-78447145D01*
X128985307Y-78445984D01*
X128995012Y-78444492D01*
X129004405Y-78442668D01*
X129013485Y-78440512D01*
X129022252Y-78438025D01*
X129030706Y-78435206D01*
X129038848Y-78432055D01*
X129046676Y-78428572D01*
X129054191Y-78424758D01*
X129061394Y-78420612D01*
X129068284Y-78416135D01*
X129074861Y-78411325D01*
X129081124Y-78406184D01*
X129087138Y-78400628D01*
X129092764Y-78394771D01*
X129098002Y-78388613D01*
X129102851Y-78382155D01*
X129107313Y-78375397D01*
X129111387Y-78368338D01*
X129115073Y-78360980D01*
X129118370Y-78353320D01*
X129121280Y-78345360D01*
X129123802Y-78337100D01*
X129125936Y-78328540D01*
X129127682Y-78319679D01*
X129129040Y-78310518D01*
X129130010Y-78301057D01*
X129130592Y-78291295D01*
X129130786Y-78281233D01*
X129130592Y-78271174D01*
X129130010Y-78261421D01*
X129129040Y-78251975D01*
X129127682Y-78242835D01*
X129125936Y-78234002D01*
X129123802Y-78225476D01*
X129121280Y-78217257D01*
X129118370Y-78209344D01*
X129115073Y-78201738D01*
X129111387Y-78194438D01*
X129107313Y-78187445D01*
X129102851Y-78180759D01*
X129098002Y-78174379D01*
X129092764Y-78168305D01*
X129087138Y-78162539D01*
X129081124Y-78157079D01*
X129074861Y-78151938D01*
X129068284Y-78147128D01*
X129061394Y-78142651D01*
X129054191Y-78138505D01*
X129046676Y-78134691D01*
X129038848Y-78131208D01*
X129030706Y-78128057D01*
X129022252Y-78125238D01*
X129013485Y-78122751D01*
X129004405Y-78120595D01*
X128995012Y-78118771D01*
X128985307Y-78117279D01*
X128975288Y-78116118D01*
X128964957Y-78115289D01*
X128954312Y-78114791D01*
X128943355Y-78114626D01*
X128772745Y-78114626D01*
X128464366Y-78114626D01*
X128464366Y-77891155D01*
X128976195Y-77891155D01*
X129003551Y-77891536D01*
G37*
G36*
X93939451Y-78652145D02*
G01*
X93621362Y-78652145D01*
X93544100Y-78428577D01*
X93049296Y-78428577D01*
X92971212Y-78652145D01*
X92653124Y-78652145D01*
X92820263Y-78200899D01*
X93128202Y-78200899D01*
X93464373Y-78200899D01*
X93296698Y-77712672D01*
X93128202Y-78200899D01*
X92820263Y-78200899D01*
X93107653Y-77424999D01*
X93484921Y-77424999D01*
X93939451Y-78652145D01*
G37*
G36*
X127805845Y-77142423D02*
G01*
X127805845Y-76300760D01*
X128105850Y-76300760D01*
X128105850Y-77527906D01*
X127752419Y-77527906D01*
X127306109Y-76686243D01*
X127306109Y-77527906D01*
X127006103Y-77527906D01*
X127006103Y-76300760D01*
X127359535Y-76300760D01*
X127805845Y-77142423D01*
G37*
G36*
X124825820Y-76279518D02*
G01*
X124877782Y-76282369D01*
X124930411Y-76287121D01*
X124983708Y-76293774D01*
X125037673Y-76302327D01*
X125092306Y-76312781D01*
X125147607Y-76325135D01*
X125203576Y-76339391D01*
X125203576Y-76599121D01*
X125178208Y-76588074D01*
X125153065Y-76577738D01*
X125128147Y-76568116D01*
X125103453Y-76559207D01*
X125078985Y-76551010D01*
X125054741Y-76543526D01*
X125030722Y-76536755D01*
X125006928Y-76530697D01*
X124983358Y-76525351D01*
X124960013Y-76520718D01*
X124936893Y-76516798D01*
X124913998Y-76513591D01*
X124891327Y-76511096D01*
X124868881Y-76509315D01*
X124846660Y-76508245D01*
X124824664Y-76507889D01*
X124795742Y-76508416D01*
X124782091Y-76509074D01*
X124768978Y-76509995D01*
X124756405Y-76511180D01*
X124744372Y-76512628D01*
X124732877Y-76514340D01*
X124721923Y-76516314D01*
X124711507Y-76518552D01*
X124701631Y-76521053D01*
X124692294Y-76523818D01*
X124683497Y-76526846D01*
X124675239Y-76530137D01*
X124667521Y-76533691D01*
X124660342Y-76537509D01*
X124653702Y-76541590D01*
X124647531Y-76545812D01*
X124641758Y-76550258D01*
X124639021Y-76552566D01*
X124636384Y-76554930D01*
X124633846Y-76557350D01*
X124631407Y-76559826D01*
X124629068Y-76562359D01*
X124626829Y-76564947D01*
X124624689Y-76567592D01*
X124622648Y-76570293D01*
X124620707Y-76573050D01*
X124618866Y-76575864D01*
X124617124Y-76578733D01*
X124615482Y-76581659D01*
X124613939Y-76584641D01*
X124612496Y-76587679D01*
X124611152Y-76590773D01*
X124609908Y-76593924D01*
X124608764Y-76597131D01*
X124607719Y-76600394D01*
X124606773Y-76603713D01*
X124605927Y-76607088D01*
X124605181Y-76610519D01*
X124604534Y-76614007D01*
X124603538Y-76621151D01*
X124602941Y-76628520D01*
X124602742Y-76636113D01*
X124602896Y-76642490D01*
X124603359Y-76648673D01*
X124604129Y-76654664D01*
X124605208Y-76660463D01*
X124606595Y-76666068D01*
X124608290Y-76671482D01*
X124610294Y-76676702D01*
X124612605Y-76681730D01*
X124615225Y-76686565D01*
X124618153Y-76691208D01*
X124621390Y-76695658D01*
X124624934Y-76699915D01*
X124628787Y-76703980D01*
X124632948Y-76707852D01*
X124637418Y-76711531D01*
X124642195Y-76715018D01*
X124647326Y-76718277D01*
X124652854Y-76721479D01*
X124658781Y-76724622D01*
X124665106Y-76727707D01*
X124671830Y-76730735D01*
X124678951Y-76733705D01*
X124686470Y-76736617D01*
X124694388Y-76739471D01*
X124702703Y-76742267D01*
X124711417Y-76745005D01*
X124720529Y-76747686D01*
X124730039Y-76750309D01*
X124739947Y-76752874D01*
X124750253Y-76755381D01*
X124760958Y-76757830D01*
X124772060Y-76760222D01*
X124906857Y-76787345D01*
X124931094Y-76792447D01*
X124954491Y-76797889D01*
X124977046Y-76803672D01*
X124998759Y-76809794D01*
X125019632Y-76816258D01*
X125039663Y-76823061D01*
X125058854Y-76830205D01*
X125077203Y-76837689D01*
X125094711Y-76845513D01*
X125111377Y-76853678D01*
X125127203Y-76862183D01*
X125142187Y-76871028D01*
X125156330Y-76880213D01*
X125169632Y-76889738D01*
X125182092Y-76899604D01*
X125193712Y-76909810D01*
X125204660Y-76920384D01*
X125214902Y-76931554D01*
X125224438Y-76943321D01*
X125233268Y-76955686D01*
X125241391Y-76968648D01*
X125248807Y-76982206D01*
X125255518Y-76996362D01*
X125261522Y-77011115D01*
X125266819Y-77026465D01*
X125271410Y-77042412D01*
X125275295Y-77058957D01*
X125278474Y-77076098D01*
X125280946Y-77093836D01*
X125282712Y-77112172D01*
X125283772Y-77131105D01*
X125284125Y-77150635D01*
X125283637Y-77176488D01*
X125282173Y-77201441D01*
X125279733Y-77225496D01*
X125276316Y-77248651D01*
X125271924Y-77270908D01*
X125266556Y-77292265D01*
X125260212Y-77312724D01*
X125252891Y-77332283D01*
X125244595Y-77350944D01*
X125235322Y-77368705D01*
X125225074Y-77385567D01*
X125213849Y-77401531D01*
X125201649Y-77416595D01*
X125188472Y-77430760D01*
X125174320Y-77444027D01*
X125159191Y-77456394D01*
X125143131Y-77467939D01*
X125126185Y-77478739D01*
X125108353Y-77488795D01*
X125089635Y-77498106D01*
X125070030Y-77506672D01*
X125049540Y-77514493D01*
X125028163Y-77521569D01*
X125005900Y-77527900D01*
X124982751Y-77533487D01*
X124958716Y-77538329D01*
X124933795Y-77542425D01*
X124907987Y-77545777D01*
X124881294Y-77548384D01*
X124853714Y-77550247D01*
X124825248Y-77551364D01*
X124795896Y-77551736D01*
X124766804Y-77551393D01*
X124737680Y-77550362D01*
X124708524Y-77548645D01*
X124679336Y-77546240D01*
X124650115Y-77543148D01*
X124620863Y-77539369D01*
X124591578Y-77534903D01*
X124562261Y-77529750D01*
X124532912Y-77523910D01*
X124503531Y-77517383D01*
X124474118Y-77510169D01*
X124444673Y-77502267D01*
X124415196Y-77493679D01*
X124385687Y-77484403D01*
X124356145Y-77474441D01*
X124326572Y-77463791D01*
X124326572Y-77196663D01*
X124356219Y-77211892D01*
X124385571Y-77226138D01*
X124414628Y-77239401D01*
X124443389Y-77251682D01*
X124471855Y-77262981D01*
X124500025Y-77273297D01*
X124527901Y-77282630D01*
X124555480Y-77290981D01*
X124582765Y-77298350D01*
X124609754Y-77304736D01*
X124636447Y-77310139D01*
X124662845Y-77314560D01*
X124688948Y-77317999D01*
X124714755Y-77320455D01*
X124740267Y-77321929D01*
X124765484Y-77322420D01*
X124781396Y-77322227D01*
X124796666Y-77321649D01*
X124811294Y-77320686D01*
X124825279Y-77319337D01*
X124838623Y-77317603D01*
X124851324Y-77315483D01*
X124863384Y-77312978D01*
X124874801Y-77310088D01*
X124880359Y-77308411D01*
X124885730Y-77306671D01*
X124890915Y-77304866D01*
X124895914Y-77302997D01*
X124900727Y-77301063D01*
X124905354Y-77299066D01*
X124909794Y-77297005D01*
X124914048Y-77294879D01*
X124918116Y-77292690D01*
X124921998Y-77290436D01*
X124925693Y-77288118D01*
X124929203Y-77285736D01*
X124932526Y-77283290D01*
X124935663Y-77280780D01*
X124938613Y-77278206D01*
X124941378Y-77275568D01*
X124943998Y-77272800D01*
X124946515Y-77270046D01*
X124948929Y-77267304D01*
X124951241Y-77264575D01*
X124953450Y-77261859D01*
X124955556Y-77259155D01*
X124957559Y-77256465D01*
X124959460Y-77253787D01*
X124961258Y-77251122D01*
X124962953Y-77248470D01*
X124964546Y-77245831D01*
X124966036Y-77243204D01*
X124967423Y-77240591D01*
X124968707Y-77237990D01*
X124969889Y-77235402D01*
X124970967Y-77232827D01*
X124971963Y-77230248D01*
X124972894Y-77227650D01*
X124973761Y-77225033D01*
X124974564Y-77222397D01*
X124975302Y-77219742D01*
X124975976Y-77217067D01*
X124976587Y-77214374D01*
X124977132Y-77211661D01*
X124977614Y-77208929D01*
X124978031Y-77206177D01*
X124978385Y-77203407D01*
X124978673Y-77200617D01*
X124978898Y-77197808D01*
X124979059Y-77194980D01*
X124979155Y-77192132D01*
X124979187Y-77189266D01*
X124979020Y-77181683D01*
X124978519Y-77174343D01*
X124977685Y-77167248D01*
X124976516Y-77160397D01*
X124975013Y-77153789D01*
X124973177Y-77147426D01*
X124971006Y-77141306D01*
X124968502Y-77135430D01*
X124965664Y-77129799D01*
X124962492Y-77124411D01*
X124958986Y-77119267D01*
X124955146Y-77114368D01*
X124950972Y-77109712D01*
X124946464Y-77105301D01*
X124941622Y-77101133D01*
X124936446Y-77097209D01*
X124930972Y-77093440D01*
X124925029Y-77089735D01*
X124918617Y-77086094D01*
X124911737Y-77082518D01*
X124904388Y-77079005D01*
X124896570Y-77075557D01*
X124888283Y-77072174D01*
X124879527Y-77068854D01*
X124870303Y-77065598D01*
X124860610Y-77062407D01*
X124850448Y-77059280D01*
X124839818Y-77056217D01*
X124828718Y-77053219D01*
X124817150Y-77050284D01*
X124805114Y-77047414D01*
X124792608Y-77044608D01*
X124670140Y-77017485D01*
X124648590Y-77012483D01*
X124627707Y-77007134D01*
X124607493Y-77001438D01*
X124587946Y-76995396D01*
X124569067Y-76989007D01*
X124550856Y-76982271D01*
X124533313Y-76975188D01*
X124516438Y-76967759D01*
X124500230Y-76959982D01*
X124484691Y-76951859D01*
X124469819Y-76943389D01*
X124455615Y-76934573D01*
X124442079Y-76925410D01*
X124429210Y-76915900D01*
X124417010Y-76906043D01*
X124405477Y-76895839D01*
X124394628Y-76885186D01*
X124384479Y-76873981D01*
X124375030Y-76862223D01*
X124366281Y-76849914D01*
X124358232Y-76837052D01*
X124350882Y-76823638D01*
X124344233Y-76809671D01*
X124338284Y-76795152D01*
X124333034Y-76780081D01*
X124328485Y-76764458D01*
X124324635Y-76748283D01*
X124321486Y-76731555D01*
X124319036Y-76714275D01*
X124317286Y-76696442D01*
X124316236Y-76678058D01*
X124315886Y-76659121D01*
X124316361Y-76635757D01*
X124317787Y-76613131D01*
X124320163Y-76591244D01*
X124323489Y-76570095D01*
X124327766Y-76549685D01*
X124332993Y-76530013D01*
X124339170Y-76511080D01*
X124346298Y-76492885D01*
X124354376Y-76475428D01*
X124363404Y-76458710D01*
X124373383Y-76442731D01*
X124384312Y-76427490D01*
X124396192Y-76412987D01*
X124409022Y-76399223D01*
X124422802Y-76386198D01*
X124437532Y-76373911D01*
X124453104Y-76362366D01*
X124469408Y-76351565D01*
X124486444Y-76341510D01*
X124504212Y-76332199D01*
X124522712Y-76323633D01*
X124541944Y-76315812D01*
X124561908Y-76308736D01*
X124582604Y-76302404D01*
X124604032Y-76296818D01*
X124626192Y-76291976D01*
X124649084Y-76287879D01*
X124672708Y-76284527D01*
X124697064Y-76281920D01*
X124722153Y-76280058D01*
X124747973Y-76278940D01*
X124774525Y-76278568D01*
X124774526Y-76278568D01*
X124825820Y-76279518D01*
G37*
G36*
X91992610Y-77403757D02*
G01*
X92044572Y-77406608D01*
X92097201Y-77411360D01*
X92150498Y-77418013D01*
X92204463Y-77426566D01*
X92259096Y-77437020D01*
X92314397Y-77449374D01*
X92370366Y-77463630D01*
X92370366Y-77723360D01*
X92344998Y-77712313D01*
X92319855Y-77701977D01*
X92294937Y-77692355D01*
X92270243Y-77683446D01*
X92245775Y-77675249D01*
X92221531Y-77667765D01*
X92197512Y-77660994D01*
X92173718Y-77654936D01*
X92150148Y-77649590D01*
X92126803Y-77644957D01*
X92103683Y-77641037D01*
X92080788Y-77637830D01*
X92058117Y-77635335D01*
X92035671Y-77633554D01*
X92013450Y-77632484D01*
X91991454Y-77632128D01*
X91962532Y-77632655D01*
X91948881Y-77633313D01*
X91935768Y-77634234D01*
X91923195Y-77635419D01*
X91911162Y-77636867D01*
X91899667Y-77638579D01*
X91888713Y-77640553D01*
X91878297Y-77642791D01*
X91868421Y-77645292D01*
X91859084Y-77648057D01*
X91850287Y-77651085D01*
X91842029Y-77654376D01*
X91834311Y-77657930D01*
X91827132Y-77661748D01*
X91820492Y-77665829D01*
X91814321Y-77670051D01*
X91808548Y-77674497D01*
X91805811Y-77676805D01*
X91803174Y-77679169D01*
X91800636Y-77681589D01*
X91798197Y-77684065D01*
X91795858Y-77686598D01*
X91793619Y-77689186D01*
X91791479Y-77691831D01*
X91789438Y-77694532D01*
X91787497Y-77697289D01*
X91785656Y-77700103D01*
X91783914Y-77702972D01*
X91782272Y-77705898D01*
X91780729Y-77708880D01*
X91779286Y-77711918D01*
X91777942Y-77715012D01*
X91776698Y-77718163D01*
X91775554Y-77721370D01*
X91774509Y-77724633D01*
X91773563Y-77727952D01*
X91772717Y-77731327D01*
X91771971Y-77734758D01*
X91771324Y-77738246D01*
X91770328Y-77745390D01*
X91769731Y-77752759D01*
X91769532Y-77760352D01*
X91769686Y-77766729D01*
X91770149Y-77772912D01*
X91770919Y-77778903D01*
X91771998Y-77784702D01*
X91773385Y-77790307D01*
X91775080Y-77795721D01*
X91777084Y-77800941D01*
X91779395Y-77805969D01*
X91782015Y-77810804D01*
X91784943Y-77815447D01*
X91788180Y-77819897D01*
X91791724Y-77824154D01*
X91795577Y-77828219D01*
X91799738Y-77832091D01*
X91804208Y-77835770D01*
X91808985Y-77839257D01*
X91814116Y-77842516D01*
X91819644Y-77845718D01*
X91825571Y-77848861D01*
X91831896Y-77851946D01*
X91838620Y-77854974D01*
X91845741Y-77857944D01*
X91853260Y-77860856D01*
X91861178Y-77863710D01*
X91869493Y-77866506D01*
X91878207Y-77869244D01*
X91887319Y-77871925D01*
X91896829Y-77874548D01*
X91906737Y-77877113D01*
X91917043Y-77879620D01*
X91927748Y-77882069D01*
X91938850Y-77884461D01*
X92073647Y-77911584D01*
X92097884Y-77916686D01*
X92121281Y-77922128D01*
X92143836Y-77927911D01*
X92165549Y-77934033D01*
X92186422Y-77940497D01*
X92206453Y-77947300D01*
X92225644Y-77954444D01*
X92243993Y-77961928D01*
X92261501Y-77969752D01*
X92278167Y-77977917D01*
X92293993Y-77986422D01*
X92308977Y-77995267D01*
X92323120Y-78004452D01*
X92336422Y-78013977D01*
X92348882Y-78023843D01*
X92360502Y-78034049D01*
X92371450Y-78044623D01*
X92381692Y-78055793D01*
X92391228Y-78067560D01*
X92400058Y-78079925D01*
X92408181Y-78092887D01*
X92415597Y-78106445D01*
X92422308Y-78120601D01*
X92428312Y-78135354D01*
X92433609Y-78150704D01*
X92438200Y-78166651D01*
X92442085Y-78183196D01*
X92445264Y-78200337D01*
X92447736Y-78218075D01*
X92449502Y-78236411D01*
X92450562Y-78255344D01*
X92450915Y-78274874D01*
X92450427Y-78300727D01*
X92448963Y-78325680D01*
X92446523Y-78349735D01*
X92443106Y-78372890D01*
X92438714Y-78395147D01*
X92433346Y-78416504D01*
X92427002Y-78436963D01*
X92419681Y-78456522D01*
X92411385Y-78475183D01*
X92402112Y-78492944D01*
X92391864Y-78509806D01*
X92380639Y-78525770D01*
X92368439Y-78540834D01*
X92355262Y-78554999D01*
X92341110Y-78568266D01*
X92325981Y-78580633D01*
X92309921Y-78592178D01*
X92292975Y-78602978D01*
X92275143Y-78613034D01*
X92256425Y-78622345D01*
X92236820Y-78630911D01*
X92216330Y-78638732D01*
X92194953Y-78645808D01*
X92172690Y-78652139D01*
X92149541Y-78657726D01*
X92125506Y-78662568D01*
X92100585Y-78666664D01*
X92074777Y-78670016D01*
X92048084Y-78672623D01*
X92020504Y-78674486D01*
X91992038Y-78675603D01*
X91962686Y-78675975D01*
X91933594Y-78675632D01*
X91904470Y-78674601D01*
X91875314Y-78672884D01*
X91846126Y-78670479D01*
X91816905Y-78667387D01*
X91787653Y-78663608D01*
X91758368Y-78659142D01*
X91729051Y-78653989D01*
X91699702Y-78648149D01*
X91670321Y-78641622D01*
X91640908Y-78634408D01*
X91611463Y-78626506D01*
X91581986Y-78617918D01*
X91552477Y-78608642D01*
X91522935Y-78598680D01*
X91493362Y-78588030D01*
X91493362Y-78320902D01*
X91523009Y-78336131D01*
X91552361Y-78350377D01*
X91581418Y-78363640D01*
X91610179Y-78375921D01*
X91638645Y-78387220D01*
X91666815Y-78397536D01*
X91694691Y-78406869D01*
X91722270Y-78415220D01*
X91749555Y-78422589D01*
X91776544Y-78428975D01*
X91803237Y-78434378D01*
X91829635Y-78438799D01*
X91855738Y-78442238D01*
X91881545Y-78444694D01*
X91907057Y-78446168D01*
X91932274Y-78446659D01*
X91948186Y-78446466D01*
X91963456Y-78445888D01*
X91978084Y-78444925D01*
X91992069Y-78443576D01*
X92005413Y-78441842D01*
X92018114Y-78439722D01*
X92030174Y-78437217D01*
X92041591Y-78434327D01*
X92047149Y-78432650D01*
X92052520Y-78430910D01*
X92057705Y-78429105D01*
X92062704Y-78427236D01*
X92067517Y-78425302D01*
X92072144Y-78423305D01*
X92076584Y-78421244D01*
X92080838Y-78419118D01*
X92084906Y-78416929D01*
X92088788Y-78414675D01*
X92092483Y-78412357D01*
X92095993Y-78409975D01*
X92099316Y-78407529D01*
X92102453Y-78405019D01*
X92105403Y-78402445D01*
X92108168Y-78399807D01*
X92110788Y-78397039D01*
X92113305Y-78394285D01*
X92115719Y-78391543D01*
X92118031Y-78388814D01*
X92120240Y-78386098D01*
X92122346Y-78383394D01*
X92124349Y-78380704D01*
X92126250Y-78378026D01*
X92128048Y-78375361D01*
X92129743Y-78372709D01*
X92131336Y-78370070D01*
X92132826Y-78367443D01*
X92134213Y-78364830D01*
X92135497Y-78362229D01*
X92136679Y-78359641D01*
X92137757Y-78357066D01*
X92138753Y-78354487D01*
X92139684Y-78351889D01*
X92140551Y-78349272D01*
X92141354Y-78346636D01*
X92142092Y-78343981D01*
X92142766Y-78341306D01*
X92143377Y-78338613D01*
X92143922Y-78335900D01*
X92144404Y-78333168D01*
X92144821Y-78330416D01*
X92145175Y-78327646D01*
X92145463Y-78324856D01*
X92145688Y-78322047D01*
X92145849Y-78319219D01*
X92145945Y-78316371D01*
X92145977Y-78313505D01*
X92145810Y-78305922D01*
X92145309Y-78298582D01*
X92144475Y-78291487D01*
X92143306Y-78284636D01*
X92141803Y-78278028D01*
X92139967Y-78271665D01*
X92137796Y-78265545D01*
X92135292Y-78259669D01*
X92132454Y-78254038D01*
X92129282Y-78248650D01*
X92125776Y-78243506D01*
X92121936Y-78238607D01*
X92117762Y-78233951D01*
X92113254Y-78229540D01*
X92108412Y-78225372D01*
X92103236Y-78221448D01*
X92097762Y-78217679D01*
X92091819Y-78213974D01*
X92085407Y-78210333D01*
X92078527Y-78206757D01*
X92071178Y-78203244D01*
X92063360Y-78199796D01*
X92055073Y-78196413D01*
X92046317Y-78193093D01*
X92037093Y-78189837D01*
X92027400Y-78186646D01*
X92017238Y-78183519D01*
X92006608Y-78180456D01*
X91995508Y-78177458D01*
X91983940Y-78174523D01*
X91971904Y-78171653D01*
X91959398Y-78168847D01*
X91836930Y-78141724D01*
X91815380Y-78136722D01*
X91794497Y-78131373D01*
X91774283Y-78125677D01*
X91754736Y-78119635D01*
X91735857Y-78113246D01*
X91717646Y-78106510D01*
X91700103Y-78099427D01*
X91683228Y-78091998D01*
X91667020Y-78084221D01*
X91651481Y-78076098D01*
X91636609Y-78067628D01*
X91622405Y-78058812D01*
X91608869Y-78049649D01*
X91596000Y-78040139D01*
X91583800Y-78030282D01*
X91572267Y-78020078D01*
X91561418Y-78009425D01*
X91551269Y-77998220D01*
X91541820Y-77986462D01*
X91533071Y-77974153D01*
X91525022Y-77961291D01*
X91517672Y-77947877D01*
X91511023Y-77933910D01*
X91505074Y-77919391D01*
X91499824Y-77904320D01*
X91495275Y-77888697D01*
X91491425Y-77872522D01*
X91488276Y-77855794D01*
X91485826Y-77838514D01*
X91484076Y-77820681D01*
X91483026Y-77802297D01*
X91482676Y-77783360D01*
X91483151Y-77759996D01*
X91484577Y-77737370D01*
X91486953Y-77715483D01*
X91490279Y-77694334D01*
X91494556Y-77673924D01*
X91499783Y-77654252D01*
X91505960Y-77635319D01*
X91513088Y-77617124D01*
X91521166Y-77599667D01*
X91530194Y-77582949D01*
X91540173Y-77566970D01*
X91551102Y-77551729D01*
X91562982Y-77537226D01*
X91575812Y-77523462D01*
X91589592Y-77510437D01*
X91604322Y-77498150D01*
X91619894Y-77486605D01*
X91636198Y-77475804D01*
X91653234Y-77465749D01*
X91671002Y-77456438D01*
X91689502Y-77447872D01*
X91708734Y-77440051D01*
X91728698Y-77432975D01*
X91749394Y-77426643D01*
X91770822Y-77421057D01*
X91792982Y-77416215D01*
X91815874Y-77412118D01*
X91839498Y-77408766D01*
X91863854Y-77406159D01*
X91888943Y-77404297D01*
X91914763Y-77403179D01*
X91941315Y-77402807D01*
X91941316Y-77402807D01*
X91992610Y-77403757D01*
G37*
G36*
X89869194Y-77664181D02*
G01*
X89331649Y-77664181D01*
X89331649Y-77892678D01*
X89837139Y-77892678D01*
X89837139Y-78131860D01*
X89331649Y-78131860D01*
X89331649Y-78652145D01*
X89015205Y-78652145D01*
X89015205Y-77424999D01*
X89869194Y-77424999D01*
X89869194Y-77664181D01*
G37*
D12*
X121060000Y-74390000D02*
X121060000Y-79689552D01*
D11*
G36*
X92042039Y-78994116D02*
G01*
X92066541Y-78995158D01*
X92090824Y-78996894D01*
X92114888Y-78999326D01*
X92138733Y-79002451D01*
X92162359Y-79006272D01*
X92185766Y-79010786D01*
X92208954Y-79015996D01*
X92231922Y-79021900D01*
X92254672Y-79028499D01*
X92277203Y-79035793D01*
X92299515Y-79043781D01*
X92321608Y-79052464D01*
X92343482Y-79061841D01*
X92365136Y-79071913D01*
X92386572Y-79082680D01*
X92386572Y-79330184D01*
X92365703Y-79316508D01*
X92344746Y-79303714D01*
X92323701Y-79291802D01*
X92302569Y-79280773D01*
X92281349Y-79270626D01*
X92260041Y-79261361D01*
X92238646Y-79252979D01*
X92217164Y-79245479D01*
X92195593Y-79238862D01*
X92173936Y-79233127D01*
X92152190Y-79228274D01*
X92130357Y-79224303D01*
X92108437Y-79221215D01*
X92086428Y-79219009D01*
X92064332Y-79217686D01*
X92042149Y-79217244D01*
X92021417Y-79217664D01*
X92001274Y-79218922D01*
X91981719Y-79221018D01*
X91962752Y-79223953D01*
X91944373Y-79227726D01*
X91926582Y-79232338D01*
X91909380Y-79237789D01*
X91892766Y-79244078D01*
X91876740Y-79251206D01*
X91861302Y-79259172D01*
X91846452Y-79267976D01*
X91832191Y-79277619D01*
X91818518Y-79288101D01*
X91805433Y-79299421D01*
X91792937Y-79311579D01*
X91781028Y-79324576D01*
X91769777Y-79338193D01*
X91759251Y-79352411D01*
X91749452Y-79367229D01*
X91740378Y-79382648D01*
X91732031Y-79398668D01*
X91724409Y-79415289D01*
X91717513Y-79432510D01*
X91711343Y-79450332D01*
X91705899Y-79468755D01*
X91701180Y-79487778D01*
X91697188Y-79507402D01*
X91693921Y-79527627D01*
X91691381Y-79548452D01*
X91689566Y-79569878D01*
X91688477Y-79591905D01*
X91688114Y-79614533D01*
X91688477Y-79637161D01*
X91689566Y-79659187D01*
X91691381Y-79680614D01*
X91693921Y-79701439D01*
X91697188Y-79721664D01*
X91701180Y-79741288D01*
X91705899Y-79760311D01*
X91711343Y-79778734D01*
X91717513Y-79796556D01*
X91724409Y-79813777D01*
X91732031Y-79830398D01*
X91740378Y-79846417D01*
X91749452Y-79861837D01*
X91759251Y-79876655D01*
X91769777Y-79890873D01*
X91781028Y-79904490D01*
X91792937Y-79917390D01*
X91805433Y-79929458D01*
X91818518Y-79940694D01*
X91832191Y-79951097D01*
X91846452Y-79960669D01*
X91861302Y-79969407D01*
X91876740Y-79977314D01*
X91892766Y-79984388D01*
X91909380Y-79990630D01*
X91926582Y-79996040D01*
X91944373Y-80000617D01*
X91962752Y-80004362D01*
X91981719Y-80007275D01*
X92001274Y-80009356D01*
X92021417Y-80010604D01*
X92042149Y-80011020D01*
X92042148Y-80011011D01*
X92064519Y-80010570D01*
X92086778Y-80009247D01*
X92108924Y-80007041D01*
X92130957Y-80003952D01*
X92152878Y-79999982D01*
X92174686Y-79995129D01*
X92196381Y-79989394D01*
X92217964Y-79982776D01*
X92239434Y-79975276D01*
X92260792Y-79966894D01*
X92282036Y-79957630D01*
X92303169Y-79947483D01*
X92324188Y-79936454D01*
X92345095Y-79924542D01*
X92365890Y-79911748D01*
X92386571Y-79898072D01*
X92386571Y-80145575D01*
X92365136Y-80156342D01*
X92343481Y-80166414D01*
X92321607Y-80175792D01*
X92299514Y-80184475D01*
X92277203Y-80192463D01*
X92254672Y-80199756D01*
X92231922Y-80206355D01*
X92208953Y-80212260D01*
X92185765Y-80217469D01*
X92162358Y-80221984D01*
X92138732Y-80225804D01*
X92114887Y-80228930D01*
X92090823Y-80231361D01*
X92066541Y-80233098D01*
X92042039Y-80234140D01*
X92017318Y-80234487D01*
X91980266Y-80233839D01*
X91944203Y-80231896D01*
X91909129Y-80228658D01*
X91875043Y-80224124D01*
X91841946Y-80218296D01*
X91809838Y-80211171D01*
X91778718Y-80202752D01*
X91748588Y-80193037D01*
X91719445Y-80182027D01*
X91691292Y-80169721D01*
X91664127Y-80156120D01*
X91637951Y-80141224D01*
X91612764Y-80125032D01*
X91588566Y-80107545D01*
X91565356Y-80088763D01*
X91543135Y-80068685D01*
X91522087Y-80047387D01*
X91502397Y-80025145D01*
X91484065Y-80001957D01*
X91467091Y-79977825D01*
X91451475Y-79952747D01*
X91437217Y-79926725D01*
X91424317Y-79899757D01*
X91412775Y-79871845D01*
X91402590Y-79842987D01*
X91393764Y-79813185D01*
X91386295Y-79782438D01*
X91380185Y-79750746D01*
X91375432Y-79718109D01*
X91372037Y-79684527D01*
X91370000Y-79650000D01*
X91369321Y-79614528D01*
X91369997Y-79579057D01*
X91372025Y-79544530D01*
X91375404Y-79510948D01*
X91380135Y-79478311D01*
X91386217Y-79446619D01*
X91393651Y-79415872D01*
X91402437Y-79386069D01*
X91412574Y-79357212D01*
X91424064Y-79329300D01*
X91436904Y-79302332D01*
X91451097Y-79276310D01*
X91466641Y-79251232D01*
X91483537Y-79227100D01*
X91501784Y-79203912D01*
X91521383Y-79181669D01*
X91542334Y-79160372D01*
X91564558Y-79140198D01*
X91587778Y-79121325D01*
X91611992Y-79103753D01*
X91637201Y-79087484D01*
X91663405Y-79072515D01*
X91690604Y-79058849D01*
X91718798Y-79046484D01*
X91747987Y-79035420D01*
X91778171Y-79025658D01*
X91809350Y-79017198D01*
X91841524Y-79010039D01*
X91874693Y-79004182D01*
X91908857Y-78999626D01*
X91944016Y-78996372D01*
X91980169Y-78994420D01*
X92017318Y-78993769D01*
X92042039Y-78994116D01*
G37*
G36*
X94760152Y-79015752D02*
G01*
X94790590Y-79016840D01*
X94819826Y-79018655D01*
X94847860Y-79021195D01*
X94874693Y-79024461D01*
X94900325Y-79028453D01*
X94924755Y-79033172D01*
X94947984Y-79038616D01*
X94959144Y-79041604D01*
X94969998Y-79044761D01*
X94980546Y-79048087D01*
X94990786Y-79051582D01*
X95000720Y-79055245D01*
X95010348Y-79059078D01*
X95019669Y-79063080D01*
X95028683Y-79067250D01*
X95037390Y-79071590D01*
X95045791Y-79076098D01*
X95053886Y-79080776D01*
X95061673Y-79085622D01*
X95069154Y-79090638D01*
X95076329Y-79095823D01*
X95083196Y-79101176D01*
X95089758Y-79106699D01*
X95096050Y-79112360D01*
X95102110Y-79118126D01*
X95107939Y-79123999D01*
X95113537Y-79129979D01*
X95118903Y-79136065D01*
X95124037Y-79142257D01*
X95128940Y-79148555D01*
X95133612Y-79154960D01*
X95138052Y-79161471D01*
X95142260Y-79168088D01*
X95146237Y-79174812D01*
X95149982Y-79181642D01*
X95153496Y-79188578D01*
X95156778Y-79195621D01*
X95159828Y-79202770D01*
X95162647Y-79210025D01*
X95165363Y-79217313D01*
X95167904Y-79224756D01*
X95170269Y-79232356D01*
X95172459Y-79240113D01*
X95174474Y-79248025D01*
X95176314Y-79256095D01*
X95177979Y-79264320D01*
X95179468Y-79272702D01*
X95180782Y-79281241D01*
X95181921Y-79289936D01*
X95182885Y-79298787D01*
X95183674Y-79307795D01*
X95184287Y-79316959D01*
X95184725Y-79326280D01*
X95184988Y-79335757D01*
X95185075Y-79345391D01*
X95185075Y-79345395D01*
X95184177Y-79374096D01*
X95181483Y-79401527D01*
X95176994Y-79427687D01*
X95170708Y-79452577D01*
X95166891Y-79464545D01*
X95162626Y-79476196D01*
X95157912Y-79487529D01*
X95152748Y-79498545D01*
X95147136Y-79509243D01*
X95141074Y-79519624D01*
X95134564Y-79529687D01*
X95127605Y-79539432D01*
X95120196Y-79548860D01*
X95112339Y-79557970D01*
X95104033Y-79566763D01*
X95095278Y-79575238D01*
X95086073Y-79583396D01*
X95076420Y-79591236D01*
X95066318Y-79598758D01*
X95055766Y-79605963D01*
X95033317Y-79619420D01*
X95009072Y-79631607D01*
X94983030Y-79642524D01*
X94955193Y-79652170D01*
X94963822Y-79654326D01*
X94972289Y-79656788D01*
X94980593Y-79659557D01*
X94988734Y-79662633D01*
X94996712Y-79666015D01*
X95004528Y-79669704D01*
X95012181Y-79673700D01*
X95019672Y-79678002D01*
X95026999Y-79682611D01*
X95034164Y-79687526D01*
X95041167Y-79692748D01*
X95048006Y-79698277D01*
X95054683Y-79704112D01*
X95061198Y-79710254D01*
X95067549Y-79716703D01*
X95073738Y-79723458D01*
X95079933Y-79730513D01*
X95086103Y-79737863D01*
X95092248Y-79745507D01*
X95098369Y-79753445D01*
X95104464Y-79761676D01*
X95110533Y-79770202D01*
X95116578Y-79779023D01*
X95122598Y-79788137D01*
X95128593Y-79797545D01*
X95134563Y-79807248D01*
X95146428Y-79827535D01*
X95158192Y-79849000D01*
X95169856Y-79871640D01*
X95337262Y-80211260D01*
X95008858Y-80211260D01*
X94863079Y-79914093D01*
X94857954Y-79903772D01*
X94852792Y-79893832D01*
X94847591Y-79884273D01*
X94842354Y-79875096D01*
X94837079Y-79866301D01*
X94831766Y-79857888D01*
X94826416Y-79849856D01*
X94821028Y-79842206D01*
X94815602Y-79834937D01*
X94810139Y-79828050D01*
X94804639Y-79821545D01*
X94799101Y-79815422D01*
X94793525Y-79809680D01*
X94787912Y-79804320D01*
X94782261Y-79799342D01*
X94776573Y-79794745D01*
X94770834Y-79790381D01*
X94764833Y-79786298D01*
X94758569Y-79782496D01*
X94752043Y-79778977D01*
X94745253Y-79775738D01*
X94738201Y-79772781D01*
X94730885Y-79770106D01*
X94723307Y-79767713D01*
X94715466Y-79765601D01*
X94707363Y-79763770D01*
X94698996Y-79762221D01*
X94690367Y-79760954D01*
X94681474Y-79759968D01*
X94672319Y-79759264D01*
X94662902Y-79758842D01*
X94653221Y-79758701D01*
X94565913Y-79758701D01*
X94565913Y-80211260D01*
X94257535Y-80211260D01*
X94257535Y-79238865D01*
X94565915Y-79238865D01*
X94565915Y-79545639D01*
X94695674Y-79545639D01*
X94707955Y-79545492D01*
X94719766Y-79545051D01*
X94731108Y-79544316D01*
X94741981Y-79543287D01*
X94752384Y-79541963D01*
X94762318Y-79540346D01*
X94771783Y-79538434D01*
X94780778Y-79536228D01*
X94789304Y-79533729D01*
X94797361Y-79530935D01*
X94804949Y-79527846D01*
X94812067Y-79524464D01*
X94818716Y-79520787D01*
X94824895Y-79516817D01*
X94830605Y-79512552D01*
X94835846Y-79507993D01*
X94840793Y-79503124D01*
X94845421Y-79497930D01*
X94849729Y-79492411D01*
X94853718Y-79486566D01*
X94857388Y-79480396D01*
X94860739Y-79473901D01*
X94863771Y-79467080D01*
X94866484Y-79459934D01*
X94868878Y-79452462D01*
X94870952Y-79444665D01*
X94872707Y-79436542D01*
X94874143Y-79428095D01*
X94875260Y-79419321D01*
X94876058Y-79410222D01*
X94876537Y-79400798D01*
X94876697Y-79391048D01*
X94876696Y-79391053D01*
X94876524Y-79380736D01*
X94876008Y-79370814D01*
X94875147Y-79361287D01*
X94873943Y-79352153D01*
X94872394Y-79343414D01*
X94870501Y-79335069D01*
X94868264Y-79327119D01*
X94865683Y-79319563D01*
X94862757Y-79312401D01*
X94859487Y-79305633D01*
X94855874Y-79299260D01*
X94851916Y-79293280D01*
X94847614Y-79287696D01*
X94842967Y-79282505D01*
X94837977Y-79277709D01*
X94832642Y-79273307D01*
X94826944Y-79269136D01*
X94820865Y-79265234D01*
X94814404Y-79261602D01*
X94807561Y-79258238D01*
X94800337Y-79255144D01*
X94792731Y-79252319D01*
X94784743Y-79249762D01*
X94776373Y-79247475D01*
X94767622Y-79245457D01*
X94758489Y-79243708D01*
X94748974Y-79242228D01*
X94739077Y-79241017D01*
X94728799Y-79240075D01*
X94718139Y-79239403D01*
X94707097Y-79238999D01*
X94695674Y-79238865D01*
X94565915Y-79238865D01*
X94257535Y-79238865D01*
X94257535Y-79015389D01*
X94728513Y-79015389D01*
X94760152Y-79015752D01*
G37*
D10*
X118624398Y-83559819D02*
X118814874Y-83559819D01*
X118814874Y-83559819D02*
X118910112Y-83512200D01*
X118910112Y-83512200D02*
X118957731Y-83464580D01*
X118957731Y-83464580D02*
X119052969Y-83321723D01*
X119052969Y-83321723D02*
X119100588Y-83131247D01*
X119100588Y-83131247D02*
X119100588Y-82750295D01*
X119100588Y-82750295D02*
X119052969Y-82655057D01*
X119052969Y-82655057D02*
X119005350Y-82607438D01*
X119005350Y-82607438D02*
X118910112Y-82559819D01*
X118910112Y-82559819D02*
X118719636Y-82559819D01*
X118719636Y-82559819D02*
X118624398Y-82607438D01*
X118624398Y-82607438D02*
X118576779Y-82655057D01*
X118576779Y-82655057D02*
X118529160Y-82750295D01*
X118529160Y-82750295D02*
X118529160Y-82988390D01*
X118529160Y-82988390D02*
X118576779Y-83083628D01*
X118576779Y-83083628D02*
X118624398Y-83131247D01*
X118624398Y-83131247D02*
X118719636Y-83178866D01*
X118719636Y-83178866D02*
X118910112Y-83178866D01*
X118910112Y-83178866D02*
X119005350Y-83131247D01*
X119005350Y-83131247D02*
X119052969Y-83083628D01*
X119052969Y-83083628D02*
X119100588Y-82988390D01*
X119529160Y-83464580D02*
X119576779Y-83512200D01*
X119576779Y-83512200D02*
X119529160Y-83559819D01*
X119529160Y-83559819D02*
X119481541Y-83512200D01*
X119481541Y-83512200D02*
X119529160Y-83464580D01*
X119529160Y-83464580D02*
X119529160Y-83559819D01*
X119910112Y-82559819D02*
X120576778Y-82559819D01*
X120576778Y-82559819D02*
X120148207Y-83559819D01*
X120910112Y-82559819D02*
X120910112Y-82750295D01*
X121291064Y-82559819D02*
X121291064Y-82750295D01*
X122338684Y-82893152D02*
X122719636Y-82893152D01*
X122481541Y-82559819D02*
X122481541Y-83416961D01*
X122481541Y-83416961D02*
X122529160Y-83512200D01*
X122529160Y-83512200D02*
X122624398Y-83559819D01*
X122624398Y-83559819D02*
X122719636Y-83559819D01*
X123195827Y-83559819D02*
X123100589Y-83512200D01*
X123100589Y-83512200D02*
X123052970Y-83464580D01*
X123052970Y-83464580D02*
X123005351Y-83369342D01*
X123005351Y-83369342D02*
X123005351Y-83083628D01*
X123005351Y-83083628D02*
X123052970Y-82988390D01*
X123052970Y-82988390D02*
X123100589Y-82940771D01*
X123100589Y-82940771D02*
X123195827Y-82893152D01*
X123195827Y-82893152D02*
X123338684Y-82893152D01*
X123338684Y-82893152D02*
X123433922Y-82940771D01*
X123433922Y-82940771D02*
X123481541Y-82988390D01*
X123481541Y-82988390D02*
X123529160Y-83083628D01*
X123529160Y-83083628D02*
X123529160Y-83369342D01*
X123529160Y-83369342D02*
X123481541Y-83464580D01*
X123481541Y-83464580D02*
X123433922Y-83512200D01*
X123433922Y-83512200D02*
X123338684Y-83559819D01*
X123338684Y-83559819D02*
X123195827Y-83559819D01*
X125148208Y-82559819D02*
X124957732Y-82559819D01*
X124957732Y-82559819D02*
X124862494Y-82607438D01*
X124862494Y-82607438D02*
X124814875Y-82655057D01*
X124814875Y-82655057D02*
X124719637Y-82797914D01*
X124719637Y-82797914D02*
X124672018Y-82988390D01*
X124672018Y-82988390D02*
X124672018Y-83369342D01*
X124672018Y-83369342D02*
X124719637Y-83464580D01*
X124719637Y-83464580D02*
X124767256Y-83512200D01*
X124767256Y-83512200D02*
X124862494Y-83559819D01*
X124862494Y-83559819D02*
X125052970Y-83559819D01*
X125052970Y-83559819D02*
X125148208Y-83512200D01*
X125148208Y-83512200D02*
X125195827Y-83464580D01*
X125195827Y-83464580D02*
X125243446Y-83369342D01*
X125243446Y-83369342D02*
X125243446Y-83131247D01*
X125243446Y-83131247D02*
X125195827Y-83036009D01*
X125195827Y-83036009D02*
X125148208Y-82988390D01*
X125148208Y-82988390D02*
X125052970Y-82940771D01*
X125052970Y-82940771D02*
X124862494Y-82940771D01*
X124862494Y-82940771D02*
X124767256Y-82988390D01*
X124767256Y-82988390D02*
X124719637Y-83036009D01*
X124719637Y-83036009D02*
X124672018Y-83131247D01*
X125624399Y-82559819D02*
X125624399Y-82750295D01*
X126005351Y-82559819D02*
X126005351Y-82750295D01*
X127148209Y-83274104D02*
X127624399Y-83274104D01*
X127052971Y-83559819D02*
X127386304Y-82559819D01*
X127386304Y-82559819D02*
X127719637Y-83559819D01*
X128052971Y-83559819D02*
X128052971Y-82559819D01*
X128052971Y-82559819D02*
X128291066Y-82559819D01*
X128291066Y-82559819D02*
X128433923Y-82607438D01*
X128433923Y-82607438D02*
X128529161Y-82702676D01*
X128529161Y-82702676D02*
X128576780Y-82797914D01*
X128576780Y-82797914D02*
X128624399Y-82988390D01*
X128624399Y-82988390D02*
X128624399Y-83131247D01*
X128624399Y-83131247D02*
X128576780Y-83321723D01*
X128576780Y-83321723D02*
X128529161Y-83416961D01*
X128529161Y-83416961D02*
X128433923Y-83512200D01*
X128433923Y-83512200D02*
X128291066Y-83559819D01*
X128291066Y-83559819D02*
X128052971Y-83559819D01*
X129005352Y-83274104D02*
X129481542Y-83274104D01*
X128910114Y-83559819D02*
X129243447Y-82559819D01*
X129243447Y-82559819D02*
X129576780Y-83559819D01*
X129910114Y-83559819D02*
X129910114Y-82559819D01*
X129910114Y-82559819D02*
X130291066Y-82559819D01*
X130291066Y-82559819D02*
X130386304Y-82607438D01*
X130386304Y-82607438D02*
X130433923Y-82655057D01*
X130433923Y-82655057D02*
X130481542Y-82750295D01*
X130481542Y-82750295D02*
X130481542Y-82893152D01*
X130481542Y-82893152D02*
X130433923Y-82988390D01*
X130433923Y-82988390D02*
X130386304Y-83036009D01*
X130386304Y-83036009D02*
X130291066Y-83083628D01*
X130291066Y-83083628D02*
X129910114Y-83083628D01*
X130767257Y-82559819D02*
X131338685Y-82559819D01*
X131052971Y-83559819D02*
X131052971Y-82559819D01*
X131672019Y-83036009D02*
X132005352Y-83036009D01*
X132148209Y-83559819D02*
X131672019Y-83559819D01*
X131672019Y-83559819D02*
X131672019Y-82559819D01*
X131672019Y-82559819D02*
X132148209Y-82559819D01*
X133148209Y-83559819D02*
X132814876Y-83083628D01*
X132576781Y-83559819D02*
X132576781Y-82559819D01*
X132576781Y-82559819D02*
X132957733Y-82559819D01*
X132957733Y-82559819D02*
X133052971Y-82607438D01*
X133052971Y-82607438D02*
X133100590Y-82655057D01*
X133100590Y-82655057D02*
X133148209Y-82750295D01*
X133148209Y-82750295D02*
X133148209Y-82893152D01*
X133148209Y-82893152D02*
X133100590Y-82988390D01*
X133100590Y-82988390D02*
X133052971Y-83036009D01*
X133052971Y-83036009D02*
X132957733Y-83083628D01*
X132957733Y-83083628D02*
X132576781Y-83083628D01*
X88366779Y-71243152D02*
X88366779Y-72243152D01*
X88366779Y-71290771D02*
X88462017Y-71243152D01*
X88462017Y-71243152D02*
X88652493Y-71243152D01*
X88652493Y-71243152D02*
X88747731Y-71290771D01*
X88747731Y-71290771D02*
X88795350Y-71338390D01*
X88795350Y-71338390D02*
X88842969Y-71433628D01*
X88842969Y-71433628D02*
X88842969Y-71719342D01*
X88842969Y-71719342D02*
X88795350Y-71814580D01*
X88795350Y-71814580D02*
X88747731Y-71862200D01*
X88747731Y-71862200D02*
X88652493Y-71909819D01*
X88652493Y-71909819D02*
X88462017Y-71909819D01*
X88462017Y-71909819D02*
X88366779Y-71862200D01*
X89271541Y-71909819D02*
X89271541Y-71243152D01*
X89271541Y-70909819D02*
X89223922Y-70957438D01*
X89223922Y-70957438D02*
X89271541Y-71005057D01*
X89271541Y-71005057D02*
X89319160Y-70957438D01*
X89319160Y-70957438D02*
X89271541Y-70909819D01*
X89271541Y-70909819D02*
X89271541Y-71005057D01*
X89747731Y-71243152D02*
X89747731Y-71909819D01*
X89747731Y-71338390D02*
X89795350Y-71290771D01*
X89795350Y-71290771D02*
X89890588Y-71243152D01*
X89890588Y-71243152D02*
X90033445Y-71243152D01*
X90033445Y-71243152D02*
X90128683Y-71290771D01*
X90128683Y-71290771D02*
X90176302Y-71386009D01*
X90176302Y-71386009D02*
X90176302Y-71909819D01*
X91842969Y-70909819D02*
X91652493Y-70909819D01*
X91652493Y-70909819D02*
X91557255Y-70957438D01*
X91557255Y-70957438D02*
X91509636Y-71005057D01*
X91509636Y-71005057D02*
X91414398Y-71147914D01*
X91414398Y-71147914D02*
X91366779Y-71338390D01*
X91366779Y-71338390D02*
X91366779Y-71719342D01*
X91366779Y-71719342D02*
X91414398Y-71814580D01*
X91414398Y-71814580D02*
X91462017Y-71862200D01*
X91462017Y-71862200D02*
X91557255Y-71909819D01*
X91557255Y-71909819D02*
X91747731Y-71909819D01*
X91747731Y-71909819D02*
X91842969Y-71862200D01*
X91842969Y-71862200D02*
X91890588Y-71814580D01*
X91890588Y-71814580D02*
X91938207Y-71719342D01*
X91938207Y-71719342D02*
X91938207Y-71481247D01*
X91938207Y-71481247D02*
X91890588Y-71386009D01*
X91890588Y-71386009D02*
X91842969Y-71338390D01*
X91842969Y-71338390D02*
X91747731Y-71290771D01*
X91747731Y-71290771D02*
X91557255Y-71290771D01*
X91557255Y-71290771D02*
X91462017Y-71338390D01*
X91462017Y-71338390D02*
X91414398Y-71386009D01*
X91414398Y-71386009D02*
X91366779Y-71481247D01*
X92319160Y-70909819D02*
X92319160Y-71100295D01*
X92700112Y-70909819D02*
X92700112Y-71100295D01*
X93176303Y-71862200D02*
X93176303Y-71909819D01*
X93176303Y-71909819D02*
X93128684Y-72005057D01*
X93128684Y-72005057D02*
X93081065Y-72052676D01*
X94509636Y-71338390D02*
X94414398Y-71290771D01*
X94414398Y-71290771D02*
X94366779Y-71243152D01*
X94366779Y-71243152D02*
X94319160Y-71147914D01*
X94319160Y-71147914D02*
X94319160Y-71100295D01*
X94319160Y-71100295D02*
X94366779Y-71005057D01*
X94366779Y-71005057D02*
X94414398Y-70957438D01*
X94414398Y-70957438D02*
X94509636Y-70909819D01*
X94509636Y-70909819D02*
X94700112Y-70909819D01*
X94700112Y-70909819D02*
X94795350Y-70957438D01*
X94795350Y-70957438D02*
X94842969Y-71005057D01*
X94842969Y-71005057D02*
X94890588Y-71100295D01*
X94890588Y-71100295D02*
X94890588Y-71147914D01*
X94890588Y-71147914D02*
X94842969Y-71243152D01*
X94842969Y-71243152D02*
X94795350Y-71290771D01*
X94795350Y-71290771D02*
X94700112Y-71338390D01*
X94700112Y-71338390D02*
X94509636Y-71338390D01*
X94509636Y-71338390D02*
X94414398Y-71386009D01*
X94414398Y-71386009D02*
X94366779Y-71433628D01*
X94366779Y-71433628D02*
X94319160Y-71528866D01*
X94319160Y-71528866D02*
X94319160Y-71719342D01*
X94319160Y-71719342D02*
X94366779Y-71814580D01*
X94366779Y-71814580D02*
X94414398Y-71862200D01*
X94414398Y-71862200D02*
X94509636Y-71909819D01*
X94509636Y-71909819D02*
X94700112Y-71909819D01*
X94700112Y-71909819D02*
X94795350Y-71862200D01*
X94795350Y-71862200D02*
X94842969Y-71814580D01*
X94842969Y-71814580D02*
X94890588Y-71719342D01*
X94890588Y-71719342D02*
X94890588Y-71528866D01*
X94890588Y-71528866D02*
X94842969Y-71433628D01*
X94842969Y-71433628D02*
X94795350Y-71386009D01*
X94795350Y-71386009D02*
X94700112Y-71338390D01*
X96081065Y-71909819D02*
X96081065Y-70909819D01*
X96081065Y-71290771D02*
X96176303Y-71243152D01*
X96176303Y-71243152D02*
X96366779Y-71243152D01*
X96366779Y-71243152D02*
X96462017Y-71290771D01*
X96462017Y-71290771D02*
X96509636Y-71338390D01*
X96509636Y-71338390D02*
X96557255Y-71433628D01*
X96557255Y-71433628D02*
X96557255Y-71719342D01*
X96557255Y-71719342D02*
X96509636Y-71814580D01*
X96509636Y-71814580D02*
X96462017Y-71862200D01*
X96462017Y-71862200D02*
X96366779Y-71909819D01*
X96366779Y-71909819D02*
X96176303Y-71909819D01*
X96176303Y-71909819D02*
X96081065Y-71862200D01*
X96985827Y-71909819D02*
X96985827Y-71243152D01*
X96985827Y-70909819D02*
X96938208Y-70957438D01*
X96938208Y-70957438D02*
X96985827Y-71005057D01*
X96985827Y-71005057D02*
X97033446Y-70957438D01*
X97033446Y-70957438D02*
X96985827Y-70909819D01*
X96985827Y-70909819D02*
X96985827Y-71005057D01*
X97319160Y-71243152D02*
X97700112Y-71243152D01*
X97462017Y-70909819D02*
X97462017Y-71766961D01*
X97462017Y-71766961D02*
X97509636Y-71862200D01*
X97509636Y-71862200D02*
X97604874Y-71909819D01*
X97604874Y-71909819D02*
X97700112Y-71909819D01*
X84165350Y-82893152D02*
X84165350Y-83559819D01*
X83927255Y-82512200D02*
X83689160Y-83226485D01*
X83689160Y-83226485D02*
X84308207Y-83226485D01*
X84879636Y-82559819D02*
X84974874Y-82559819D01*
X84974874Y-82559819D02*
X85070112Y-82607438D01*
X85070112Y-82607438D02*
X85117731Y-82655057D01*
X85117731Y-82655057D02*
X85165350Y-82750295D01*
X85165350Y-82750295D02*
X85212969Y-82940771D01*
X85212969Y-82940771D02*
X85212969Y-83178866D01*
X85212969Y-83178866D02*
X85165350Y-83369342D01*
X85165350Y-83369342D02*
X85117731Y-83464580D01*
X85117731Y-83464580D02*
X85070112Y-83512200D01*
X85070112Y-83512200D02*
X84974874Y-83559819D01*
X84974874Y-83559819D02*
X84879636Y-83559819D01*
X84879636Y-83559819D02*
X84784398Y-83512200D01*
X84784398Y-83512200D02*
X84736779Y-83464580D01*
X84736779Y-83464580D02*
X84689160Y-83369342D01*
X84689160Y-83369342D02*
X84641541Y-83178866D01*
X84641541Y-83178866D02*
X84641541Y-82940771D01*
X84641541Y-82940771D02*
X84689160Y-82750295D01*
X84689160Y-82750295D02*
X84736779Y-82655057D01*
X84736779Y-82655057D02*
X84784398Y-82607438D01*
X84784398Y-82607438D02*
X84879636Y-82559819D01*
X86403446Y-82893152D02*
X86403446Y-83893152D01*
X86403446Y-82940771D02*
X86498684Y-82893152D01*
X86498684Y-82893152D02*
X86689160Y-82893152D01*
X86689160Y-82893152D02*
X86784398Y-82940771D01*
X86784398Y-82940771D02*
X86832017Y-82988390D01*
X86832017Y-82988390D02*
X86879636Y-83083628D01*
X86879636Y-83083628D02*
X86879636Y-83369342D01*
X86879636Y-83369342D02*
X86832017Y-83464580D01*
X86832017Y-83464580D02*
X86784398Y-83512200D01*
X86784398Y-83512200D02*
X86689160Y-83559819D01*
X86689160Y-83559819D02*
X86498684Y-83559819D01*
X86498684Y-83559819D02*
X86403446Y-83512200D01*
X87308208Y-83559819D02*
X87308208Y-82893152D01*
X87308208Y-82559819D02*
X87260589Y-82607438D01*
X87260589Y-82607438D02*
X87308208Y-82655057D01*
X87308208Y-82655057D02*
X87355827Y-82607438D01*
X87355827Y-82607438D02*
X87308208Y-82559819D01*
X87308208Y-82559819D02*
X87308208Y-82655057D01*
X87784398Y-82893152D02*
X87784398Y-83559819D01*
X87784398Y-82988390D02*
X87832017Y-82940771D01*
X87832017Y-82940771D02*
X87927255Y-82893152D01*
X87927255Y-82893152D02*
X88070112Y-82893152D01*
X88070112Y-82893152D02*
X88165350Y-82940771D01*
X88165350Y-82940771D02*
X88212969Y-83036009D01*
X88212969Y-83036009D02*
X88212969Y-83559819D01*
X89974874Y-83559819D02*
X89403446Y-83559819D01*
X89689160Y-83559819D02*
X89689160Y-82559819D01*
X89689160Y-82559819D02*
X89593922Y-82702676D01*
X89593922Y-82702676D02*
X89498684Y-82797914D01*
X89498684Y-82797914D02*
X89403446Y-82845533D01*
X90832017Y-82559819D02*
X90641541Y-82559819D01*
X90641541Y-82559819D02*
X90546303Y-82607438D01*
X90546303Y-82607438D02*
X90498684Y-82655057D01*
X90498684Y-82655057D02*
X90403446Y-82797914D01*
X90403446Y-82797914D02*
X90355827Y-82988390D01*
X90355827Y-82988390D02*
X90355827Y-83369342D01*
X90355827Y-83369342D02*
X90403446Y-83464580D01*
X90403446Y-83464580D02*
X90451065Y-83512200D01*
X90451065Y-83512200D02*
X90546303Y-83559819D01*
X90546303Y-83559819D02*
X90736779Y-83559819D01*
X90736779Y-83559819D02*
X90832017Y-83512200D01*
X90832017Y-83512200D02*
X90879636Y-83464580D01*
X90879636Y-83464580D02*
X90927255Y-83369342D01*
X90927255Y-83369342D02*
X90927255Y-83131247D01*
X90927255Y-83131247D02*
X90879636Y-83036009D01*
X90879636Y-83036009D02*
X90832017Y-82988390D01*
X90832017Y-82988390D02*
X90736779Y-82940771D01*
X90736779Y-82940771D02*
X90546303Y-82940771D01*
X90546303Y-82940771D02*
X90451065Y-82988390D01*
X90451065Y-82988390D02*
X90403446Y-83036009D01*
X90403446Y-83036009D02*
X90355827Y-83131247D01*
X92117732Y-83559819D02*
X92117732Y-82559819D01*
X92117732Y-82940771D02*
X92212970Y-82893152D01*
X92212970Y-82893152D02*
X92403446Y-82893152D01*
X92403446Y-82893152D02*
X92498684Y-82940771D01*
X92498684Y-82940771D02*
X92546303Y-82988390D01*
X92546303Y-82988390D02*
X92593922Y-83083628D01*
X92593922Y-83083628D02*
X92593922Y-83369342D01*
X92593922Y-83369342D02*
X92546303Y-83464580D01*
X92546303Y-83464580D02*
X92498684Y-83512200D01*
X92498684Y-83512200D02*
X92403446Y-83559819D01*
X92403446Y-83559819D02*
X92212970Y-83559819D01*
X92212970Y-83559819D02*
X92117732Y-83512200D01*
X93022494Y-83559819D02*
X93022494Y-82893152D01*
X93022494Y-82559819D02*
X92974875Y-82607438D01*
X92974875Y-82607438D02*
X93022494Y-82655057D01*
X93022494Y-82655057D02*
X93070113Y-82607438D01*
X93070113Y-82607438D02*
X93022494Y-82559819D01*
X93022494Y-82559819D02*
X93022494Y-82655057D01*
X93355827Y-82893152D02*
X93736779Y-82893152D01*
X93498684Y-82559819D02*
X93498684Y-83416961D01*
X93498684Y-83416961D02*
X93546303Y-83512200D01*
X93546303Y-83512200D02*
X93641541Y-83559819D01*
X93641541Y-83559819D02*
X93736779Y-83559819D01*
X94117732Y-83512200D02*
X94117732Y-83559819D01*
X94117732Y-83559819D02*
X94070113Y-83655057D01*
X94070113Y-83655057D02*
X94022494Y-83702676D01*
X95451065Y-82988390D02*
X95355827Y-82940771D01*
X95355827Y-82940771D02*
X95308208Y-82893152D01*
X95308208Y-82893152D02*
X95260589Y-82797914D01*
X95260589Y-82797914D02*
X95260589Y-82750295D01*
X95260589Y-82750295D02*
X95308208Y-82655057D01*
X95308208Y-82655057D02*
X95355827Y-82607438D01*
X95355827Y-82607438D02*
X95451065Y-82559819D01*
X95451065Y-82559819D02*
X95641541Y-82559819D01*
X95641541Y-82559819D02*
X95736779Y-82607438D01*
X95736779Y-82607438D02*
X95784398Y-82655057D01*
X95784398Y-82655057D02*
X95832017Y-82750295D01*
X95832017Y-82750295D02*
X95832017Y-82797914D01*
X95832017Y-82797914D02*
X95784398Y-82893152D01*
X95784398Y-82893152D02*
X95736779Y-82940771D01*
X95736779Y-82940771D02*
X95641541Y-82988390D01*
X95641541Y-82988390D02*
X95451065Y-82988390D01*
X95451065Y-82988390D02*
X95355827Y-83036009D01*
X95355827Y-83036009D02*
X95308208Y-83083628D01*
X95308208Y-83083628D02*
X95260589Y-83178866D01*
X95260589Y-83178866D02*
X95260589Y-83369342D01*
X95260589Y-83369342D02*
X95308208Y-83464580D01*
X95308208Y-83464580D02*
X95355827Y-83512200D01*
X95355827Y-83512200D02*
X95451065Y-83559819D01*
X95451065Y-83559819D02*
X95641541Y-83559819D01*
X95641541Y-83559819D02*
X95736779Y-83512200D01*
X95736779Y-83512200D02*
X95784398Y-83464580D01*
X95784398Y-83464580D02*
X95832017Y-83369342D01*
X95832017Y-83369342D02*
X95832017Y-83178866D01*
X95832017Y-83178866D02*
X95784398Y-83083628D01*
X95784398Y-83083628D02*
X95736779Y-83036009D01*
X95736779Y-83036009D02*
X95641541Y-82988390D01*
X97022494Y-83559819D02*
X97022494Y-82559819D01*
X97689160Y-82559819D02*
X97879636Y-82559819D01*
X97879636Y-82559819D02*
X97974874Y-82607438D01*
X97974874Y-82607438D02*
X98070112Y-82702676D01*
X98070112Y-82702676D02*
X98117731Y-82893152D01*
X98117731Y-82893152D02*
X98117731Y-83226485D01*
X98117731Y-83226485D02*
X98070112Y-83416961D01*
X98070112Y-83416961D02*
X97974874Y-83512200D01*
X97974874Y-83512200D02*
X97879636Y-83559819D01*
X97879636Y-83559819D02*
X97689160Y-83559819D01*
X97689160Y-83559819D02*
X97593922Y-83512200D01*
X97593922Y-83512200D02*
X97498684Y-83416961D01*
X97498684Y-83416961D02*
X97451065Y-83226485D01*
X97451065Y-83226485D02*
X97451065Y-82893152D01*
X97451065Y-82893152D02*
X97498684Y-82702676D01*
X97498684Y-82702676D02*
X97593922Y-82607438D01*
X97593922Y-82607438D02*
X97689160Y-82559819D01*
X98498684Y-83512200D02*
X98593922Y-83559819D01*
X98593922Y-83559819D02*
X98784398Y-83559819D01*
X98784398Y-83559819D02*
X98879636Y-83512200D01*
X98879636Y-83512200D02*
X98927255Y-83416961D01*
X98927255Y-83416961D02*
X98927255Y-83369342D01*
X98927255Y-83369342D02*
X98879636Y-83274104D01*
X98879636Y-83274104D02*
X98784398Y-83226485D01*
X98784398Y-83226485D02*
X98641541Y-83226485D01*
X98641541Y-83226485D02*
X98546303Y-83178866D01*
X98546303Y-83178866D02*
X98498684Y-83083628D01*
X98498684Y-83083628D02*
X98498684Y-83036009D01*
X98498684Y-83036009D02*
X98546303Y-82940771D01*
X98546303Y-82940771D02*
X98641541Y-82893152D01*
X98641541Y-82893152D02*
X98784398Y-82893152D01*
X98784398Y-82893152D02*
X98879636Y-82940771D01*
X99974875Y-82893152D02*
X100355827Y-82893152D01*
X100117732Y-83559819D02*
X100117732Y-82702676D01*
X100117732Y-82702676D02*
X100165351Y-82607438D01*
X100165351Y-82607438D02*
X100260589Y-82559819D01*
X100260589Y-82559819D02*
X100355827Y-82559819D01*
X100689161Y-83559819D02*
X100689161Y-82893152D01*
X100689161Y-83083628D02*
X100736780Y-82988390D01*
X100736780Y-82988390D02*
X100784399Y-82940771D01*
X100784399Y-82940771D02*
X100879637Y-82893152D01*
X100879637Y-82893152D02*
X100974875Y-82893152D01*
X101689161Y-83512200D02*
X101593923Y-83559819D01*
X101593923Y-83559819D02*
X101403447Y-83559819D01*
X101403447Y-83559819D02*
X101308209Y-83512200D01*
X101308209Y-83512200D02*
X101260590Y-83416961D01*
X101260590Y-83416961D02*
X101260590Y-83036009D01*
X101260590Y-83036009D02*
X101308209Y-82940771D01*
X101308209Y-82940771D02*
X101403447Y-82893152D01*
X101403447Y-82893152D02*
X101593923Y-82893152D01*
X101593923Y-82893152D02*
X101689161Y-82940771D01*
X101689161Y-82940771D02*
X101736780Y-83036009D01*
X101736780Y-83036009D02*
X101736780Y-83131247D01*
X101736780Y-83131247D02*
X101260590Y-83226485D01*
X102546304Y-83512200D02*
X102451066Y-83559819D01*
X102451066Y-83559819D02*
X102260590Y-83559819D01*
X102260590Y-83559819D02*
X102165352Y-83512200D01*
X102165352Y-83512200D02*
X102117733Y-83416961D01*
X102117733Y-83416961D02*
X102117733Y-83036009D01*
X102117733Y-83036009D02*
X102165352Y-82940771D01*
X102165352Y-82940771D02*
X102260590Y-82893152D01*
X102260590Y-82893152D02*
X102451066Y-82893152D01*
X102451066Y-82893152D02*
X102546304Y-82940771D01*
X102546304Y-82940771D02*
X102593923Y-83036009D01*
X102593923Y-83036009D02*
X102593923Y-83131247D01*
X102593923Y-83131247D02*
X102117733Y-83226485D01*
X121577256Y-86619819D02*
X122196303Y-86619819D01*
X122196303Y-86619819D02*
X121862970Y-87000771D01*
X121862970Y-87000771D02*
X122005827Y-87000771D01*
X122005827Y-87000771D02*
X122101065Y-87048390D01*
X122101065Y-87048390D02*
X122148684Y-87096009D01*
X122148684Y-87096009D02*
X122196303Y-87191247D01*
X122196303Y-87191247D02*
X122196303Y-87429342D01*
X122196303Y-87429342D02*
X122148684Y-87524580D01*
X122148684Y-87524580D02*
X122101065Y-87572200D01*
X122101065Y-87572200D02*
X122005827Y-87619819D01*
X122005827Y-87619819D02*
X121720113Y-87619819D01*
X121720113Y-87619819D02*
X121624875Y-87572200D01*
X121624875Y-87572200D02*
X121577256Y-87524580D01*
X122529637Y-86619819D02*
X123148684Y-86619819D01*
X123148684Y-86619819D02*
X122815351Y-87000771D01*
X122815351Y-87000771D02*
X122958208Y-87000771D01*
X122958208Y-87000771D02*
X123053446Y-87048390D01*
X123053446Y-87048390D02*
X123101065Y-87096009D01*
X123101065Y-87096009D02*
X123148684Y-87191247D01*
X123148684Y-87191247D02*
X123148684Y-87429342D01*
X123148684Y-87429342D02*
X123101065Y-87524580D01*
X123101065Y-87524580D02*
X123053446Y-87572200D01*
X123053446Y-87572200D02*
X122958208Y-87619819D01*
X122958208Y-87619819D02*
X122672494Y-87619819D01*
X122672494Y-87619819D02*
X122577256Y-87572200D01*
X122577256Y-87572200D02*
X122529637Y-87524580D01*
X124339161Y-86953152D02*
X124339161Y-87953152D01*
X124339161Y-87000771D02*
X124434399Y-86953152D01*
X124434399Y-86953152D02*
X124624875Y-86953152D01*
X124624875Y-86953152D02*
X124720113Y-87000771D01*
X124720113Y-87000771D02*
X124767732Y-87048390D01*
X124767732Y-87048390D02*
X124815351Y-87143628D01*
X124815351Y-87143628D02*
X124815351Y-87429342D01*
X124815351Y-87429342D02*
X124767732Y-87524580D01*
X124767732Y-87524580D02*
X124720113Y-87572200D01*
X124720113Y-87572200D02*
X124624875Y-87619819D01*
X124624875Y-87619819D02*
X124434399Y-87619819D01*
X124434399Y-87619819D02*
X124339161Y-87572200D01*
X125243923Y-87619819D02*
X125243923Y-86953152D01*
X125243923Y-86619819D02*
X125196304Y-86667438D01*
X125196304Y-86667438D02*
X125243923Y-86715057D01*
X125243923Y-86715057D02*
X125291542Y-86667438D01*
X125291542Y-86667438D02*
X125243923Y-86619819D01*
X125243923Y-86619819D02*
X125243923Y-86715057D01*
X125720113Y-86953152D02*
X125720113Y-87619819D01*
X125720113Y-87048390D02*
X125767732Y-87000771D01*
X125767732Y-87000771D02*
X125862970Y-86953152D01*
X125862970Y-86953152D02*
X126005827Y-86953152D01*
X126005827Y-86953152D02*
X126101065Y-87000771D01*
X126101065Y-87000771D02*
X126148684Y-87096009D01*
X126148684Y-87096009D02*
X126148684Y-87619819D01*
X127434399Y-87619819D02*
X127624875Y-87619819D01*
X127624875Y-87619819D02*
X127720113Y-87572200D01*
X127720113Y-87572200D02*
X127767732Y-87524580D01*
X127767732Y-87524580D02*
X127862970Y-87381723D01*
X127862970Y-87381723D02*
X127910589Y-87191247D01*
X127910589Y-87191247D02*
X127910589Y-86810295D01*
X127910589Y-86810295D02*
X127862970Y-86715057D01*
X127862970Y-86715057D02*
X127815351Y-86667438D01*
X127815351Y-86667438D02*
X127720113Y-86619819D01*
X127720113Y-86619819D02*
X127529637Y-86619819D01*
X127529637Y-86619819D02*
X127434399Y-86667438D01*
X127434399Y-86667438D02*
X127386780Y-86715057D01*
X127386780Y-86715057D02*
X127339161Y-86810295D01*
X127339161Y-86810295D02*
X127339161Y-87048390D01*
X127339161Y-87048390D02*
X127386780Y-87143628D01*
X127386780Y-87143628D02*
X127434399Y-87191247D01*
X127434399Y-87191247D02*
X127529637Y-87238866D01*
X127529637Y-87238866D02*
X127720113Y-87238866D01*
X127720113Y-87238866D02*
X127815351Y-87191247D01*
X127815351Y-87191247D02*
X127862970Y-87143628D01*
X127862970Y-87143628D02*
X127910589Y-87048390D01*
X128339161Y-87524580D02*
X128386780Y-87572200D01*
X128386780Y-87572200D02*
X128339161Y-87619819D01*
X128339161Y-87619819D02*
X128291542Y-87572200D01*
X128291542Y-87572200D02*
X128339161Y-87524580D01*
X128339161Y-87524580D02*
X128339161Y-87619819D01*
X128720113Y-86619819D02*
X129386779Y-86619819D01*
X129386779Y-86619819D02*
X128958208Y-87619819D01*
X129720113Y-86619819D02*
X129720113Y-86810295D01*
X130101065Y-86619819D02*
X130101065Y-86810295D01*
X126826666Y-92574819D02*
X126826666Y-93289104D01*
X126826666Y-93289104D02*
X126779047Y-93431961D01*
X126779047Y-93431961D02*
X126683809Y-93527200D01*
X126683809Y-93527200D02*
X126540952Y-93574819D01*
X126540952Y-93574819D02*
X126445714Y-93574819D01*
X127826666Y-93574819D02*
X127255238Y-93574819D01*
X127540952Y-93574819D02*
X127540952Y-92574819D01*
X127540952Y-92574819D02*
X127445714Y-92717676D01*
X127445714Y-92717676D02*
X127350476Y-92812914D01*
X127350476Y-92812914D02*
X127255238Y-92860533D01*
X105938095Y-67174819D02*
X105938095Y-67984342D01*
X105938095Y-67984342D02*
X105985714Y-68079580D01*
X105985714Y-68079580D02*
X106033333Y-68127200D01*
X106033333Y-68127200D02*
X106128571Y-68174819D01*
X106128571Y-68174819D02*
X106319047Y-68174819D01*
X106319047Y-68174819D02*
X106414285Y-68127200D01*
X106414285Y-68127200D02*
X106461904Y-68079580D01*
X106461904Y-68079580D02*
X106509523Y-67984342D01*
X106509523Y-67984342D02*
X106509523Y-67174819D01*
X107509523Y-68174819D02*
X106938095Y-68174819D01*
X107223809Y-68174819D02*
X107223809Y-67174819D01*
X107223809Y-67174819D02*
X107128571Y-67317676D01*
X107128571Y-67317676D02*
X107033333Y-67412914D01*
X107033333Y-67412914D02*
X106938095Y-67460533D01*
D13*
X92302380Y-91464318D02*
X92302380Y-92492413D01*
X92302380Y-92492413D02*
X92362857Y-92613365D01*
X92362857Y-92613365D02*
X92423333Y-92673842D01*
X92423333Y-92673842D02*
X92544285Y-92734318D01*
X92544285Y-92734318D02*
X92786190Y-92734318D01*
X92786190Y-92734318D02*
X92907142Y-92673842D01*
X92907142Y-92673842D02*
X92967619Y-92613365D01*
X92967619Y-92613365D02*
X93028095Y-92492413D01*
X93028095Y-92492413D02*
X93028095Y-91464318D01*
X93572380Y-91585270D02*
X93632856Y-91524794D01*
X93632856Y-91524794D02*
X93753809Y-91464318D01*
X93753809Y-91464318D02*
X94056190Y-91464318D01*
X94056190Y-91464318D02*
X94177142Y-91524794D01*
X94177142Y-91524794D02*
X94237618Y-91585270D01*
X94237618Y-91585270D02*
X94298095Y-91706222D01*
X94298095Y-91706222D02*
X94298095Y-91827175D01*
X94298095Y-91827175D02*
X94237618Y-92008603D01*
X94237618Y-92008603D02*
X93511904Y-92734318D01*
X93511904Y-92734318D02*
X94298095Y-92734318D01*
D10*
X138068095Y-66814819D02*
X138068095Y-67624342D01*
X138068095Y-67624342D02*
X138115714Y-67719580D01*
X138115714Y-67719580D02*
X138163333Y-67767200D01*
X138163333Y-67767200D02*
X138258571Y-67814819D01*
X138258571Y-67814819D02*
X138449047Y-67814819D01*
X138449047Y-67814819D02*
X138544285Y-67767200D01*
X138544285Y-67767200D02*
X138591904Y-67719580D01*
X138591904Y-67719580D02*
X138639523Y-67624342D01*
X138639523Y-67624342D02*
X138639523Y-66814819D01*
X139020476Y-66814819D02*
X139639523Y-66814819D01*
X139639523Y-66814819D02*
X139306190Y-67195771D01*
X139306190Y-67195771D02*
X139449047Y-67195771D01*
X139449047Y-67195771D02*
X139544285Y-67243390D01*
X139544285Y-67243390D02*
X139591904Y-67291009D01*
X139591904Y-67291009D02*
X139639523Y-67386247D01*
X139639523Y-67386247D02*
X139639523Y-67624342D01*
X139639523Y-67624342D02*
X139591904Y-67719580D01*
X139591904Y-67719580D02*
X139544285Y-67767200D01*
X139544285Y-67767200D02*
X139449047Y-67814819D01*
X139449047Y-67814819D02*
X139163333Y-67814819D01*
X139163333Y-67814819D02*
X139068095Y-67767200D01*
X139068095Y-67767200D02*
X139020476Y-67719580D01*
D14*
X115980000Y-91070000D02*
X115980000Y-91070000D01*
X115980000Y-91070000D02*
X115980000Y-91070000D01*
X115980000Y-91070000D02*
X115980000Y-91620000D01*
X115980000Y-91070000D02*
X116780000Y-91070000D01*
X115980000Y-91620000D02*
X115980000Y-91070000D01*
X115980000Y-91620000D02*
X115980000Y-91620000D01*
X115980000Y-95670000D02*
X115980000Y-95670000D01*
X115980000Y-95670000D02*
X135580000Y-95670000D01*
X116780000Y-91070000D02*
X115980000Y-91070000D01*
X116780000Y-91070000D02*
X116780000Y-91070000D01*
D15*
X117680000Y-88870000D02*
X117680000Y-88870000D01*
X117680000Y-88870000D02*
X117680000Y-88870000D01*
X117780000Y-88870000D02*
X117780000Y-88870000D01*
D14*
X134780000Y-91070000D02*
X134780000Y-91070000D01*
X134780000Y-91070000D02*
X135580000Y-91070000D01*
X135580000Y-91070000D02*
X134780000Y-91070000D01*
X135580000Y-91070000D02*
X135580000Y-91070000D01*
X135580000Y-91070000D02*
X135580000Y-91070000D01*
X135580000Y-91070000D02*
X135580000Y-91870000D01*
X135580000Y-91870000D02*
X135580000Y-91070000D01*
X135580000Y-91870000D02*
X135580000Y-91870000D01*
X135580000Y-95670000D02*
X115980000Y-95670000D01*
X135580000Y-95670000D02*
X135580000Y-95670000D01*
D15*
X117780000Y-88870000D02*
G75*
G03*
X117680000Y-88870000I-50000J0D01*
G01*
X117680000Y-88870000D02*
G75*
G03*
X117780000Y-88870000I50000J0D01*
G01*
X117680000Y-88870000D02*
G75*
G03*
X117780000Y-88870000I50000J0D01*
G01*
D16*
X104900000Y-67960000D02*
X101990000Y-67960000D01*
X104900000Y-64800000D02*
X104900000Y-67960000D01*
X101990000Y-70150000D02*
X84990000Y-70150000D01*
X101990000Y-68490000D02*
X101990000Y-64800000D01*
X101990000Y-68490000D02*
X84990000Y-68490000D01*
X101990000Y-67960000D02*
X101990000Y-70150000D01*
X101990000Y-64800000D02*
X104900000Y-64800000D01*
X84990000Y-68490000D02*
X84990000Y-64800000D01*
X84990000Y-67960000D02*
X84990000Y-70150000D01*
X84990000Y-64800000D02*
X82080000Y-64800000D01*
X82080000Y-67960000D02*
X84990000Y-67960000D01*
X82080000Y-64800000D02*
X82080000Y-67960000D01*
D14*
X81720000Y-90135000D02*
X81720000Y-91135000D01*
X81770000Y-90135000D02*
X81720000Y-90135000D01*
X82770000Y-90135000D02*
X81770000Y-90135000D01*
X83470000Y-88635000D02*
X83470000Y-88635000D01*
X83570000Y-88635000D02*
X83570000Y-88635000D01*
X103770000Y-90135000D02*
X104820000Y-90135000D01*
X104820000Y-90135000D02*
X104820000Y-91135000D01*
X83570000Y-88635000D02*
G75*
G03*
X83470000Y-88635000I-50000J0D01*
G01*
X83470000Y-88635000D02*
G75*
G03*
X83570000Y-88635000I50000J0D01*
G01*
D16*
X137180000Y-67990000D02*
X134270000Y-67990000D01*
X137180000Y-64830000D02*
X137180000Y-67990000D01*
X134270000Y-70180000D02*
X117270000Y-70180000D01*
X134270000Y-68520000D02*
X134270000Y-64830000D01*
X134270000Y-68520000D02*
X117270000Y-68520000D01*
X134270000Y-67990000D02*
X134270000Y-70180000D01*
X134270000Y-64830000D02*
X137180000Y-64830000D01*
X117270000Y-68520000D02*
X117270000Y-64830000D01*
X117270000Y-67990000D02*
X117270000Y-70180000D01*
X117270000Y-64830000D02*
X114360000Y-64830000D01*
X114360000Y-67990000D02*
X117270000Y-67990000D01*
X114360000Y-64830000D02*
X114360000Y-67990000D01*
M02*
