%TF.GenerationSoftware,KiCad,Pcbnew,7.0.8-7.0.8~ubuntu22.04.1*%
%TF.CreationDate,2023-10-25T08:52:20+02:00*%
%TF.ProjectId,extension-cable,65787465-6e73-4696-9f6e-2d6361626c65,rev?*%
%TF.SameCoordinates,Original*%
%TF.FileFunction,Paste,Top*%
%TF.FilePolarity,Positive*%
%FSLAX46Y46*%
G04 Gerber Fmt 4.6, Leading zero omitted, Abs format (unit mm)*
G04 Created by KiCad (PCBNEW 7.0.8-7.0.8~ubuntu22.04.1) date 2023-10-25 08:52:20*
%MOMM*%
%LPD*%
G01*
G04 APERTURE LIST*
G04 Aperture macros list*
%AMRoundRect*
0 Rectangle with rounded corners*
0 $1 Rounding radius*
0 $2 $3 $4 $5 $6 $7 $8 $9 X,Y pos of 4 corners*
0 Add a 4 corners polygon primitive as box body*
4,1,4,$2,$3,$4,$5,$6,$7,$8,$9,$2,$3,0*
0 Add four circle primitives for the rounded corners*
1,1,$1+$1,$2,$3*
1,1,$1+$1,$4,$5*
1,1,$1+$1,$6,$7*
1,1,$1+$1,$8,$9*
0 Add four rect primitives between the rounded corners*
20,1,$1+$1,$2,$3,$4,$5,0*
20,1,$1+$1,$4,$5,$6,$7,0*
20,1,$1+$1,$6,$7,$8,$9,0*
20,1,$1+$1,$8,$9,$2,$3,0*%
G04 Aperture macros list end*
%ADD10RoundRect,0.200000X-0.200000X-0.275000X0.200000X-0.275000X0.200000X0.275000X-0.200000X0.275000X0*%
%ADD11RoundRect,0.200000X-0.275000X0.200000X-0.275000X-0.200000X0.275000X-0.200000X0.275000X0.200000X0*%
%ADD12RoundRect,0.243750X-0.243750X-0.456250X0.243750X-0.456250X0.243750X0.456250X-0.243750X0.456250X0*%
%ADD13R,0.800000X2.000000*%
%ADD14R,1.500000X2.000000*%
%ADD15RoundRect,0.200000X0.200000X0.275000X-0.200000X0.275000X-0.200000X-0.275000X0.200000X-0.275000X0*%
%ADD16R,0.300000X1.300000*%
%ADD17R,1.800000X2.200000*%
%ADD18R,0.609600X0.355600*%
G04 APERTURE END LIST*
D10*
X89145000Y-78507140D03*
X90795000Y-78507140D03*
X89145000Y-81458568D03*
X90795000Y-81458568D03*
D11*
X111560000Y-76405000D03*
X111560000Y-78055000D03*
D10*
X101110000Y-86530000D03*
X102760000Y-86530000D03*
D12*
X85542500Y-63750000D03*
X87417500Y-63750000D03*
X85542500Y-81292500D03*
X87417500Y-81292500D03*
X76570000Y-76700000D03*
X78445000Y-76700000D03*
X107680000Y-63750000D03*
X109555000Y-63750000D03*
X97352500Y-63750000D03*
X99227500Y-63750000D03*
X97352500Y-76750000D03*
X99227500Y-76750000D03*
X97352500Y-67000000D03*
X99227500Y-67000000D03*
D10*
X136525000Y-88925000D03*
X138175000Y-88925000D03*
D12*
X97352500Y-86500000D03*
X99227500Y-86500000D03*
X97352500Y-83250000D03*
X99227500Y-83250000D03*
X97352500Y-70250000D03*
X99227500Y-70250000D03*
X85542500Y-72521250D03*
X87417500Y-72521250D03*
D10*
X89145000Y-75555712D03*
X90795000Y-75555712D03*
D12*
X107680000Y-76410000D03*
X109555000Y-76410000D03*
D10*
X111385000Y-63770000D03*
X113035000Y-63770000D03*
D11*
X78450000Y-85375000D03*
X78450000Y-87025000D03*
D10*
X101110000Y-66990000D03*
X102760000Y-66990000D03*
X101115000Y-63740000D03*
X102765000Y-63740000D03*
X89145000Y-66701428D03*
X90795000Y-66701428D03*
X101110000Y-70260000D03*
X102760000Y-70260000D03*
D12*
X76570000Y-72280000D03*
X78445000Y-72280000D03*
X97352500Y-73500000D03*
X99227500Y-73500000D03*
D10*
X89145000Y-69652856D03*
X90795000Y-69652856D03*
D13*
X127160000Y-70825000D03*
D14*
X125135000Y-62325000D03*
X139485000Y-62325000D03*
D13*
X129360000Y-70825000D03*
X130460000Y-70825000D03*
X131560000Y-70825000D03*
X132660000Y-70825000D03*
X133760000Y-70825000D03*
X134860000Y-70825000D03*
X135960000Y-70825000D03*
X137060000Y-70825000D03*
X128260000Y-70825000D03*
D10*
X101110000Y-73520000D03*
X102760000Y-73520000D03*
X89145000Y-84410000D03*
X90795000Y-84410000D03*
D11*
X80250000Y-72305000D03*
X80250000Y-73955000D03*
D10*
X80190000Y-68020000D03*
X81840000Y-68020000D03*
D12*
X85542500Y-69597500D03*
X87417500Y-69597500D03*
X85542500Y-78368750D03*
X87417500Y-78368750D03*
X85542500Y-84220000D03*
X87417500Y-84220000D03*
X85542500Y-66673750D03*
X87417500Y-66673750D03*
X76570000Y-83590000D03*
X78445000Y-83590000D03*
D15*
X140725000Y-85375000D03*
X139075000Y-85375000D03*
D11*
X78235000Y-78675000D03*
X78235000Y-80325000D03*
D10*
X89145000Y-72604284D03*
X90795000Y-72604284D03*
D12*
X76582500Y-68020000D03*
X78457500Y-68020000D03*
D10*
X101110000Y-79990000D03*
X102760000Y-79990000D03*
X101110000Y-83230000D03*
X102760000Y-83230000D03*
X89145000Y-63750000D03*
X90795000Y-63750000D03*
X101110000Y-76790000D03*
X102760000Y-76790000D03*
D16*
X83910000Y-93325000D03*
X84410000Y-93325000D03*
X84910000Y-93325000D03*
X85410000Y-93325000D03*
X85910000Y-93325000D03*
X86410000Y-93325000D03*
X86910000Y-93325000D03*
X87410000Y-93325000D03*
X87910000Y-93325000D03*
X88410000Y-93325000D03*
X88910000Y-93325000D03*
X89410000Y-93325000D03*
X89910000Y-93325000D03*
X90410000Y-93325000D03*
X90910000Y-93325000D03*
X91410000Y-93325000D03*
X91910000Y-93325000D03*
X92410000Y-93325000D03*
X92910000Y-93325000D03*
X93410000Y-93325000D03*
X93910000Y-93325000D03*
X94410000Y-93325000D03*
X94910000Y-93325000D03*
X95410000Y-93325000D03*
X95910000Y-93325000D03*
X96410000Y-93325000D03*
X96910000Y-93325000D03*
X97410000Y-93325000D03*
X97910000Y-93325000D03*
X98410000Y-93325000D03*
X98910000Y-93325000D03*
X99410000Y-93325000D03*
X99910000Y-93325000D03*
X100410000Y-93325000D03*
X100910000Y-93325000D03*
X101410000Y-93325000D03*
X101910000Y-93325000D03*
X102410000Y-93325000D03*
X102910000Y-93325000D03*
X103410000Y-93325000D03*
D17*
X82010000Y-96575000D03*
X105310000Y-96575000D03*
D12*
X97352500Y-80000000D03*
X99227500Y-80000000D03*
D11*
X111810000Y-69465000D03*
X111810000Y-71115000D03*
D12*
X107680000Y-69450000D03*
X109555000Y-69450000D03*
D18*
X127760000Y-87530000D03*
X127760000Y-87029874D03*
X127760000Y-86529748D03*
X127760000Y-86029622D03*
X126363000Y-86029622D03*
X126363000Y-86529748D03*
X126363000Y-87029874D03*
X126363000Y-87530000D03*
D12*
X85542500Y-75445000D03*
X87417500Y-75445000D03*
M02*
