%TF.GenerationSoftware,KiCad,Pcbnew,7.0.8-7.0.8~ubuntu22.04.1*%
%TF.CreationDate,2023-10-25T08:52:20+02:00*%
%TF.ProjectId,extension-cable,65787465-6e73-4696-9f6e-2d6361626c65,rev?*%
%TF.SameCoordinates,Original*%
%TF.FileFunction,Copper,L1,Top*%
%TF.FilePolarity,Positive*%
%FSLAX46Y46*%
G04 Gerber Fmt 4.6, Leading zero omitted, Abs format (unit mm)*
G04 Created by KiCad (PCBNEW 7.0.8-7.0.8~ubuntu22.04.1) date 2023-10-25 08:52:20*
%MOMM*%
%LPD*%
G01*
G04 APERTURE LIST*
G04 Aperture macros list*
%AMRoundRect*
0 Rectangle with rounded corners*
0 $1 Rounding radius*
0 $2 $3 $4 $5 $6 $7 $8 $9 X,Y pos of 4 corners*
0 Add a 4 corners polygon primitive as box body*
4,1,4,$2,$3,$4,$5,$6,$7,$8,$9,$2,$3,0*
0 Add four circle primitives for the rounded corners*
1,1,$1+$1,$2,$3*
1,1,$1+$1,$4,$5*
1,1,$1+$1,$6,$7*
1,1,$1+$1,$8,$9*
0 Add four rect primitives between the rounded corners*
20,1,$1+$1,$2,$3,$4,$5,0*
20,1,$1+$1,$4,$5,$6,$7,0*
20,1,$1+$1,$6,$7,$8,$9,0*
20,1,$1+$1,$8,$9,$2,$3,0*%
G04 Aperture macros list end*
%TA.AperFunction,SMDPad,CuDef*%
%ADD10RoundRect,0.200000X-0.200000X-0.275000X0.200000X-0.275000X0.200000X0.275000X-0.200000X0.275000X0*%
%TD*%
%TA.AperFunction,SMDPad,CuDef*%
%ADD11RoundRect,0.200000X-0.275000X0.200000X-0.275000X-0.200000X0.275000X-0.200000X0.275000X0.200000X0*%
%TD*%
%TA.AperFunction,SMDPad,CuDef*%
%ADD12RoundRect,0.243750X-0.243750X-0.456250X0.243750X-0.456250X0.243750X0.456250X-0.243750X0.456250X0*%
%TD*%
%TA.AperFunction,SMDPad,CuDef*%
%ADD13R,2.000000X2.000000*%
%TD*%
%TA.AperFunction,SMDPad,CuDef*%
%ADD14R,0.800000X2.000000*%
%TD*%
%TA.AperFunction,SMDPad,CuDef*%
%ADD15R,1.500000X2.000000*%
%TD*%
%TA.AperFunction,SMDPad,CuDef*%
%ADD16RoundRect,0.200000X0.200000X0.275000X-0.200000X0.275000X-0.200000X-0.275000X0.200000X-0.275000X0*%
%TD*%
%TA.AperFunction,SMDPad,CuDef*%
%ADD17R,0.300000X1.300000*%
%TD*%
%TA.AperFunction,SMDPad,CuDef*%
%ADD18R,1.800000X2.200000*%
%TD*%
%TA.AperFunction,ComponentPad*%
%ADD19R,1.700000X1.700000*%
%TD*%
%TA.AperFunction,ComponentPad*%
%ADD20O,1.700000X1.700000*%
%TD*%
%TA.AperFunction,SMDPad,CuDef*%
%ADD21R,0.609600X0.355600*%
%TD*%
%TA.AperFunction,ViaPad*%
%ADD22C,0.600000*%
%TD*%
%TA.AperFunction,ViaPad*%
%ADD23C,0.500000*%
%TD*%
%TA.AperFunction,Conductor*%
%ADD24C,0.250000*%
%TD*%
%TA.AperFunction,Conductor*%
%ADD25C,0.500000*%
%TD*%
G04 APERTURE END LIST*
D10*
X89145000Y-78507140D03*
X90795000Y-78507140D03*
X89145000Y-81458568D03*
X90795000Y-81458568D03*
D11*
X111560000Y-76405000D03*
X111560000Y-78055000D03*
D10*
X101110000Y-86530000D03*
X102760000Y-86530000D03*
D12*
X85542500Y-63750000D03*
X87417500Y-63750000D03*
X85542500Y-81292500D03*
X87417500Y-81292500D03*
X76570000Y-76700000D03*
X78445000Y-76700000D03*
X107680000Y-63750000D03*
X109555000Y-63750000D03*
D13*
X112800000Y-90740000D03*
D12*
X97352500Y-63750000D03*
X99227500Y-63750000D03*
X97352500Y-76750000D03*
X99227500Y-76750000D03*
X97352500Y-67000000D03*
X99227500Y-67000000D03*
D10*
X136525000Y-88925000D03*
X138175000Y-88925000D03*
D12*
X97352500Y-86500000D03*
X99227500Y-86500000D03*
X97352500Y-83250000D03*
X99227500Y-83250000D03*
X97352500Y-70250000D03*
X99227500Y-70250000D03*
X85542500Y-72521250D03*
X87417500Y-72521250D03*
D10*
X89145000Y-75555712D03*
X90795000Y-75555712D03*
D12*
X107680000Y-76410000D03*
X109555000Y-76410000D03*
D10*
X111385000Y-63770000D03*
X113035000Y-63770000D03*
D11*
X78450000Y-85375000D03*
X78450000Y-87025000D03*
D10*
X101110000Y-66990000D03*
X102760000Y-66990000D03*
X101115000Y-63740000D03*
X102765000Y-63740000D03*
X89145000Y-66701428D03*
X90795000Y-66701428D03*
X101110000Y-70260000D03*
X102760000Y-70260000D03*
D12*
X76570000Y-72280000D03*
X78445000Y-72280000D03*
X97352500Y-73500000D03*
X99227500Y-73500000D03*
D10*
X89145000Y-69652856D03*
X90795000Y-69652856D03*
D14*
X127160000Y-70825000D03*
D15*
X125135000Y-62325000D03*
X139485000Y-62325000D03*
D14*
X129360000Y-70825000D03*
X130460000Y-70825000D03*
X131560000Y-70825000D03*
X132660000Y-70825000D03*
X133760000Y-70825000D03*
X134860000Y-70825000D03*
X135960000Y-70825000D03*
X137060000Y-70825000D03*
X128260000Y-70825000D03*
D10*
X101110000Y-73520000D03*
X102760000Y-73520000D03*
X89145000Y-84410000D03*
X90795000Y-84410000D03*
D11*
X80250000Y-72305000D03*
X80250000Y-73955000D03*
D10*
X80190000Y-68020000D03*
X81840000Y-68020000D03*
D12*
X85542500Y-69597500D03*
X87417500Y-69597500D03*
X85542500Y-78368750D03*
X87417500Y-78368750D03*
X85542500Y-84220000D03*
X87417500Y-84220000D03*
X85542500Y-66673750D03*
X87417500Y-66673750D03*
X76570000Y-83590000D03*
X78445000Y-83590000D03*
D16*
X140725000Y-85375000D03*
X139075000Y-85375000D03*
D11*
X78235000Y-78675000D03*
X78235000Y-80325000D03*
D10*
X89145000Y-72604284D03*
X90795000Y-72604284D03*
D12*
X76582500Y-68020000D03*
X78457500Y-68020000D03*
D10*
X101110000Y-79990000D03*
X102760000Y-79990000D03*
X101110000Y-83230000D03*
X102760000Y-83230000D03*
X89145000Y-63750000D03*
X90795000Y-63750000D03*
X101110000Y-76790000D03*
X102760000Y-76790000D03*
D17*
X83910000Y-93325000D03*
X84410000Y-93325000D03*
X84910000Y-93325000D03*
X85410000Y-93325000D03*
X85910000Y-93325000D03*
X86410000Y-93325000D03*
X86910000Y-93325000D03*
X87410000Y-93325000D03*
X87910000Y-93325000D03*
X88410000Y-93325000D03*
X88910000Y-93325000D03*
X89410000Y-93325000D03*
X89910000Y-93325000D03*
X90410000Y-93325000D03*
X90910000Y-93325000D03*
X91410000Y-93325000D03*
X91910000Y-93325000D03*
X92410000Y-93325000D03*
X92910000Y-93325000D03*
X93410000Y-93325000D03*
X93910000Y-93325000D03*
X94410000Y-93325000D03*
X94910000Y-93325000D03*
X95410000Y-93325000D03*
X95910000Y-93325000D03*
X96410000Y-93325000D03*
X96910000Y-93325000D03*
X97410000Y-93325000D03*
X97910000Y-93325000D03*
X98410000Y-93325000D03*
X98910000Y-93325000D03*
X99410000Y-93325000D03*
X99910000Y-93325000D03*
X100410000Y-93325000D03*
X100910000Y-93325000D03*
X101410000Y-93325000D03*
X101910000Y-93325000D03*
X102410000Y-93325000D03*
X102910000Y-93325000D03*
X103410000Y-93325000D03*
D18*
X82010000Y-96575000D03*
X105310000Y-96575000D03*
D12*
X97352500Y-80000000D03*
X99227500Y-80000000D03*
D11*
X111810000Y-69465000D03*
X111810000Y-71115000D03*
D12*
X107680000Y-69450000D03*
X109555000Y-69450000D03*
D19*
X123820000Y-95955000D03*
D20*
X126360000Y-95955000D03*
X128900000Y-95955000D03*
X131440000Y-95955000D03*
X133980000Y-95955000D03*
X136520000Y-95955000D03*
X139060000Y-95955000D03*
X141600000Y-95955000D03*
D21*
X127760000Y-87530000D03*
X127760000Y-87029874D03*
X127760000Y-86529748D03*
X127760000Y-86029622D03*
X126363000Y-86029622D03*
X126363000Y-86529748D03*
X126363000Y-87029874D03*
X126363000Y-87530000D03*
D12*
X85542500Y-75445000D03*
X87417500Y-75445000D03*
D22*
X85540000Y-82710000D03*
X126610000Y-62155000D03*
D23*
X119930000Y-76761000D03*
D22*
X76560000Y-81180000D03*
X85560000Y-76950000D03*
X76580000Y-74390000D03*
X134850000Y-72250000D03*
X138135000Y-62130000D03*
X97360000Y-78370000D03*
D23*
X119930000Y-82899000D03*
X119930000Y-84945000D03*
D22*
X107685000Y-72080000D03*
D23*
X119930000Y-78807000D03*
D22*
X85560000Y-71120000D03*
D23*
X119930000Y-80853000D03*
D22*
X97360000Y-68640000D03*
D23*
X119930000Y-74715000D03*
D22*
X88610000Y-95155000D03*
X94410000Y-94830000D03*
X96370000Y-86540000D03*
X130675000Y-87150000D03*
X129350000Y-74200000D03*
X128700000Y-76675000D03*
X127775000Y-90100000D03*
X131275000Y-90100000D03*
X128700000Y-87150000D03*
X138175000Y-86875000D03*
X141625000Y-85350000D03*
D24*
X127760000Y-87530000D02*
X128320000Y-87530000D01*
X127760000Y-86529748D02*
X129100000Y-86529748D01*
X127760000Y-87029874D02*
X127324978Y-87029874D01*
X89145000Y-81458568D02*
X87583568Y-81458568D01*
X87583568Y-81458568D02*
X87417500Y-81292500D01*
X87555890Y-78507140D02*
X87417500Y-78368750D01*
X89145000Y-78507140D02*
X87555890Y-78507140D01*
X87528212Y-75555712D02*
X87417500Y-75445000D01*
X89145000Y-75555712D02*
X87528212Y-75555712D01*
X87500534Y-72604284D02*
X87417500Y-72521250D01*
X89145000Y-72604284D02*
X87500534Y-72604284D01*
X85542500Y-81292500D02*
X85542500Y-78368750D01*
X107680000Y-76410000D02*
X107680000Y-72085000D01*
X134860000Y-70655000D02*
X134860000Y-72240000D01*
X119930000Y-78807000D02*
X119930000Y-80853000D01*
X96410000Y-86500000D02*
X96370000Y-86540000D01*
X76570000Y-81190000D02*
X76560000Y-81180000D01*
X85542500Y-75445000D02*
X85542500Y-76932500D01*
X85542500Y-78368750D02*
X85542500Y-76967500D01*
X85542500Y-71102500D02*
X85560000Y-71120000D01*
X85542500Y-71137500D02*
X85560000Y-71120000D01*
X85542500Y-76932500D02*
X85560000Y-76950000D01*
X85542500Y-66673750D02*
X85542500Y-63750000D01*
X85542500Y-75445000D02*
X85542500Y-72521250D01*
X97352500Y-78362500D02*
X97360000Y-78370000D01*
X97352500Y-73500000D02*
X97352500Y-70250000D01*
X85542500Y-76967500D02*
X85560000Y-76950000D01*
X76570000Y-72280000D02*
X76570000Y-74380000D01*
X89410000Y-93325000D02*
X89410000Y-94530000D01*
X97352500Y-76750000D02*
X97352500Y-78362500D01*
X85542500Y-84220000D02*
X85542500Y-82712500D01*
X107680000Y-69450000D02*
X107680000Y-63750000D01*
X76570000Y-83590000D02*
X76570000Y-81190000D01*
X134860000Y-72240000D02*
X134850000Y-72250000D01*
X97352500Y-68632500D02*
X97360000Y-68640000D01*
X139485000Y-62155000D02*
X138160000Y-62155000D01*
X85542500Y-81292500D02*
X85542500Y-82707500D01*
X97352500Y-67000000D02*
X97352500Y-63750000D01*
X76570000Y-72280000D02*
X76570000Y-68032500D01*
X85542500Y-72521250D02*
X85542500Y-71137500D01*
X107680000Y-72085000D02*
X107685000Y-72080000D01*
X97352500Y-80000000D02*
X97352500Y-78377500D01*
X119930000Y-74715000D02*
X119930000Y-76761000D01*
X76570000Y-68032500D02*
X76582500Y-68020000D01*
X87910000Y-94455000D02*
X88610000Y-95155000D01*
X97352500Y-68647500D02*
X97360000Y-68640000D01*
X119930000Y-82899000D02*
X119930000Y-84945000D01*
X76570000Y-74380000D02*
X76580000Y-74390000D01*
X76570000Y-81170000D02*
X76560000Y-81180000D01*
X85542500Y-69597500D02*
X85542500Y-71102500D01*
X97352500Y-67000000D02*
X97352500Y-68632500D01*
X94410000Y-93325000D02*
X94410000Y-94830000D01*
X87910000Y-93325000D02*
X87910000Y-94455000D01*
X119930000Y-76761000D02*
X119930000Y-78807000D01*
X125135000Y-62155000D02*
X126610000Y-62155000D01*
X138160000Y-62155000D02*
X138135000Y-62130000D01*
X97352500Y-76750000D02*
X97352500Y-73500000D01*
X85542500Y-82707500D02*
X85540000Y-82710000D01*
X76570000Y-76700000D02*
X76570000Y-81170000D01*
X88610000Y-95155000D02*
X88785000Y-95155000D01*
X76570000Y-74400000D02*
X76580000Y-74390000D01*
X85542500Y-82712500D02*
X85540000Y-82710000D01*
X88785000Y-95155000D02*
X89410000Y-94530000D01*
X107680000Y-69450000D02*
X107680000Y-72075000D01*
X119930000Y-80853000D02*
X119930000Y-82899000D01*
X107680000Y-72075000D02*
X107685000Y-72080000D01*
X97352500Y-78377500D02*
X97360000Y-78370000D01*
X97352500Y-70250000D02*
X97352500Y-68647500D01*
X76570000Y-76700000D02*
X76570000Y-74400000D01*
X97352500Y-83250000D02*
X97352500Y-80000000D01*
X85542500Y-69597500D02*
X85542500Y-66673750D01*
X97352500Y-86500000D02*
X96410000Y-86500000D01*
X89145000Y-69652856D02*
X87472856Y-69652856D01*
X87472856Y-69652856D02*
X87417500Y-69597500D01*
X89145000Y-66701428D02*
X87445178Y-66701428D01*
X87445178Y-66701428D02*
X87417500Y-66673750D01*
X81840000Y-83410000D02*
X81840000Y-68020000D01*
X87090000Y-88660000D02*
X81840000Y-83410000D01*
X89900000Y-89992452D02*
X88567548Y-88660000D01*
X89910000Y-90755000D02*
X89900000Y-90745000D01*
X89910000Y-93325000D02*
X89910000Y-90755000D01*
X89900000Y-90745000D02*
X89900000Y-89992452D01*
X88567548Y-88660000D02*
X87090000Y-88660000D01*
X111335000Y-71115000D02*
X108535000Y-73915000D01*
X100768126Y-91085000D02*
X99410000Y-92443126D01*
X108535000Y-73915000D02*
X108535000Y-86999994D01*
X104449994Y-91085000D02*
X100768126Y-91085000D01*
X99410000Y-92443126D02*
X99410000Y-93325000D01*
X108535000Y-86999994D02*
X104449994Y-91085000D01*
X111810000Y-71115000D02*
X111335000Y-71115000D01*
X99910000Y-93325000D02*
X99910000Y-92572452D01*
X104634319Y-91530000D02*
X104585000Y-91530000D01*
X111560000Y-84604319D02*
X104634319Y-91530000D01*
X100952452Y-91530000D02*
X104585000Y-91530000D01*
X111560000Y-78055000D02*
X111560000Y-84604319D01*
X99910000Y-92572452D02*
X100952452Y-91530000D01*
X100583800Y-90640000D02*
X98910000Y-92313800D01*
X107552738Y-62380000D02*
X106660000Y-63272738D01*
X104265669Y-90640000D02*
X100583800Y-90640000D01*
X113035000Y-63770000D02*
X111645000Y-62380000D01*
X106660000Y-63272738D02*
X106660000Y-88245669D01*
X106660000Y-88245669D02*
X104265669Y-90640000D01*
X111645000Y-62380000D02*
X107552738Y-62380000D01*
X98910000Y-92313800D02*
X98910000Y-93325000D01*
X90410000Y-93325000D02*
X90410000Y-84795000D01*
X90410000Y-84795000D02*
X90795000Y-84410000D01*
X91514995Y-82178563D02*
X90795000Y-81458568D01*
X90910000Y-85524036D02*
X91514995Y-84919041D01*
X90910000Y-93325000D02*
X90910000Y-85524036D01*
X91514995Y-84919041D02*
X91514995Y-82178563D01*
X91410000Y-93325000D02*
X91410000Y-85653362D01*
X91410000Y-85653362D02*
X91959995Y-85103367D01*
X91959995Y-85103367D02*
X91959995Y-79672135D01*
X91959995Y-79672135D02*
X90795000Y-78507140D01*
X91910000Y-93325000D02*
X91910000Y-85782688D01*
X92404995Y-77165707D02*
X90795000Y-75555712D01*
X92404995Y-85287693D02*
X92404995Y-77165707D01*
X91910000Y-85782688D02*
X92404995Y-85287693D01*
X92410000Y-85912014D02*
X92849995Y-85472019D01*
X92849995Y-85472019D02*
X92849995Y-74659279D01*
X92410000Y-93325000D02*
X92410000Y-85912014D01*
X92849995Y-74659279D02*
X90795000Y-72604284D01*
X93294995Y-72152851D02*
X90795000Y-69652856D01*
X93294995Y-85656345D02*
X93294995Y-72152851D01*
X92910000Y-86041340D02*
X93294995Y-85656345D01*
X92910000Y-93325000D02*
X92910000Y-86041340D01*
X93739995Y-69646423D02*
X90795000Y-66701428D01*
X93739995Y-85840671D02*
X93739995Y-69646423D01*
X93410000Y-93325000D02*
X93410000Y-86170666D01*
X93410000Y-86170666D02*
X93739995Y-85840671D01*
X93910000Y-93325000D02*
X93910000Y-86299992D01*
X93910000Y-86299992D02*
X94184995Y-86024997D01*
X94184995Y-86024997D02*
X94184995Y-67139995D01*
X94184995Y-67139995D02*
X90795000Y-63750000D01*
X89145000Y-63750000D02*
X87417500Y-63750000D01*
X101080000Y-86500000D02*
X101110000Y-86530000D01*
X99227500Y-86500000D02*
X101080000Y-86500000D01*
X101090000Y-83250000D02*
X101110000Y-83230000D01*
X99227500Y-83250000D02*
X101090000Y-83250000D01*
X99227500Y-80000000D02*
X101100000Y-80000000D01*
X101100000Y-80000000D02*
X101110000Y-79990000D01*
X101070000Y-76750000D02*
X101110000Y-76790000D01*
X99227500Y-76750000D02*
X101070000Y-76750000D01*
X101090000Y-73500000D02*
X101110000Y-73520000D01*
X99227500Y-73500000D02*
X101090000Y-73500000D01*
X99227500Y-70250000D02*
X101100000Y-70250000D01*
X101100000Y-70250000D02*
X101110000Y-70260000D01*
X79520000Y-88750000D02*
X78450000Y-87680000D01*
X78450000Y-87680000D02*
X78450000Y-87025000D01*
X86410000Y-93325000D02*
X86410000Y-90002452D01*
X85157548Y-88750000D02*
X79520000Y-88750000D01*
X86410000Y-90002452D02*
X85157548Y-88750000D01*
X87410000Y-89743801D02*
X80250000Y-82583801D01*
X87410000Y-93325000D02*
X87410000Y-89743801D01*
X80250000Y-82583801D02*
X80250000Y-73955000D01*
X86910000Y-89873127D02*
X78235000Y-81198127D01*
X78235000Y-81198127D02*
X78235000Y-80325000D01*
X86910000Y-93325000D02*
X86910000Y-89873127D01*
X101100000Y-67000000D02*
X101110000Y-66990000D01*
X99227500Y-67000000D02*
X101100000Y-67000000D01*
X101105000Y-63750000D02*
X101115000Y-63740000D01*
X99227500Y-63750000D02*
X101105000Y-63750000D01*
X96553187Y-85480000D02*
X101710000Y-85480000D01*
X94910000Y-87123187D02*
X96553187Y-85480000D01*
X94910000Y-93325000D02*
X94910000Y-87123187D01*
X101710000Y-85480000D02*
X102760000Y-86530000D01*
X95410000Y-89879047D02*
X97764054Y-87524993D01*
X99763355Y-87480000D02*
X103020389Y-87480000D01*
X97764054Y-87524993D02*
X99718362Y-87524993D01*
X103480000Y-87020389D02*
X103480000Y-83950000D01*
X103020389Y-87480000D02*
X103480000Y-87020389D01*
X95410000Y-93325000D02*
X95410000Y-89879047D01*
X103480000Y-83950000D02*
X102760000Y-83230000D01*
X99718362Y-87524993D02*
X99763355Y-87480000D01*
X97948377Y-87969995D02*
X101321093Y-87969995D01*
X103925000Y-87204714D02*
X103925000Y-81155000D01*
X103925000Y-81155000D02*
X102760000Y-79990000D01*
X95910000Y-90008372D02*
X97948377Y-87969995D01*
X101321093Y-87969995D02*
X101321098Y-87970000D01*
X103159713Y-87970000D02*
X103925000Y-87204714D01*
X101321098Y-87970000D02*
X103159713Y-87970000D01*
X95910000Y-93325000D02*
X95910000Y-90008372D01*
X98132702Y-88414995D02*
X101136767Y-88414995D01*
X101136772Y-88415000D02*
X103344039Y-88415000D01*
X104370000Y-78400000D02*
X102760000Y-76790000D01*
X104370000Y-87389039D02*
X104370000Y-78400000D01*
X96410000Y-90137697D02*
X98132702Y-88414995D01*
X96410000Y-93325000D02*
X96410000Y-90137697D01*
X103344039Y-88415000D02*
X104370000Y-87389039D01*
X101136767Y-88414995D02*
X101136772Y-88415000D01*
X99846495Y-88859996D02*
X96910000Y-91796491D01*
X96910000Y-91796491D02*
X96910000Y-93325000D01*
X103528365Y-88860000D02*
X100952446Y-88860000D01*
X104815000Y-75575000D02*
X104815000Y-87573365D01*
X102760000Y-73520000D02*
X104815000Y-75575000D01*
X100952441Y-88859996D02*
X99846495Y-88859996D01*
X104815000Y-87573365D02*
X103528365Y-88860000D01*
X100952446Y-88860000D02*
X100952441Y-88859996D01*
X105260000Y-87757691D02*
X103712687Y-89305004D01*
X100030815Y-89305004D02*
X97410000Y-91925819D01*
X105260000Y-72760000D02*
X105260000Y-87757691D01*
X102760000Y-70260000D02*
X105260000Y-72760000D01*
X97410000Y-91925819D02*
X97410000Y-93325000D01*
X103712687Y-89305004D02*
X100030815Y-89305004D01*
X103897017Y-89750000D02*
X100215149Y-89750000D01*
X97910000Y-92055149D02*
X97910000Y-93325000D01*
X100215149Y-89750000D02*
X97910000Y-92055149D01*
X105705000Y-87942017D02*
X103897017Y-89750000D01*
X105705000Y-69935000D02*
X105705000Y-87942017D01*
X102760000Y-66990000D02*
X105705000Y-69935000D01*
X102765000Y-63740000D02*
X106150000Y-67125000D01*
X106150000Y-67125000D02*
X106150000Y-88126341D01*
X98410000Y-92184475D02*
X98410000Y-93325000D01*
X106150000Y-88126341D02*
X104081341Y-90195000D01*
X104081341Y-90195000D02*
X100399474Y-90195000D01*
X100399474Y-90195000D02*
X98410000Y-92184475D01*
X110215000Y-93325000D02*
X112800000Y-90740000D01*
X103410000Y-93325000D02*
X110215000Y-93325000D01*
X78235000Y-76910000D02*
X78445000Y-76700000D01*
X78235000Y-78675000D02*
X78235000Y-76910000D01*
X87607500Y-84410000D02*
X87417500Y-84220000D01*
X89145000Y-84410000D02*
X87607500Y-84410000D01*
X78450000Y-85375000D02*
X78450000Y-83595000D01*
X78450000Y-83595000D02*
X78445000Y-83590000D01*
X109555000Y-69450000D02*
X111795000Y-69450000D01*
X111795000Y-69450000D02*
X111810000Y-69465000D01*
X111555000Y-76410000D02*
X111560000Y-76405000D01*
X109555000Y-76410000D02*
X111555000Y-76410000D01*
X78470000Y-72305000D02*
X78445000Y-72280000D01*
X80250000Y-72305000D02*
X78470000Y-72305000D01*
X109555000Y-63750000D02*
X111365000Y-63750000D01*
X111365000Y-63750000D02*
X111385000Y-63770000D01*
X78457500Y-68020000D02*
X80190000Y-68020000D01*
X129360000Y-74190000D02*
X129360000Y-70655000D01*
X129350000Y-74200000D02*
X129360000Y-74190000D01*
X136525000Y-88925000D02*
X132450000Y-88925000D01*
X132450000Y-88925000D02*
X130675000Y-87150000D01*
X136520000Y-88930000D02*
X136525000Y-88925000D01*
X136520000Y-95955000D02*
X136520000Y-88930000D01*
X128320000Y-87530000D02*
X128700000Y-87150000D01*
X127760000Y-90085000D02*
X127760000Y-87530000D01*
X133980000Y-93855000D02*
X133980000Y-92805000D01*
X128700000Y-76675000D02*
X130460000Y-74915000D01*
X133980000Y-92805000D02*
X131275000Y-90100000D01*
X133980000Y-95955000D02*
X133980000Y-93855000D01*
X127775000Y-90100000D02*
X127760000Y-90085000D01*
X130460000Y-74915000D02*
X130460000Y-70655000D01*
X127050000Y-87304852D02*
X127050000Y-79950000D01*
X127050000Y-87304852D02*
X127324978Y-87029874D01*
X128900000Y-95955000D02*
X127050000Y-94105000D01*
X131560000Y-75440000D02*
X131560000Y-70655000D01*
X127050000Y-79950000D02*
X131560000Y-75440000D01*
X127050000Y-94105000D02*
X127050000Y-87304852D01*
X126360000Y-87533000D02*
X126363000Y-87530000D01*
D25*
X141950000Y-85375000D02*
X140725000Y-85375000D01*
X126360000Y-95955000D02*
X130005000Y-99600000D01*
X123485000Y-83151622D02*
X123485000Y-68305000D01*
X132660000Y-66830000D02*
X132660000Y-70655000D01*
X141125000Y-99600000D02*
X143250000Y-97475000D01*
D24*
X126363000Y-87029874D02*
X126363000Y-86529748D01*
D25*
X130005000Y-99600000D02*
X141125000Y-99600000D01*
X126360000Y-95955000D02*
X126360000Y-87533000D01*
D24*
X126363000Y-87530000D02*
X126363000Y-87029874D01*
X138175000Y-88925000D02*
X138175000Y-86875000D01*
X126363000Y-86529748D02*
X126363000Y-86029622D01*
D25*
X130635000Y-64805000D02*
X132660000Y-66830000D01*
X126363000Y-86029622D02*
X123485000Y-83151622D01*
X143250000Y-86675000D02*
X141950000Y-85375000D01*
X123485000Y-68305000D02*
X126985000Y-64805000D01*
X126985000Y-64805000D02*
X130635000Y-64805000D01*
X143250000Y-97475000D02*
X143250000Y-86675000D01*
D24*
X133760000Y-82265000D02*
X133760000Y-70655000D01*
X133035000Y-97550000D02*
X139650000Y-97550000D01*
X140430000Y-86930000D02*
X139900000Y-86400000D01*
X139650000Y-97550000D02*
X140430000Y-96770000D01*
X139900000Y-70275000D02*
X138075000Y-68450000D01*
X127760000Y-86029622D02*
X129995378Y-86029622D01*
X133760000Y-68790000D02*
X133760000Y-70655000D01*
X139900000Y-86400000D02*
X139900000Y-70275000D01*
X131440000Y-95955000D02*
X133035000Y-97550000D01*
X140430000Y-96770000D02*
X140430000Y-86930000D01*
X134100000Y-68450000D02*
X133760000Y-68790000D01*
X129995378Y-86029622D02*
X133760000Y-82265000D01*
X138075000Y-68450000D02*
X134100000Y-68450000D01*
X141600000Y-96575000D02*
X139900000Y-98275000D01*
X141600000Y-95955000D02*
X141600000Y-96575000D01*
X130150000Y-87579748D02*
X129100000Y-86529748D01*
X129100000Y-86529748D02*
X132045252Y-86529748D01*
X139900000Y-98275000D02*
X131500000Y-98275000D01*
X135960000Y-82615000D02*
X135960000Y-70655000D01*
X132045252Y-86529748D02*
X135960000Y-82615000D01*
X131500000Y-98275000D02*
X130150000Y-96925000D01*
X130150000Y-96925000D02*
X130150000Y-87579748D01*
X137060000Y-70655000D02*
X137060000Y-83360000D01*
X137060000Y-83360000D02*
X139075000Y-85375000D01*
X139060000Y-85390000D02*
X139075000Y-85375000D01*
X139060000Y-95955000D02*
X139060000Y-85390000D01*
M02*
