M48
; DRILL file {KiCad 7.0.8-7.0.8~ubuntu22.04.1} date Wed 25 Oct 2023 08:52:28 CEST
; FORMAT={-:-/ absolute / metric / decimal}
; #@! TF.CreationDate,2023-10-25T08:52:28+02:00
; #@! TF.GenerationSoftware,Kicad,Pcbnew,7.0.8-7.0.8~ubuntu22.04.1
; #@! TF.FileFunction,Plated,1,2,PTH
FMAT,2
METRIC
; #@! TA.AperFunction,Plated,PTH,ViaDrill
T1C0.300
; #@! TA.AperFunction,Plated,PTH,ViaDrill
T2C0.400
; #@! TA.AperFunction,Plated,PTH,ComponentDrill
T3C1.000
%
G90
G05
T1
X119.93Y-74.715
X119.93Y-76.761
X119.93Y-78.807
X119.93Y-80.853
X119.93Y-82.899
X119.93Y-84.945
T2
X76.56Y-81.18
X76.58Y-74.39
X85.54Y-82.71
X85.56Y-71.12
X85.56Y-76.95
X88.61Y-95.155
X94.41Y-94.83
X96.37Y-86.54
X97.36Y-68.64
X97.36Y-78.37
X107.685Y-72.08
X126.61Y-62.155
X127.775Y-90.1
X128.7Y-76.675
X128.7Y-87.15
X129.35Y-74.2
X130.675Y-87.15
X131.275Y-90.1
X134.85Y-72.25
X138.135Y-62.13
X138.175Y-86.875
X141.625Y-85.35
T3
X123.82Y-95.955
X126.36Y-95.955
X128.9Y-95.955
X131.44Y-95.955
X133.98Y-95.955
X136.52Y-95.955
X139.06Y-95.955
X141.6Y-95.955
T0
M30
