%TF.GenerationSoftware,KiCad,Pcbnew,7.0.5-4d25ed1034~172~ubuntu22.04.1*%
%TF.CreationDate,2023-07-08T07:21:56+02:00*%
%TF.ProjectId,epaper-breakout,65706170-6572-42d6-9272-65616b6f7574,rev?*%
%TF.SameCoordinates,Original*%
%TF.FileFunction,Drillmap*%
%TF.FilePolarity,Positive*%
%FSLAX45Y45*%
G04 Gerber Fmt 4.5, Leading zero omitted, Abs format (unit mm)*
G04 Created by KiCad (PCBNEW 7.0.5-4d25ed1034~172~ubuntu22.04.1) date 2023-07-08 07:21:56*
%MOMM*%
%LPD*%
G01*
G04 APERTURE LIST*
%ADD10C,0.050000*%
%ADD11C,0.200000*%
%ADD12C,0.025400*%
%ADD13C,0.030000*%
%ADD14C,0.040000*%
%ADD15C,0.060000*%
%ADD16C,0.100000*%
G04 APERTURE END LIST*
D10*
X2500000Y-6250000D02*
X2500000Y-1150000D01*
X2700000Y-6450000D02*
X8130000Y-6448579D01*
X12500000Y-1150000D02*
X12500000Y-6250000D01*
X2700000Y-950000D02*
X12300000Y-950000D01*
X2700000Y-950000D02*
G75*
G03*
X2500000Y-1150000I0J-200000D01*
G01*
X8530000Y-5760000D02*
G75*
G03*
X8330000Y-5960000I0J-200000D01*
G01*
X8330000Y-6248579D02*
X8330000Y-5960000D01*
X8130000Y-6448580D02*
G75*
G03*
X8330000Y-6248579I0J200000D01*
G01*
X11066621Y-6248579D02*
G75*
G03*
X11266621Y-6448579I199999J-1D01*
G01*
X8870000Y-5760000D02*
X8530000Y-5760000D01*
X12500000Y-1150000D02*
G75*
G03*
X12300000Y-950000I-200000J0D01*
G01*
X2500000Y-6250000D02*
G75*
G03*
X2700000Y-6450000I200000J0D01*
G01*
X11066621Y-6248579D02*
X11068579Y-5961421D01*
X12300000Y-6450000D02*
G75*
G03*
X12500000Y-6250000I0J200000D01*
G01*
X11266621Y-6448579D02*
X12300000Y-6450000D01*
X11068579Y-5961421D02*
G75*
G03*
X10868579Y-5761421I-199999J1D01*
G01*
X10868579Y-5761421D02*
X8870000Y-5760000D01*
D11*
D12*
X6332220Y-4452620D02*
X6357620Y-4478020D01*
X6357620Y-4452620D02*
X6332220Y-4478020D01*
X6332220Y-4531360D02*
X6357620Y-4556760D01*
X6357620Y-4531360D02*
X6332220Y-4556760D01*
X6332220Y-4610100D02*
X6357620Y-4635500D01*
X6357620Y-4610100D02*
X6332220Y-4635500D01*
X6332220Y-4688840D02*
X6357620Y-4714240D01*
X6357620Y-4688840D02*
X6332220Y-4714240D01*
X6332220Y-4767580D02*
X6357620Y-4792980D01*
X6357620Y-4767580D02*
X6332220Y-4792980D01*
X6410960Y-4452620D02*
X6436360Y-4478020D01*
X6436360Y-4452620D02*
X6410960Y-4478020D01*
X6410960Y-4531360D02*
X6436360Y-4556760D01*
X6436360Y-4531360D02*
X6410960Y-4556760D01*
X6410960Y-4610100D02*
X6436360Y-4635500D01*
X6436360Y-4610100D02*
X6410960Y-4635500D01*
X6410960Y-4688840D02*
X6436360Y-4714240D01*
X6436360Y-4688840D02*
X6410960Y-4714240D01*
X6410960Y-4767580D02*
X6436360Y-4792980D01*
X6436360Y-4767580D02*
X6410960Y-4792980D01*
X6489700Y-4452620D02*
X6515100Y-4478020D01*
X6515100Y-4452620D02*
X6489700Y-4478020D01*
X6489700Y-4531360D02*
X6515100Y-4556760D01*
X6515100Y-4531360D02*
X6489700Y-4556760D01*
X6489700Y-4610100D02*
X6515100Y-4635500D01*
X6515100Y-4610100D02*
X6489700Y-4635500D01*
X6489700Y-4688840D02*
X6515100Y-4714240D01*
X6515100Y-4688840D02*
X6489700Y-4714240D01*
X6489700Y-4767580D02*
X6515100Y-4792980D01*
X6515100Y-4767580D02*
X6489700Y-4792980D01*
X6568440Y-4452620D02*
X6593840Y-4478020D01*
X6593840Y-4452620D02*
X6568440Y-4478020D01*
X6568440Y-4531360D02*
X6593840Y-4556760D01*
X6593840Y-4531360D02*
X6568440Y-4556760D01*
X6568440Y-4610100D02*
X6593840Y-4635500D01*
X6593840Y-4610100D02*
X6568440Y-4635500D01*
X6568440Y-4688840D02*
X6593840Y-4714240D01*
X6593840Y-4688840D02*
X6568440Y-4714240D01*
X6568440Y-4767580D02*
X6593840Y-4792980D01*
X6593840Y-4767580D02*
X6568440Y-4792980D01*
X6647180Y-4452620D02*
X6672580Y-4478020D01*
X6672580Y-4452620D02*
X6647180Y-4478020D01*
X6647180Y-4531360D02*
X6672580Y-4556760D01*
X6672580Y-4531360D02*
X6647180Y-4556760D01*
X6647180Y-4610100D02*
X6672580Y-4635500D01*
X6672580Y-4610100D02*
X6647180Y-4635500D01*
X6647180Y-4688840D02*
X6672580Y-4714240D01*
X6672580Y-4688840D02*
X6647180Y-4714240D01*
X6647180Y-4767580D02*
X6672580Y-4792980D01*
X6672580Y-4767580D02*
X6647180Y-4792980D01*
D13*
X9887000Y-2220000D02*
G75*
G03*
X9887000Y-2220000I-15000J0D01*
G01*
X10043000Y-2507000D02*
G75*
G03*
X10043000Y-2507000I-15000J0D01*
G01*
X10170000Y-1339000D02*
G75*
G03*
X10170000Y-1339000I-15000J0D01*
G01*
X10257000Y-2580000D02*
G75*
G03*
X10257000Y-2580000I-15000J0D01*
G01*
X10290000Y-1335000D02*
G75*
G03*
X10290000Y-1335000I-15000J0D01*
G01*
X10477000Y-1725000D02*
G75*
G03*
X10477000Y-1725000I-15000J0D01*
G01*
X10504000Y-1232000D02*
G75*
G03*
X10504000Y-1232000I-15000J0D01*
G01*
X10563000Y-1326000D02*
G75*
G03*
X10563000Y-1326000I-15000J0D01*
G01*
X10621000Y-1015000D02*
G75*
G03*
X10621000Y-1015000I-15000J0D01*
G01*
X10680000Y-1040000D02*
G75*
G03*
X10680000Y-1040000I-15000J0D01*
G01*
X10739000Y-1819000D02*
G75*
G03*
X10739000Y-1819000I-15000J0D01*
G01*
X10744000Y-1013000D02*
G75*
G03*
X10744000Y-1013000I-15000J0D01*
G01*
X10792000Y-1546000D02*
G75*
G03*
X10792000Y-1546000I-15000J0D01*
G01*
X10802000Y-1051000D02*
G75*
G03*
X10802000Y-1051000I-15000J0D01*
G01*
X10845000Y-1793000D02*
G75*
G03*
X10845000Y-1793000I-15000J0D01*
G01*
X10862000Y-1033000D02*
G75*
G03*
X10862000Y-1033000I-15000J0D01*
G01*
X10899000Y-1841000D02*
G75*
G03*
X10899000Y-1841000I-15000J0D01*
G01*
X10912000Y-1776000D02*
G75*
G03*
X10912000Y-1776000I-15000J0D01*
G01*
X10924000Y-1044000D02*
G75*
G03*
X10924000Y-1044000I-15000J0D01*
G01*
X10950000Y-1321000D02*
G75*
G03*
X10950000Y-1321000I-15000J0D01*
G01*
X10988000Y-1040000D02*
G75*
G03*
X10988000Y-1040000I-15000J0D01*
G01*
X11017000Y-1520000D02*
G75*
G03*
X11017000Y-1520000I-15000J0D01*
G01*
X11042000Y-1198000D02*
G75*
G03*
X11042000Y-1198000I-15000J0D01*
G01*
X11047000Y-2170000D02*
G75*
G03*
X11047000Y-2170000I-15000J0D01*
G01*
X11087000Y-2243000D02*
G75*
G03*
X11087000Y-2243000I-15000J0D01*
G01*
X11101000Y-1036000D02*
G75*
G03*
X11101000Y-1036000I-15000J0D01*
G01*
X11197000Y-1031000D02*
G75*
G03*
X11197000Y-1031000I-15000J0D01*
G01*
D14*
X2850000Y-3860000D02*
X2850000Y-3900000D01*
X2830000Y-3880000D02*
X2870000Y-3880000D01*
X3060000Y-5930000D02*
X3060000Y-5970000D01*
X3040000Y-5950000D02*
X3080000Y-5950000D01*
X3165000Y-6105000D02*
X3165000Y-6145000D01*
X3145000Y-6125000D02*
X3185000Y-6125000D01*
X3365000Y-5480000D02*
X3365000Y-5520000D01*
X3345000Y-5500000D02*
X3385000Y-5500000D01*
X3430000Y-3370000D02*
X3430000Y-3410000D01*
X3410000Y-3390000D02*
X3450000Y-3390000D01*
X3460000Y-2660000D02*
X3460000Y-2700000D01*
X3440000Y-2680000D02*
X3480000Y-2680000D01*
X3460000Y-4570000D02*
X3460000Y-4610000D01*
X3440000Y-4590000D02*
X3480000Y-4590000D01*
X3563394Y-6046444D02*
X3563394Y-6086444D01*
X3543394Y-6066444D02*
X3583394Y-6066444D01*
X3565000Y-6180000D02*
X3565000Y-6220000D01*
X3545000Y-6200000D02*
X3585000Y-6200000D01*
X3570000Y-2760000D02*
X3570000Y-2800000D01*
X3550000Y-2780000D02*
X3590000Y-2780000D01*
X3570000Y-3260000D02*
X3570000Y-3300000D01*
X3550000Y-3280000D02*
X3590000Y-3280000D01*
X3670858Y-2910801D02*
X3670858Y-2950801D01*
X3650858Y-2930801D02*
X3690858Y-2930801D01*
X3750000Y-3090000D02*
X3750000Y-3130000D01*
X3730000Y-3110000D02*
X3770000Y-3110000D01*
X3760000Y-2290000D02*
X3760000Y-2330000D01*
X3740000Y-2310000D02*
X3780000Y-2310000D01*
X3760000Y-3800000D02*
X3760000Y-3840000D01*
X3740000Y-3820000D02*
X3780000Y-3820000D01*
X3810000Y-4720000D02*
X3810000Y-4760000D01*
X3790000Y-4740000D02*
X3830000Y-4740000D01*
X3980000Y-2380000D02*
X3980000Y-2420000D01*
X3960000Y-2400000D02*
X4000000Y-2400000D01*
X4020000Y-3560000D02*
X4020000Y-3600000D01*
X4000000Y-3580000D02*
X4040000Y-3580000D01*
X4046634Y-2866634D02*
X4046634Y-2906634D01*
X4026634Y-2886634D02*
X4066634Y-2886634D01*
X4060000Y-2510000D02*
X4060000Y-2550000D01*
X4040000Y-2530000D02*
X4080000Y-2530000D01*
X4240000Y-2150000D02*
X4240000Y-2190000D01*
X4220000Y-2170000D02*
X4260000Y-2170000D01*
X4440000Y-4150000D02*
X4440000Y-4190000D01*
X4420000Y-4170000D02*
X4460000Y-4170000D01*
X4460000Y-3970000D02*
X4460000Y-4010000D01*
X4440000Y-3990000D02*
X4480000Y-3990000D01*
X4540000Y-4430000D02*
X4540000Y-4470000D01*
X4520000Y-4450000D02*
X4560000Y-4450000D01*
X4550000Y-5055000D02*
X4550000Y-5095000D01*
X4530000Y-5075000D02*
X4570000Y-5075000D01*
X4925000Y-4705000D02*
X4925000Y-4745000D01*
X4905000Y-4725000D02*
X4945000Y-4725000D01*
X4925000Y-4930000D02*
X4925000Y-4970000D01*
X4905000Y-4950000D02*
X4945000Y-4950000D01*
X5100000Y-3380000D02*
X5100000Y-3420000D01*
X5080000Y-3400000D02*
X5120000Y-3400000D01*
X5200000Y-3780000D02*
X5200000Y-3820000D01*
X5180000Y-3800000D02*
X5220000Y-3800000D01*
X5225000Y-3380000D02*
X5225000Y-3420000D01*
X5205000Y-3400000D02*
X5245000Y-3400000D01*
X5262928Y-4684762D02*
X5262928Y-4724762D01*
X5242928Y-4704762D02*
X5282928Y-4704762D01*
X5275000Y-4780000D02*
X5275000Y-4820000D01*
X5255000Y-4800000D02*
X5295000Y-4800000D01*
X5300000Y-3730000D02*
X5300000Y-3770000D01*
X5280000Y-3750000D02*
X5320000Y-3750000D01*
X5300000Y-4564000D02*
X5300000Y-4604000D01*
X5280000Y-4584000D02*
X5320000Y-4584000D01*
X5350000Y-4946400D02*
X5350000Y-4986400D01*
X5330000Y-4966400D02*
X5370000Y-4966400D01*
X5380000Y-3300000D02*
X5380000Y-3340000D01*
X5360000Y-3320000D02*
X5400000Y-3320000D01*
X5380000Y-3540000D02*
X5380000Y-3580000D01*
X5360000Y-3560000D02*
X5400000Y-3560000D01*
X5400000Y-3010000D02*
X5400000Y-3050000D01*
X5380000Y-3030000D02*
X5420000Y-3030000D01*
X5400000Y-5905000D02*
X5400000Y-5945000D01*
X5380000Y-5925000D02*
X5420000Y-5925000D01*
X5439669Y-4540410D02*
X5439669Y-4580410D01*
X5419669Y-4560410D02*
X5459669Y-4560410D01*
X5440000Y-3180000D02*
X5440000Y-3220000D01*
X5420000Y-3200000D02*
X5460000Y-3200000D01*
X5440000Y-3420000D02*
X5440000Y-3460000D01*
X5420000Y-3440000D02*
X5460000Y-3440000D01*
X5515169Y-2975169D02*
X5515169Y-3015169D01*
X5495169Y-2995169D02*
X5535169Y-2995169D01*
X5525000Y-5480000D02*
X5525000Y-5520000D01*
X5505000Y-5500000D02*
X5545000Y-5500000D01*
X5525000Y-5580000D02*
X5525000Y-5620000D01*
X5505000Y-5600000D02*
X5545000Y-5600000D01*
X5543800Y-4661200D02*
X5543800Y-4701200D01*
X5523800Y-4681200D02*
X5563800Y-4681200D01*
X5560000Y-3120000D02*
X5560000Y-3160000D01*
X5540000Y-3140000D02*
X5580000Y-3140000D01*
X5680000Y-3180000D02*
X5680000Y-3220000D01*
X5660000Y-3200000D02*
X5700000Y-3200000D01*
X5700000Y-5680000D02*
X5700000Y-5720000D01*
X5680000Y-5700000D02*
X5720000Y-5700000D01*
X5700000Y-5780000D02*
X5700000Y-5820000D01*
X5680000Y-5800000D02*
X5720000Y-5800000D01*
X5760000Y-2480000D02*
X5760000Y-2520000D01*
X5740000Y-2500000D02*
X5780000Y-2500000D01*
X5760000Y-2640000D02*
X5760000Y-2680000D01*
X5740000Y-2660000D02*
X5780000Y-2660000D01*
X5780000Y-3120000D02*
X5780000Y-3160000D01*
X5760000Y-3140000D02*
X5800000Y-3140000D01*
X5825000Y-5680000D02*
X5825000Y-5720000D01*
X5805000Y-5700000D02*
X5845000Y-5700000D01*
X5825000Y-5780000D02*
X5825000Y-5820000D01*
X5805000Y-5800000D02*
X5845000Y-5800000D01*
X5825000Y-5880000D02*
X5825000Y-5920000D01*
X5805000Y-5900000D02*
X5845000Y-5900000D01*
X5849678Y-4689440D02*
X5849678Y-4729440D01*
X5829678Y-4709440D02*
X5869678Y-4709440D01*
X5860000Y-2210000D02*
X5860000Y-2250000D01*
X5840000Y-2230000D02*
X5880000Y-2230000D01*
X5860100Y-4590100D02*
X5860100Y-4630100D01*
X5840100Y-4610100D02*
X5880100Y-4610100D01*
X5880000Y-3180000D02*
X5880000Y-3220000D01*
X5860000Y-3200000D02*
X5900000Y-3200000D01*
X5931470Y-4739699D02*
X5931470Y-4779699D01*
X5911470Y-4759699D02*
X5951470Y-4759699D01*
X5950000Y-5905000D02*
X5950000Y-5945000D01*
X5930000Y-5925000D02*
X5970000Y-5925000D01*
X6027675Y-4513703D02*
X6027675Y-4553703D01*
X6007675Y-4533703D02*
X6047675Y-4533703D01*
X6032626Y-4335974D02*
X6032626Y-4375974D01*
X6012626Y-4355974D02*
X6052626Y-4355974D01*
X6045200Y-4844100D02*
X6045200Y-4884100D01*
X6025200Y-4864100D02*
X6065200Y-4864100D01*
X6050000Y-3955000D02*
X6050000Y-3995000D01*
X6030000Y-3975000D02*
X6070000Y-3975000D01*
X6060000Y-3440000D02*
X6060000Y-3480000D01*
X6040000Y-3460000D02*
X6080000Y-3460000D01*
X6075000Y-3880000D02*
X6075000Y-3920000D01*
X6055000Y-3900000D02*
X6095000Y-3900000D01*
X6075000Y-5905000D02*
X6075000Y-5945000D01*
X6055000Y-5925000D02*
X6095000Y-5925000D01*
X6120000Y-3320000D02*
X6120000Y-3360000D01*
X6100000Y-3340000D02*
X6140000Y-3340000D01*
X6175000Y-3880000D02*
X6175000Y-3920000D01*
X6155000Y-3900000D02*
X6195000Y-3900000D01*
X6201553Y-3656553D02*
X6201553Y-3696553D01*
X6181553Y-3676553D02*
X6221553Y-3676553D01*
X6225000Y-5905000D02*
X6225000Y-5945000D01*
X6205000Y-5925000D02*
X6245000Y-5925000D01*
X6275000Y-6005000D02*
X6275000Y-6045000D01*
X6255000Y-6025000D02*
X6295000Y-6025000D01*
X6280000Y-2140000D02*
X6280000Y-2180000D01*
X6260000Y-2160000D02*
X6300000Y-2160000D01*
X6292779Y-3867324D02*
X6292779Y-3907324D01*
X6272779Y-3887324D02*
X6312779Y-3887324D01*
X6300000Y-5705000D02*
X6300000Y-5745000D01*
X6280000Y-5725000D02*
X6320000Y-5725000D01*
X6300000Y-5830000D02*
X6300000Y-5870000D01*
X6280000Y-5850000D02*
X6320000Y-5850000D01*
X6310000Y-2708450D02*
X6310000Y-2748450D01*
X6290000Y-2728450D02*
X6330000Y-2728450D01*
X6385400Y-3669600D02*
X6385400Y-3709600D01*
X6365400Y-3689600D02*
X6405400Y-3689600D01*
X6400000Y-3755000D02*
X6400000Y-3795000D01*
X6380000Y-3775000D02*
X6420000Y-3775000D01*
X6420000Y-2710000D02*
X6420000Y-2750000D01*
X6400000Y-2730000D02*
X6440000Y-2730000D01*
X6436728Y-5138466D02*
X6436728Y-5178466D01*
X6416728Y-5158466D02*
X6456728Y-5158466D01*
X6487636Y-3989400D02*
X6487636Y-4029400D01*
X6467636Y-4009400D02*
X6507636Y-4009400D01*
X6500000Y-3130000D02*
X6500000Y-3170000D01*
X6480000Y-3150000D02*
X6520000Y-3150000D01*
X6512399Y-4082100D02*
X6512399Y-4122100D01*
X6492399Y-4102100D02*
X6532399Y-4102100D01*
X6550000Y-5805000D02*
X6550000Y-5845000D01*
X6530000Y-5825000D02*
X6570000Y-5825000D01*
X6550000Y-6005000D02*
X6550000Y-6045000D01*
X6530000Y-6025000D02*
X6570000Y-6025000D01*
X6582766Y-4002766D02*
X6582766Y-4042766D01*
X6562766Y-4022766D02*
X6602766Y-4022766D01*
X6675000Y-5630000D02*
X6675000Y-5670000D01*
X6655000Y-5650000D02*
X6695000Y-5650000D01*
X6679525Y-3999275D02*
X6679525Y-4039275D01*
X6659525Y-4019275D02*
X6699525Y-4019275D01*
X6700000Y-3060000D02*
X6700000Y-3100000D01*
X6680000Y-3080000D02*
X6720000Y-3080000D01*
X6725000Y-5830000D02*
X6725000Y-5870000D01*
X6705000Y-5850000D02*
X6745000Y-5850000D01*
X6760400Y-3669600D02*
X6760400Y-3709600D01*
X6740400Y-3689600D02*
X6780400Y-3689600D01*
X6775000Y-3555000D02*
X6775000Y-3595000D01*
X6755000Y-3575000D02*
X6795000Y-3575000D01*
X6775000Y-5730000D02*
X6775000Y-5770000D01*
X6755000Y-5750000D02*
X6795000Y-5750000D01*
X6790000Y-2480000D02*
X6790000Y-2520000D01*
X6770000Y-2500000D02*
X6810000Y-2500000D01*
X6794400Y-5510600D02*
X6794400Y-5550600D01*
X6774400Y-5530600D02*
X6814400Y-5530600D01*
X6794500Y-5113300D02*
X6794500Y-5153300D01*
X6774500Y-5133300D02*
X6814500Y-5133300D01*
X6807200Y-4196400D02*
X6807200Y-4236400D01*
X6787200Y-4216400D02*
X6827200Y-4216400D01*
X6825000Y-3780000D02*
X6825000Y-3820000D01*
X6805000Y-3800000D02*
X6845000Y-3800000D01*
X6845174Y-4933126D02*
X6845174Y-4973126D01*
X6825174Y-4953126D02*
X6865174Y-4953126D01*
X6850000Y-3555000D02*
X6850000Y-3595000D01*
X6830000Y-3575000D02*
X6870000Y-3575000D01*
X6854000Y-3925100D02*
X6854000Y-3965100D01*
X6834000Y-3945100D02*
X6874000Y-3945100D01*
X6865900Y-5630000D02*
X6865900Y-5670000D01*
X6845900Y-5650000D02*
X6885900Y-5650000D01*
X6890000Y-2540000D02*
X6890000Y-2580000D01*
X6870000Y-2560000D02*
X6910000Y-2560000D01*
X6890000Y-3400000D02*
X6890000Y-3440000D01*
X6870000Y-3420000D02*
X6910000Y-3420000D01*
X6895950Y-2140000D02*
X6895950Y-2180000D01*
X6875950Y-2160000D02*
X6915950Y-2160000D01*
X6900000Y-3180000D02*
X6900000Y-3220000D01*
X6880000Y-3200000D02*
X6920000Y-3200000D01*
X6959831Y-3080169D02*
X6959831Y-3120169D01*
X6939831Y-3100169D02*
X6979831Y-3100169D01*
X6970000Y-3330000D02*
X6970000Y-3370000D01*
X6950000Y-3350000D02*
X6990000Y-3350000D01*
X7000000Y-2150000D02*
X7000000Y-2190000D01*
X6980000Y-2170000D02*
X7020000Y-2170000D01*
X7051366Y-3279146D02*
X7051366Y-3319146D01*
X7031366Y-3299146D02*
X7071366Y-3299146D01*
X7099300Y-4582200D02*
X7099300Y-4622200D01*
X7079300Y-4602200D02*
X7119300Y-4602200D01*
X7099300Y-4729800D02*
X7099300Y-4769800D01*
X7079300Y-4749800D02*
X7119300Y-4749800D01*
X7110000Y-2240000D02*
X7110000Y-2280000D01*
X7090000Y-2260000D02*
X7130000Y-2260000D01*
X7110000Y-4920000D02*
X7110000Y-4960000D01*
X7090000Y-4940000D02*
X7130000Y-4940000D01*
X7119709Y-4178567D02*
X7119709Y-4218567D01*
X7099709Y-4198567D02*
X7139709Y-4198567D01*
X7130000Y-3580000D02*
X7130000Y-3620000D01*
X7110000Y-3600000D02*
X7150000Y-3600000D01*
X7137400Y-4420200D02*
X7137400Y-4460200D01*
X7117400Y-4440200D02*
X7157400Y-4440200D01*
X7138794Y-4272600D02*
X7138794Y-4312600D01*
X7118794Y-4292600D02*
X7158794Y-4292600D01*
X7190000Y-2730000D02*
X7190000Y-2770000D01*
X7170000Y-2750000D02*
X7210000Y-2750000D01*
X7196763Y-4614224D02*
X7196763Y-4654224D01*
X7176763Y-4634224D02*
X7216763Y-4634224D01*
X7200000Y-1790000D02*
X7200000Y-1830000D01*
X7180000Y-1810000D02*
X7220000Y-1810000D01*
X7209226Y-3974645D02*
X7209226Y-4014645D01*
X7189226Y-3994645D02*
X7229226Y-3994645D01*
X7210000Y-2210000D02*
X7210000Y-2250000D01*
X7190000Y-2230000D02*
X7230000Y-2230000D01*
X7210000Y-2960000D02*
X7210000Y-3000000D01*
X7190000Y-2980000D02*
X7230000Y-2980000D01*
X7225000Y-3880000D02*
X7225000Y-3920000D01*
X7205000Y-3900000D02*
X7245000Y-3900000D01*
X7250000Y-3730000D02*
X7250000Y-3770000D01*
X7230000Y-3750000D02*
X7270000Y-3750000D01*
X7300000Y-5684000D02*
X7300000Y-5724000D01*
X7280000Y-5704000D02*
X7320000Y-5704000D01*
X7309153Y-5319050D02*
X7309153Y-5359050D01*
X7289153Y-5339050D02*
X7329153Y-5339050D01*
X7350000Y-3830000D02*
X7350000Y-3870000D01*
X7330000Y-3850000D02*
X7370000Y-3850000D01*
X7390000Y-3300000D02*
X7390000Y-3340000D01*
X7370000Y-3320000D02*
X7410000Y-3320000D01*
X7403450Y-2490000D02*
X7403450Y-2530000D01*
X7383450Y-2510000D02*
X7423450Y-2510000D01*
X7425000Y-4380000D02*
X7425000Y-4420000D01*
X7405000Y-4400000D02*
X7445000Y-4400000D01*
X7450000Y-4605000D02*
X7450000Y-4645000D01*
X7430000Y-4625000D02*
X7470000Y-4625000D01*
X7450000Y-4830000D02*
X7450000Y-4870000D01*
X7430000Y-4850000D02*
X7470000Y-4850000D01*
X7500000Y-2220000D02*
X7500000Y-2260000D01*
X7480000Y-2240000D02*
X7520000Y-2240000D01*
X7500000Y-5790000D02*
X7500000Y-5830000D01*
X7480000Y-5810000D02*
X7520000Y-5810000D01*
X7544889Y-5605000D02*
X7544889Y-5645000D01*
X7524889Y-5625000D02*
X7564889Y-5625000D01*
X7570000Y-2450000D02*
X7570000Y-2490000D01*
X7550000Y-2470000D02*
X7590000Y-2470000D01*
X7570000Y-2840000D02*
X7570000Y-2880000D01*
X7550000Y-2860000D02*
X7590000Y-2860000D01*
X7570550Y-2660000D02*
X7570550Y-2700000D01*
X7550550Y-2680000D02*
X7590550Y-2680000D01*
X7570550Y-3073401D02*
X7570550Y-3113401D01*
X7550550Y-3093401D02*
X7590550Y-3093401D01*
X7580000Y-3310000D02*
X7580000Y-3350000D01*
X7560000Y-3330000D02*
X7600000Y-3330000D01*
X7600000Y-3955000D02*
X7600000Y-3995000D01*
X7580000Y-3975000D02*
X7620000Y-3975000D01*
X7600000Y-4180000D02*
X7600000Y-4220000D01*
X7580000Y-4200000D02*
X7620000Y-4200000D01*
X7600000Y-4405000D02*
X7600000Y-4445000D01*
X7580000Y-4425000D02*
X7620000Y-4425000D01*
X7600000Y-4630000D02*
X7600000Y-4670000D01*
X7580000Y-4650000D02*
X7620000Y-4650000D01*
X7600000Y-4855000D02*
X7600000Y-4895000D01*
X7580000Y-4875000D02*
X7620000Y-4875000D01*
X7600000Y-5030000D02*
X7600000Y-5070000D01*
X7580000Y-5050000D02*
X7620000Y-5050000D01*
X7660000Y-3250000D02*
X7660000Y-3290000D01*
X7640000Y-3270000D02*
X7680000Y-3270000D01*
X7675000Y-5330000D02*
X7675000Y-5370000D01*
X7655000Y-5350000D02*
X7695000Y-5350000D01*
X7676981Y-5442500D02*
X7676981Y-5482500D01*
X7656981Y-5462500D02*
X7696981Y-5462500D01*
X7700000Y-4955000D02*
X7700000Y-4995000D01*
X7680000Y-4975000D02*
X7720000Y-4975000D01*
X7820000Y-5730000D02*
X7820000Y-5770000D01*
X7800000Y-5750000D02*
X7840000Y-5750000D01*
X7845950Y-3510000D02*
X7845950Y-3550000D01*
X7825950Y-3530000D02*
X7865950Y-3530000D01*
X7850000Y-2590000D02*
X7850000Y-2630000D01*
X7830000Y-2610000D02*
X7870000Y-2610000D01*
X7874000Y-6110000D02*
X7874000Y-6150000D01*
X7854000Y-6130000D02*
X7894000Y-6130000D01*
X7880000Y-4290000D02*
X7880000Y-4330000D01*
X7860000Y-4310000D02*
X7900000Y-4310000D01*
X7890000Y-4400000D02*
X7890000Y-4440000D01*
X7870000Y-4420000D02*
X7910000Y-4420000D01*
X7910000Y-3158450D02*
X7910000Y-3198450D01*
X7890000Y-3178450D02*
X7930000Y-3178450D01*
X7917324Y-3574127D02*
X7917324Y-3614127D01*
X7897324Y-3594127D02*
X7937324Y-3594127D01*
X7920000Y-5800000D02*
X7920000Y-5840000D01*
X7900000Y-5820000D02*
X7940000Y-5820000D01*
X7971550Y-2920000D02*
X7971550Y-2960000D01*
X7951550Y-2940000D02*
X7991550Y-2940000D01*
X8050000Y-1558450D02*
X8050000Y-1598450D01*
X8030000Y-1578450D02*
X8070000Y-1578450D01*
X8050000Y-4400000D02*
X8050000Y-4440000D01*
X8030000Y-4420000D02*
X8070000Y-4420000D01*
X8050000Y-4555000D02*
X8050000Y-4595000D01*
X8030000Y-4575000D02*
X8070000Y-4575000D01*
X8054000Y-4655000D02*
X8054000Y-4695000D01*
X8034000Y-4675000D02*
X8074000Y-4675000D01*
X8080000Y-3990000D02*
X8080000Y-4030000D01*
X8060000Y-4010000D02*
X8100000Y-4010000D01*
X8128000Y-1867450D02*
X8128000Y-1907450D01*
X8108000Y-1887450D02*
X8148000Y-1887450D01*
X8170000Y-3450000D02*
X8170000Y-3490000D01*
X8150000Y-3470000D02*
X8190000Y-3470000D01*
X8190000Y-1970000D02*
X8190000Y-2010000D01*
X8170000Y-1990000D02*
X8210000Y-1990000D01*
X8199550Y-2480000D02*
X8199550Y-2520000D01*
X8179550Y-2500000D02*
X8219550Y-2500000D01*
X8200000Y-2640000D02*
X8200000Y-2680000D01*
X8180000Y-2660000D02*
X8220000Y-2660000D01*
X8330000Y-4589050D02*
X8330000Y-4629050D01*
X8310000Y-4609050D02*
X8350000Y-4609050D01*
X8468097Y-4015695D02*
X8468097Y-4055695D01*
X8448097Y-4035695D02*
X8488097Y-4035695D01*
X8530000Y-1630000D02*
X8530000Y-1670000D01*
X8510000Y-1650000D02*
X8550000Y-1650000D01*
X8540000Y-1500000D02*
X8540000Y-1540000D01*
X8520000Y-1520000D02*
X8560000Y-1520000D01*
X8561674Y-3994485D02*
X8561674Y-4034485D01*
X8541674Y-4014485D02*
X8581674Y-4014485D01*
X8600000Y-5640000D02*
X8600000Y-5680000D01*
X8580000Y-5660000D02*
X8620000Y-5660000D01*
X8654873Y-3971676D02*
X8654873Y-4011676D01*
X8634873Y-3991676D02*
X8674873Y-3991676D01*
X8910000Y-2160000D02*
X8910000Y-2200000D01*
X8890000Y-2180000D02*
X8930000Y-2180000D01*
X8968450Y-3220000D02*
X8968450Y-3260000D01*
X8948450Y-3240000D02*
X8988450Y-3240000D01*
X8970000Y-4040000D02*
X8970000Y-4080000D01*
X8950000Y-4060000D02*
X8990000Y-4060000D01*
X8980000Y-2810000D02*
X8980000Y-2850000D01*
X8960000Y-2830000D02*
X9000000Y-2830000D01*
X8990000Y-2540000D02*
X8990000Y-2580000D01*
X8970000Y-2560000D02*
X9010000Y-2560000D01*
X9030000Y-4140000D02*
X9030000Y-4180000D01*
X9010000Y-4160000D02*
X9050000Y-4160000D01*
X9070000Y-4770000D02*
X9070000Y-4810000D01*
X9050000Y-4790000D02*
X9090000Y-4790000D01*
X9082877Y-4232877D02*
X9082877Y-4272877D01*
X9062877Y-4252877D02*
X9102877Y-4252877D01*
X9110000Y-5010000D02*
X9110000Y-5050000D01*
X9090000Y-5030000D02*
X9130000Y-5030000D01*
X9157123Y-4307123D02*
X9157123Y-4347123D01*
X9137123Y-4327123D02*
X9177123Y-4327123D01*
X9165000Y-4805000D02*
X9165000Y-4845000D01*
X9145000Y-4825000D02*
X9185000Y-4825000D01*
X9380000Y-3200000D02*
X9380000Y-3240000D01*
X9360000Y-3220000D02*
X9400000Y-3220000D01*
X9469000Y-2796000D02*
X9469000Y-2836000D01*
X9449000Y-2816000D02*
X9489000Y-2816000D01*
X9470000Y-3130000D02*
X9470000Y-3170000D01*
X9450000Y-3150000D02*
X9490000Y-3150000D01*
X9560000Y-3270000D02*
X9560000Y-3310000D01*
X9540000Y-3290000D02*
X9580000Y-3290000D01*
X9570000Y-5020000D02*
X9570000Y-5060000D01*
X9550000Y-5040000D02*
X9590000Y-5040000D01*
X9610000Y-4670000D02*
X9610000Y-4710000D01*
X9590000Y-4690000D02*
X9630000Y-4690000D01*
X9805000Y-2566000D02*
X9805000Y-2606000D01*
X9785000Y-2586000D02*
X9825000Y-2586000D01*
X9844050Y-4276642D02*
X9844050Y-4316642D01*
X9824050Y-4296642D02*
X9864050Y-4296642D01*
X9881563Y-2658437D02*
X9881563Y-2698437D01*
X9861563Y-2678437D02*
X9901563Y-2678437D01*
X9912500Y-4347500D02*
X9912500Y-4387500D01*
X9892500Y-4367500D02*
X9932500Y-4367500D01*
X9935000Y-1524000D02*
X9935000Y-1564000D01*
X9915000Y-1544000D02*
X9955000Y-1544000D01*
X9936000Y-1235450D02*
X9936000Y-1275450D01*
X9916000Y-1255450D02*
X9956000Y-1255450D01*
X9981800Y-4428200D02*
X9981800Y-4468200D01*
X9961800Y-4448200D02*
X10001800Y-4448200D01*
X9994000Y-2281000D02*
X9994000Y-2321000D01*
X9974000Y-2301000D02*
X10014000Y-2301000D01*
X10040000Y-4660000D02*
X10040000Y-4700000D01*
X10020000Y-4680000D02*
X10060000Y-4680000D01*
X10050250Y-4500250D02*
X10050250Y-4540250D01*
X10030250Y-4520250D02*
X10070250Y-4520250D01*
X10070000Y-5020000D02*
X10070000Y-5060000D01*
X10050000Y-5040000D02*
X10090000Y-5040000D01*
X10118700Y-4568450D02*
X10118700Y-4608450D01*
X10098700Y-4588450D02*
X10138700Y-4588450D01*
X10119000Y-2575500D02*
X10119000Y-2615500D01*
X10099000Y-2595500D02*
X10139000Y-2595500D01*
X10120000Y-2800000D02*
X10120000Y-2840000D01*
X10100000Y-2820000D02*
X10140000Y-2820000D01*
X10187150Y-4636900D02*
X10187150Y-4676900D01*
X10167150Y-4656900D02*
X10207150Y-4656900D01*
X10239297Y-4803191D02*
X10239297Y-4843191D01*
X10219297Y-4823191D02*
X10259297Y-4823191D01*
X10249147Y-4898634D02*
X10249147Y-4938634D01*
X10229147Y-4918634D02*
X10269147Y-4918634D01*
X10260000Y-2670000D02*
X10260000Y-2710000D01*
X10240000Y-2690000D02*
X10280000Y-2690000D01*
X10300000Y-4980000D02*
X10300000Y-5020000D01*
X10280000Y-5000000D02*
X10320000Y-5000000D01*
X10413012Y-2628450D02*
X10413012Y-2668450D01*
X10393012Y-2648450D02*
X10433012Y-2648450D01*
X10426000Y-1978000D02*
X10426000Y-2018000D01*
X10406000Y-1998000D02*
X10446000Y-1998000D01*
X10484235Y-2789295D02*
X10484235Y-2829295D01*
X10464235Y-2809295D02*
X10504235Y-2809295D01*
X10486422Y-2690235D02*
X10486422Y-2730235D01*
X10466422Y-2710235D02*
X10506422Y-2710235D01*
X10581248Y-2789085D02*
X10581248Y-2829085D01*
X10561248Y-2809085D02*
X10601248Y-2809085D01*
X10590000Y-1749000D02*
X10590000Y-1789000D01*
X10570000Y-1769000D02*
X10610000Y-1769000D01*
X10677732Y-2886207D02*
X10677732Y-2926207D01*
X10657732Y-2906207D02*
X10697732Y-2906207D01*
X10678712Y-2788425D02*
X10678712Y-2828425D01*
X10658712Y-2808425D02*
X10698712Y-2808425D01*
X10760000Y-5640000D02*
X10760000Y-5680000D01*
X10740000Y-5660000D02*
X10780000Y-5660000D01*
X10773623Y-2889574D02*
X10773623Y-2929574D01*
X10753623Y-2909574D02*
X10793623Y-2909574D01*
X10880000Y-2900000D02*
X10880000Y-2940000D01*
X10860000Y-2920000D02*
X10900000Y-2920000D01*
X10890018Y-3106785D02*
X10890018Y-3146785D01*
X10870018Y-3126785D02*
X10910018Y-3126785D01*
X10892980Y-3206550D02*
X10892980Y-3246550D01*
X10872980Y-3226550D02*
X10912980Y-3226550D01*
X10966098Y-2769721D02*
X10966098Y-2809721D01*
X10946098Y-2789721D02*
X10986098Y-2789721D01*
X10970000Y-2950000D02*
X10970000Y-2990000D01*
X10950000Y-2970000D02*
X10990000Y-2970000D01*
X10976000Y-2014000D02*
X10976000Y-2054000D01*
X10956000Y-2034000D02*
X10996000Y-2034000D01*
X10980000Y-3870000D02*
X10980000Y-3910000D01*
X10960000Y-3890000D02*
X11000000Y-3890000D01*
X11043450Y-2628450D02*
X11043450Y-2668450D01*
X11023450Y-2648450D02*
X11063450Y-2648450D01*
X11060000Y-2750000D02*
X11060000Y-2790000D01*
X11040000Y-2770000D02*
X11080000Y-2770000D01*
X11110000Y-4570000D02*
X11110000Y-4610000D01*
X11090000Y-4590000D02*
X11130000Y-4590000D01*
X11150000Y-4480000D02*
X11150000Y-4520000D01*
X11130000Y-4500000D02*
X11170000Y-4500000D01*
X11190000Y-5870000D02*
X11190000Y-5910000D01*
X11170000Y-5890000D02*
X11210000Y-5890000D01*
X11215000Y-2522000D02*
X11215000Y-2562000D01*
X11195000Y-2542000D02*
X11235000Y-2542000D01*
X11274000Y-2191000D02*
X11274000Y-2231000D01*
X11254000Y-2211000D02*
X11294000Y-2211000D01*
X11290000Y-5720000D02*
X11290000Y-5760000D01*
X11270000Y-5740000D02*
X11310000Y-5740000D01*
X11320000Y-6160000D02*
X11320000Y-6200000D01*
X11300000Y-6180000D02*
X11340000Y-6180000D01*
X11431276Y-2691259D02*
X11431276Y-2731259D01*
X11411276Y-2711259D02*
X11451276Y-2711259D01*
X11450000Y-6280000D02*
X11450000Y-6320000D01*
X11430000Y-6300000D02*
X11470000Y-6300000D01*
X11477149Y-5477556D02*
X11477149Y-5517556D01*
X11457149Y-5497556D02*
X11497149Y-5497556D01*
X11495409Y-4425000D02*
X11495409Y-4465000D01*
X11475409Y-4445000D02*
X11515409Y-4445000D01*
X11505000Y-2284000D02*
X11505000Y-2324000D01*
X11485000Y-2304000D02*
X11525000Y-2304000D01*
X11511159Y-2744500D02*
X11511159Y-2784500D01*
X11491159Y-2764500D02*
X11531159Y-2764500D01*
X11520000Y-4280000D02*
X11520000Y-4320000D01*
X11500000Y-4300000D02*
X11540000Y-4300000D01*
X11541808Y-3448450D02*
X11541808Y-3488450D01*
X11521808Y-3468450D02*
X11561808Y-3468450D01*
X11547760Y-5792240D02*
X11547760Y-5832240D01*
X11527760Y-5812240D02*
X11567760Y-5812240D01*
X11550000Y-3230000D02*
X11550000Y-3270000D01*
X11530000Y-3250000D02*
X11570000Y-3250000D01*
X11550000Y-5220000D02*
X11550000Y-5260000D01*
X11530000Y-5240000D02*
X11570000Y-5240000D01*
X11550000Y-5540000D02*
X11550000Y-5580000D01*
X11530000Y-5560000D02*
X11570000Y-5560000D01*
X11550000Y-6080000D02*
X11550000Y-6120000D01*
X11530000Y-6100000D02*
X11570000Y-6100000D01*
X11610000Y-4210000D02*
X11610000Y-4250000D01*
X11590000Y-4230000D02*
X11630000Y-4230000D01*
X11611550Y-3780055D02*
X11611550Y-3820055D01*
X11591550Y-3800055D02*
X11631550Y-3800055D01*
X11620000Y-4870000D02*
X11620000Y-4910000D01*
X11600000Y-4890000D02*
X11640000Y-4890000D01*
X11630000Y-3380000D02*
X11630000Y-3420000D01*
X11610000Y-3400000D02*
X11650000Y-3400000D01*
X11630000Y-3528450D02*
X11630000Y-3568450D01*
X11610000Y-3548450D02*
X11650000Y-3548450D01*
X11630000Y-4490000D02*
X11630000Y-4530000D01*
X11610000Y-4510000D02*
X11650000Y-4510000D01*
X11631563Y-3281563D02*
X11631563Y-3321563D01*
X11611563Y-3301563D02*
X11651563Y-3301563D01*
X11643000Y-1806000D02*
X11643000Y-1846000D01*
X11623000Y-1826000D02*
X11663000Y-1826000D01*
X11650000Y-4020000D02*
X11650000Y-4060000D01*
X11630000Y-4040000D02*
X11670000Y-4040000D01*
X11650000Y-4120000D02*
X11650000Y-4160000D01*
X11630000Y-4140000D02*
X11670000Y-4140000D01*
X11661550Y-3619065D02*
X11661550Y-3659065D01*
X11641550Y-3639065D02*
X11681550Y-3639065D01*
X11661550Y-3861947D02*
X11661550Y-3901947D01*
X11641550Y-3881947D02*
X11681550Y-3881947D01*
X11733401Y-3106598D02*
X11733401Y-3146598D01*
X11713401Y-3126598D02*
X11753401Y-3126598D01*
X11751000Y-2512000D02*
X11751000Y-2552000D01*
X11731000Y-2532000D02*
X11771000Y-2532000D01*
X11760000Y-5760000D02*
X11760000Y-5800000D01*
X11740000Y-5780000D02*
X11780000Y-5780000D01*
X11790000Y-2890000D02*
X11790000Y-2930000D01*
X11770000Y-2910000D02*
X11810000Y-2910000D01*
X11800000Y-3220000D02*
X11800000Y-3260000D01*
X11780000Y-3240000D02*
X11820000Y-3240000D01*
X11830000Y-5520950D02*
X11830000Y-5560950D01*
X11810000Y-5540950D02*
X11850000Y-5540950D01*
X11860000Y-5280000D02*
X11860000Y-5320000D01*
X11840000Y-5300000D02*
X11880000Y-5300000D01*
X11879050Y-3030000D02*
X11879050Y-3070000D01*
X11859050Y-3050000D02*
X11899050Y-3050000D01*
X12049000Y-1597000D02*
X12049000Y-1637000D01*
X12029000Y-1617000D02*
X12069000Y-1617000D01*
X12070950Y-5370000D02*
X12070950Y-5410000D01*
X12050950Y-5390000D02*
X12090950Y-5390000D01*
X12120000Y-2560000D02*
X12120000Y-2600000D01*
X12100000Y-2580000D02*
X12140000Y-2580000D01*
X12180000Y-5530000D02*
X12180000Y-5570000D01*
X12160000Y-5550000D02*
X12200000Y-5550000D01*
X12190000Y-5360000D02*
X12190000Y-5400000D01*
X12170000Y-5380000D02*
X12210000Y-5380000D01*
X12310000Y-5750000D02*
X12310000Y-5790000D01*
X12290000Y-5770000D02*
X12330000Y-5770000D01*
X12350000Y-5380000D02*
X12350000Y-5420000D01*
X12330000Y-5400000D02*
X12370000Y-5400000D01*
X12410000Y-2590000D02*
X12410000Y-2630000D01*
X12390000Y-2610000D02*
X12430000Y-2610000D01*
X12420000Y-2160000D02*
X12420000Y-2200000D01*
X12400000Y-2180000D02*
X12440000Y-2180000D01*
X12420000Y-2350000D02*
X12420000Y-2390000D01*
X12400000Y-2370000D02*
X12440000Y-2370000D01*
X12430000Y-1590000D02*
X12430000Y-1630000D01*
X12410000Y-1610000D02*
X12450000Y-1610000D01*
X12430000Y-1800000D02*
X12430000Y-1840000D01*
X12410000Y-1820000D02*
X12450000Y-1820000D01*
X12430000Y-1960000D02*
X12430000Y-2000000D01*
X12410000Y-1980000D02*
X12450000Y-1980000D01*
D15*
X2830213Y-2619213D02*
X2830213Y-2576787D01*
X2787787Y-2576787D01*
X2787787Y-2619213D01*
X2830213Y-2619213D01*
D11*
X2839000Y-2568000D02*
X2779000Y-2568000D01*
X2779000Y-2568000D02*
G75*
G03*
X2779000Y-2628000I0J-30000D01*
G01*
X2779000Y-2628000D02*
X2839000Y-2628000D01*
X2839000Y-2628000D02*
G75*
G03*
X2839000Y-2568000I0J30000D01*
G01*
D15*
X2830213Y-3483213D02*
X2830213Y-3440787D01*
X2787787Y-3440787D01*
X2787787Y-3483213D01*
X2830213Y-3483213D01*
D11*
X2839000Y-3432000D02*
X2779000Y-3432000D01*
X2779000Y-3432000D02*
G75*
G03*
X2779000Y-3492000I0J-30000D01*
G01*
X2779000Y-3492000D02*
X2839000Y-3492000D01*
X2839000Y-3492000D02*
G75*
G03*
X2839000Y-3432000I0J30000D01*
G01*
D15*
X3248213Y-2619213D02*
X3248213Y-2576787D01*
X3205787Y-2576787D01*
X3205787Y-2619213D01*
X3248213Y-2619213D01*
D11*
X3282000Y-2568000D02*
X3172000Y-2568000D01*
X3172000Y-2568000D02*
G75*
G03*
X3172000Y-2628000I0J-30000D01*
G01*
X3172000Y-2628000D02*
X3282000Y-2628000D01*
X3282000Y-2628000D02*
G75*
G03*
X3282000Y-2568000I0J30000D01*
G01*
D15*
X3248213Y-3483213D02*
X3248213Y-3440787D01*
X3205787Y-3440787D01*
X3205787Y-3483213D01*
X3248213Y-3483213D01*
D11*
X3282000Y-3432000D02*
X3172000Y-3432000D01*
X3172000Y-3432000D02*
G75*
G03*
X3172000Y-3492000I0J-30000D01*
G01*
X3172000Y-3492000D02*
X3282000Y-3492000D01*
X3282000Y-3492000D02*
G75*
G03*
X3282000Y-3432000I0J30000D01*
G01*
D16*
X2710000Y-1833500D02*
X2760000Y-1783500D01*
X2710000Y-1733500D01*
X2660000Y-1783500D01*
X2710000Y-1833500D01*
X2710000Y-2087500D02*
X2760000Y-2037500D01*
X2710000Y-1987500D01*
X2660000Y-2037500D01*
X2710000Y-2087500D01*
X2735000Y-4977500D02*
X2785000Y-4927500D01*
X2735000Y-4877500D01*
X2685000Y-4927500D01*
X2735000Y-4977500D01*
X2735000Y-5231500D02*
X2785000Y-5181500D01*
X2735000Y-5131500D01*
X2685000Y-5181500D01*
X2735000Y-5231500D01*
X3187500Y-1180000D02*
X3237500Y-1130000D01*
X3187500Y-1080000D01*
X3137500Y-1130000D01*
X3187500Y-1180000D01*
X3441500Y-1180000D02*
X3491500Y-1130000D01*
X3441500Y-1080000D01*
X3391500Y-1130000D01*
X3441500Y-1180000D01*
X3695500Y-1180000D02*
X3745500Y-1130000D01*
X3695500Y-1080000D01*
X3645500Y-1130000D01*
X3695500Y-1180000D01*
X3949500Y-1180000D02*
X3999500Y-1130000D01*
X3949500Y-1080000D01*
X3899500Y-1130000D01*
X3949500Y-1180000D01*
X4203500Y-1180000D02*
X4253500Y-1130000D01*
X4203500Y-1080000D01*
X4153500Y-1130000D01*
X4203500Y-1180000D01*
X4457500Y-1180000D02*
X4507500Y-1130000D01*
X4457500Y-1080000D01*
X4407500Y-1130000D01*
X4457500Y-1180000D01*
X4711500Y-1180000D02*
X4761500Y-1130000D01*
X4711500Y-1080000D01*
X4661500Y-1130000D01*
X4711500Y-1180000D01*
X4965500Y-1180000D02*
X5015500Y-1130000D01*
X4965500Y-1080000D01*
X4915500Y-1130000D01*
X4965500Y-1180000D01*
X5219500Y-1180000D02*
X5269500Y-1130000D01*
X5219500Y-1080000D01*
X5169500Y-1130000D01*
X5219500Y-1180000D01*
X5473500Y-1180000D02*
X5523500Y-1130000D01*
X5473500Y-1080000D01*
X5423500Y-1130000D01*
X5473500Y-1180000D01*
X5727500Y-1180000D02*
X5777500Y-1130000D01*
X5727500Y-1080000D01*
X5677500Y-1130000D01*
X5727500Y-1180000D01*
X5981500Y-1180000D02*
X6031500Y-1130000D01*
X5981500Y-1080000D01*
X5931500Y-1130000D01*
X5981500Y-1180000D01*
X6235500Y-1180000D02*
X6285500Y-1130000D01*
X6235500Y-1080000D01*
X6185500Y-1130000D01*
X6235500Y-1180000D01*
X6600000Y-1180000D02*
X6650000Y-1130000D01*
X6600000Y-1080000D01*
X6550000Y-1130000D01*
X6600000Y-1180000D01*
X6854000Y-1180000D02*
X6904000Y-1130000D01*
X6854000Y-1080000D01*
X6804000Y-1130000D01*
X6854000Y-1180000D01*
X7108000Y-1180000D02*
X7158000Y-1130000D01*
X7108000Y-1080000D01*
X7058000Y-1130000D01*
X7108000Y-1180000D01*
X7362000Y-1180000D02*
X7412000Y-1130000D01*
X7362000Y-1080000D01*
X7312000Y-1130000D01*
X7362000Y-1180000D01*
X7616000Y-1180000D02*
X7666000Y-1130000D01*
X7616000Y-1080000D01*
X7566000Y-1130000D01*
X7616000Y-1180000D01*
X7870000Y-1180000D02*
X7920000Y-1130000D01*
X7870000Y-1080000D01*
X7820000Y-1130000D01*
X7870000Y-1180000D01*
X8124000Y-1180000D02*
X8174000Y-1130000D01*
X8124000Y-1080000D01*
X8074000Y-1130000D01*
X8124000Y-1180000D01*
X8378000Y-1180000D02*
X8428000Y-1130000D01*
X8378000Y-1080000D01*
X8328000Y-1130000D01*
X8378000Y-1180000D01*
X8632000Y-1180000D02*
X8682000Y-1130000D01*
X8632000Y-1080000D01*
X8582000Y-1130000D01*
X8632000Y-1180000D01*
X8886000Y-1180000D02*
X8936000Y-1130000D01*
X8886000Y-1080000D01*
X8836000Y-1130000D01*
X8886000Y-1180000D01*
X9140000Y-1180000D02*
X9190000Y-1130000D01*
X9140000Y-1080000D01*
X9090000Y-1130000D01*
X9140000Y-1180000D01*
X9394000Y-1180000D02*
X9444000Y-1130000D01*
X9394000Y-1080000D01*
X9344000Y-1130000D01*
X9394000Y-1180000D01*
X12293600Y-2844000D02*
X12343600Y-2794000D01*
X12293600Y-2744000D01*
X12243600Y-2794000D01*
X12293600Y-2844000D01*
X12293600Y-3098000D02*
X12343600Y-3048000D01*
X12293600Y-2998000D01*
X12243600Y-3048000D01*
X12293600Y-3098000D01*
X12293600Y-3352000D02*
X12343600Y-3302000D01*
X12293600Y-3252000D01*
X12243600Y-3302000D01*
X12293600Y-3352000D01*
X12293600Y-3606000D02*
X12343600Y-3556000D01*
X12293600Y-3506000D01*
X12243600Y-3556000D01*
X12293600Y-3606000D01*
X12293600Y-3860000D02*
X12343600Y-3810000D01*
X12293600Y-3760000D01*
X12243600Y-3810000D01*
X12293600Y-3860000D01*
X12293600Y-4114000D02*
X12343600Y-4064000D01*
X12293600Y-4014000D01*
X12243600Y-4064000D01*
X12293600Y-4114000D01*
X12293600Y-4368000D02*
X12343600Y-4318000D01*
X12293600Y-4268000D01*
X12243600Y-4318000D01*
X12293600Y-4368000D01*
X12293600Y-4622000D02*
X12343600Y-4572000D01*
X12293600Y-4522000D01*
X12243600Y-4572000D01*
X12293600Y-4622000D01*
X12293600Y-4876000D02*
X12343600Y-4826000D01*
X12293600Y-4776000D01*
X12243600Y-4826000D01*
X12293600Y-4876000D01*
X12293600Y-5130000D02*
X12343600Y-5080000D01*
X12293600Y-5030000D01*
X12243600Y-5080000D01*
X12293600Y-5130000D01*
D11*
X2758277Y-6763984D02*
X2758277Y-6563984D01*
X2758277Y-6563984D02*
X2805896Y-6563984D01*
X2805896Y-6563984D02*
X2834467Y-6573508D01*
X2834467Y-6573508D02*
X2853515Y-6592555D01*
X2853515Y-6592555D02*
X2863039Y-6611603D01*
X2863039Y-6611603D02*
X2872562Y-6649698D01*
X2872562Y-6649698D02*
X2872562Y-6678269D01*
X2872562Y-6678269D02*
X2863039Y-6716365D01*
X2863039Y-6716365D02*
X2853515Y-6735412D01*
X2853515Y-6735412D02*
X2834467Y-6754460D01*
X2834467Y-6754460D02*
X2805896Y-6763984D01*
X2805896Y-6763984D02*
X2758277Y-6763984D01*
X2958277Y-6763984D02*
X2958277Y-6630650D01*
X2958277Y-6668746D02*
X2967801Y-6649698D01*
X2967801Y-6649698D02*
X2977324Y-6640174D01*
X2977324Y-6640174D02*
X2996372Y-6630650D01*
X2996372Y-6630650D02*
X3015420Y-6630650D01*
X3082086Y-6763984D02*
X3082086Y-6630650D01*
X3082086Y-6563984D02*
X3072562Y-6573508D01*
X3072562Y-6573508D02*
X3082086Y-6583031D01*
X3082086Y-6583031D02*
X3091610Y-6573508D01*
X3091610Y-6573508D02*
X3082086Y-6563984D01*
X3082086Y-6563984D02*
X3082086Y-6583031D01*
X3205896Y-6763984D02*
X3186848Y-6754460D01*
X3186848Y-6754460D02*
X3177324Y-6735412D01*
X3177324Y-6735412D02*
X3177324Y-6563984D01*
X3310658Y-6763984D02*
X3291610Y-6754460D01*
X3291610Y-6754460D02*
X3282086Y-6735412D01*
X3282086Y-6735412D02*
X3282086Y-6563984D01*
X3539229Y-6763984D02*
X3539229Y-6563984D01*
X3539229Y-6563984D02*
X3605896Y-6706841D01*
X3605896Y-6706841D02*
X3672562Y-6563984D01*
X3672562Y-6563984D02*
X3672562Y-6763984D01*
X3853515Y-6763984D02*
X3853515Y-6659222D01*
X3853515Y-6659222D02*
X3843991Y-6640174D01*
X3843991Y-6640174D02*
X3824943Y-6630650D01*
X3824943Y-6630650D02*
X3786848Y-6630650D01*
X3786848Y-6630650D02*
X3767801Y-6640174D01*
X3853515Y-6754460D02*
X3834467Y-6763984D01*
X3834467Y-6763984D02*
X3786848Y-6763984D01*
X3786848Y-6763984D02*
X3767801Y-6754460D01*
X3767801Y-6754460D02*
X3758277Y-6735412D01*
X3758277Y-6735412D02*
X3758277Y-6716365D01*
X3758277Y-6716365D02*
X3767801Y-6697317D01*
X3767801Y-6697317D02*
X3786848Y-6687793D01*
X3786848Y-6687793D02*
X3834467Y-6687793D01*
X3834467Y-6687793D02*
X3853515Y-6678269D01*
X3948753Y-6630650D02*
X3948753Y-6830650D01*
X3948753Y-6640174D02*
X3967801Y-6630650D01*
X3967801Y-6630650D02*
X4005896Y-6630650D01*
X4005896Y-6630650D02*
X4024943Y-6640174D01*
X4024943Y-6640174D02*
X4034467Y-6649698D01*
X4034467Y-6649698D02*
X4043991Y-6668746D01*
X4043991Y-6668746D02*
X4043991Y-6725888D01*
X4043991Y-6725888D02*
X4034467Y-6744936D01*
X4034467Y-6744936D02*
X4024943Y-6754460D01*
X4024943Y-6754460D02*
X4005896Y-6763984D01*
X4005896Y-6763984D02*
X3967801Y-6763984D01*
X3967801Y-6763984D02*
X3948753Y-6754460D01*
X4129705Y-6744936D02*
X4139229Y-6754460D01*
X4139229Y-6754460D02*
X4129705Y-6763984D01*
X4129705Y-6763984D02*
X4120182Y-6754460D01*
X4120182Y-6754460D02*
X4129705Y-6744936D01*
X4129705Y-6744936D02*
X4129705Y-6763984D01*
X4129705Y-6640174D02*
X4139229Y-6649698D01*
X4139229Y-6649698D02*
X4129705Y-6659222D01*
X4129705Y-6659222D02*
X4120182Y-6649698D01*
X4120182Y-6649698D02*
X4129705Y-6640174D01*
X4129705Y-6640174D02*
X4129705Y-6659222D01*
D12*
X2472100Y-7079800D02*
X2497500Y-7105200D01*
X2497500Y-7079800D02*
X2472100Y-7105200D01*
D11*
X2796372Y-6983984D02*
X2815420Y-6983984D01*
X2815420Y-6983984D02*
X2834467Y-6993508D01*
X2834467Y-6993508D02*
X2843991Y-7003031D01*
X2843991Y-7003031D02*
X2853515Y-7022079D01*
X2853515Y-7022079D02*
X2863039Y-7060174D01*
X2863039Y-7060174D02*
X2863039Y-7107793D01*
X2863039Y-7107793D02*
X2853515Y-7145888D01*
X2853515Y-7145888D02*
X2843991Y-7164936D01*
X2843991Y-7164936D02*
X2834467Y-7174460D01*
X2834467Y-7174460D02*
X2815420Y-7183984D01*
X2815420Y-7183984D02*
X2796372Y-7183984D01*
X2796372Y-7183984D02*
X2777324Y-7174460D01*
X2777324Y-7174460D02*
X2767801Y-7164936D01*
X2767801Y-7164936D02*
X2758277Y-7145888D01*
X2758277Y-7145888D02*
X2748753Y-7107793D01*
X2748753Y-7107793D02*
X2748753Y-7060174D01*
X2748753Y-7060174D02*
X2758277Y-7022079D01*
X2758277Y-7022079D02*
X2767801Y-7003031D01*
X2767801Y-7003031D02*
X2777324Y-6993508D01*
X2777324Y-6993508D02*
X2796372Y-6983984D01*
X2948753Y-7164936D02*
X2958277Y-7174460D01*
X2958277Y-7174460D02*
X2948753Y-7183984D01*
X2948753Y-7183984D02*
X2939229Y-7174460D01*
X2939229Y-7174460D02*
X2948753Y-7164936D01*
X2948753Y-7164936D02*
X2948753Y-7183984D01*
X3034467Y-7003031D02*
X3043991Y-6993508D01*
X3043991Y-6993508D02*
X3063039Y-6983984D01*
X3063039Y-6983984D02*
X3110658Y-6983984D01*
X3110658Y-6983984D02*
X3129705Y-6993508D01*
X3129705Y-6993508D02*
X3139229Y-7003031D01*
X3139229Y-7003031D02*
X3148753Y-7022079D01*
X3148753Y-7022079D02*
X3148753Y-7041127D01*
X3148753Y-7041127D02*
X3139229Y-7069698D01*
X3139229Y-7069698D02*
X3024943Y-7183984D01*
X3024943Y-7183984D02*
X3148753Y-7183984D01*
X3329705Y-6983984D02*
X3234467Y-6983984D01*
X3234467Y-6983984D02*
X3224943Y-7079222D01*
X3224943Y-7079222D02*
X3234467Y-7069698D01*
X3234467Y-7069698D02*
X3253515Y-7060174D01*
X3253515Y-7060174D02*
X3301134Y-7060174D01*
X3301134Y-7060174D02*
X3320182Y-7069698D01*
X3320182Y-7069698D02*
X3329705Y-7079222D01*
X3329705Y-7079222D02*
X3339229Y-7098269D01*
X3339229Y-7098269D02*
X3339229Y-7145888D01*
X3339229Y-7145888D02*
X3329705Y-7164936D01*
X3329705Y-7164936D02*
X3320182Y-7174460D01*
X3320182Y-7174460D02*
X3301134Y-7183984D01*
X3301134Y-7183984D02*
X3253515Y-7183984D01*
X3253515Y-7183984D02*
X3234467Y-7174460D01*
X3234467Y-7174460D02*
X3224943Y-7164936D01*
X3510658Y-7050650D02*
X3510658Y-7183984D01*
X3463039Y-6974460D02*
X3415420Y-7117317D01*
X3415420Y-7117317D02*
X3539229Y-7117317D01*
X3615420Y-7183984D02*
X3615420Y-7050650D01*
X3615420Y-7069698D02*
X3624943Y-7060174D01*
X3624943Y-7060174D02*
X3643991Y-7050650D01*
X3643991Y-7050650D02*
X3672563Y-7050650D01*
X3672563Y-7050650D02*
X3691610Y-7060174D01*
X3691610Y-7060174D02*
X3701134Y-7079222D01*
X3701134Y-7079222D02*
X3701134Y-7183984D01*
X3701134Y-7079222D02*
X3710658Y-7060174D01*
X3710658Y-7060174D02*
X3729705Y-7050650D01*
X3729705Y-7050650D02*
X3758277Y-7050650D01*
X3758277Y-7050650D02*
X3777324Y-7060174D01*
X3777324Y-7060174D02*
X3786848Y-7079222D01*
X3786848Y-7079222D02*
X3786848Y-7183984D01*
X3882086Y-7183984D02*
X3882086Y-7050650D01*
X3882086Y-7069698D02*
X3891610Y-7060174D01*
X3891610Y-7060174D02*
X3910658Y-7050650D01*
X3910658Y-7050650D02*
X3939229Y-7050650D01*
X3939229Y-7050650D02*
X3958277Y-7060174D01*
X3958277Y-7060174D02*
X3967801Y-7079222D01*
X3967801Y-7079222D02*
X3967801Y-7183984D01*
X3967801Y-7079222D02*
X3977324Y-7060174D01*
X3977324Y-7060174D02*
X3996372Y-7050650D01*
X3996372Y-7050650D02*
X4024943Y-7050650D01*
X4024943Y-7050650D02*
X4043991Y-7060174D01*
X4043991Y-7060174D02*
X4053515Y-7079222D01*
X4053515Y-7079222D02*
X4053515Y-7183984D01*
X4443991Y-6974460D02*
X4272563Y-7231603D01*
X4701134Y-6983984D02*
X4720182Y-6983984D01*
X4720182Y-6983984D02*
X4739229Y-6993508D01*
X4739229Y-6993508D02*
X4748753Y-7003031D01*
X4748753Y-7003031D02*
X4758277Y-7022079D01*
X4758277Y-7022079D02*
X4767801Y-7060174D01*
X4767801Y-7060174D02*
X4767801Y-7107793D01*
X4767801Y-7107793D02*
X4758277Y-7145888D01*
X4758277Y-7145888D02*
X4748753Y-7164936D01*
X4748753Y-7164936D02*
X4739229Y-7174460D01*
X4739229Y-7174460D02*
X4720182Y-7183984D01*
X4720182Y-7183984D02*
X4701134Y-7183984D01*
X4701134Y-7183984D02*
X4682087Y-7174460D01*
X4682087Y-7174460D02*
X4672563Y-7164936D01*
X4672563Y-7164936D02*
X4663039Y-7145888D01*
X4663039Y-7145888D02*
X4653515Y-7107793D01*
X4653515Y-7107793D02*
X4653515Y-7060174D01*
X4653515Y-7060174D02*
X4663039Y-7022079D01*
X4663039Y-7022079D02*
X4672563Y-7003031D01*
X4672563Y-7003031D02*
X4682087Y-6993508D01*
X4682087Y-6993508D02*
X4701134Y-6983984D01*
X4853515Y-7164936D02*
X4863039Y-7174460D01*
X4863039Y-7174460D02*
X4853515Y-7183984D01*
X4853515Y-7183984D02*
X4843991Y-7174460D01*
X4843991Y-7174460D02*
X4853515Y-7164936D01*
X4853515Y-7164936D02*
X4853515Y-7183984D01*
X4986848Y-6983984D02*
X5005896Y-6983984D01*
X5005896Y-6983984D02*
X5024944Y-6993508D01*
X5024944Y-6993508D02*
X5034468Y-7003031D01*
X5034468Y-7003031D02*
X5043991Y-7022079D01*
X5043991Y-7022079D02*
X5053515Y-7060174D01*
X5053515Y-7060174D02*
X5053515Y-7107793D01*
X5053515Y-7107793D02*
X5043991Y-7145888D01*
X5043991Y-7145888D02*
X5034468Y-7164936D01*
X5034468Y-7164936D02*
X5024944Y-7174460D01*
X5024944Y-7174460D02*
X5005896Y-7183984D01*
X5005896Y-7183984D02*
X4986848Y-7183984D01*
X4986848Y-7183984D02*
X4967801Y-7174460D01*
X4967801Y-7174460D02*
X4958277Y-7164936D01*
X4958277Y-7164936D02*
X4948753Y-7145888D01*
X4948753Y-7145888D02*
X4939229Y-7107793D01*
X4939229Y-7107793D02*
X4939229Y-7060174D01*
X4939229Y-7060174D02*
X4948753Y-7022079D01*
X4948753Y-7022079D02*
X4958277Y-7003031D01*
X4958277Y-7003031D02*
X4967801Y-6993508D01*
X4967801Y-6993508D02*
X4986848Y-6983984D01*
X5243991Y-7183984D02*
X5129706Y-7183984D01*
X5186848Y-7183984D02*
X5186848Y-6983984D01*
X5186848Y-6983984D02*
X5167801Y-7012555D01*
X5167801Y-7012555D02*
X5148753Y-7031603D01*
X5148753Y-7031603D02*
X5129706Y-7041127D01*
X5367801Y-6983984D02*
X5386849Y-6983984D01*
X5386849Y-6983984D02*
X5405896Y-6993508D01*
X5405896Y-6993508D02*
X5415420Y-7003031D01*
X5415420Y-7003031D02*
X5424944Y-7022079D01*
X5424944Y-7022079D02*
X5434468Y-7060174D01*
X5434468Y-7060174D02*
X5434468Y-7107793D01*
X5434468Y-7107793D02*
X5424944Y-7145888D01*
X5424944Y-7145888D02*
X5415420Y-7164936D01*
X5415420Y-7164936D02*
X5405896Y-7174460D01*
X5405896Y-7174460D02*
X5386849Y-7183984D01*
X5386849Y-7183984D02*
X5367801Y-7183984D01*
X5367801Y-7183984D02*
X5348753Y-7174460D01*
X5348753Y-7174460D02*
X5339229Y-7164936D01*
X5339229Y-7164936D02*
X5329706Y-7145888D01*
X5329706Y-7145888D02*
X5320182Y-7107793D01*
X5320182Y-7107793D02*
X5320182Y-7060174D01*
X5320182Y-7060174D02*
X5329706Y-7022079D01*
X5329706Y-7022079D02*
X5339229Y-7003031D01*
X5339229Y-7003031D02*
X5348753Y-6993508D01*
X5348753Y-6993508D02*
X5367801Y-6983984D01*
X5558277Y-6983984D02*
X5577325Y-6983984D01*
X5577325Y-6983984D02*
X5596372Y-6993508D01*
X5596372Y-6993508D02*
X5605896Y-7003031D01*
X5605896Y-7003031D02*
X5615420Y-7022079D01*
X5615420Y-7022079D02*
X5624944Y-7060174D01*
X5624944Y-7060174D02*
X5624944Y-7107793D01*
X5624944Y-7107793D02*
X5615420Y-7145888D01*
X5615420Y-7145888D02*
X5605896Y-7164936D01*
X5605896Y-7164936D02*
X5596372Y-7174460D01*
X5596372Y-7174460D02*
X5577325Y-7183984D01*
X5577325Y-7183984D02*
X5558277Y-7183984D01*
X5558277Y-7183984D02*
X5539229Y-7174460D01*
X5539229Y-7174460D02*
X5529706Y-7164936D01*
X5529706Y-7164936D02*
X5520182Y-7145888D01*
X5520182Y-7145888D02*
X5510658Y-7107793D01*
X5510658Y-7107793D02*
X5510658Y-7060174D01*
X5510658Y-7060174D02*
X5520182Y-7022079D01*
X5520182Y-7022079D02*
X5529706Y-7003031D01*
X5529706Y-7003031D02*
X5539229Y-6993508D01*
X5539229Y-6993508D02*
X5558277Y-6983984D01*
X5701134Y-6983984D02*
X5701134Y-7022079D01*
X5777325Y-6983984D02*
X5777325Y-7022079D01*
X6072563Y-7260174D02*
X6063039Y-7250650D01*
X6063039Y-7250650D02*
X6043991Y-7222079D01*
X6043991Y-7222079D02*
X6034468Y-7203031D01*
X6034468Y-7203031D02*
X6024944Y-7174460D01*
X6024944Y-7174460D02*
X6015420Y-7126841D01*
X6015420Y-7126841D02*
X6015420Y-7088746D01*
X6015420Y-7088746D02*
X6024944Y-7041127D01*
X6024944Y-7041127D02*
X6034468Y-7012555D01*
X6034468Y-7012555D02*
X6043991Y-6993508D01*
X6043991Y-6993508D02*
X6063039Y-6964936D01*
X6063039Y-6964936D02*
X6072563Y-6955412D01*
X6139229Y-7003031D02*
X6148753Y-6993508D01*
X6148753Y-6993508D02*
X6167801Y-6983984D01*
X6167801Y-6983984D02*
X6215420Y-6983984D01*
X6215420Y-6983984D02*
X6234468Y-6993508D01*
X6234468Y-6993508D02*
X6243991Y-7003031D01*
X6243991Y-7003031D02*
X6253515Y-7022079D01*
X6253515Y-7022079D02*
X6253515Y-7041127D01*
X6253515Y-7041127D02*
X6243991Y-7069698D01*
X6243991Y-7069698D02*
X6129706Y-7183984D01*
X6129706Y-7183984D02*
X6253515Y-7183984D01*
X6434468Y-6983984D02*
X6339229Y-6983984D01*
X6339229Y-6983984D02*
X6329706Y-7079222D01*
X6329706Y-7079222D02*
X6339229Y-7069698D01*
X6339229Y-7069698D02*
X6358277Y-7060174D01*
X6358277Y-7060174D02*
X6405896Y-7060174D01*
X6405896Y-7060174D02*
X6424944Y-7069698D01*
X6424944Y-7069698D02*
X6434468Y-7079222D01*
X6434468Y-7079222D02*
X6443991Y-7098269D01*
X6443991Y-7098269D02*
X6443991Y-7145888D01*
X6443991Y-7145888D02*
X6434468Y-7164936D01*
X6434468Y-7164936D02*
X6424944Y-7174460D01*
X6424944Y-7174460D02*
X6405896Y-7183984D01*
X6405896Y-7183984D02*
X6358277Y-7183984D01*
X6358277Y-7183984D02*
X6339229Y-7174460D01*
X6339229Y-7174460D02*
X6329706Y-7164936D01*
X6682087Y-7183984D02*
X6682087Y-6983984D01*
X6767801Y-7183984D02*
X6767801Y-7079222D01*
X6767801Y-7079222D02*
X6758277Y-7060174D01*
X6758277Y-7060174D02*
X6739230Y-7050650D01*
X6739230Y-7050650D02*
X6710658Y-7050650D01*
X6710658Y-7050650D02*
X6691610Y-7060174D01*
X6691610Y-7060174D02*
X6682087Y-7069698D01*
X6891610Y-7183984D02*
X6872563Y-7174460D01*
X6872563Y-7174460D02*
X6863039Y-7164936D01*
X6863039Y-7164936D02*
X6853515Y-7145888D01*
X6853515Y-7145888D02*
X6853515Y-7088746D01*
X6853515Y-7088746D02*
X6863039Y-7069698D01*
X6863039Y-7069698D02*
X6872563Y-7060174D01*
X6872563Y-7060174D02*
X6891610Y-7050650D01*
X6891610Y-7050650D02*
X6920182Y-7050650D01*
X6920182Y-7050650D02*
X6939230Y-7060174D01*
X6939230Y-7060174D02*
X6948753Y-7069698D01*
X6948753Y-7069698D02*
X6958277Y-7088746D01*
X6958277Y-7088746D02*
X6958277Y-7145888D01*
X6958277Y-7145888D02*
X6948753Y-7164936D01*
X6948753Y-7164936D02*
X6939230Y-7174460D01*
X6939230Y-7174460D02*
X6920182Y-7183984D01*
X6920182Y-7183984D02*
X6891610Y-7183984D01*
X7072563Y-7183984D02*
X7053515Y-7174460D01*
X7053515Y-7174460D02*
X7043991Y-7155412D01*
X7043991Y-7155412D02*
X7043991Y-6983984D01*
X7224944Y-7174460D02*
X7205896Y-7183984D01*
X7205896Y-7183984D02*
X7167801Y-7183984D01*
X7167801Y-7183984D02*
X7148753Y-7174460D01*
X7148753Y-7174460D02*
X7139230Y-7155412D01*
X7139230Y-7155412D02*
X7139230Y-7079222D01*
X7139230Y-7079222D02*
X7148753Y-7060174D01*
X7148753Y-7060174D02*
X7167801Y-7050650D01*
X7167801Y-7050650D02*
X7205896Y-7050650D01*
X7205896Y-7050650D02*
X7224944Y-7060174D01*
X7224944Y-7060174D02*
X7234468Y-7079222D01*
X7234468Y-7079222D02*
X7234468Y-7098269D01*
X7234468Y-7098269D02*
X7139230Y-7117317D01*
X7310658Y-7174460D02*
X7329706Y-7183984D01*
X7329706Y-7183984D02*
X7367801Y-7183984D01*
X7367801Y-7183984D02*
X7386849Y-7174460D01*
X7386849Y-7174460D02*
X7396372Y-7155412D01*
X7396372Y-7155412D02*
X7396372Y-7145888D01*
X7396372Y-7145888D02*
X7386849Y-7126841D01*
X7386849Y-7126841D02*
X7367801Y-7117317D01*
X7367801Y-7117317D02*
X7339230Y-7117317D01*
X7339230Y-7117317D02*
X7320182Y-7107793D01*
X7320182Y-7107793D02*
X7310658Y-7088746D01*
X7310658Y-7088746D02*
X7310658Y-7079222D01*
X7310658Y-7079222D02*
X7320182Y-7060174D01*
X7320182Y-7060174D02*
X7339230Y-7050650D01*
X7339230Y-7050650D02*
X7367801Y-7050650D01*
X7367801Y-7050650D02*
X7386849Y-7060174D01*
X7463039Y-7260174D02*
X7472563Y-7250650D01*
X7472563Y-7250650D02*
X7491611Y-7222079D01*
X7491611Y-7222079D02*
X7501134Y-7203031D01*
X7501134Y-7203031D02*
X7510658Y-7174460D01*
X7510658Y-7174460D02*
X7520182Y-7126841D01*
X7520182Y-7126841D02*
X7520182Y-7088746D01*
X7520182Y-7088746D02*
X7510658Y-7041127D01*
X7510658Y-7041127D02*
X7501134Y-7012555D01*
X7501134Y-7012555D02*
X7491611Y-6993508D01*
X7491611Y-6993508D02*
X7472563Y-6964936D01*
X7472563Y-6964936D02*
X7463039Y-6955412D01*
D13*
X2497500Y-7356500D02*
G75*
G03*
X2497500Y-7356500I-15000J0D01*
G01*
D11*
X2796372Y-7247984D02*
X2815420Y-7247984D01*
X2815420Y-7247984D02*
X2834467Y-7257508D01*
X2834467Y-7257508D02*
X2843991Y-7267031D01*
X2843991Y-7267031D02*
X2853515Y-7286079D01*
X2853515Y-7286079D02*
X2863039Y-7324174D01*
X2863039Y-7324174D02*
X2863039Y-7371793D01*
X2863039Y-7371793D02*
X2853515Y-7409888D01*
X2853515Y-7409888D02*
X2843991Y-7428936D01*
X2843991Y-7428936D02*
X2834467Y-7438460D01*
X2834467Y-7438460D02*
X2815420Y-7447984D01*
X2815420Y-7447984D02*
X2796372Y-7447984D01*
X2796372Y-7447984D02*
X2777324Y-7438460D01*
X2777324Y-7438460D02*
X2767801Y-7428936D01*
X2767801Y-7428936D02*
X2758277Y-7409888D01*
X2758277Y-7409888D02*
X2748753Y-7371793D01*
X2748753Y-7371793D02*
X2748753Y-7324174D01*
X2748753Y-7324174D02*
X2758277Y-7286079D01*
X2758277Y-7286079D02*
X2767801Y-7267031D01*
X2767801Y-7267031D02*
X2777324Y-7257508D01*
X2777324Y-7257508D02*
X2796372Y-7247984D01*
X2948753Y-7428936D02*
X2958277Y-7438460D01*
X2958277Y-7438460D02*
X2948753Y-7447984D01*
X2948753Y-7447984D02*
X2939229Y-7438460D01*
X2939229Y-7438460D02*
X2948753Y-7428936D01*
X2948753Y-7428936D02*
X2948753Y-7447984D01*
X3024943Y-7247984D02*
X3148753Y-7247984D01*
X3148753Y-7247984D02*
X3082086Y-7324174D01*
X3082086Y-7324174D02*
X3110658Y-7324174D01*
X3110658Y-7324174D02*
X3129705Y-7333698D01*
X3129705Y-7333698D02*
X3139229Y-7343222D01*
X3139229Y-7343222D02*
X3148753Y-7362269D01*
X3148753Y-7362269D02*
X3148753Y-7409888D01*
X3148753Y-7409888D02*
X3139229Y-7428936D01*
X3139229Y-7428936D02*
X3129705Y-7438460D01*
X3129705Y-7438460D02*
X3110658Y-7447984D01*
X3110658Y-7447984D02*
X3053515Y-7447984D01*
X3053515Y-7447984D02*
X3034467Y-7438460D01*
X3034467Y-7438460D02*
X3024943Y-7428936D01*
X3272562Y-7247984D02*
X3291610Y-7247984D01*
X3291610Y-7247984D02*
X3310658Y-7257508D01*
X3310658Y-7257508D02*
X3320182Y-7267031D01*
X3320182Y-7267031D02*
X3329705Y-7286079D01*
X3329705Y-7286079D02*
X3339229Y-7324174D01*
X3339229Y-7324174D02*
X3339229Y-7371793D01*
X3339229Y-7371793D02*
X3329705Y-7409888D01*
X3329705Y-7409888D02*
X3320182Y-7428936D01*
X3320182Y-7428936D02*
X3310658Y-7438460D01*
X3310658Y-7438460D02*
X3291610Y-7447984D01*
X3291610Y-7447984D02*
X3272562Y-7447984D01*
X3272562Y-7447984D02*
X3253515Y-7438460D01*
X3253515Y-7438460D02*
X3243991Y-7428936D01*
X3243991Y-7428936D02*
X3234467Y-7409888D01*
X3234467Y-7409888D02*
X3224943Y-7371793D01*
X3224943Y-7371793D02*
X3224943Y-7324174D01*
X3224943Y-7324174D02*
X3234467Y-7286079D01*
X3234467Y-7286079D02*
X3243991Y-7267031D01*
X3243991Y-7267031D02*
X3253515Y-7257508D01*
X3253515Y-7257508D02*
X3272562Y-7247984D01*
X3463039Y-7247984D02*
X3482086Y-7247984D01*
X3482086Y-7247984D02*
X3501134Y-7257508D01*
X3501134Y-7257508D02*
X3510658Y-7267031D01*
X3510658Y-7267031D02*
X3520182Y-7286079D01*
X3520182Y-7286079D02*
X3529705Y-7324174D01*
X3529705Y-7324174D02*
X3529705Y-7371793D01*
X3529705Y-7371793D02*
X3520182Y-7409888D01*
X3520182Y-7409888D02*
X3510658Y-7428936D01*
X3510658Y-7428936D02*
X3501134Y-7438460D01*
X3501134Y-7438460D02*
X3482086Y-7447984D01*
X3482086Y-7447984D02*
X3463039Y-7447984D01*
X3463039Y-7447984D02*
X3443991Y-7438460D01*
X3443991Y-7438460D02*
X3434467Y-7428936D01*
X3434467Y-7428936D02*
X3424943Y-7409888D01*
X3424943Y-7409888D02*
X3415420Y-7371793D01*
X3415420Y-7371793D02*
X3415420Y-7324174D01*
X3415420Y-7324174D02*
X3424943Y-7286079D01*
X3424943Y-7286079D02*
X3434467Y-7267031D01*
X3434467Y-7267031D02*
X3443991Y-7257508D01*
X3443991Y-7257508D02*
X3463039Y-7247984D01*
X3615420Y-7447984D02*
X3615420Y-7314650D01*
X3615420Y-7333698D02*
X3624943Y-7324174D01*
X3624943Y-7324174D02*
X3643991Y-7314650D01*
X3643991Y-7314650D02*
X3672563Y-7314650D01*
X3672563Y-7314650D02*
X3691610Y-7324174D01*
X3691610Y-7324174D02*
X3701134Y-7343222D01*
X3701134Y-7343222D02*
X3701134Y-7447984D01*
X3701134Y-7343222D02*
X3710658Y-7324174D01*
X3710658Y-7324174D02*
X3729705Y-7314650D01*
X3729705Y-7314650D02*
X3758277Y-7314650D01*
X3758277Y-7314650D02*
X3777324Y-7324174D01*
X3777324Y-7324174D02*
X3786848Y-7343222D01*
X3786848Y-7343222D02*
X3786848Y-7447984D01*
X3882086Y-7447984D02*
X3882086Y-7314650D01*
X3882086Y-7333698D02*
X3891610Y-7324174D01*
X3891610Y-7324174D02*
X3910658Y-7314650D01*
X3910658Y-7314650D02*
X3939229Y-7314650D01*
X3939229Y-7314650D02*
X3958277Y-7324174D01*
X3958277Y-7324174D02*
X3967801Y-7343222D01*
X3967801Y-7343222D02*
X3967801Y-7447984D01*
X3967801Y-7343222D02*
X3977324Y-7324174D01*
X3977324Y-7324174D02*
X3996372Y-7314650D01*
X3996372Y-7314650D02*
X4024943Y-7314650D01*
X4024943Y-7314650D02*
X4043991Y-7324174D01*
X4043991Y-7324174D02*
X4053515Y-7343222D01*
X4053515Y-7343222D02*
X4053515Y-7447984D01*
X4443991Y-7238460D02*
X4272563Y-7495603D01*
X4701134Y-7247984D02*
X4720182Y-7247984D01*
X4720182Y-7247984D02*
X4739229Y-7257508D01*
X4739229Y-7257508D02*
X4748753Y-7267031D01*
X4748753Y-7267031D02*
X4758277Y-7286079D01*
X4758277Y-7286079D02*
X4767801Y-7324174D01*
X4767801Y-7324174D02*
X4767801Y-7371793D01*
X4767801Y-7371793D02*
X4758277Y-7409888D01*
X4758277Y-7409888D02*
X4748753Y-7428936D01*
X4748753Y-7428936D02*
X4739229Y-7438460D01*
X4739229Y-7438460D02*
X4720182Y-7447984D01*
X4720182Y-7447984D02*
X4701134Y-7447984D01*
X4701134Y-7447984D02*
X4682087Y-7438460D01*
X4682087Y-7438460D02*
X4672563Y-7428936D01*
X4672563Y-7428936D02*
X4663039Y-7409888D01*
X4663039Y-7409888D02*
X4653515Y-7371793D01*
X4653515Y-7371793D02*
X4653515Y-7324174D01*
X4653515Y-7324174D02*
X4663039Y-7286079D01*
X4663039Y-7286079D02*
X4672563Y-7267031D01*
X4672563Y-7267031D02*
X4682087Y-7257508D01*
X4682087Y-7257508D02*
X4701134Y-7247984D01*
X4853515Y-7428936D02*
X4863039Y-7438460D01*
X4863039Y-7438460D02*
X4853515Y-7447984D01*
X4853515Y-7447984D02*
X4843991Y-7438460D01*
X4843991Y-7438460D02*
X4853515Y-7428936D01*
X4853515Y-7428936D02*
X4853515Y-7447984D01*
X4986848Y-7247984D02*
X5005896Y-7247984D01*
X5005896Y-7247984D02*
X5024944Y-7257508D01*
X5024944Y-7257508D02*
X5034468Y-7267031D01*
X5034468Y-7267031D02*
X5043991Y-7286079D01*
X5043991Y-7286079D02*
X5053515Y-7324174D01*
X5053515Y-7324174D02*
X5053515Y-7371793D01*
X5053515Y-7371793D02*
X5043991Y-7409888D01*
X5043991Y-7409888D02*
X5034468Y-7428936D01*
X5034468Y-7428936D02*
X5024944Y-7438460D01*
X5024944Y-7438460D02*
X5005896Y-7447984D01*
X5005896Y-7447984D02*
X4986848Y-7447984D01*
X4986848Y-7447984D02*
X4967801Y-7438460D01*
X4967801Y-7438460D02*
X4958277Y-7428936D01*
X4958277Y-7428936D02*
X4948753Y-7409888D01*
X4948753Y-7409888D02*
X4939229Y-7371793D01*
X4939229Y-7371793D02*
X4939229Y-7324174D01*
X4939229Y-7324174D02*
X4948753Y-7286079D01*
X4948753Y-7286079D02*
X4958277Y-7267031D01*
X4958277Y-7267031D02*
X4967801Y-7257508D01*
X4967801Y-7257508D02*
X4986848Y-7247984D01*
X5243991Y-7447984D02*
X5129706Y-7447984D01*
X5186848Y-7447984D02*
X5186848Y-7247984D01*
X5186848Y-7247984D02*
X5167801Y-7276555D01*
X5167801Y-7276555D02*
X5148753Y-7295603D01*
X5148753Y-7295603D02*
X5129706Y-7305127D01*
X5434468Y-7447984D02*
X5320182Y-7447984D01*
X5377325Y-7447984D02*
X5377325Y-7247984D01*
X5377325Y-7247984D02*
X5358277Y-7276555D01*
X5358277Y-7276555D02*
X5339229Y-7295603D01*
X5339229Y-7295603D02*
X5320182Y-7305127D01*
X5548753Y-7333698D02*
X5529706Y-7324174D01*
X5529706Y-7324174D02*
X5520182Y-7314650D01*
X5520182Y-7314650D02*
X5510658Y-7295603D01*
X5510658Y-7295603D02*
X5510658Y-7286079D01*
X5510658Y-7286079D02*
X5520182Y-7267031D01*
X5520182Y-7267031D02*
X5529706Y-7257508D01*
X5529706Y-7257508D02*
X5548753Y-7247984D01*
X5548753Y-7247984D02*
X5586849Y-7247984D01*
X5586849Y-7247984D02*
X5605896Y-7257508D01*
X5605896Y-7257508D02*
X5615420Y-7267031D01*
X5615420Y-7267031D02*
X5624944Y-7286079D01*
X5624944Y-7286079D02*
X5624944Y-7295603D01*
X5624944Y-7295603D02*
X5615420Y-7314650D01*
X5615420Y-7314650D02*
X5605896Y-7324174D01*
X5605896Y-7324174D02*
X5586849Y-7333698D01*
X5586849Y-7333698D02*
X5548753Y-7333698D01*
X5548753Y-7333698D02*
X5529706Y-7343222D01*
X5529706Y-7343222D02*
X5520182Y-7352746D01*
X5520182Y-7352746D02*
X5510658Y-7371793D01*
X5510658Y-7371793D02*
X5510658Y-7409888D01*
X5510658Y-7409888D02*
X5520182Y-7428936D01*
X5520182Y-7428936D02*
X5529706Y-7438460D01*
X5529706Y-7438460D02*
X5548753Y-7447984D01*
X5548753Y-7447984D02*
X5586849Y-7447984D01*
X5586849Y-7447984D02*
X5605896Y-7438460D01*
X5605896Y-7438460D02*
X5615420Y-7428936D01*
X5615420Y-7428936D02*
X5624944Y-7409888D01*
X5624944Y-7409888D02*
X5624944Y-7371793D01*
X5624944Y-7371793D02*
X5615420Y-7352746D01*
X5615420Y-7352746D02*
X5605896Y-7343222D01*
X5605896Y-7343222D02*
X5586849Y-7333698D01*
X5701134Y-7247984D02*
X5701134Y-7286079D01*
X5777325Y-7247984D02*
X5777325Y-7286079D01*
X6072563Y-7524174D02*
X6063039Y-7514650D01*
X6063039Y-7514650D02*
X6043991Y-7486079D01*
X6043991Y-7486079D02*
X6034468Y-7467031D01*
X6034468Y-7467031D02*
X6024944Y-7438460D01*
X6024944Y-7438460D02*
X6015420Y-7390841D01*
X6015420Y-7390841D02*
X6015420Y-7352746D01*
X6015420Y-7352746D02*
X6024944Y-7305127D01*
X6024944Y-7305127D02*
X6034468Y-7276555D01*
X6034468Y-7276555D02*
X6043991Y-7257508D01*
X6043991Y-7257508D02*
X6063039Y-7228936D01*
X6063039Y-7228936D02*
X6072563Y-7219412D01*
X6139229Y-7267031D02*
X6148753Y-7257508D01*
X6148753Y-7257508D02*
X6167801Y-7247984D01*
X6167801Y-7247984D02*
X6215420Y-7247984D01*
X6215420Y-7247984D02*
X6234468Y-7257508D01*
X6234468Y-7257508D02*
X6243991Y-7267031D01*
X6243991Y-7267031D02*
X6253515Y-7286079D01*
X6253515Y-7286079D02*
X6253515Y-7305127D01*
X6253515Y-7305127D02*
X6243991Y-7333698D01*
X6243991Y-7333698D02*
X6129706Y-7447984D01*
X6129706Y-7447984D02*
X6253515Y-7447984D01*
X6320182Y-7247984D02*
X6453515Y-7247984D01*
X6453515Y-7247984D02*
X6367801Y-7447984D01*
X6682087Y-7447984D02*
X6682087Y-7247984D01*
X6767801Y-7447984D02*
X6767801Y-7343222D01*
X6767801Y-7343222D02*
X6758277Y-7324174D01*
X6758277Y-7324174D02*
X6739230Y-7314650D01*
X6739230Y-7314650D02*
X6710658Y-7314650D01*
X6710658Y-7314650D02*
X6691610Y-7324174D01*
X6691610Y-7324174D02*
X6682087Y-7333698D01*
X6891610Y-7447984D02*
X6872563Y-7438460D01*
X6872563Y-7438460D02*
X6863039Y-7428936D01*
X6863039Y-7428936D02*
X6853515Y-7409888D01*
X6853515Y-7409888D02*
X6853515Y-7352746D01*
X6853515Y-7352746D02*
X6863039Y-7333698D01*
X6863039Y-7333698D02*
X6872563Y-7324174D01*
X6872563Y-7324174D02*
X6891610Y-7314650D01*
X6891610Y-7314650D02*
X6920182Y-7314650D01*
X6920182Y-7314650D02*
X6939230Y-7324174D01*
X6939230Y-7324174D02*
X6948753Y-7333698D01*
X6948753Y-7333698D02*
X6958277Y-7352746D01*
X6958277Y-7352746D02*
X6958277Y-7409888D01*
X6958277Y-7409888D02*
X6948753Y-7428936D01*
X6948753Y-7428936D02*
X6939230Y-7438460D01*
X6939230Y-7438460D02*
X6920182Y-7447984D01*
X6920182Y-7447984D02*
X6891610Y-7447984D01*
X7072563Y-7447984D02*
X7053515Y-7438460D01*
X7053515Y-7438460D02*
X7043991Y-7419412D01*
X7043991Y-7419412D02*
X7043991Y-7247984D01*
X7224944Y-7438460D02*
X7205896Y-7447984D01*
X7205896Y-7447984D02*
X7167801Y-7447984D01*
X7167801Y-7447984D02*
X7148753Y-7438460D01*
X7148753Y-7438460D02*
X7139230Y-7419412D01*
X7139230Y-7419412D02*
X7139230Y-7343222D01*
X7139230Y-7343222D02*
X7148753Y-7324174D01*
X7148753Y-7324174D02*
X7167801Y-7314650D01*
X7167801Y-7314650D02*
X7205896Y-7314650D01*
X7205896Y-7314650D02*
X7224944Y-7324174D01*
X7224944Y-7324174D02*
X7234468Y-7343222D01*
X7234468Y-7343222D02*
X7234468Y-7362269D01*
X7234468Y-7362269D02*
X7139230Y-7381317D01*
X7310658Y-7438460D02*
X7329706Y-7447984D01*
X7329706Y-7447984D02*
X7367801Y-7447984D01*
X7367801Y-7447984D02*
X7386849Y-7438460D01*
X7386849Y-7438460D02*
X7396372Y-7419412D01*
X7396372Y-7419412D02*
X7396372Y-7409888D01*
X7396372Y-7409888D02*
X7386849Y-7390841D01*
X7386849Y-7390841D02*
X7367801Y-7381317D01*
X7367801Y-7381317D02*
X7339230Y-7381317D01*
X7339230Y-7381317D02*
X7320182Y-7371793D01*
X7320182Y-7371793D02*
X7310658Y-7352746D01*
X7310658Y-7352746D02*
X7310658Y-7343222D01*
X7310658Y-7343222D02*
X7320182Y-7324174D01*
X7320182Y-7324174D02*
X7339230Y-7314650D01*
X7339230Y-7314650D02*
X7367801Y-7314650D01*
X7367801Y-7314650D02*
X7386849Y-7324174D01*
X7463039Y-7524174D02*
X7472563Y-7514650D01*
X7472563Y-7514650D02*
X7491611Y-7486079D01*
X7491611Y-7486079D02*
X7501134Y-7467031D01*
X7501134Y-7467031D02*
X7510658Y-7438460D01*
X7510658Y-7438460D02*
X7520182Y-7390841D01*
X7520182Y-7390841D02*
X7520182Y-7352746D01*
X7520182Y-7352746D02*
X7510658Y-7305127D01*
X7510658Y-7305127D02*
X7501134Y-7276555D01*
X7501134Y-7276555D02*
X7491611Y-7257508D01*
X7491611Y-7257508D02*
X7472563Y-7228936D01*
X7472563Y-7228936D02*
X7463039Y-7219412D01*
D14*
X2477500Y-7600500D02*
X2477500Y-7640500D01*
X2457500Y-7620500D02*
X2497500Y-7620500D01*
D11*
X2796372Y-7511984D02*
X2815420Y-7511984D01*
X2815420Y-7511984D02*
X2834467Y-7521508D01*
X2834467Y-7521508D02*
X2843991Y-7531031D01*
X2843991Y-7531031D02*
X2853515Y-7550079D01*
X2853515Y-7550079D02*
X2863039Y-7588174D01*
X2863039Y-7588174D02*
X2863039Y-7635793D01*
X2863039Y-7635793D02*
X2853515Y-7673888D01*
X2853515Y-7673888D02*
X2843991Y-7692936D01*
X2843991Y-7692936D02*
X2834467Y-7702460D01*
X2834467Y-7702460D02*
X2815420Y-7711984D01*
X2815420Y-7711984D02*
X2796372Y-7711984D01*
X2796372Y-7711984D02*
X2777324Y-7702460D01*
X2777324Y-7702460D02*
X2767801Y-7692936D01*
X2767801Y-7692936D02*
X2758277Y-7673888D01*
X2758277Y-7673888D02*
X2748753Y-7635793D01*
X2748753Y-7635793D02*
X2748753Y-7588174D01*
X2748753Y-7588174D02*
X2758277Y-7550079D01*
X2758277Y-7550079D02*
X2767801Y-7531031D01*
X2767801Y-7531031D02*
X2777324Y-7521508D01*
X2777324Y-7521508D02*
X2796372Y-7511984D01*
X2948753Y-7692936D02*
X2958277Y-7702460D01*
X2958277Y-7702460D02*
X2948753Y-7711984D01*
X2948753Y-7711984D02*
X2939229Y-7702460D01*
X2939229Y-7702460D02*
X2948753Y-7692936D01*
X2948753Y-7692936D02*
X2948753Y-7711984D01*
X3129705Y-7578650D02*
X3129705Y-7711984D01*
X3082086Y-7502460D02*
X3034467Y-7645317D01*
X3034467Y-7645317D02*
X3158277Y-7645317D01*
X3272562Y-7511984D02*
X3291610Y-7511984D01*
X3291610Y-7511984D02*
X3310658Y-7521508D01*
X3310658Y-7521508D02*
X3320182Y-7531031D01*
X3320182Y-7531031D02*
X3329705Y-7550079D01*
X3329705Y-7550079D02*
X3339229Y-7588174D01*
X3339229Y-7588174D02*
X3339229Y-7635793D01*
X3339229Y-7635793D02*
X3329705Y-7673888D01*
X3329705Y-7673888D02*
X3320182Y-7692936D01*
X3320182Y-7692936D02*
X3310658Y-7702460D01*
X3310658Y-7702460D02*
X3291610Y-7711984D01*
X3291610Y-7711984D02*
X3272562Y-7711984D01*
X3272562Y-7711984D02*
X3253515Y-7702460D01*
X3253515Y-7702460D02*
X3243991Y-7692936D01*
X3243991Y-7692936D02*
X3234467Y-7673888D01*
X3234467Y-7673888D02*
X3224943Y-7635793D01*
X3224943Y-7635793D02*
X3224943Y-7588174D01*
X3224943Y-7588174D02*
X3234467Y-7550079D01*
X3234467Y-7550079D02*
X3243991Y-7531031D01*
X3243991Y-7531031D02*
X3253515Y-7521508D01*
X3253515Y-7521508D02*
X3272562Y-7511984D01*
X3463039Y-7511984D02*
X3482086Y-7511984D01*
X3482086Y-7511984D02*
X3501134Y-7521508D01*
X3501134Y-7521508D02*
X3510658Y-7531031D01*
X3510658Y-7531031D02*
X3520182Y-7550079D01*
X3520182Y-7550079D02*
X3529705Y-7588174D01*
X3529705Y-7588174D02*
X3529705Y-7635793D01*
X3529705Y-7635793D02*
X3520182Y-7673888D01*
X3520182Y-7673888D02*
X3510658Y-7692936D01*
X3510658Y-7692936D02*
X3501134Y-7702460D01*
X3501134Y-7702460D02*
X3482086Y-7711984D01*
X3482086Y-7711984D02*
X3463039Y-7711984D01*
X3463039Y-7711984D02*
X3443991Y-7702460D01*
X3443991Y-7702460D02*
X3434467Y-7692936D01*
X3434467Y-7692936D02*
X3424943Y-7673888D01*
X3424943Y-7673888D02*
X3415420Y-7635793D01*
X3415420Y-7635793D02*
X3415420Y-7588174D01*
X3415420Y-7588174D02*
X3424943Y-7550079D01*
X3424943Y-7550079D02*
X3434467Y-7531031D01*
X3434467Y-7531031D02*
X3443991Y-7521508D01*
X3443991Y-7521508D02*
X3463039Y-7511984D01*
X3615420Y-7711984D02*
X3615420Y-7578650D01*
X3615420Y-7597698D02*
X3624943Y-7588174D01*
X3624943Y-7588174D02*
X3643991Y-7578650D01*
X3643991Y-7578650D02*
X3672563Y-7578650D01*
X3672563Y-7578650D02*
X3691610Y-7588174D01*
X3691610Y-7588174D02*
X3701134Y-7607222D01*
X3701134Y-7607222D02*
X3701134Y-7711984D01*
X3701134Y-7607222D02*
X3710658Y-7588174D01*
X3710658Y-7588174D02*
X3729705Y-7578650D01*
X3729705Y-7578650D02*
X3758277Y-7578650D01*
X3758277Y-7578650D02*
X3777324Y-7588174D01*
X3777324Y-7588174D02*
X3786848Y-7607222D01*
X3786848Y-7607222D02*
X3786848Y-7711984D01*
X3882086Y-7711984D02*
X3882086Y-7578650D01*
X3882086Y-7597698D02*
X3891610Y-7588174D01*
X3891610Y-7588174D02*
X3910658Y-7578650D01*
X3910658Y-7578650D02*
X3939229Y-7578650D01*
X3939229Y-7578650D02*
X3958277Y-7588174D01*
X3958277Y-7588174D02*
X3967801Y-7607222D01*
X3967801Y-7607222D02*
X3967801Y-7711984D01*
X3967801Y-7607222D02*
X3977324Y-7588174D01*
X3977324Y-7588174D02*
X3996372Y-7578650D01*
X3996372Y-7578650D02*
X4024943Y-7578650D01*
X4024943Y-7578650D02*
X4043991Y-7588174D01*
X4043991Y-7588174D02*
X4053515Y-7607222D01*
X4053515Y-7607222D02*
X4053515Y-7711984D01*
X4443991Y-7502460D02*
X4272563Y-7759603D01*
X4701134Y-7511984D02*
X4720182Y-7511984D01*
X4720182Y-7511984D02*
X4739229Y-7521508D01*
X4739229Y-7521508D02*
X4748753Y-7531031D01*
X4748753Y-7531031D02*
X4758277Y-7550079D01*
X4758277Y-7550079D02*
X4767801Y-7588174D01*
X4767801Y-7588174D02*
X4767801Y-7635793D01*
X4767801Y-7635793D02*
X4758277Y-7673888D01*
X4758277Y-7673888D02*
X4748753Y-7692936D01*
X4748753Y-7692936D02*
X4739229Y-7702460D01*
X4739229Y-7702460D02*
X4720182Y-7711984D01*
X4720182Y-7711984D02*
X4701134Y-7711984D01*
X4701134Y-7711984D02*
X4682087Y-7702460D01*
X4682087Y-7702460D02*
X4672563Y-7692936D01*
X4672563Y-7692936D02*
X4663039Y-7673888D01*
X4663039Y-7673888D02*
X4653515Y-7635793D01*
X4653515Y-7635793D02*
X4653515Y-7588174D01*
X4653515Y-7588174D02*
X4663039Y-7550079D01*
X4663039Y-7550079D02*
X4672563Y-7531031D01*
X4672563Y-7531031D02*
X4682087Y-7521508D01*
X4682087Y-7521508D02*
X4701134Y-7511984D01*
X4853515Y-7692936D02*
X4863039Y-7702460D01*
X4863039Y-7702460D02*
X4853515Y-7711984D01*
X4853515Y-7711984D02*
X4843991Y-7702460D01*
X4843991Y-7702460D02*
X4853515Y-7692936D01*
X4853515Y-7692936D02*
X4853515Y-7711984D01*
X4986848Y-7511984D02*
X5005896Y-7511984D01*
X5005896Y-7511984D02*
X5024944Y-7521508D01*
X5024944Y-7521508D02*
X5034468Y-7531031D01*
X5034468Y-7531031D02*
X5043991Y-7550079D01*
X5043991Y-7550079D02*
X5053515Y-7588174D01*
X5053515Y-7588174D02*
X5053515Y-7635793D01*
X5053515Y-7635793D02*
X5043991Y-7673888D01*
X5043991Y-7673888D02*
X5034468Y-7692936D01*
X5034468Y-7692936D02*
X5024944Y-7702460D01*
X5024944Y-7702460D02*
X5005896Y-7711984D01*
X5005896Y-7711984D02*
X4986848Y-7711984D01*
X4986848Y-7711984D02*
X4967801Y-7702460D01*
X4967801Y-7702460D02*
X4958277Y-7692936D01*
X4958277Y-7692936D02*
X4948753Y-7673888D01*
X4948753Y-7673888D02*
X4939229Y-7635793D01*
X4939229Y-7635793D02*
X4939229Y-7588174D01*
X4939229Y-7588174D02*
X4948753Y-7550079D01*
X4948753Y-7550079D02*
X4958277Y-7531031D01*
X4958277Y-7531031D02*
X4967801Y-7521508D01*
X4967801Y-7521508D02*
X4986848Y-7511984D01*
X5243991Y-7711984D02*
X5129706Y-7711984D01*
X5186848Y-7711984D02*
X5186848Y-7511984D01*
X5186848Y-7511984D02*
X5167801Y-7540555D01*
X5167801Y-7540555D02*
X5148753Y-7559603D01*
X5148753Y-7559603D02*
X5129706Y-7569127D01*
X5424944Y-7511984D02*
X5329706Y-7511984D01*
X5329706Y-7511984D02*
X5320182Y-7607222D01*
X5320182Y-7607222D02*
X5329706Y-7597698D01*
X5329706Y-7597698D02*
X5348753Y-7588174D01*
X5348753Y-7588174D02*
X5396372Y-7588174D01*
X5396372Y-7588174D02*
X5415420Y-7597698D01*
X5415420Y-7597698D02*
X5424944Y-7607222D01*
X5424944Y-7607222D02*
X5434468Y-7626269D01*
X5434468Y-7626269D02*
X5434468Y-7673888D01*
X5434468Y-7673888D02*
X5424944Y-7692936D01*
X5424944Y-7692936D02*
X5415420Y-7702460D01*
X5415420Y-7702460D02*
X5396372Y-7711984D01*
X5396372Y-7711984D02*
X5348753Y-7711984D01*
X5348753Y-7711984D02*
X5329706Y-7702460D01*
X5329706Y-7702460D02*
X5320182Y-7692936D01*
X5501134Y-7511984D02*
X5634467Y-7511984D01*
X5634467Y-7511984D02*
X5548753Y-7711984D01*
X5701134Y-7511984D02*
X5701134Y-7550079D01*
X5777325Y-7511984D02*
X5777325Y-7550079D01*
X6072563Y-7788174D02*
X6063039Y-7778650D01*
X6063039Y-7778650D02*
X6043991Y-7750079D01*
X6043991Y-7750079D02*
X6034468Y-7731031D01*
X6034468Y-7731031D02*
X6024944Y-7702460D01*
X6024944Y-7702460D02*
X6015420Y-7654841D01*
X6015420Y-7654841D02*
X6015420Y-7616746D01*
X6015420Y-7616746D02*
X6024944Y-7569127D01*
X6024944Y-7569127D02*
X6034468Y-7540555D01*
X6034468Y-7540555D02*
X6043991Y-7521508D01*
X6043991Y-7521508D02*
X6063039Y-7492936D01*
X6063039Y-7492936D02*
X6072563Y-7483412D01*
X6139229Y-7531031D02*
X6148753Y-7521508D01*
X6148753Y-7521508D02*
X6167801Y-7511984D01*
X6167801Y-7511984D02*
X6215420Y-7511984D01*
X6215420Y-7511984D02*
X6234468Y-7521508D01*
X6234468Y-7521508D02*
X6243991Y-7531031D01*
X6243991Y-7531031D02*
X6253515Y-7550079D01*
X6253515Y-7550079D02*
X6253515Y-7569127D01*
X6253515Y-7569127D02*
X6243991Y-7597698D01*
X6243991Y-7597698D02*
X6129706Y-7711984D01*
X6129706Y-7711984D02*
X6253515Y-7711984D01*
X6348753Y-7711984D02*
X6386848Y-7711984D01*
X6386848Y-7711984D02*
X6405896Y-7702460D01*
X6405896Y-7702460D02*
X6415420Y-7692936D01*
X6415420Y-7692936D02*
X6434468Y-7664365D01*
X6434468Y-7664365D02*
X6443991Y-7626269D01*
X6443991Y-7626269D02*
X6443991Y-7550079D01*
X6443991Y-7550079D02*
X6434468Y-7531031D01*
X6434468Y-7531031D02*
X6424944Y-7521508D01*
X6424944Y-7521508D02*
X6405896Y-7511984D01*
X6405896Y-7511984D02*
X6367801Y-7511984D01*
X6367801Y-7511984D02*
X6348753Y-7521508D01*
X6348753Y-7521508D02*
X6339229Y-7531031D01*
X6339229Y-7531031D02*
X6329706Y-7550079D01*
X6329706Y-7550079D02*
X6329706Y-7597698D01*
X6329706Y-7597698D02*
X6339229Y-7616746D01*
X6339229Y-7616746D02*
X6348753Y-7626269D01*
X6348753Y-7626269D02*
X6367801Y-7635793D01*
X6367801Y-7635793D02*
X6405896Y-7635793D01*
X6405896Y-7635793D02*
X6424944Y-7626269D01*
X6424944Y-7626269D02*
X6434468Y-7616746D01*
X6434468Y-7616746D02*
X6443991Y-7597698D01*
X6567801Y-7511984D02*
X6586849Y-7511984D01*
X6586849Y-7511984D02*
X6605896Y-7521508D01*
X6605896Y-7521508D02*
X6615420Y-7531031D01*
X6615420Y-7531031D02*
X6624944Y-7550079D01*
X6624944Y-7550079D02*
X6634468Y-7588174D01*
X6634468Y-7588174D02*
X6634468Y-7635793D01*
X6634468Y-7635793D02*
X6624944Y-7673888D01*
X6624944Y-7673888D02*
X6615420Y-7692936D01*
X6615420Y-7692936D02*
X6605896Y-7702460D01*
X6605896Y-7702460D02*
X6586849Y-7711984D01*
X6586849Y-7711984D02*
X6567801Y-7711984D01*
X6567801Y-7711984D02*
X6548753Y-7702460D01*
X6548753Y-7702460D02*
X6539229Y-7692936D01*
X6539229Y-7692936D02*
X6529706Y-7673888D01*
X6529706Y-7673888D02*
X6520182Y-7635793D01*
X6520182Y-7635793D02*
X6520182Y-7588174D01*
X6520182Y-7588174D02*
X6529706Y-7550079D01*
X6529706Y-7550079D02*
X6539229Y-7531031D01*
X6539229Y-7531031D02*
X6548753Y-7521508D01*
X6548753Y-7521508D02*
X6567801Y-7511984D01*
X6872563Y-7711984D02*
X6872563Y-7511984D01*
X6958277Y-7711984D02*
X6958277Y-7607222D01*
X6958277Y-7607222D02*
X6948753Y-7588174D01*
X6948753Y-7588174D02*
X6929706Y-7578650D01*
X6929706Y-7578650D02*
X6901134Y-7578650D01*
X6901134Y-7578650D02*
X6882087Y-7588174D01*
X6882087Y-7588174D02*
X6872563Y-7597698D01*
X7082087Y-7711984D02*
X7063039Y-7702460D01*
X7063039Y-7702460D02*
X7053515Y-7692936D01*
X7053515Y-7692936D02*
X7043991Y-7673888D01*
X7043991Y-7673888D02*
X7043991Y-7616746D01*
X7043991Y-7616746D02*
X7053515Y-7597698D01*
X7053515Y-7597698D02*
X7063039Y-7588174D01*
X7063039Y-7588174D02*
X7082087Y-7578650D01*
X7082087Y-7578650D02*
X7110658Y-7578650D01*
X7110658Y-7578650D02*
X7129706Y-7588174D01*
X7129706Y-7588174D02*
X7139230Y-7597698D01*
X7139230Y-7597698D02*
X7148753Y-7616746D01*
X7148753Y-7616746D02*
X7148753Y-7673888D01*
X7148753Y-7673888D02*
X7139230Y-7692936D01*
X7139230Y-7692936D02*
X7129706Y-7702460D01*
X7129706Y-7702460D02*
X7110658Y-7711984D01*
X7110658Y-7711984D02*
X7082087Y-7711984D01*
X7263039Y-7711984D02*
X7243991Y-7702460D01*
X7243991Y-7702460D02*
X7234468Y-7683412D01*
X7234468Y-7683412D02*
X7234468Y-7511984D01*
X7415420Y-7702460D02*
X7396372Y-7711984D01*
X7396372Y-7711984D02*
X7358277Y-7711984D01*
X7358277Y-7711984D02*
X7339230Y-7702460D01*
X7339230Y-7702460D02*
X7329706Y-7683412D01*
X7329706Y-7683412D02*
X7329706Y-7607222D01*
X7329706Y-7607222D02*
X7339230Y-7588174D01*
X7339230Y-7588174D02*
X7358277Y-7578650D01*
X7358277Y-7578650D02*
X7396372Y-7578650D01*
X7396372Y-7578650D02*
X7415420Y-7588174D01*
X7415420Y-7588174D02*
X7424944Y-7607222D01*
X7424944Y-7607222D02*
X7424944Y-7626269D01*
X7424944Y-7626269D02*
X7329706Y-7645317D01*
X7501134Y-7702460D02*
X7520182Y-7711984D01*
X7520182Y-7711984D02*
X7558277Y-7711984D01*
X7558277Y-7711984D02*
X7577325Y-7702460D01*
X7577325Y-7702460D02*
X7586849Y-7683412D01*
X7586849Y-7683412D02*
X7586849Y-7673888D01*
X7586849Y-7673888D02*
X7577325Y-7654841D01*
X7577325Y-7654841D02*
X7558277Y-7645317D01*
X7558277Y-7645317D02*
X7529706Y-7645317D01*
X7529706Y-7645317D02*
X7510658Y-7635793D01*
X7510658Y-7635793D02*
X7501134Y-7616746D01*
X7501134Y-7616746D02*
X7501134Y-7607222D01*
X7501134Y-7607222D02*
X7510658Y-7588174D01*
X7510658Y-7588174D02*
X7529706Y-7578650D01*
X7529706Y-7578650D02*
X7558277Y-7578650D01*
X7558277Y-7578650D02*
X7577325Y-7588174D01*
X7653515Y-7788174D02*
X7663039Y-7778650D01*
X7663039Y-7778650D02*
X7682087Y-7750079D01*
X7682087Y-7750079D02*
X7691611Y-7731031D01*
X7691611Y-7731031D02*
X7701134Y-7702460D01*
X7701134Y-7702460D02*
X7710658Y-7654841D01*
X7710658Y-7654841D02*
X7710658Y-7616746D01*
X7710658Y-7616746D02*
X7701134Y-7569127D01*
X7701134Y-7569127D02*
X7691611Y-7540555D01*
X7691611Y-7540555D02*
X7682087Y-7521508D01*
X7682087Y-7521508D02*
X7663039Y-7492936D01*
X7663039Y-7492936D02*
X7653515Y-7483412D01*
D15*
X2488713Y-7905713D02*
X2488713Y-7863287D01*
X2446287Y-7863287D01*
X2446287Y-7905713D01*
X2488713Y-7905713D01*
D11*
X2796372Y-7775984D02*
X2815420Y-7775984D01*
X2815420Y-7775984D02*
X2834467Y-7785508D01*
X2834467Y-7785508D02*
X2843991Y-7795031D01*
X2843991Y-7795031D02*
X2853515Y-7814079D01*
X2853515Y-7814079D02*
X2863039Y-7852174D01*
X2863039Y-7852174D02*
X2863039Y-7899793D01*
X2863039Y-7899793D02*
X2853515Y-7937888D01*
X2853515Y-7937888D02*
X2843991Y-7956936D01*
X2843991Y-7956936D02*
X2834467Y-7966460D01*
X2834467Y-7966460D02*
X2815420Y-7975984D01*
X2815420Y-7975984D02*
X2796372Y-7975984D01*
X2796372Y-7975984D02*
X2777324Y-7966460D01*
X2777324Y-7966460D02*
X2767801Y-7956936D01*
X2767801Y-7956936D02*
X2758277Y-7937888D01*
X2758277Y-7937888D02*
X2748753Y-7899793D01*
X2748753Y-7899793D02*
X2748753Y-7852174D01*
X2748753Y-7852174D02*
X2758277Y-7814079D01*
X2758277Y-7814079D02*
X2767801Y-7795031D01*
X2767801Y-7795031D02*
X2777324Y-7785508D01*
X2777324Y-7785508D02*
X2796372Y-7775984D01*
X2948753Y-7956936D02*
X2958277Y-7966460D01*
X2958277Y-7966460D02*
X2948753Y-7975984D01*
X2948753Y-7975984D02*
X2939229Y-7966460D01*
X2939229Y-7966460D02*
X2948753Y-7956936D01*
X2948753Y-7956936D02*
X2948753Y-7975984D01*
X3129705Y-7775984D02*
X3091610Y-7775984D01*
X3091610Y-7775984D02*
X3072562Y-7785508D01*
X3072562Y-7785508D02*
X3063039Y-7795031D01*
X3063039Y-7795031D02*
X3043991Y-7823603D01*
X3043991Y-7823603D02*
X3034467Y-7861698D01*
X3034467Y-7861698D02*
X3034467Y-7937888D01*
X3034467Y-7937888D02*
X3043991Y-7956936D01*
X3043991Y-7956936D02*
X3053515Y-7966460D01*
X3053515Y-7966460D02*
X3072562Y-7975984D01*
X3072562Y-7975984D02*
X3110658Y-7975984D01*
X3110658Y-7975984D02*
X3129705Y-7966460D01*
X3129705Y-7966460D02*
X3139229Y-7956936D01*
X3139229Y-7956936D02*
X3148753Y-7937888D01*
X3148753Y-7937888D02*
X3148753Y-7890269D01*
X3148753Y-7890269D02*
X3139229Y-7871222D01*
X3139229Y-7871222D02*
X3129705Y-7861698D01*
X3129705Y-7861698D02*
X3110658Y-7852174D01*
X3110658Y-7852174D02*
X3072562Y-7852174D01*
X3072562Y-7852174D02*
X3053515Y-7861698D01*
X3053515Y-7861698D02*
X3043991Y-7871222D01*
X3043991Y-7871222D02*
X3034467Y-7890269D01*
X3272562Y-7775984D02*
X3291610Y-7775984D01*
X3291610Y-7775984D02*
X3310658Y-7785508D01*
X3310658Y-7785508D02*
X3320182Y-7795031D01*
X3320182Y-7795031D02*
X3329705Y-7814079D01*
X3329705Y-7814079D02*
X3339229Y-7852174D01*
X3339229Y-7852174D02*
X3339229Y-7899793D01*
X3339229Y-7899793D02*
X3329705Y-7937888D01*
X3329705Y-7937888D02*
X3320182Y-7956936D01*
X3320182Y-7956936D02*
X3310658Y-7966460D01*
X3310658Y-7966460D02*
X3291610Y-7975984D01*
X3291610Y-7975984D02*
X3272562Y-7975984D01*
X3272562Y-7975984D02*
X3253515Y-7966460D01*
X3253515Y-7966460D02*
X3243991Y-7956936D01*
X3243991Y-7956936D02*
X3234467Y-7937888D01*
X3234467Y-7937888D02*
X3224943Y-7899793D01*
X3224943Y-7899793D02*
X3224943Y-7852174D01*
X3224943Y-7852174D02*
X3234467Y-7814079D01*
X3234467Y-7814079D02*
X3243991Y-7795031D01*
X3243991Y-7795031D02*
X3253515Y-7785508D01*
X3253515Y-7785508D02*
X3272562Y-7775984D01*
X3463039Y-7775984D02*
X3482086Y-7775984D01*
X3482086Y-7775984D02*
X3501134Y-7785508D01*
X3501134Y-7785508D02*
X3510658Y-7795031D01*
X3510658Y-7795031D02*
X3520182Y-7814079D01*
X3520182Y-7814079D02*
X3529705Y-7852174D01*
X3529705Y-7852174D02*
X3529705Y-7899793D01*
X3529705Y-7899793D02*
X3520182Y-7937888D01*
X3520182Y-7937888D02*
X3510658Y-7956936D01*
X3510658Y-7956936D02*
X3501134Y-7966460D01*
X3501134Y-7966460D02*
X3482086Y-7975984D01*
X3482086Y-7975984D02*
X3463039Y-7975984D01*
X3463039Y-7975984D02*
X3443991Y-7966460D01*
X3443991Y-7966460D02*
X3434467Y-7956936D01*
X3434467Y-7956936D02*
X3424943Y-7937888D01*
X3424943Y-7937888D02*
X3415420Y-7899793D01*
X3415420Y-7899793D02*
X3415420Y-7852174D01*
X3415420Y-7852174D02*
X3424943Y-7814079D01*
X3424943Y-7814079D02*
X3434467Y-7795031D01*
X3434467Y-7795031D02*
X3443991Y-7785508D01*
X3443991Y-7785508D02*
X3463039Y-7775984D01*
X3615420Y-7975984D02*
X3615420Y-7842650D01*
X3615420Y-7861698D02*
X3624943Y-7852174D01*
X3624943Y-7852174D02*
X3643991Y-7842650D01*
X3643991Y-7842650D02*
X3672563Y-7842650D01*
X3672563Y-7842650D02*
X3691610Y-7852174D01*
X3691610Y-7852174D02*
X3701134Y-7871222D01*
X3701134Y-7871222D02*
X3701134Y-7975984D01*
X3701134Y-7871222D02*
X3710658Y-7852174D01*
X3710658Y-7852174D02*
X3729705Y-7842650D01*
X3729705Y-7842650D02*
X3758277Y-7842650D01*
X3758277Y-7842650D02*
X3777324Y-7852174D01*
X3777324Y-7852174D02*
X3786848Y-7871222D01*
X3786848Y-7871222D02*
X3786848Y-7975984D01*
X3882086Y-7975984D02*
X3882086Y-7842650D01*
X3882086Y-7861698D02*
X3891610Y-7852174D01*
X3891610Y-7852174D02*
X3910658Y-7842650D01*
X3910658Y-7842650D02*
X3939229Y-7842650D01*
X3939229Y-7842650D02*
X3958277Y-7852174D01*
X3958277Y-7852174D02*
X3967801Y-7871222D01*
X3967801Y-7871222D02*
X3967801Y-7975984D01*
X3967801Y-7871222D02*
X3977324Y-7852174D01*
X3977324Y-7852174D02*
X3996372Y-7842650D01*
X3996372Y-7842650D02*
X4024943Y-7842650D01*
X4024943Y-7842650D02*
X4043991Y-7852174D01*
X4043991Y-7852174D02*
X4053515Y-7871222D01*
X4053515Y-7871222D02*
X4053515Y-7975984D01*
X4443991Y-7766460D02*
X4272563Y-8023603D01*
X4701134Y-7775984D02*
X4720182Y-7775984D01*
X4720182Y-7775984D02*
X4739229Y-7785508D01*
X4739229Y-7785508D02*
X4748753Y-7795031D01*
X4748753Y-7795031D02*
X4758277Y-7814079D01*
X4758277Y-7814079D02*
X4767801Y-7852174D01*
X4767801Y-7852174D02*
X4767801Y-7899793D01*
X4767801Y-7899793D02*
X4758277Y-7937888D01*
X4758277Y-7937888D02*
X4748753Y-7956936D01*
X4748753Y-7956936D02*
X4739229Y-7966460D01*
X4739229Y-7966460D02*
X4720182Y-7975984D01*
X4720182Y-7975984D02*
X4701134Y-7975984D01*
X4701134Y-7975984D02*
X4682087Y-7966460D01*
X4682087Y-7966460D02*
X4672563Y-7956936D01*
X4672563Y-7956936D02*
X4663039Y-7937888D01*
X4663039Y-7937888D02*
X4653515Y-7899793D01*
X4653515Y-7899793D02*
X4653515Y-7852174D01*
X4653515Y-7852174D02*
X4663039Y-7814079D01*
X4663039Y-7814079D02*
X4672563Y-7795031D01*
X4672563Y-7795031D02*
X4682087Y-7785508D01*
X4682087Y-7785508D02*
X4701134Y-7775984D01*
X4853515Y-7956936D02*
X4863039Y-7966460D01*
X4863039Y-7966460D02*
X4853515Y-7975984D01*
X4853515Y-7975984D02*
X4843991Y-7966460D01*
X4843991Y-7966460D02*
X4853515Y-7956936D01*
X4853515Y-7956936D02*
X4853515Y-7975984D01*
X4986848Y-7775984D02*
X5005896Y-7775984D01*
X5005896Y-7775984D02*
X5024944Y-7785508D01*
X5024944Y-7785508D02*
X5034468Y-7795031D01*
X5034468Y-7795031D02*
X5043991Y-7814079D01*
X5043991Y-7814079D02*
X5053515Y-7852174D01*
X5053515Y-7852174D02*
X5053515Y-7899793D01*
X5053515Y-7899793D02*
X5043991Y-7937888D01*
X5043991Y-7937888D02*
X5034468Y-7956936D01*
X5034468Y-7956936D02*
X5024944Y-7966460D01*
X5024944Y-7966460D02*
X5005896Y-7975984D01*
X5005896Y-7975984D02*
X4986848Y-7975984D01*
X4986848Y-7975984D02*
X4967801Y-7966460D01*
X4967801Y-7966460D02*
X4958277Y-7956936D01*
X4958277Y-7956936D02*
X4948753Y-7937888D01*
X4948753Y-7937888D02*
X4939229Y-7899793D01*
X4939229Y-7899793D02*
X4939229Y-7852174D01*
X4939229Y-7852174D02*
X4948753Y-7814079D01*
X4948753Y-7814079D02*
X4958277Y-7795031D01*
X4958277Y-7795031D02*
X4967801Y-7785508D01*
X4967801Y-7785508D02*
X4986848Y-7775984D01*
X5129706Y-7795031D02*
X5139229Y-7785508D01*
X5139229Y-7785508D02*
X5158277Y-7775984D01*
X5158277Y-7775984D02*
X5205896Y-7775984D01*
X5205896Y-7775984D02*
X5224944Y-7785508D01*
X5224944Y-7785508D02*
X5234468Y-7795031D01*
X5234468Y-7795031D02*
X5243991Y-7814079D01*
X5243991Y-7814079D02*
X5243991Y-7833127D01*
X5243991Y-7833127D02*
X5234468Y-7861698D01*
X5234468Y-7861698D02*
X5120182Y-7975984D01*
X5120182Y-7975984D02*
X5243991Y-7975984D01*
X5310658Y-7775984D02*
X5434468Y-7775984D01*
X5434468Y-7775984D02*
X5367801Y-7852174D01*
X5367801Y-7852174D02*
X5396372Y-7852174D01*
X5396372Y-7852174D02*
X5415420Y-7861698D01*
X5415420Y-7861698D02*
X5424944Y-7871222D01*
X5424944Y-7871222D02*
X5434468Y-7890269D01*
X5434468Y-7890269D02*
X5434468Y-7937888D01*
X5434468Y-7937888D02*
X5424944Y-7956936D01*
X5424944Y-7956936D02*
X5415420Y-7966460D01*
X5415420Y-7966460D02*
X5396372Y-7975984D01*
X5396372Y-7975984D02*
X5339229Y-7975984D01*
X5339229Y-7975984D02*
X5320182Y-7966460D01*
X5320182Y-7966460D02*
X5310658Y-7956936D01*
X5605896Y-7775984D02*
X5567801Y-7775984D01*
X5567801Y-7775984D02*
X5548753Y-7785508D01*
X5548753Y-7785508D02*
X5539229Y-7795031D01*
X5539229Y-7795031D02*
X5520182Y-7823603D01*
X5520182Y-7823603D02*
X5510658Y-7861698D01*
X5510658Y-7861698D02*
X5510658Y-7937888D01*
X5510658Y-7937888D02*
X5520182Y-7956936D01*
X5520182Y-7956936D02*
X5529706Y-7966460D01*
X5529706Y-7966460D02*
X5548753Y-7975984D01*
X5548753Y-7975984D02*
X5586849Y-7975984D01*
X5586849Y-7975984D02*
X5605896Y-7966460D01*
X5605896Y-7966460D02*
X5615420Y-7956936D01*
X5615420Y-7956936D02*
X5624944Y-7937888D01*
X5624944Y-7937888D02*
X5624944Y-7890269D01*
X5624944Y-7890269D02*
X5615420Y-7871222D01*
X5615420Y-7871222D02*
X5605896Y-7861698D01*
X5605896Y-7861698D02*
X5586849Y-7852174D01*
X5586849Y-7852174D02*
X5548753Y-7852174D01*
X5548753Y-7852174D02*
X5529706Y-7861698D01*
X5529706Y-7861698D02*
X5520182Y-7871222D01*
X5520182Y-7871222D02*
X5510658Y-7890269D01*
X5701134Y-7775984D02*
X5701134Y-7814079D01*
X5777325Y-7775984D02*
X5777325Y-7814079D01*
X6072563Y-8052174D02*
X6063039Y-8042650D01*
X6063039Y-8042650D02*
X6043991Y-8014079D01*
X6043991Y-8014079D02*
X6034468Y-7995031D01*
X6034468Y-7995031D02*
X6024944Y-7966460D01*
X6024944Y-7966460D02*
X6015420Y-7918841D01*
X6015420Y-7918841D02*
X6015420Y-7880746D01*
X6015420Y-7880746D02*
X6024944Y-7833127D01*
X6024944Y-7833127D02*
X6034468Y-7804555D01*
X6034468Y-7804555D02*
X6043991Y-7785508D01*
X6043991Y-7785508D02*
X6063039Y-7756936D01*
X6063039Y-7756936D02*
X6072563Y-7747412D01*
X6186848Y-7775984D02*
X6205896Y-7775984D01*
X6205896Y-7775984D02*
X6224944Y-7785508D01*
X6224944Y-7785508D02*
X6234468Y-7795031D01*
X6234468Y-7795031D02*
X6243991Y-7814079D01*
X6243991Y-7814079D02*
X6253515Y-7852174D01*
X6253515Y-7852174D02*
X6253515Y-7899793D01*
X6253515Y-7899793D02*
X6243991Y-7937888D01*
X6243991Y-7937888D02*
X6234468Y-7956936D01*
X6234468Y-7956936D02*
X6224944Y-7966460D01*
X6224944Y-7966460D02*
X6205896Y-7975984D01*
X6205896Y-7975984D02*
X6186848Y-7975984D01*
X6186848Y-7975984D02*
X6167801Y-7966460D01*
X6167801Y-7966460D02*
X6158277Y-7956936D01*
X6158277Y-7956936D02*
X6148753Y-7937888D01*
X6148753Y-7937888D02*
X6139229Y-7899793D01*
X6139229Y-7899793D02*
X6139229Y-7852174D01*
X6139229Y-7852174D02*
X6148753Y-7814079D01*
X6148753Y-7814079D02*
X6158277Y-7795031D01*
X6158277Y-7795031D02*
X6167801Y-7785508D01*
X6167801Y-7785508D02*
X6186848Y-7775984D01*
X6491610Y-7975984D02*
X6491610Y-7775984D01*
X6577325Y-7975984D02*
X6577325Y-7871222D01*
X6577325Y-7871222D02*
X6567801Y-7852174D01*
X6567801Y-7852174D02*
X6548753Y-7842650D01*
X6548753Y-7842650D02*
X6520182Y-7842650D01*
X6520182Y-7842650D02*
X6501134Y-7852174D01*
X6501134Y-7852174D02*
X6491610Y-7861698D01*
X6701134Y-7975984D02*
X6682087Y-7966460D01*
X6682087Y-7966460D02*
X6672563Y-7956936D01*
X6672563Y-7956936D02*
X6663039Y-7937888D01*
X6663039Y-7937888D02*
X6663039Y-7880746D01*
X6663039Y-7880746D02*
X6672563Y-7861698D01*
X6672563Y-7861698D02*
X6682087Y-7852174D01*
X6682087Y-7852174D02*
X6701134Y-7842650D01*
X6701134Y-7842650D02*
X6729706Y-7842650D01*
X6729706Y-7842650D02*
X6748753Y-7852174D01*
X6748753Y-7852174D02*
X6758277Y-7861698D01*
X6758277Y-7861698D02*
X6767801Y-7880746D01*
X6767801Y-7880746D02*
X6767801Y-7937888D01*
X6767801Y-7937888D02*
X6758277Y-7956936D01*
X6758277Y-7956936D02*
X6748753Y-7966460D01*
X6748753Y-7966460D02*
X6729706Y-7975984D01*
X6729706Y-7975984D02*
X6701134Y-7975984D01*
X6882087Y-7975984D02*
X6863039Y-7966460D01*
X6863039Y-7966460D02*
X6853515Y-7947412D01*
X6853515Y-7947412D02*
X6853515Y-7775984D01*
X7034468Y-7966460D02*
X7015420Y-7975984D01*
X7015420Y-7975984D02*
X6977325Y-7975984D01*
X6977325Y-7975984D02*
X6958277Y-7966460D01*
X6958277Y-7966460D02*
X6948753Y-7947412D01*
X6948753Y-7947412D02*
X6948753Y-7871222D01*
X6948753Y-7871222D02*
X6958277Y-7852174D01*
X6958277Y-7852174D02*
X6977325Y-7842650D01*
X6977325Y-7842650D02*
X7015420Y-7842650D01*
X7015420Y-7842650D02*
X7034468Y-7852174D01*
X7034468Y-7852174D02*
X7043991Y-7871222D01*
X7043991Y-7871222D02*
X7043991Y-7890269D01*
X7043991Y-7890269D02*
X6948753Y-7909317D01*
X7120182Y-7966460D02*
X7139230Y-7975984D01*
X7139230Y-7975984D02*
X7177325Y-7975984D01*
X7177325Y-7975984D02*
X7196372Y-7966460D01*
X7196372Y-7966460D02*
X7205896Y-7947412D01*
X7205896Y-7947412D02*
X7205896Y-7937888D01*
X7205896Y-7937888D02*
X7196372Y-7918841D01*
X7196372Y-7918841D02*
X7177325Y-7909317D01*
X7177325Y-7909317D02*
X7148753Y-7909317D01*
X7148753Y-7909317D02*
X7129706Y-7899793D01*
X7129706Y-7899793D02*
X7120182Y-7880746D01*
X7120182Y-7880746D02*
X7120182Y-7871222D01*
X7120182Y-7871222D02*
X7129706Y-7852174D01*
X7129706Y-7852174D02*
X7148753Y-7842650D01*
X7148753Y-7842650D02*
X7177325Y-7842650D01*
X7177325Y-7842650D02*
X7196372Y-7852174D01*
X7443992Y-7899793D02*
X7596373Y-7899793D01*
X7520182Y-7975984D02*
X7520182Y-7823603D01*
X7929706Y-7842650D02*
X7929706Y-7975984D01*
X7882087Y-7766460D02*
X7834468Y-7909317D01*
X7834468Y-7909317D02*
X7958277Y-7909317D01*
X8177325Y-7966460D02*
X8196373Y-7975984D01*
X8196373Y-7975984D02*
X8234468Y-7975984D01*
X8234468Y-7975984D02*
X8253515Y-7966460D01*
X8253515Y-7966460D02*
X8263039Y-7947412D01*
X8263039Y-7947412D02*
X8263039Y-7937888D01*
X8263039Y-7937888D02*
X8253515Y-7918841D01*
X8253515Y-7918841D02*
X8234468Y-7909317D01*
X8234468Y-7909317D02*
X8205896Y-7909317D01*
X8205896Y-7909317D02*
X8186849Y-7899793D01*
X8186849Y-7899793D02*
X8177325Y-7880746D01*
X8177325Y-7880746D02*
X8177325Y-7871222D01*
X8177325Y-7871222D02*
X8186849Y-7852174D01*
X8186849Y-7852174D02*
X8205896Y-7842650D01*
X8205896Y-7842650D02*
X8234468Y-7842650D01*
X8234468Y-7842650D02*
X8253515Y-7852174D01*
X8377325Y-7975984D02*
X8358277Y-7966460D01*
X8358277Y-7966460D02*
X8348754Y-7947412D01*
X8348754Y-7947412D02*
X8348754Y-7775984D01*
X8482087Y-7975984D02*
X8463039Y-7966460D01*
X8463039Y-7966460D02*
X8453516Y-7956936D01*
X8453516Y-7956936D02*
X8443992Y-7937888D01*
X8443992Y-7937888D02*
X8443992Y-7880746D01*
X8443992Y-7880746D02*
X8453516Y-7861698D01*
X8453516Y-7861698D02*
X8463039Y-7852174D01*
X8463039Y-7852174D02*
X8482087Y-7842650D01*
X8482087Y-7842650D02*
X8510658Y-7842650D01*
X8510658Y-7842650D02*
X8529706Y-7852174D01*
X8529706Y-7852174D02*
X8539230Y-7861698D01*
X8539230Y-7861698D02*
X8548754Y-7880746D01*
X8548754Y-7880746D02*
X8548754Y-7937888D01*
X8548754Y-7937888D02*
X8539230Y-7956936D01*
X8539230Y-7956936D02*
X8529706Y-7966460D01*
X8529706Y-7966460D02*
X8510658Y-7975984D01*
X8510658Y-7975984D02*
X8482087Y-7975984D01*
X8605897Y-7842650D02*
X8682087Y-7842650D01*
X8634468Y-7775984D02*
X8634468Y-7947412D01*
X8634468Y-7947412D02*
X8643992Y-7966460D01*
X8643992Y-7966460D02*
X8663039Y-7975984D01*
X8663039Y-7975984D02*
X8682087Y-7975984D01*
X8739230Y-7966460D02*
X8758277Y-7975984D01*
X8758277Y-7975984D02*
X8796373Y-7975984D01*
X8796373Y-7975984D02*
X8815420Y-7966460D01*
X8815420Y-7966460D02*
X8824944Y-7947412D01*
X8824944Y-7947412D02*
X8824944Y-7937888D01*
X8824944Y-7937888D02*
X8815420Y-7918841D01*
X8815420Y-7918841D02*
X8796373Y-7909317D01*
X8796373Y-7909317D02*
X8767801Y-7909317D01*
X8767801Y-7909317D02*
X8748754Y-7899793D01*
X8748754Y-7899793D02*
X8739230Y-7880746D01*
X8739230Y-7880746D02*
X8739230Y-7871222D01*
X8739230Y-7871222D02*
X8748754Y-7852174D01*
X8748754Y-7852174D02*
X8767801Y-7842650D01*
X8767801Y-7842650D02*
X8796373Y-7842650D01*
X8796373Y-7842650D02*
X8815420Y-7852174D01*
X8891611Y-8052174D02*
X8901135Y-8042650D01*
X8901135Y-8042650D02*
X8920182Y-8014079D01*
X8920182Y-8014079D02*
X8929706Y-7995031D01*
X8929706Y-7995031D02*
X8939230Y-7966460D01*
X8939230Y-7966460D02*
X8948754Y-7918841D01*
X8948754Y-7918841D02*
X8948754Y-7880746D01*
X8948754Y-7880746D02*
X8939230Y-7833127D01*
X8939230Y-7833127D02*
X8929706Y-7804555D01*
X8929706Y-7804555D02*
X8920182Y-7785508D01*
X8920182Y-7785508D02*
X8901135Y-7756936D01*
X8901135Y-7756936D02*
X8891611Y-7747412D01*
D16*
X2447500Y-8198500D02*
X2497500Y-8148500D01*
X2447500Y-8098500D01*
X2397500Y-8148500D01*
X2447500Y-8198500D01*
D11*
X2863039Y-8239984D02*
X2748753Y-8239984D01*
X2805896Y-8239984D02*
X2805896Y-8039984D01*
X2805896Y-8039984D02*
X2786848Y-8068555D01*
X2786848Y-8068555D02*
X2767801Y-8087603D01*
X2767801Y-8087603D02*
X2748753Y-8097127D01*
X2948753Y-8220936D02*
X2958277Y-8230460D01*
X2958277Y-8230460D02*
X2948753Y-8239984D01*
X2948753Y-8239984D02*
X2939229Y-8230460D01*
X2939229Y-8230460D02*
X2948753Y-8220936D01*
X2948753Y-8220936D02*
X2948753Y-8239984D01*
X3082086Y-8039984D02*
X3101134Y-8039984D01*
X3101134Y-8039984D02*
X3120182Y-8049508D01*
X3120182Y-8049508D02*
X3129705Y-8059031D01*
X3129705Y-8059031D02*
X3139229Y-8078079D01*
X3139229Y-8078079D02*
X3148753Y-8116174D01*
X3148753Y-8116174D02*
X3148753Y-8163793D01*
X3148753Y-8163793D02*
X3139229Y-8201888D01*
X3139229Y-8201888D02*
X3129705Y-8220936D01*
X3129705Y-8220936D02*
X3120182Y-8230460D01*
X3120182Y-8230460D02*
X3101134Y-8239984D01*
X3101134Y-8239984D02*
X3082086Y-8239984D01*
X3082086Y-8239984D02*
X3063039Y-8230460D01*
X3063039Y-8230460D02*
X3053515Y-8220936D01*
X3053515Y-8220936D02*
X3043991Y-8201888D01*
X3043991Y-8201888D02*
X3034467Y-8163793D01*
X3034467Y-8163793D02*
X3034467Y-8116174D01*
X3034467Y-8116174D02*
X3043991Y-8078079D01*
X3043991Y-8078079D02*
X3053515Y-8059031D01*
X3053515Y-8059031D02*
X3063039Y-8049508D01*
X3063039Y-8049508D02*
X3082086Y-8039984D01*
X3272562Y-8039984D02*
X3291610Y-8039984D01*
X3291610Y-8039984D02*
X3310658Y-8049508D01*
X3310658Y-8049508D02*
X3320182Y-8059031D01*
X3320182Y-8059031D02*
X3329705Y-8078079D01*
X3329705Y-8078079D02*
X3339229Y-8116174D01*
X3339229Y-8116174D02*
X3339229Y-8163793D01*
X3339229Y-8163793D02*
X3329705Y-8201888D01*
X3329705Y-8201888D02*
X3320182Y-8220936D01*
X3320182Y-8220936D02*
X3310658Y-8230460D01*
X3310658Y-8230460D02*
X3291610Y-8239984D01*
X3291610Y-8239984D02*
X3272562Y-8239984D01*
X3272562Y-8239984D02*
X3253515Y-8230460D01*
X3253515Y-8230460D02*
X3243991Y-8220936D01*
X3243991Y-8220936D02*
X3234467Y-8201888D01*
X3234467Y-8201888D02*
X3224943Y-8163793D01*
X3224943Y-8163793D02*
X3224943Y-8116174D01*
X3224943Y-8116174D02*
X3234467Y-8078079D01*
X3234467Y-8078079D02*
X3243991Y-8059031D01*
X3243991Y-8059031D02*
X3253515Y-8049508D01*
X3253515Y-8049508D02*
X3272562Y-8039984D01*
X3463039Y-8039984D02*
X3482086Y-8039984D01*
X3482086Y-8039984D02*
X3501134Y-8049508D01*
X3501134Y-8049508D02*
X3510658Y-8059031D01*
X3510658Y-8059031D02*
X3520182Y-8078079D01*
X3520182Y-8078079D02*
X3529705Y-8116174D01*
X3529705Y-8116174D02*
X3529705Y-8163793D01*
X3529705Y-8163793D02*
X3520182Y-8201888D01*
X3520182Y-8201888D02*
X3510658Y-8220936D01*
X3510658Y-8220936D02*
X3501134Y-8230460D01*
X3501134Y-8230460D02*
X3482086Y-8239984D01*
X3482086Y-8239984D02*
X3463039Y-8239984D01*
X3463039Y-8239984D02*
X3443991Y-8230460D01*
X3443991Y-8230460D02*
X3434467Y-8220936D01*
X3434467Y-8220936D02*
X3424943Y-8201888D01*
X3424943Y-8201888D02*
X3415420Y-8163793D01*
X3415420Y-8163793D02*
X3415420Y-8116174D01*
X3415420Y-8116174D02*
X3424943Y-8078079D01*
X3424943Y-8078079D02*
X3434467Y-8059031D01*
X3434467Y-8059031D02*
X3443991Y-8049508D01*
X3443991Y-8049508D02*
X3463039Y-8039984D01*
X3615420Y-8239984D02*
X3615420Y-8106650D01*
X3615420Y-8125698D02*
X3624943Y-8116174D01*
X3624943Y-8116174D02*
X3643991Y-8106650D01*
X3643991Y-8106650D02*
X3672563Y-8106650D01*
X3672563Y-8106650D02*
X3691610Y-8116174D01*
X3691610Y-8116174D02*
X3701134Y-8135222D01*
X3701134Y-8135222D02*
X3701134Y-8239984D01*
X3701134Y-8135222D02*
X3710658Y-8116174D01*
X3710658Y-8116174D02*
X3729705Y-8106650D01*
X3729705Y-8106650D02*
X3758277Y-8106650D01*
X3758277Y-8106650D02*
X3777324Y-8116174D01*
X3777324Y-8116174D02*
X3786848Y-8135222D01*
X3786848Y-8135222D02*
X3786848Y-8239984D01*
X3882086Y-8239984D02*
X3882086Y-8106650D01*
X3882086Y-8125698D02*
X3891610Y-8116174D01*
X3891610Y-8116174D02*
X3910658Y-8106650D01*
X3910658Y-8106650D02*
X3939229Y-8106650D01*
X3939229Y-8106650D02*
X3958277Y-8116174D01*
X3958277Y-8116174D02*
X3967801Y-8135222D01*
X3967801Y-8135222D02*
X3967801Y-8239984D01*
X3967801Y-8135222D02*
X3977324Y-8116174D01*
X3977324Y-8116174D02*
X3996372Y-8106650D01*
X3996372Y-8106650D02*
X4024943Y-8106650D01*
X4024943Y-8106650D02*
X4043991Y-8116174D01*
X4043991Y-8116174D02*
X4053515Y-8135222D01*
X4053515Y-8135222D02*
X4053515Y-8239984D01*
X4443991Y-8030460D02*
X4272563Y-8287603D01*
X4701134Y-8039984D02*
X4720182Y-8039984D01*
X4720182Y-8039984D02*
X4739229Y-8049508D01*
X4739229Y-8049508D02*
X4748753Y-8059031D01*
X4748753Y-8059031D02*
X4758277Y-8078079D01*
X4758277Y-8078079D02*
X4767801Y-8116174D01*
X4767801Y-8116174D02*
X4767801Y-8163793D01*
X4767801Y-8163793D02*
X4758277Y-8201888D01*
X4758277Y-8201888D02*
X4748753Y-8220936D01*
X4748753Y-8220936D02*
X4739229Y-8230460D01*
X4739229Y-8230460D02*
X4720182Y-8239984D01*
X4720182Y-8239984D02*
X4701134Y-8239984D01*
X4701134Y-8239984D02*
X4682087Y-8230460D01*
X4682087Y-8230460D02*
X4672563Y-8220936D01*
X4672563Y-8220936D02*
X4663039Y-8201888D01*
X4663039Y-8201888D02*
X4653515Y-8163793D01*
X4653515Y-8163793D02*
X4653515Y-8116174D01*
X4653515Y-8116174D02*
X4663039Y-8078079D01*
X4663039Y-8078079D02*
X4672563Y-8059031D01*
X4672563Y-8059031D02*
X4682087Y-8049508D01*
X4682087Y-8049508D02*
X4701134Y-8039984D01*
X4853515Y-8220936D02*
X4863039Y-8230460D01*
X4863039Y-8230460D02*
X4853515Y-8239984D01*
X4853515Y-8239984D02*
X4843991Y-8230460D01*
X4843991Y-8230460D02*
X4853515Y-8220936D01*
X4853515Y-8220936D02*
X4853515Y-8239984D01*
X4986848Y-8039984D02*
X5005896Y-8039984D01*
X5005896Y-8039984D02*
X5024944Y-8049508D01*
X5024944Y-8049508D02*
X5034468Y-8059031D01*
X5034468Y-8059031D02*
X5043991Y-8078079D01*
X5043991Y-8078079D02*
X5053515Y-8116174D01*
X5053515Y-8116174D02*
X5053515Y-8163793D01*
X5053515Y-8163793D02*
X5043991Y-8201888D01*
X5043991Y-8201888D02*
X5034468Y-8220936D01*
X5034468Y-8220936D02*
X5024944Y-8230460D01*
X5024944Y-8230460D02*
X5005896Y-8239984D01*
X5005896Y-8239984D02*
X4986848Y-8239984D01*
X4986848Y-8239984D02*
X4967801Y-8230460D01*
X4967801Y-8230460D02*
X4958277Y-8220936D01*
X4958277Y-8220936D02*
X4948753Y-8201888D01*
X4948753Y-8201888D02*
X4939229Y-8163793D01*
X4939229Y-8163793D02*
X4939229Y-8116174D01*
X4939229Y-8116174D02*
X4948753Y-8078079D01*
X4948753Y-8078079D02*
X4958277Y-8059031D01*
X4958277Y-8059031D02*
X4967801Y-8049508D01*
X4967801Y-8049508D02*
X4986848Y-8039984D01*
X5120182Y-8039984D02*
X5243991Y-8039984D01*
X5243991Y-8039984D02*
X5177325Y-8116174D01*
X5177325Y-8116174D02*
X5205896Y-8116174D01*
X5205896Y-8116174D02*
X5224944Y-8125698D01*
X5224944Y-8125698D02*
X5234468Y-8135222D01*
X5234468Y-8135222D02*
X5243991Y-8154269D01*
X5243991Y-8154269D02*
X5243991Y-8201888D01*
X5243991Y-8201888D02*
X5234468Y-8220936D01*
X5234468Y-8220936D02*
X5224944Y-8230460D01*
X5224944Y-8230460D02*
X5205896Y-8239984D01*
X5205896Y-8239984D02*
X5148753Y-8239984D01*
X5148753Y-8239984D02*
X5129706Y-8230460D01*
X5129706Y-8230460D02*
X5120182Y-8220936D01*
X5339229Y-8239984D02*
X5377325Y-8239984D01*
X5377325Y-8239984D02*
X5396372Y-8230460D01*
X5396372Y-8230460D02*
X5405896Y-8220936D01*
X5405896Y-8220936D02*
X5424944Y-8192365D01*
X5424944Y-8192365D02*
X5434468Y-8154269D01*
X5434468Y-8154269D02*
X5434468Y-8078079D01*
X5434468Y-8078079D02*
X5424944Y-8059031D01*
X5424944Y-8059031D02*
X5415420Y-8049508D01*
X5415420Y-8049508D02*
X5396372Y-8039984D01*
X5396372Y-8039984D02*
X5358277Y-8039984D01*
X5358277Y-8039984D02*
X5339229Y-8049508D01*
X5339229Y-8049508D02*
X5329706Y-8059031D01*
X5329706Y-8059031D02*
X5320182Y-8078079D01*
X5320182Y-8078079D02*
X5320182Y-8125698D01*
X5320182Y-8125698D02*
X5329706Y-8144746D01*
X5329706Y-8144746D02*
X5339229Y-8154269D01*
X5339229Y-8154269D02*
X5358277Y-8163793D01*
X5358277Y-8163793D02*
X5396372Y-8163793D01*
X5396372Y-8163793D02*
X5415420Y-8154269D01*
X5415420Y-8154269D02*
X5424944Y-8144746D01*
X5424944Y-8144746D02*
X5434468Y-8125698D01*
X5605896Y-8106650D02*
X5605896Y-8239984D01*
X5558277Y-8030460D02*
X5510658Y-8173317D01*
X5510658Y-8173317D02*
X5634467Y-8173317D01*
X5701134Y-8039984D02*
X5701134Y-8078079D01*
X5777325Y-8039984D02*
X5777325Y-8078079D01*
X6072563Y-8316174D02*
X6063039Y-8306650D01*
X6063039Y-8306650D02*
X6043991Y-8278079D01*
X6043991Y-8278079D02*
X6034468Y-8259031D01*
X6034468Y-8259031D02*
X6024944Y-8230460D01*
X6024944Y-8230460D02*
X6015420Y-8182841D01*
X6015420Y-8182841D02*
X6015420Y-8144746D01*
X6015420Y-8144746D02*
X6024944Y-8097127D01*
X6024944Y-8097127D02*
X6034468Y-8068555D01*
X6034468Y-8068555D02*
X6043991Y-8049508D01*
X6043991Y-8049508D02*
X6063039Y-8020936D01*
X6063039Y-8020936D02*
X6072563Y-8011412D01*
X6129706Y-8039984D02*
X6253515Y-8039984D01*
X6253515Y-8039984D02*
X6186848Y-8116174D01*
X6186848Y-8116174D02*
X6215420Y-8116174D01*
X6215420Y-8116174D02*
X6234468Y-8125698D01*
X6234468Y-8125698D02*
X6243991Y-8135222D01*
X6243991Y-8135222D02*
X6253515Y-8154269D01*
X6253515Y-8154269D02*
X6253515Y-8201888D01*
X6253515Y-8201888D02*
X6243991Y-8220936D01*
X6243991Y-8220936D02*
X6234468Y-8230460D01*
X6234468Y-8230460D02*
X6215420Y-8239984D01*
X6215420Y-8239984D02*
X6158277Y-8239984D01*
X6158277Y-8239984D02*
X6139229Y-8230460D01*
X6139229Y-8230460D02*
X6129706Y-8220936D01*
X6348753Y-8239984D02*
X6386848Y-8239984D01*
X6386848Y-8239984D02*
X6405896Y-8230460D01*
X6405896Y-8230460D02*
X6415420Y-8220936D01*
X6415420Y-8220936D02*
X6434468Y-8192365D01*
X6434468Y-8192365D02*
X6443991Y-8154269D01*
X6443991Y-8154269D02*
X6443991Y-8078079D01*
X6443991Y-8078079D02*
X6434468Y-8059031D01*
X6434468Y-8059031D02*
X6424944Y-8049508D01*
X6424944Y-8049508D02*
X6405896Y-8039984D01*
X6405896Y-8039984D02*
X6367801Y-8039984D01*
X6367801Y-8039984D02*
X6348753Y-8049508D01*
X6348753Y-8049508D02*
X6339229Y-8059031D01*
X6339229Y-8059031D02*
X6329706Y-8078079D01*
X6329706Y-8078079D02*
X6329706Y-8125698D01*
X6329706Y-8125698D02*
X6339229Y-8144746D01*
X6339229Y-8144746D02*
X6348753Y-8154269D01*
X6348753Y-8154269D02*
X6367801Y-8163793D01*
X6367801Y-8163793D02*
X6405896Y-8163793D01*
X6405896Y-8163793D02*
X6424944Y-8154269D01*
X6424944Y-8154269D02*
X6434468Y-8144746D01*
X6434468Y-8144746D02*
X6443991Y-8125698D01*
X6682087Y-8239984D02*
X6682087Y-8039984D01*
X6767801Y-8239984D02*
X6767801Y-8135222D01*
X6767801Y-8135222D02*
X6758277Y-8116174D01*
X6758277Y-8116174D02*
X6739230Y-8106650D01*
X6739230Y-8106650D02*
X6710658Y-8106650D01*
X6710658Y-8106650D02*
X6691610Y-8116174D01*
X6691610Y-8116174D02*
X6682087Y-8125698D01*
X6891610Y-8239984D02*
X6872563Y-8230460D01*
X6872563Y-8230460D02*
X6863039Y-8220936D01*
X6863039Y-8220936D02*
X6853515Y-8201888D01*
X6853515Y-8201888D02*
X6853515Y-8144746D01*
X6853515Y-8144746D02*
X6863039Y-8125698D01*
X6863039Y-8125698D02*
X6872563Y-8116174D01*
X6872563Y-8116174D02*
X6891610Y-8106650D01*
X6891610Y-8106650D02*
X6920182Y-8106650D01*
X6920182Y-8106650D02*
X6939230Y-8116174D01*
X6939230Y-8116174D02*
X6948753Y-8125698D01*
X6948753Y-8125698D02*
X6958277Y-8144746D01*
X6958277Y-8144746D02*
X6958277Y-8201888D01*
X6958277Y-8201888D02*
X6948753Y-8220936D01*
X6948753Y-8220936D02*
X6939230Y-8230460D01*
X6939230Y-8230460D02*
X6920182Y-8239984D01*
X6920182Y-8239984D02*
X6891610Y-8239984D01*
X7072563Y-8239984D02*
X7053515Y-8230460D01*
X7053515Y-8230460D02*
X7043991Y-8211412D01*
X7043991Y-8211412D02*
X7043991Y-8039984D01*
X7224944Y-8230460D02*
X7205896Y-8239984D01*
X7205896Y-8239984D02*
X7167801Y-8239984D01*
X7167801Y-8239984D02*
X7148753Y-8230460D01*
X7148753Y-8230460D02*
X7139230Y-8211412D01*
X7139230Y-8211412D02*
X7139230Y-8135222D01*
X7139230Y-8135222D02*
X7148753Y-8116174D01*
X7148753Y-8116174D02*
X7167801Y-8106650D01*
X7167801Y-8106650D02*
X7205896Y-8106650D01*
X7205896Y-8106650D02*
X7224944Y-8116174D01*
X7224944Y-8116174D02*
X7234468Y-8135222D01*
X7234468Y-8135222D02*
X7234468Y-8154269D01*
X7234468Y-8154269D02*
X7139230Y-8173317D01*
X7310658Y-8230460D02*
X7329706Y-8239984D01*
X7329706Y-8239984D02*
X7367801Y-8239984D01*
X7367801Y-8239984D02*
X7386849Y-8230460D01*
X7386849Y-8230460D02*
X7396372Y-8211412D01*
X7396372Y-8211412D02*
X7396372Y-8201888D01*
X7396372Y-8201888D02*
X7386849Y-8182841D01*
X7386849Y-8182841D02*
X7367801Y-8173317D01*
X7367801Y-8173317D02*
X7339230Y-8173317D01*
X7339230Y-8173317D02*
X7320182Y-8163793D01*
X7320182Y-8163793D02*
X7310658Y-8144746D01*
X7310658Y-8144746D02*
X7310658Y-8135222D01*
X7310658Y-8135222D02*
X7320182Y-8116174D01*
X7320182Y-8116174D02*
X7339230Y-8106650D01*
X7339230Y-8106650D02*
X7367801Y-8106650D01*
X7367801Y-8106650D02*
X7386849Y-8116174D01*
X7463039Y-8316174D02*
X7472563Y-8306650D01*
X7472563Y-8306650D02*
X7491611Y-8278079D01*
X7491611Y-8278079D02*
X7501134Y-8259031D01*
X7501134Y-8259031D02*
X7510658Y-8230460D01*
X7510658Y-8230460D02*
X7520182Y-8182841D01*
X7520182Y-8182841D02*
X7520182Y-8144746D01*
X7520182Y-8144746D02*
X7510658Y-8097127D01*
X7510658Y-8097127D02*
X7501134Y-8068555D01*
X7501134Y-8068555D02*
X7491611Y-8049508D01*
X7491611Y-8049508D02*
X7472563Y-8020936D01*
X7472563Y-8020936D02*
X7463039Y-8011412D01*
M02*
